solid heart-11-heart
 facet normal 0 0 -1
  outer loop
   vertex 59.795806884765625 32.4626579284668 0
   vertex 59.97405242919922 31.5557918548584 0
   vertex 60 31.239999771118164 0
  endloop
 endfacet
 facet normal 0 0 -1
  outer loop
   vertex 58.47121047973633 35.524044036865234 0
   vertex 59.329566955566406 33.84436798095703 0
   vertex 59.795806884765625 32.4626579284668 0
  endloop
 endfacet
 facet normal 0 0 -1
  outer loop
   vertex 55.386138916015625 38.90684509277344 0
   vertex 57.15999984741211 37.286827087402344 0
   vertex 58.47121047973633 35.524044036865234 0
  endloop
 endfacet
 facet normal 0 0 -1
  outer loop
   vertex 50.67543411254883 40.92087936401367 0
   vertex 53.19322967529297 40.17457962036133 0
   vertex 55.386138916015625 38.90684509277344 0
  endloop
 endfacet
 facet normal 0 0 -1
  outer loop
   vertex 45.24292755126953 40.470001220703125 0
   vertex 47.969566345214844 41.034339904785156 0
   vertex 50.67543411254883 40.92087936401367 0
  endloop
 endfacet
 facet normal 0 0 -1
  outer loop
   vertex 40.45537567138672 37.4472770690918 0
   vertex 42.6779670715332 39.24861526489258 0
   vertex 45.24292755126953 40.470001220703125 0
  endloop
 endfacet
 facet normal 0 0 -1
  outer loop
   vertex 37.651344299316406 32.594818115234375 0
   vertex 38.73714828491211 35.18336868286133 0
   vertex 40.45537567138672 37.4472770690918 0
  endloop
 endfacet
 facet normal 0 0 -1
  outer loop
   vertex 37.651344299316406 26.980409622192383 0
   vertex 37.279998779296875 29.81999969482422 0
   vertex 37.651344299316406 32.594818115234375 0
  endloop
 endfacet
 facet normal 0 0 -1
  outer loop
   vertex 40.45537567138672 21.44315528869629 0
   vertex 38.73714828491211 24.16864776611328 0
   vertex 37.651344299316406 26.980409622192383 0
  endloop
 endfacet
 facet normal 0 0 -1
  outer loop
   vertex 45.24292755126953 16.329999923706055 0
   vertex 42.6779670715332 18.829898834228516 0
   vertex 40.45537567138672 21.44315528869629 0
  endloop
 endfacet
 facet normal 0 0 -1
  outer loop
   vertex 50.67543411254883 11.621362686157227 0
   vertex 47.969566345214844 13.93130874633789 0
   vertex 45.24292755126953 16.329999923706055 0
  endloop
 endfacet
 facet normal 0 0 -1
  outer loop
   vertex 56.79999923706055 10 0
   vertex 56.79999923706055 5.712885856628418 0
   vertex 55.386138916015625 7.282721519470215 0
  endloop
 endfacet
 facet normal 0 0 -1
  outer loop
   vertex 64.61386108398438 7.282721519470215 0
   vertex 63.20000076293945 5.712885856628418 0
   vertex 63.20000076293945 10 0
  endloop
 endfacet
 facet normal 0 0 -1
  outer loop
   vertex 74.75707244873047 16.329999923706055 0
   vertex 72.03043365478516 13.93130874633789 0
   vertex 69.32456970214844 11.621362686157227 0
  endloop
 endfacet
 facet normal 0 0 -1
  outer loop
   vertex 79.54462432861328 21.44315528869629 0
   vertex 77.32202911376953 18.829898834228516 0
   vertex 74.75707244873047 16.329999923706055 0
  endloop
 endfacet
 facet normal 0 0 -1
  outer loop
   vertex 82.3486557006836 26.980409622192383 0
   vertex 81.26284790039062 24.16864776611328 0
   vertex 79.54462432861328 21.44315528869629 0
  endloop
 endfacet
 facet normal 0 0 -1
  outer loop
   vertex 82.3486557006836 32.594818115234375 0
   vertex 82.72000122070312 29.81999969482422 0
   vertex 82.3486557006836 26.980409622192383 0
  endloop
 endfacet
 facet normal 0 0 -1
  outer loop
   vertex 79.54462432861328 37.4472770690918 0
   vertex 81.26284790039062 35.18336868286133 0
   vertex 82.3486557006836 32.594818115234375 0
  endloop
 endfacet
 facet normal 0 0 -1
  outer loop
   vertex 74.75707244873047 40.470001220703125 0
   vertex 77.32202911376953 39.24861526489258 0
   vertex 79.54462432861328 37.4472770690918 0
  endloop
 endfacet
 facet normal 0 0 -1
  outer loop
   vertex 69.32456970214844 40.92087936401367 0
   vertex 72.03043365478516 41.034339904785156 0
   vertex 74.75707244873047 40.470001220703125 0
  endloop
 endfacet
 facet normal 0 0 -1
  outer loop
   vertex 64.61386108398438 38.90684509277344 0
   vertex 66.80677032470703 40.17457962036133 0
   vertex 69.32456970214844 40.92087936401367 0
  endloop
 endfacet
 facet normal 0 0 -1
  outer loop
   vertex 61.52878952026367 35.524044036865234 0
   vertex 62.84000015258789 37.286827087402344 0
   vertex 64.61386108398438 38.90684509277344 0
  endloop
 endfacet
 facet normal 0 0 -1
  outer loop
   vertex 60.204193115234375 32.4626579284668 0
   vertex 60.670433044433594 33.84436798095703 0
   vertex 61.52878952026367 35.524044036865234 0
  endloop
 endfacet
 facet normal 0 0 -1
  outer loop
   vertex 60 31.239999771118164 0
   vertex 60.02594757080078 31.5557918548584 0
   vertex 60.204193115234375 32.4626579284668 0
  endloop
 endfacet
 facet normal 0 0 -1
  outer loop
   vertex 58.47121047973633 35.524044036865234 0
   vertex 59.795806884765625 32.4626579284668 0
   vertex 60 31.239999771118164 0
  endloop
 endfacet
 facet normal 0 0 -1
  outer loop
   vertex 50.67543411254883 40.92087936401367 0
   vertex 55.386138916015625 38.90684509277344 0
   vertex 58.47121047973633 35.524044036865234 0
  endloop
 endfacet
 facet normal 0 0 -1
  outer loop
   vertex 40.45537567138672 37.4472770690918 0
   vertex 45.24292755126953 40.470001220703125 0
   vertex 50.67543411254883 40.92087936401367 0
  endloop
 endfacet
 facet normal 0 0 -1
  outer loop
   vertex 37.651344299316406 26.980409622192383 0
   vertex 37.651344299316406 32.594818115234375 0
   vertex 40.45537567138672 37.4472770690918 0
  endloop
 endfacet
 facet normal 0 0 -1
  outer loop
   vertex 45.24292755126953 16.329999923706055 0
   vertex 40.45537567138672 21.44315528869629 0
   vertex 37.651344299316406 26.980409622192383 0
  endloop
 endfacet
 facet normal 0 0 -1
  outer loop
   vertex 56.79999923706055 10 0
   vertex 55.386138916015625 7.282721519470215 0
   vertex 53.19322967529297 9.399053573608398 0
  endloop
 endfacet
 facet normal 0 0 -1
  outer loop
   vertex 66.80677032470703 9.399053573608398 0
   vertex 64.61386108398438 7.282721519470215 0
   vertex 63.20000076293945 10 0
  endloop
 endfacet
 facet normal 0 0 -1
  outer loop
   vertex 79.54462432861328 21.44315528869629 0
   vertex 74.75707244873047 16.329999923706055 0
   vertex 69.32456970214844 11.621362686157227 0
  endloop
 endfacet
 facet normal 0 0 -1
  outer loop
   vertex 82.3486557006836 32.594818115234375 0
   vertex 82.3486557006836 26.980409622192383 0
   vertex 79.54462432861328 21.44315528869629 0
  endloop
 endfacet
 facet normal 0 0 -1
  outer loop
   vertex 74.75707244873047 40.470001220703125 0
   vertex 79.54462432861328 37.4472770690918 0
   vertex 82.3486557006836 32.594818115234375 0
  endloop
 endfacet
 facet normal 0 0 -1
  outer loop
   vertex 64.61386108398438 38.90684509277344 0
   vertex 69.32456970214844 40.92087936401367 0
   vertex 74.75707244873047 40.470001220703125 0
  endloop
 endfacet
 facet normal 0 0 -1
  outer loop
   vertex 60.204193115234375 32.4626579284668 0
   vertex 61.52878952026367 35.524044036865234 0
   vertex 64.61386108398438 38.90684509277344 0
  endloop
 endfacet
 facet normal 0 0 -1
  outer loop
   vertex 50.67543411254883 40.92087936401367 0
   vertex 58.47121047973633 35.524044036865234 0
   vertex 60 31.239999771118164 0
  endloop
 endfacet
 facet normal 0 0 -1
  outer loop
   vertex 37.651344299316406 26.980409622192383 0
   vertex 40.45537567138672 37.4472770690918 0
   vertex 50.67543411254883 40.92087936401367 0
  endloop
 endfacet
 facet normal 0 0 -1
  outer loop
   vertex 50.67543411254883 11.621362686157227 0
   vertex 45.24292755126953 16.329999923706055 0
   vertex 37.651344299316406 26.980409622192383 0
  endloop
 endfacet
 facet normal 0 0 -1
  outer loop
   vertex 56.79999923706055 10 0
   vertex 53.19322967529297 9.399053573608398 0
   vertex 50.67543411254883 11.621362686157227 0
  endloop
 endfacet
 facet normal 0 0 -1
  outer loop
   vertex 69.32456970214844 11.621362686157227 0
   vertex 66.80677032470703 9.399053573608398 0
   vertex 63.20000076293945 10 0
  endloop
 endfacet
 facet normal 0 0 -1
  outer loop
   vertex 82.3486557006836 32.594818115234375 0
   vertex 79.54462432861328 21.44315528869629 0
   vertex 69.32456970214844 11.621362686157227 0
  endloop
 endfacet
 facet normal 0 0 -1
  outer loop
   vertex 64.61386108398438 38.90684509277344 0
   vertex 74.75707244873047 40.470001220703125 0
   vertex 82.3486557006836 32.594818115234375 0
  endloop
 endfacet
 facet normal 0 0 -1
  outer loop
   vertex 60 31.239999771118164 0
   vertex 60.204193115234375 32.4626579284668 0
   vertex 64.61386108398438 38.90684509277344 0
  endloop
 endfacet
 facet normal 0 0 -1
  outer loop
   vertex 37.651344299316406 26.980409622192383 0
   vertex 50.67543411254883 40.92087936401367 0
   vertex 60 31.239999771118164 0
  endloop
 endfacet
 facet normal 0 0 -1
  outer loop
   vertex 56.79999923706055 10 0
   vertex 50.67543411254883 11.621362686157227 0
   vertex 37.651344299316406 26.980409622192383 0
  endloop
 endfacet
 facet normal 0 0 -1
  outer loop
   vertex 69.32456970214844 11.621362686157227 0
   vertex 63.20000076293945 10 0
   vertex 56.79999923706055 10 0
  endloop
 endfacet
 facet normal 0 0 -1
  outer loop
   vertex 64.61386108398438 38.90684509277344 0
   vertex 82.3486557006836 32.594818115234375 0
   vertex 69.32456970214844 11.621362686157227 0
  endloop
 endfacet
 facet normal 0 0 -1
  outer loop
   vertex 56.79999923706055 10 0
   vertex 37.651344299316406 26.980409622192383 0
   vertex 60 31.239999771118164 0
  endloop
 endfacet
 facet normal 0 0 -1
  outer loop
   vertex 64.61386108398438 38.90684509277344 0
   vertex 69.32456970214844 11.621362686157227 0
   vertex 56.79999923706055 10 0
  endloop
 endfacet
 facet normal 0 0 -1
  outer loop
   vertex 56.79999923706055 10 0
   vertex 60 31.239999771118164 0
   vertex 64.61386108398438 38.90684509277344 0
  endloop
 endfacet
 facet normal 0 0 1
  outer loop
   vertex 60 31.239999771118164 3
   vertex 59.97405242919922 31.5557918548584 3
   vertex 59.795806884765625 32.4626579284668 3
  endloop
 endfacet
 facet normal 0 0 1
  outer loop
   vertex 59.795806884765625 32.4626579284668 3
   vertex 59.329566955566406 33.84436798095703 3
   vertex 58.47121047973633 35.524044036865234 3
  endloop
 endfacet
 facet normal 0 0 1
  outer loop
   vertex 58.47121047973633 35.524044036865234 3
   vertex 57.15999984741211 37.286827087402344 3
   vertex 55.386138916015625 38.90684509277344 3
  endloop
 endfacet
 facet normal 0 0 1
  outer loop
   vertex 55.386138916015625 38.90684509277344 3
   vertex 53.19322967529297 40.17457962036133 3
   vertex 50.67543411254883 40.92087936401367 3
  endloop
 endfacet
 facet normal 0 0 1
  outer loop
   vertex 50.67543411254883 40.92087936401367 3
   vertex 47.969566345214844 41.034339904785156 3
   vertex 45.24292755126953 40.470001220703125 3
  endloop
 endfacet
 facet normal 0 0 1
  outer loop
   vertex 45.24292755126953 40.470001220703125 3
   vertex 42.6779670715332 39.24861526489258 3
   vertex 40.45537567138672 37.4472770690918 3
  endloop
 endfacet
 facet normal 0 0 1
  outer loop
   vertex 40.45537567138672 37.4472770690918 3
   vertex 38.73714828491211 35.18336868286133 3
   vertex 37.651344299316406 32.594818115234375 3
  endloop
 endfacet
 facet normal 0 0 1
  outer loop
   vertex 37.651344299316406 32.594818115234375 3
   vertex 37.279998779296875 29.81999969482422 3
   vertex 37.651344299316406 26.980409622192383 3
  endloop
 endfacet
 facet normal 0 0 1
  outer loop
   vertex 37.651344299316406 26.980409622192383 3
   vertex 38.73714828491211 24.16864776611328 3
   vertex 40.45537567138672 21.44315528869629 3
  endloop
 endfacet
 facet normal 0 0 1
  outer loop
   vertex 40.45537567138672 21.44315528869629 3
   vertex 42.6779670715332 18.829898834228516 3
   vertex 45.24292755126953 16.329999923706055 3
  endloop
 endfacet
 facet normal 0 0 1
  outer loop
   vertex 45.24292755126953 16.329999923706055 3
   vertex 47.969566345214844 13.93130874633789 3
   vertex 50.67543411254883 11.621362686157227 3
  endloop
 endfacet
 facet normal 0 0 1
  outer loop
   vertex 55.386138916015625 7.282721519470215 3
   vertex 56.79999923706055 5.712885856628418 3
   vertex 56.79999923706055 10 3
  endloop
 endfacet
 facet normal 0 0 1
  outer loop
   vertex 63.20000076293945 10 3
   vertex 63.20000076293945 5.712885856628418 3
   vertex 64.61386108398438 7.282721519470215 3
  endloop
 endfacet
 facet normal 0 0 1
  outer loop
   vertex 69.32456970214844 11.621362686157227 3
   vertex 72.03043365478516 13.93130874633789 3
   vertex 74.75707244873047 16.329999923706055 3
  endloop
 endfacet
 facet normal 0 0 1
  outer loop
   vertex 74.75707244873047 16.329999923706055 3
   vertex 77.32202911376953 18.829898834228516 3
   vertex 79.54462432861328 21.44315528869629 3
  endloop
 endfacet
 facet normal 0 0 1
  outer loop
   vertex 79.54462432861328 21.44315528869629 3
   vertex 81.26284790039062 24.16864776611328 3
   vertex 82.3486557006836 26.980409622192383 3
  endloop
 endfacet
 facet normal 0 0 1
  outer loop
   vertex 82.3486557006836 26.980409622192383 3
   vertex 82.72000122070312 29.81999969482422 3
   vertex 82.3486557006836 32.594818115234375 3
  endloop
 endfacet
 facet normal 0 0 1
  outer loop
   vertex 82.3486557006836 32.594818115234375 3
   vertex 81.26284790039062 35.18336868286133 3
   vertex 79.54462432861328 37.4472770690918 3
  endloop
 endfacet
 facet normal 0 0 1
  outer loop
   vertex 79.54462432861328 37.4472770690918 3
   vertex 77.32202911376953 39.24861526489258 3
   vertex 74.75707244873047 40.470001220703125 3
  endloop
 endfacet
 facet normal 0 0 1
  outer loop
   vertex 74.75707244873047 40.470001220703125 3
   vertex 72.03043365478516 41.034339904785156 3
   vertex 69.32456970214844 40.92087936401367 3
  endloop
 endfacet
 facet normal 0 0 1
  outer loop
   vertex 69.32456970214844 40.92087936401367 3
   vertex 66.80677032470703 40.17457962036133 3
   vertex 64.61386108398438 38.90684509277344 3
  endloop
 endfacet
 facet normal 0 0 1
  outer loop
   vertex 64.61386108398438 38.90684509277344 3
   vertex 62.84000015258789 37.286827087402344 3
   vertex 61.52878952026367 35.524044036865234 3
  endloop
 endfacet
 facet normal 0 0 1
  outer loop
   vertex 61.52878952026367 35.524044036865234 3
   vertex 60.670433044433594 33.84436798095703 3
   vertex 60.204193115234375 32.4626579284668 3
  endloop
 endfacet
 facet normal 0 0 1
  outer loop
   vertex 60.204193115234375 32.4626579284668 3
   vertex 60.02594757080078 31.5557918548584 3
   vertex 60 31.239999771118164 3
  endloop
 endfacet
 facet normal 0 0 1
  outer loop
   vertex 60 31.239999771118164 3
   vertex 59.795806884765625 32.4626579284668 3
   vertex 58.47121047973633 35.524044036865234 3
  endloop
 endfacet
 facet normal 0 0 1
  outer loop
   vertex 58.47121047973633 35.524044036865234 3
   vertex 55.386138916015625 38.90684509277344 3
   vertex 50.67543411254883 40.92087936401367 3
  endloop
 endfacet
 facet normal 0 0 1
  outer loop
   vertex 50.67543411254883 40.92087936401367 3
   vertex 45.24292755126953 40.470001220703125 3
   vertex 40.45537567138672 37.4472770690918 3
  endloop
 endfacet
 facet normal 0 0 1
  outer loop
   vertex 40.45537567138672 37.4472770690918 3
   vertex 37.651344299316406 32.594818115234375 3
   vertex 37.651344299316406 26.980409622192383 3
  endloop
 endfacet
 facet normal 0 0 1
  outer loop
   vertex 37.651344299316406 26.980409622192383 3
   vertex 40.45537567138672 21.44315528869629 3
   vertex 45.24292755126953 16.329999923706055 3
  endloop
 endfacet
 facet normal 0 0 1
  outer loop
   vertex 53.19322967529297 9.399053573608398 3
   vertex 55.386138916015625 7.282721519470215 3
   vertex 56.79999923706055 10 3
  endloop
 endfacet
 facet normal 0 0 1
  outer loop
   vertex 63.20000076293945 10 3
   vertex 64.61386108398438 7.282721519470215 3
   vertex 66.80677032470703 9.399053573608398 3
  endloop
 endfacet
 facet normal 0 0 1
  outer loop
   vertex 69.32456970214844 11.621362686157227 3
   vertex 74.75707244873047 16.329999923706055 3
   vertex 79.54462432861328 21.44315528869629 3
  endloop
 endfacet
 facet normal 0 0 1
  outer loop
   vertex 79.54462432861328 21.44315528869629 3
   vertex 82.3486557006836 26.980409622192383 3
   vertex 82.3486557006836 32.594818115234375 3
  endloop
 endfacet
 facet normal 0 0 1
  outer loop
   vertex 82.3486557006836 32.594818115234375 3
   vertex 79.54462432861328 37.4472770690918 3
   vertex 74.75707244873047 40.470001220703125 3
  endloop
 endfacet
 facet normal 0 0 1
  outer loop
   vertex 74.75707244873047 40.470001220703125 3
   vertex 69.32456970214844 40.92087936401367 3
   vertex 64.61386108398438 38.90684509277344 3
  endloop
 endfacet
 facet normal 0 0 1
  outer loop
   vertex 64.61386108398438 38.90684509277344 3
   vertex 61.52878952026367 35.524044036865234 3
   vertex 60.204193115234375 32.4626579284668 3
  endloop
 endfacet
 facet normal 0 0 1
  outer loop
   vertex 60 31.239999771118164 3
   vertex 58.47121047973633 35.524044036865234 3
   vertex 50.67543411254883 40.92087936401367 3
  endloop
 endfacet
 facet normal 0 0 1
  outer loop
   vertex 50.67543411254883 40.92087936401367 3
   vertex 40.45537567138672 37.4472770690918 3
   vertex 37.651344299316406 26.980409622192383 3
  endloop
 endfacet
 facet normal 0 0 1
  outer loop
   vertex 37.651344299316406 26.980409622192383 3
   vertex 45.24292755126953 16.329999923706055 3
   vertex 50.67543411254883 11.621362686157227 3
  endloop
 endfacet
 facet normal 0 0 1
  outer loop
   vertex 50.67543411254883 11.621362686157227 3
   vertex 53.19322967529297 9.399053573608398 3
   vertex 56.79999923706055 10 3
  endloop
 endfacet
 facet normal 0 0 1
  outer loop
   vertex 63.20000076293945 10 3
   vertex 66.80677032470703 9.399053573608398 3
   vertex 69.32456970214844 11.621362686157227 3
  endloop
 endfacet
 facet normal 0 0 1
  outer loop
   vertex 69.32456970214844 11.621362686157227 3
   vertex 79.54462432861328 21.44315528869629 3
   vertex 82.3486557006836 32.594818115234375 3
  endloop
 endfacet
 facet normal 0 0 1
  outer loop
   vertex 82.3486557006836 32.594818115234375 3
   vertex 74.75707244873047 40.470001220703125 3
   vertex 64.61386108398438 38.90684509277344 3
  endloop
 endfacet
 facet normal 0 0 1
  outer loop
   vertex 64.61386108398438 38.90684509277344 3
   vertex 60.204193115234375 32.4626579284668 3
   vertex 60 31.239999771118164 3
  endloop
 endfacet
 facet normal 0 0 1
  outer loop
   vertex 60 31.239999771118164 3
   vertex 50.67543411254883 40.92087936401367 3
   vertex 37.651344299316406 26.980409622192383 3
  endloop
 endfacet
 facet normal 0 0 1
  outer loop
   vertex 37.651344299316406 26.980409622192383 3
   vertex 50.67543411254883 11.621362686157227 3
   vertex 56.79999923706055 10 3
  endloop
 endfacet
 facet normal 0 0 1
  outer loop
   vertex 56.79999923706055 10 3
   vertex 63.20000076293945 10 3
   vertex 69.32456970214844 11.621362686157227 3
  endloop
 endfacet
 facet normal 0 0 1
  outer loop
   vertex 69.32456970214844 11.621362686157227 3
   vertex 82.3486557006836 32.594818115234375 3
   vertex 64.61386108398438 38.90684509277344 3
  endloop
 endfacet
 facet normal 0 0 1
  outer loop
   vertex 60 31.239999771118164 3
   vertex 37.651344299316406 26.980409622192383 3
   vertex 56.79999923706055 10 3
  endloop
 endfacet
 facet normal 0 0 1
  outer loop
   vertex 56.79999923706055 10 3
   vertex 69.32456970214844 11.621362686157227 3
   vertex 64.61386108398438 38.90684509277344 3
  endloop
 endfacet
 facet normal 0 0 1
  outer loop
   vertex 64.61386108398438 38.90684509277344 3
   vertex 60 31.239999771118164 3
   vertex 56.79999923706055 10 3
  endloop
 endfacet
 facet normal 0.9812260706768348 0.19286108530260562 0
  outer loop
   vertex 59.97405242919922 31.5557918548584 0
   vertex 59.795806884765625 32.4626579284668 0
   vertex 59.97405242919922 31.5557918548584 3
  endloop
 endfacet
 facet normal 0.9812260706768348 0.19286108530260562 0
  outer loop
   vertex 59.795806884765625 32.4626579284668 0
   vertex 59.795806884765625 32.4626579284668 3
   vertex 59.97405242919922 31.5557918548584 3
  endloop
 endfacet
 facet normal 0.9475103982089329 0.319724952554457 0
  outer loop
   vertex 59.795806884765625 32.4626579284668 0
   vertex 59.329566955566406 33.84436798095703 0
   vertex 59.795806884765625 32.4626579284668 3
  endloop
 endfacet
 facet normal 0.9475103982089329 0.319724952554457 0
  outer loop
   vertex 59.329566955566406 33.84436798095703 0
   vertex 59.329566955566406 33.84436798095703 3
   vertex 59.795806884765625 32.4626579284668 3
  endloop
 endfacet
 facet normal 0.8904657498695097 0.4550502700903848 0
  outer loop
   vertex 59.329566955566406 33.84436798095703 0
   vertex 58.47121047973633 35.524044036865234 0
   vertex 59.329566955566406 33.84436798095703 3
  endloop
 endfacet
 facet normal 0.8904657498695097 0.4550502700903848 0
  outer loop
   vertex 58.47121047973633 35.524044036865234 0
   vertex 58.47121047973633 35.524044036865234 3
   vertex 59.329566955566406 33.84436798095703 3
  endloop
 endfacet
 facet normal 0.802370086759713 0.5968268122941619 0
  outer loop
   vertex 58.47121047973633 35.524044036865234 0
   vertex 57.15999984741211 37.286827087402344 0
   vertex 58.47121047973633 35.524044036865234 3
  endloop
 endfacet
 facet normal 0.802370086759713 0.5968268122941619 0
  outer loop
   vertex 57.15999984741211 37.286827087402344 0
   vertex 57.15999984741211 37.286827087402344 3
   vertex 58.47121047973633 35.524044036865234 3
  endloop
 endfacet
 facet normal 0.6743614934408756 0.7384013652236783 0
  outer loop
   vertex 57.15999984741211 37.286827087402344 0
   vertex 55.386138916015625 38.90684509277344 0
   vertex 57.15999984741211 37.286827087402344 3
  endloop
 endfacet
 facet normal 0.6743614934408756 0.7384013652236783 0
  outer loop
   vertex 55.386138916015625 38.90684509277344 0
   vertex 55.386138916015625 38.90684509277344 3
   vertex 57.15999984741211 37.286827087402344 3
  endloop
 endfacet
 facet normal 0.5004907798564262 0.8657418664236508 0
  outer loop
   vertex 55.386138916015625 38.90684509277344 0
   vertex 53.19322967529297 40.17457962036133 0
   vertex 55.386138916015625 38.90684509277344 3
  endloop
 endfacet
 facet normal 0.5004907798564262 0.8657418664236508 0
  outer loop
   vertex 53.19322967529297 40.17457962036133 0
   vertex 53.19322967529297 40.17457962036133 3
   vertex 55.386138916015625 38.90684509277344 3
  endloop
 endfacet
 facet normal 0.28418853174617986 0.9587684175148609 0
  outer loop
   vertex 53.19322967529297 40.17457962036133 0
   vertex 50.67543411254883 40.92087936401367 0
   vertex 53.19322967529297 40.17457962036133 3
  endloop
 endfacet
 facet normal 0.28418853174617986 0.9587684175148609 0
  outer loop
   vertex 50.67543411254883 40.92087936401367 0
   vertex 50.67543411254883 40.92087936401367 3
   vertex 53.19322967529297 40.17457962036133 3
  endloop
 endfacet
 facet normal 0.04189448147280421 0.9991220408048883 0
  outer loop
   vertex 50.67543411254883 40.92087936401367 0
   vertex 47.969566345214844 41.034339904785156 0
   vertex 50.67543411254883 40.92087936401367 3
  endloop
 endfacet
 facet normal 0.04189448147280421 0.9991220408048883 0
  outer loop
   vertex 47.969566345214844 41.034339904785156 0
   vertex 47.969566345214844 41.034339904785156 3
   vertex 50.67543411254883 40.92087936401367 3
  endloop
 endfacet
 facet normal -0.2026767284884366 0.979245701409623 0
  outer loop
   vertex 47.969566345214844 41.034339904785156 0
   vertex 45.24292755126953 40.470001220703125 0
   vertex 47.969566345214844 41.034339904785156 3
  endloop
 endfacet
 facet normal -0.2026767284884366 0.979245701409623 0
  outer loop
   vertex 45.24292755126953 40.470001220703125 0
   vertex 45.24292755126953 40.470001220703125 3
   vertex 47.969566345214844 41.034339904785156 3
  endloop
 endfacet
 facet normal -0.42992675235742794 0.9028637702374566 0
  outer loop
   vertex 45.24292755126953 40.470001220703125 0
   vertex 42.6779670715332 39.24861526489258 0
   vertex 45.24292755126953 40.470001220703125 3
  endloop
 endfacet
 facet normal -0.42992675235742794 0.9028637702374566 0
  outer loop
   vertex 42.6779670715332 39.24861526489258 0
   vertex 42.6779670715332 39.24861526489258 3
   vertex 45.24292755126953 40.470001220703125 3
  endloop
 endfacet
 facet normal -0.6296410446296471 0.7768861917409053 0
  outer loop
   vertex 42.6779670715332 39.24861526489258 0
   vertex 40.45537567138672 37.4472770690918 0
   vertex 42.6779670715332 39.24861526489258 3
  endloop
 endfacet
 facet normal -0.6296410446296471 0.7768861917409053 0
  outer loop
   vertex 40.45537567138672 37.4472770690918 0
   vertex 40.45537567138672 37.4472770690918 3
   vertex 42.6779670715332 39.24861526489258 3
  endloop
 endfacet
 facet normal -0.7965591645958215 0.6045605819919183 0
  outer loop
   vertex 40.45537567138672 37.4472770690918 0
   vertex 38.73714828491211 35.18336868286133 0
   vertex 40.45537567138672 37.4472770690918 3
  endloop
 endfacet
 facet normal -0.7965591645958215 0.6045605819919183 0
  outer loop
   vertex 38.73714828491211 35.18336868286133 0
   vertex 38.73714828491211 35.18336868286133 3
   vertex 40.45537567138672 37.4472770690918 3
  endloop
 endfacet
 facet normal -0.9221584506046022 0.3868123472415527 0
  outer loop
   vertex 38.73714828491211 35.18336868286133 0
   vertex 37.651344299316406 32.594818115234375 0
   vertex 38.73714828491211 35.18336868286133 3
  endloop
 endfacet
 facet normal -0.9221584506046022 0.3868123472415527 0
  outer loop
   vertex 37.651344299316406 32.594818115234375 0
   vertex 37.651344299316406 32.594818115234375 3
   vertex 38.73714828491211 35.18336868286133 3
  endloop
 endfacet
 facet normal -0.991163687991731 0.132644425463833 0
  outer loop
   vertex 37.651344299316406 32.594818115234375 0
   vertex 37.279998779296875 29.81999969482422 0
   vertex 37.651344299316406 32.594818115234375 3
  endloop
 endfacet
 facet normal -0.991163687991731 0.132644425463833 0
  outer loop
   vertex 37.279998779296875 29.81999969482422 0
   vertex 37.279998779296875 29.81999969482422 3
   vertex 37.651344299316406 32.594818115234375 3
  endloop
 endfacet
 facet normal -0.9915571743104754 -0.12967023588096635 0
  outer loop
   vertex 37.279998779296875 29.81999969482422 0
   vertex 37.651344299316406 26.980409622192383 0
   vertex 37.279998779296875 29.81999969482422 3
  endloop
 endfacet
 facet normal -0.9915571743104754 -0.12967023588096635 0
  outer loop
   vertex 37.651344299316406 26.980409622192383 0
   vertex 37.651344299316406 26.980409622192383 3
   vertex 37.279998779296875 29.81999969482422 3
  endloop
 endfacet
 facet normal -0.932860418102245 -0.36023803288673545 0
  outer loop
   vertex 37.651344299316406 26.980409622192383 0
   vertex 38.73714828491211 24.16864776611328 0
   vertex 37.651344299316406 26.980409622192383 3
  endloop
 endfacet
 facet normal -0.932860418102245 -0.36023803288673545 0
  outer loop
   vertex 38.73714828491211 24.16864776611328 0
   vertex 38.73714828491211 24.16864776611328 3
   vertex 37.651344299316406 26.980409622192383 3
  endloop
 endfacet
 facet normal -0.8459281049042966 -0.5332969541756502 0
  outer loop
   vertex 38.73714828491211 24.16864776611328 0
   vertex 40.45537567138672 21.44315528869629 0
   vertex 38.73714828491211 24.16864776611328 3
  endloop
 endfacet
 facet normal -0.8459281049042966 -0.5332969541756502 0
  outer loop
   vertex 40.45537567138672 21.44315528869629 0
   vertex 40.45537567138672 21.44315528869629 3
   vertex 38.73714828491211 24.16864776611328 3
  endloop
 endfacet
 facet normal -0.761748920685716 -0.6478723499534046 0
  outer loop
   vertex 40.45537567138672 21.44315528869629 0
   vertex 42.6779670715332 18.829898834228516 0
   vertex 40.45537567138672 21.44315528869629 3
  endloop
 endfacet
 facet normal -0.761748920685716 -0.6478723499534046 0
  outer loop
   vertex 42.6779670715332 18.829898834228516 0
   vertex 42.6779670715332 18.829898834228516 3
   vertex 40.45537567138672 21.44315528869629 3
  endloop
 endfacet
 facet normal -0.697965929041967 -0.7161309670001597 0
  outer loop
   vertex 42.6779670715332 18.829898834228516 0
   vertex 45.24292755126953 16.329999923706055 0
   vertex 42.6779670715332 18.829898834228516 3
  endloop
 endfacet
 facet normal -0.697965929041967 -0.7161309670001597 0
  outer loop
   vertex 45.24292755126953 16.329999923706055 0
   vertex 45.24292755126953 16.329999923706055 3
   vertex 42.6779670715332 18.829898834228516 3
  endloop
 endfacet
 facet normal -0.6605113477471305 -0.7508160623596629 0
  outer loop
   vertex 45.24292755126953 16.329999923706055 0
   vertex 47.969566345214844 13.93130874633789 0
   vertex 45.24292755126953 16.329999923706055 3
  endloop
 endfacet
 facet normal -0.6605113477471305 -0.7508160623596629 0
  outer loop
   vertex 47.969566345214844 13.93130874633789 0
   vertex 47.969566345214844 13.93130874633789 3
   vertex 45.24292755126953 16.329999923706055 3
  endloop
 endfacet
 facet normal -0.6492719632799936 -0.7605563211876833 0
  outer loop
   vertex 47.969566345214844 13.93130874633789 0
   vertex 50.67543411254883 11.621362686157227 0
   vertex 47.969566345214844 13.93130874633789 3
  endloop
 endfacet
 facet normal -0.6492719632799936 -0.7605563211876833 0
  outer loop
   vertex 50.67543411254883 11.621362686157227 0
   vertex 50.67543411254883 11.621362686157227 3
   vertex 47.969566345214844 13.93130874633789 3
  endloop
 endfacet
 facet normal -0.661742976605555 -0.7497307736202509 0
  outer loop
   vertex 50.67543411254883 11.621362686157227 0
   vertex 53.19322967529297 9.399053573608398 0
   vertex 50.67543411254883 11.621362686157227 3
  endloop
 endfacet
 facet normal -0.661742976605555 -0.7497307736202509 0
  outer loop
   vertex 53.19322967529297 9.399053573608398 0
   vertex 53.19322967529297 9.399053573608398 3
   vertex 50.67543411254883 11.621362686157227 3
  endloop
 endfacet
 facet normal -0.6944315323147181 -0.7195587862899269 0
  outer loop
   vertex 53.19322967529297 9.399053573608398 0
   vertex 55.386138916015625 7.282721519470215 0
   vertex 53.19322967529297 9.399053573608398 3
  endloop
 endfacet
 facet normal -0.6944315323147181 -0.7195587862899269 0
  outer loop
   vertex 55.386138916015625 7.282721519470215 0
   vertex 55.386138916015625 7.282721519470215 3
   vertex 53.19322967529297 9.399053573608398 3
  endloop
 endfacet
 facet normal -0.7430568042586103 -0.6692283508974954 0
  outer loop
   vertex 55.386138916015625 7.282721519470215 0
   vertex 56.79999923706055 5.712885856628418 0
   vertex 55.386138916015625 7.282721519470215 3
  endloop
 endfacet
 facet normal -0.7430568042586103 -0.6692283508974954 0
  outer loop
   vertex 56.79999923706055 5.712885856628418 0
   vertex 56.79999923706055 5.712885856628418 3
   vertex 55.386138916015625 7.282721519470215 3
  endloop
 endfacet
 facet normal 1 0 0
  outer loop
   vertex 56.79999923706055 5.712885856628418 0
   vertex 56.79999923706055 10 0
   vertex 56.79999923706055 5.712885856628418 3
  endloop
 endfacet
 facet normal 1 0 0
  outer loop
   vertex 56.79999923706055 10 0
   vertex 56.79999923706055 10 3
   vertex 56.79999923706055 5.712885856628418 3
  endloop
 endfacet
 facet normal 0 -1 0
  outer loop
   vertex 56.79999923706055 10 0
   vertex 63.20000076293945 10 0
   vertex 56.79999923706055 10 3
  endloop
 endfacet
 facet normal 0 -1 0
  outer loop
   vertex 63.20000076293945 10 0
   vertex 63.20000076293945 10 3
   vertex 56.79999923706055 10 3
  endloop
 endfacet
 facet normal -1 0 0
  outer loop
   vertex 63.20000076293945 10 0
   vertex 63.20000076293945 5.712885856628418 0
   vertex 63.20000076293945 10 3
  endloop
 endfacet
 facet normal -1 0 0
  outer loop
   vertex 63.20000076293945 5.712885856628418 0
   vertex 63.20000076293945 5.712885856628418 3
   vertex 63.20000076293945 10 3
  endloop
 endfacet
 facet normal 0.7430568042586103 -0.6692283508974954 0
  outer loop
   vertex 63.20000076293945 5.712885856628418 0
   vertex 64.61386108398438 7.282721519470215 0
   vertex 63.20000076293945 5.712885856628418 3
  endloop
 endfacet
 facet normal 0.7430568042586103 -0.6692283508974954 0
  outer loop
   vertex 64.61386108398438 7.282721519470215 0
   vertex 64.61386108398438 7.282721519470215 3
   vertex 63.20000076293945 5.712885856628418 3
  endloop
 endfacet
 facet normal 0.6944315323147181 -0.7195587862899269 0
  outer loop
   vertex 64.61386108398438 7.282721519470215 0
   vertex 66.80677032470703 9.399053573608398 0
   vertex 64.61386108398438 7.282721519470215 3
  endloop
 endfacet
 facet normal 0.6944315323147181 -0.7195587862899269 0
  outer loop
   vertex 66.80677032470703 9.399053573608398 0
   vertex 66.80677032470703 9.399053573608398 3
   vertex 64.61386108398438 7.282721519470215 3
  endloop
 endfacet
 facet normal 0.661742413046537 -0.7497312710400619 0
  outer loop
   vertex 66.80677032470703 9.399053573608398 0
   vertex 69.32456970214844 11.621362686157227 0
   vertex 66.80677032470703 9.399053573608398 3
  endloop
 endfacet
 facet normal 0.661742413046537 -0.7497312710400619 0
  outer loop
   vertex 69.32456970214844 11.621362686157227 0
   vertex 69.32456970214844 11.621362686157227 3
   vertex 66.80677032470703 9.399053573608398 3
  endloop
 endfacet
 facet normal 0.6492724927521711 -0.7605558691873869 0
  outer loop
   vertex 69.32456970214844 11.621362686157227 0
   vertex 72.03043365478516 13.93130874633789 0
   vertex 69.32456970214844 11.621362686157227 3
  endloop
 endfacet
 facet normal 0.6492724927521711 -0.7605558691873869 0
  outer loop
   vertex 72.03043365478516 13.93130874633789 0
   vertex 72.03043365478516 13.93130874633789 3
   vertex 69.32456970214844 11.621362686157227 3
  endloop
 endfacet
 facet normal 0.6605113477471305 -0.7508160623596629 0
  outer loop
   vertex 72.03043365478516 13.93130874633789 0
   vertex 74.75707244873047 16.329999923706055 0
   vertex 72.03043365478516 13.93130874633789 3
  endloop
 endfacet
 facet normal 0.6605113477471305 -0.7508160623596629 0
  outer loop
   vertex 74.75707244873047 16.329999923706055 0
   vertex 74.75707244873047 16.329999923706055 3
   vertex 72.03043365478516 13.93130874633789 3
  endloop
 endfacet
 facet normal 0.6979664613937403 -0.7161304481513828 0
  outer loop
   vertex 74.75707244873047 16.329999923706055 0
   vertex 77.32202911376953 18.829898834228516 0
   vertex 74.75707244873047 16.329999923706055 3
  endloop
 endfacet
 facet normal 0.6979664613937403 -0.7161304481513828 0
  outer loop
   vertex 77.32202911376953 18.829898834228516 0
   vertex 77.32202911376953 18.829898834228516 3
   vertex 74.75707244873047 16.329999923706055 3
  endloop
 endfacet
 facet normal 0.7617483719147952 -0.6478729951812771 0
  outer loop
   vertex 77.32202911376953 18.829898834228516 0
   vertex 79.54462432861328 21.44315528869629 0
   vertex 77.32202911376953 18.829898834228516 3
  endloop
 endfacet
 facet normal 0.7617483719147952 -0.6478729951812771 0
  outer loop
   vertex 79.54462432861328 21.44315528869629 0
   vertex 79.54462432861328 21.44315528869629 3
   vertex 77.32202911376953 18.829898834228516 3
  endloop
 endfacet
 facet normal 0.8459286390392896 -0.5332961069172877 0
  outer loop
   vertex 79.54462432861328 21.44315528869629 0
   vertex 81.26284790039062 24.16864776611328 0
   vertex 79.54462432861328 21.44315528869629 3
  endloop
 endfacet
 facet normal 0.8459286390392896 -0.5332961069172877 0
  outer loop
   vertex 81.26284790039062 24.16864776611328 0
   vertex 81.26284790039062 24.16864776611328 3
   vertex 79.54462432861328 21.44315528869629 3
  endloop
 endfacet
 facet normal 0.9328599927929213 -0.36023913425166726 0
  outer loop
   vertex 81.26284790039062 24.16864776611328 0
   vertex 82.3486557006836 26.980409622192383 0
   vertex 81.26284790039062 24.16864776611328 3
  endloop
 endfacet
 facet normal 0.9328599927929213 -0.36023913425166726 0
  outer loop
   vertex 82.3486557006836 26.980409622192383 0
   vertex 82.3486557006836 26.980409622192383 3
   vertex 81.26284790039062 24.16864776611328 3
  endloop
 endfacet
 facet normal 0.9915571743104754 -0.12967023588096635 0
  outer loop
   vertex 82.3486557006836 26.980409622192383 0
   vertex 82.72000122070312 29.81999969482422 0
   vertex 82.3486557006836 26.980409622192383 3
  endloop
 endfacet
 facet normal 0.9915571743104754 -0.12967023588096635 0
  outer loop
   vertex 82.72000122070312 29.81999969482422 0
   vertex 82.72000122070312 29.81999969482422 3
   vertex 82.3486557006836 26.980409622192383 3
  endloop
 endfacet
 facet normal 0.991163687991731 0.132644425463833 0
  outer loop
   vertex 82.72000122070312 29.81999969482422 0
   vertex 82.3486557006836 32.594818115234375 0
   vertex 82.72000122070312 29.81999969482422 3
  endloop
 endfacet
 facet normal 0.991163687991731 0.132644425463833 0
  outer loop
   vertex 82.3486557006836 32.594818115234375 0
   vertex 82.3486557006836 32.594818115234375 3
   vertex 82.72000122070312 29.81999969482422 3
  endloop
 endfacet
 facet normal 0.9221579658574409 0.3868135028740169 0
  outer loop
   vertex 82.3486557006836 32.594818115234375 0
   vertex 81.26284790039062 35.18336868286133 0
   vertex 82.3486557006836 32.594818115234375 3
  endloop
 endfacet
 facet normal 0.9221579658574409 0.3868135028740169 0
  outer loop
   vertex 81.26284790039062 35.18336868286133 0
   vertex 81.26284790039062 35.18336868286133 3
   vertex 82.3486557006836 32.594818115234375 3
  endloop
 endfacet
 facet normal 0.7965598109598527 0.6045597303522651 0
  outer loop
   vertex 81.26284790039062 35.18336868286133 0
   vertex 79.54462432861328 37.4472770690918 0
   vertex 81.26284790039062 35.18336868286133 3
  endloop
 endfacet
 facet normal 0.7965598109598527 0.6045597303522651 0
  outer loop
   vertex 79.54462432861328 37.4472770690918 0
   vertex 79.54462432861328 37.4472770690918 3
   vertex 81.26284790039062 35.18336868286133 3
  endloop
 endfacet
 facet normal 0.6296403923888171 0.776886720360476 0
  outer loop
   vertex 79.54462432861328 37.4472770690918 0
   vertex 77.32202911376953 39.24861526489258 0
   vertex 79.54462432861328 37.4472770690918 3
  endloop
 endfacet
 facet normal 0.6296403923888171 0.776886720360476 0
  outer loop
   vertex 77.32202911376953 39.24861526489258 0
   vertex 77.32202911376953 39.24861526489258 3
   vertex 79.54462432861328 37.4472770690918 3
  endloop
 endfacet
 facet normal 0.4299272735746885 0.9028635220434122 0
  outer loop
   vertex 77.32202911376953 39.24861526489258 0
   vertex 74.75707244873047 40.470001220703125 0
   vertex 77.32202911376953 39.24861526489258 3
  endloop
 endfacet
 facet normal 0.4299272735746885 0.9028635220434122 0
  outer loop
   vertex 74.75707244873047 40.470001220703125 0
   vertex 74.75707244873047 40.470001220703125 3
   vertex 77.32202911376953 39.24861526489258 3
  endloop
 endfacet
 facet normal 0.2026767284884366 0.979245701409623 0
  outer loop
   vertex 74.75707244873047 40.470001220703125 0
   vertex 72.03043365478516 41.034339904785156 0
   vertex 74.75707244873047 40.470001220703125 3
  endloop
 endfacet
 facet normal 0.2026767284884366 0.979245701409623 0
  outer loop
   vertex 72.03043365478516 41.034339904785156 0
   vertex 72.03043365478516 41.034339904785156 3
   vertex 74.75707244873047 40.470001220703125 3
  endloop
 endfacet
 facet normal -0.041894540431520404 0.9991220383326712 0
  outer loop
   vertex 72.03043365478516 41.034339904785156 0
   vertex 69.32456970214844 40.92087936401367 0
   vertex 72.03043365478516 41.034339904785156 3
  endloop
 endfacet
 facet normal -0.041894540431520404 0.9991220383326712 0
  outer loop
   vertex 69.32456970214844 40.92087936401367 0
   vertex 69.32456970214844 40.92087936401367 3
   vertex 72.03043365478516 41.034339904785156 3
  endloop
 endfacet
 facet normal -0.284188135948701 0.9587685348330965 0
  outer loop
   vertex 69.32456970214844 40.92087936401367 0
   vertex 66.80677032470703 40.17457962036133 0
   vertex 69.32456970214844 40.92087936401367 3
  endloop
 endfacet
 facet normal -0.284188135948701 0.9587685348330965 0
  outer loop
   vertex 66.80677032470703 40.17457962036133 0
   vertex 66.80677032470703 40.17457962036133 3
   vertex 69.32456970214844 40.92087936401367 3
  endloop
 endfacet
 facet normal -0.5004907798564262 0.8657418664236508 0
  outer loop
   vertex 66.80677032470703 40.17457962036133 0
   vertex 64.61386108398438 38.90684509277344 0
   vertex 66.80677032470703 40.17457962036133 3
  endloop
 endfacet
 facet normal -0.5004907798564262 0.8657418664236508 0
  outer loop
   vertex 64.61386108398438 38.90684509277344 0
   vertex 64.61386108398438 38.90684509277344 3
   vertex 66.80677032470703 40.17457962036133 3
  endloop
 endfacet
 facet normal -0.6743614934408756 0.7384013652236783 0
  outer loop
   vertex 64.61386108398438 38.90684509277344 0
   vertex 62.84000015258789 37.286827087402344 0
   vertex 64.61386108398438 38.90684509277344 3
  endloop
 endfacet
 facet normal -0.6743614934408756 0.7384013652236783 0
  outer loop
   vertex 62.84000015258789 37.286827087402344 0
   vertex 62.84000015258789 37.286827087402344 3
   vertex 64.61386108398438 38.90684509277344 3
  endloop
 endfacet
 facet normal -0.802370086759713 0.5968268122941619 0
  outer loop
   vertex 62.84000015258789 37.286827087402344 0
   vertex 61.52878952026367 35.524044036865234 0
   vertex 62.84000015258789 37.286827087402344 3
  endloop
 endfacet
 facet normal -0.802370086759713 0.5968268122941619 0
  outer loop
   vertex 61.52878952026367 35.524044036865234 0
   vertex 61.52878952026367 35.524044036865234 3
   vertex 62.84000015258789 37.286827087402344 3
  endloop
 endfacet
 facet normal -0.8904657498695097 0.4550502700903848 0
  outer loop
   vertex 61.52878952026367 35.524044036865234 0
   vertex 60.670433044433594 33.84436798095703 0
   vertex 61.52878952026367 35.524044036865234 3
  endloop
 endfacet
 facet normal -0.8904657498695097 0.4550502700903848 0
  outer loop
   vertex 60.670433044433594 33.84436798095703 0
   vertex 60.670433044433594 33.84436798095703 3
   vertex 61.52878952026367 35.524044036865234 3
  endloop
 endfacet
 facet normal -0.9475103982089329 0.319724952554457 0
  outer loop
   vertex 60.670433044433594 33.84436798095703 0
   vertex 60.204193115234375 32.4626579284668 0
   vertex 60.670433044433594 33.84436798095703 3
  endloop
 endfacet
 facet normal -0.9475103982089329 0.319724952554457 0
  outer loop
   vertex 60.204193115234375 32.4626579284668 0
   vertex 60.204193115234375 32.4626579284668 3
   vertex 60.670433044433594 33.84436798095703 3
  endloop
 endfacet
 facet normal -0.9812260706768348 0.19286108530260562 0
  outer loop
   vertex 60.204193115234375 32.4626579284668 0
   vertex 60.02594757080078 31.5557918548584 0
   vertex 60.204193115234375 32.4626579284668 3
  endloop
 endfacet
 facet normal -0.9812260706768348 0.19286108530260562 0
  outer loop
   vertex 60.02594757080078 31.5557918548584 0
   vertex 60.02594757080078 31.5557918548584 3
   vertex 60.204193115234375 32.4626579284668 3
  endloop
 endfacet
 facet normal -0.9966413197829077 0.08189065698468694 0
  outer loop
   vertex 60.02594757080078 31.5557918548584 0
   vertex 60 31.239999771118164 0
   vertex 60.02594757080078 31.5557918548584 3
  endloop
 endfacet
 facet normal -0.9966413197829077 0.08189065698468694 0
  outer loop
   vertex 60 31.239999771118164 0
   vertex 60 31.239999771118164 3
   vertex 60.02594757080078 31.5557918548584 3
  endloop
 endfacet
 facet normal 0.9966413197829077 0.08189065698468694 0
  outer loop
   vertex 60 31.239999771118164 0
   vertex 59.97405242919922 31.5557918548584 0
   vertex 60 31.239999771118164 3
  endloop
 endfacet
 facet normal 0.9966413197829077 0.08189065698468694 0
  outer loop
   vertex 59.97405242919922 31.5557918548584 0
   vertex 59.97405242919922 31.5557918548584 3
   vertex 60 31.239999771118164 3
  endloop
 endfacet
endsolid heart-11-heart