solid heart-09-collar
 facet normal 0 0 -1
  outer loop
   vertex 6.8470330238342285 1.4553818702697754 0
   vertex 7 0 0
   vertex 6.8470330238342285 -1.4553818702697754 0
  endloop
 endfacet
 facet normal 0 0 -1
  outer loop
   vertex 5.663118839263916 4.11449670791626 0
   vertex 6.394818305969238 2.847156524658203 0
   vertex 6.8470330238342285 1.4553818702697754 0
  endloop
 endfacet
 facet normal 0 0 -1
  outer loop
   vertex 3.5 6.062177658081055 0
   vertex 4.6839141845703125 5.202013969421387 0
   vertex 5.663118839263916 4.11449670791626 0
  endloop
 endfacet
 facet normal 0 0 -1
  outer loop
   vertex 0.7316992282867432 6.961653232574463 0
   vertex 2.163119077682495 6.657395839691162 0
   vertex 3.5 6.062177658081055 0
  endloop
 endfacet
 facet normal 0 0 -1
  outer loop
   vertex -2.163119077682495 6.657395839691162 0
   vertex -0.7316992282867432 6.961653232574463 0
   vertex 0.7316992282867432 6.961653232574463 0
  endloop
 endfacet
 facet normal 0 0 -1
  outer loop
   vertex -4.6839141845703125 5.202013969421387 0
   vertex -3.5 6.062177658081055 0
   vertex -2.163119077682495 6.657395839691162 0
  endloop
 endfacet
 facet normal 0 0 -1
  outer loop
   vertex -6.394818305969238 2.847156524658203 0
   vertex -5.663118839263916 4.11449670791626 0
   vertex -4.6839141845703125 5.202013969421387 0
  endloop
 endfacet
 facet normal 0 0 -1
  outer loop
   vertex -7 8.572527703398379e-16 0
   vertex -6.8470330238342285 1.4553818702697754 0
   vertex -6.394818305969238 2.847156524658203 0
  endloop
 endfacet
 facet normal 0 0 -1
  outer loop
   vertex -2.9943699836730957 0.8023390173912048 0
   vertex -3.0999999046325684 3.7964051106651223e-16 0
   vertex -7 8.572527703398379e-16 0
  endloop
 endfacet
 facet normal 0 0 -1
  outer loop
   vertex -7 8.572527703398379e-16 0
   vertex -3.0999999046325684 3.7964051106651223e-16 0
   vertex -2.9943699836730957 -0.8023390173912048 0
  endloop
 endfacet
 facet normal 0 0 -1
  outer loop
   vertex -6.394818305969238 -2.847156524658203 0
   vertex -6.8470330238342285 -1.4553818702697754 0
   vertex -7 8.572527703398379e-16 0
  endloop
 endfacet
 facet normal 0 0 -1
  outer loop
   vertex -4.6839141845703125 -5.202013969421387 0
   vertex -5.663118839263916 -4.11449670791626 0
   vertex -6.394818305969238 -2.847156524658203 0
  endloop
 endfacet
 facet normal 0 0 -1
  outer loop
   vertex -2.163119077682495 -6.657395839691162 0
   vertex -3.5 -6.062177658081055 0
   vertex -4.6839141845703125 -5.202013969421387 0
  endloop
 endfacet
 facet normal 0 0 -1
  outer loop
   vertex 0.7316992282867432 -6.961653232574463 0
   vertex -0.7316992282867432 -6.961653232574463 0
   vertex -2.163119077682495 -6.657395839691162 0
  endloop
 endfacet
 facet normal 0 0 -1
  outer loop
   vertex 3.5 -6.062177658081055 0
   vertex 2.163119077682495 -6.657395839691162 0
   vertex 0.7316992282867432 -6.961653232574463 0
  endloop
 endfacet
 facet normal 0 0 -1
  outer loop
   vertex 5.663118839263916 -4.11449670791626 0
   vertex 4.6839141845703125 -5.202013969421387 0
   vertex 3.5 -6.062177658081055 0
  endloop
 endfacet
 facet normal 0 0 -1
  outer loop
   vertex 6.8470330238342285 -1.4553818702697754 0
   vertex 6.394818305969238 -2.847156524658203 0
   vertex 5.663118839263916 -4.11449670791626 0
  endloop
 endfacet
 facet normal 0 0 -1
  outer loop
   vertex 5.663118839263916 4.11449670791626 0
   vertex 6.8470330238342285 1.4553818702697754 0
   vertex 6.8470330238342285 -1.4553818702697754 0
  endloop
 endfacet
 facet normal 0 0 -1
  outer loop
   vertex 0.7316992282867432 6.961653232574463 0
   vertex 3.5 6.062177658081055 0
   vertex 5.663118839263916 4.11449670791626 0
  endloop
 endfacet
 facet normal 0 0 -1
  outer loop
   vertex -4.6839141845703125 5.202013969421387 0
   vertex -2.163119077682495 6.657395839691162 0
   vertex 0.7316992282867432 6.961653232574463 0
  endloop
 endfacet
 facet normal 0 0 -1
  outer loop
   vertex -7 8.572527703398379e-16 0
   vertex -6.394818305969238 2.847156524658203 0
   vertex -4.6839141845703125 5.202013969421387 0
  endloop
 endfacet
 facet normal 0 0 -1
  outer loop
   vertex -2.684678792953491 1.5499999523162842 0
   vertex -2.9943699836730957 0.8023390173912048 0
   vertex -7 8.572527703398379e-16 0
  endloop
 endfacet
 facet normal 0 0 -1
  outer loop
   vertex -7 8.572527703398379e-16 0
   vertex -2.9943699836730957 -0.8023390173912048 0
   vertex -2.684678792953491 -1.5499999523162842 0
  endloop
 endfacet
 facet normal 0 0 -1
  outer loop
   vertex -4.6839141845703125 -5.202013969421387 0
   vertex -6.394818305969238 -2.847156524658203 0
   vertex -7 8.572527703398379e-16 0
  endloop
 endfacet
 facet normal 0 0 -1
  outer loop
   vertex 0.7316992282867432 -6.961653232574463 0
   vertex -2.163119077682495 -6.657395839691162 0
   vertex -4.6839141845703125 -5.202013969421387 0
  endloop
 endfacet
 facet normal 0 0 -1
  outer loop
   vertex 5.663118839263916 -4.11449670791626 0
   vertex 3.5 -6.062177658081055 0
   vertex 0.7316992282867432 -6.961653232574463 0
  endloop
 endfacet
 facet normal 0 0 -1
  outer loop
   vertex 5.663118839263916 4.11449670791626 0
   vertex 6.8470330238342285 -1.4553818702697754 0
   vertex 5.663118839263916 -4.11449670791626 0
  endloop
 endfacet
 facet normal 0 0 -1
  outer loop
   vertex -4.6839141845703125 5.202013969421387 0
   vertex 0.7316992282867432 6.961653232574463 0
   vertex 5.663118839263916 4.11449670791626 0
  endloop
 endfacet
 facet normal 0 0 -1
  outer loop
   vertex -2.684678792953491 1.5499999523162842 0
   vertex -7 8.572527703398379e-16 0
   vertex -4.6839141845703125 5.202013969421387 0
  endloop
 endfacet
 facet normal 0 0 -1
  outer loop
   vertex -7 8.572527703398379e-16 0
   vertex -2.684678792953491 -1.5499999523162842 0
   vertex -2.192030906677246 -2.192030906677246 0
  endloop
 endfacet
 facet normal 0 0 -1
  outer loop
   vertex 0.7316992282867432 -6.961653232574463 0
   vertex -4.6839141845703125 -5.202013969421387 0
   vertex -7 8.572527703398379e-16 0
  endloop
 endfacet
 facet normal 0 0 -1
  outer loop
   vertex 5.663118839263916 4.11449670791626 0
   vertex 5.663118839263916 -4.11449670791626 0
   vertex 0.7316992282867432 -6.961653232574463 0
  endloop
 endfacet
 facet normal 0 0 -1
  outer loop
   vertex -2.192030906677246 2.192030906677246 0
   vertex -2.684678792953491 1.5499999523162842 0
   vertex -4.6839141845703125 5.202013969421387 0
  endloop
 endfacet
 facet normal 0 0 -1
  outer loop
   vertex -7 8.572527703398379e-16 0
   vertex -2.192030906677246 -2.192030906677246 0
   vertex -1.5499999523162842 -2.684678792953491 0
  endloop
 endfacet
 facet normal 0 0 -1
  outer loop
   vertex -1.5499999523162842 2.684678792953491 0
   vertex -2.192030906677246 2.192030906677246 0
   vertex -4.6839141845703125 5.202013969421387 0
  endloop
 endfacet
 facet normal 0 0 -1
  outer loop
   vertex 0.7316992282867432 -6.961653232574463 0
   vertex -7 8.572527703398379e-16 0
   vertex -1.5499999523162842 -2.684678792953491 0
  endloop
 endfacet
 facet normal 0 0 -1
  outer loop
   vertex -0.8023390173912048 2.9943699836730957 0
   vertex -1.5499999523162842 2.684678792953491 0
   vertex -4.6839141845703125 5.202013969421387 0
  endloop
 endfacet
 facet normal 0 0 -1
  outer loop
   vertex 0.7316992282867432 -6.961653232574463 0
   vertex -1.5499999523162842 -2.684678792953491 0
   vertex -0.8023390173912048 -2.9943699836730957 0
  endloop
 endfacet
 facet normal 0 0 -1
  outer loop
   vertex -0.8023390173912048 2.9943699836730957 0
   vertex -4.6839141845703125 5.202013969421387 0
   vertex 5.663118839263916 4.11449670791626 0
  endloop
 endfacet
 facet normal 0 0 -1
  outer loop
   vertex 0.7316992282867432 -6.961653232574463 0
   vertex -0.8023390173912048 -2.9943699836730957 0
   vertex -5.694607798346582e-16 -3.0999999046325684 0
  endloop
 endfacet
 facet normal 0 0 -1
  outer loop
   vertex 1.8982025553325612e-16 3.0999999046325684 0
   vertex -0.8023390173912048 2.9943699836730957 0
   vertex 5.663118839263916 4.11449670791626 0
  endloop
 endfacet
 facet normal 0 0 -1
  outer loop
   vertex 0.7316992282867432 -6.961653232574463 0
   vertex -5.694607798346582e-16 -3.0999999046325684 0
   vertex 0.8023390173912048 -2.9943699836730957 0
  endloop
 endfacet
 facet normal 0 0 -1
  outer loop
   vertex 0.8023390173912048 2.9943699836730957 0
   vertex 1.8982025553325612e-16 3.0999999046325684 0
   vertex 5.663118839263916 4.11449670791626 0
  endloop
 endfacet
 facet normal 0 0 -1
  outer loop
   vertex 0.7316992282867432 -6.961653232574463 0
   vertex 0.8023390173912048 -2.9943699836730957 0
   vertex 1.5499999523162842 -2.684678792953491 0
  endloop
 endfacet
 facet normal 0 0 -1
  outer loop
   vertex 1.5499999523162842 2.684678792953491 0
   vertex 0.8023390173912048 2.9943699836730957 0
   vertex 5.663118839263916 4.11449670791626 0
  endloop
 endfacet
 facet normal 0 0 -1
  outer loop
   vertex 0.7316992282867432 -6.961653232574463 0
   vertex 1.5499999523162842 -2.684678792953491 0
   vertex 2.192030906677246 -2.192030906677246 0
  endloop
 endfacet
 facet normal 0 0 -1
  outer loop
   vertex 2.192030906677246 2.192030906677246 0
   vertex 1.5499999523162842 2.684678792953491 0
   vertex 5.663118839263916 4.11449670791626 0
  endloop
 endfacet
 facet normal 0 0 -1
  outer loop
   vertex 0.7316992282867432 -6.961653232574463 0
   vertex 2.192030906677246 -2.192030906677246 0
   vertex 2.684678792953491 -1.5499999523162842 0
  endloop
 endfacet
 facet normal 0 0 -1
  outer loop
   vertex 2.684678792953491 1.5499999523162842 0
   vertex 2.192030906677246 2.192030906677246 0
   vertex 5.663118839263916 4.11449670791626 0
  endloop
 endfacet
 facet normal 0 0 -1
  outer loop
   vertex 0.7316992282867432 -6.961653232574463 0
   vertex 2.684678792953491 -1.5499999523162842 0
   vertex 2.9943699836730957 -0.8023390173912048 0
  endloop
 endfacet
 facet normal 0 0 -1
  outer loop
   vertex 2.9943699836730957 0.8023390173912048 0
   vertex 2.684678792953491 1.5499999523162842 0
   vertex 5.663118839263916 4.11449670791626 0
  endloop
 endfacet
 facet normal 0 0 -1
  outer loop
   vertex 5.663118839263916 4.11449670791626 0
   vertex 0.7316992282867432 -6.961653232574463 0
   vertex 2.9943699836730957 -0.8023390173912048 0
  endloop
 endfacet
 facet normal 0 0 -1
  outer loop
   vertex 3.0999999046325684 0 0
   vertex 2.9943699836730957 0.8023390173912048 0
   vertex 5.663118839263916 4.11449670791626 0
  endloop
 endfacet
 facet normal 0 0 -1
  outer loop
   vertex 5.663118839263916 4.11449670791626 0
   vertex 2.9943699836730957 -0.8023390173912048 0
   vertex 3.0999999046325684 0 0
  endloop
 endfacet
 facet normal 0 0 1
  outer loop
   vertex 6.8470330238342285 -1.4553818702697754 3
   vertex 7 0 3
   vertex 6.8470330238342285 1.4553818702697754 3
  endloop
 endfacet
 facet normal 0 0 1
  outer loop
   vertex 6.8470330238342285 1.4553818702697754 3
   vertex 6.394818305969238 2.847156524658203 3
   vertex 5.663118839263916 4.11449670791626 3
  endloop
 endfacet
 facet normal 0 0 1
  outer loop
   vertex 5.663118839263916 4.11449670791626 3
   vertex 4.6839141845703125 5.202013969421387 3
   vertex 3.5 6.062177658081055 3
  endloop
 endfacet
 facet normal 0 0 1
  outer loop
   vertex 3.5 6.062177658081055 3
   vertex 2.163119077682495 6.657395839691162 3
   vertex 0.7316992282867432 6.961653232574463 3
  endloop
 endfacet
 facet normal 0 0 1
  outer loop
   vertex 0.7316992282867432 6.961653232574463 3
   vertex -0.7316992282867432 6.961653232574463 3
   vertex -2.163119077682495 6.657395839691162 3
  endloop
 endfacet
 facet normal 0 0 1
  outer loop
   vertex -2.163119077682495 6.657395839691162 3
   vertex -3.5 6.062177658081055 3
   vertex -4.6839141845703125 5.202013969421387 3
  endloop
 endfacet
 facet normal 0 0 1
  outer loop
   vertex -4.6839141845703125 5.202013969421387 3
   vertex -5.663118839263916 4.11449670791626 3
   vertex -6.394818305969238 2.847156524658203 3
  endloop
 endfacet
 facet normal 0 0 1
  outer loop
   vertex -6.394818305969238 2.847156524658203 3
   vertex -6.8470330238342285 1.4553818702697754 3
   vertex -7 8.572527703398379e-16 3
  endloop
 endfacet
 facet normal 0 0 1
  outer loop
   vertex -7 8.572527703398379e-16 3
   vertex -3.0999999046325684 3.7964051106651223e-16 3
   vertex -2.9943699836730957 0.8023390173912048 3
  endloop
 endfacet
 facet normal 0 0 1
  outer loop
   vertex -2.9943699836730957 -0.8023390173912048 3
   vertex -3.0999999046325684 3.7964051106651223e-16 3
   vertex -7 8.572527703398379e-16 3
  endloop
 endfacet
 facet normal 0 0 1
  outer loop
   vertex -7 8.572527703398379e-16 3
   vertex -6.8470330238342285 -1.4553818702697754 3
   vertex -6.394818305969238 -2.847156524658203 3
  endloop
 endfacet
 facet normal 0 0 1
  outer loop
   vertex -6.394818305969238 -2.847156524658203 3
   vertex -5.663118839263916 -4.11449670791626 3
   vertex -4.6839141845703125 -5.202013969421387 3
  endloop
 endfacet
 facet normal 0 0 1
  outer loop
   vertex -4.6839141845703125 -5.202013969421387 3
   vertex -3.5 -6.062177658081055 3
   vertex -2.163119077682495 -6.657395839691162 3
  endloop
 endfacet
 facet normal 0 0 1
  outer loop
   vertex -2.163119077682495 -6.657395839691162 3
   vertex -0.7316992282867432 -6.961653232574463 3
   vertex 0.7316992282867432 -6.961653232574463 3
  endloop
 endfacet
 facet normal 0 0 1
  outer loop
   vertex 0.7316992282867432 -6.961653232574463 3
   vertex 2.163119077682495 -6.657395839691162 3
   vertex 3.5 -6.062177658081055 3
  endloop
 endfacet
 facet normal 0 0 1
  outer loop
   vertex 3.5 -6.062177658081055 3
   vertex 4.6839141845703125 -5.202013969421387 3
   vertex 5.663118839263916 -4.11449670791626 3
  endloop
 endfacet
 facet normal 0 0 1
  outer loop
   vertex 5.663118839263916 -4.11449670791626 3
   vertex 6.394818305969238 -2.847156524658203 3
   vertex 6.8470330238342285 -1.4553818702697754 3
  endloop
 endfacet
 facet normal 0 0 1
  outer loop
   vertex 6.8470330238342285 -1.4553818702697754 3
   vertex 6.8470330238342285 1.4553818702697754 3
   vertex 5.663118839263916 4.11449670791626 3
  endloop
 endfacet
 facet normal 0 0 1
  outer loop
   vertex 5.663118839263916 4.11449670791626 3
   vertex 3.5 6.062177658081055 3
   vertex 0.7316992282867432 6.961653232574463 3
  endloop
 endfacet
 facet normal 0 0 1
  outer loop
   vertex 0.7316992282867432 6.961653232574463 3
   vertex -2.163119077682495 6.657395839691162 3
   vertex -4.6839141845703125 5.202013969421387 3
  endloop
 endfacet
 facet normal 0 0 1
  outer loop
   vertex -4.6839141845703125 5.202013969421387 3
   vertex -6.394818305969238 2.847156524658203 3
   vertex -7 8.572527703398379e-16 3
  endloop
 endfacet
 facet normal 0 0 1
  outer loop
   vertex -7 8.572527703398379e-16 3
   vertex -2.9943699836730957 0.8023390173912048 3
   vertex -2.684678792953491 1.5499999523162842 3
  endloop
 endfacet
 facet normal 0 0 1
  outer loop
   vertex -2.684678792953491 -1.5499999523162842 3
   vertex -2.9943699836730957 -0.8023390173912048 3
   vertex -7 8.572527703398379e-16 3
  endloop
 endfacet
 facet normal 0 0 1
  outer loop
   vertex -7 8.572527703398379e-16 3
   vertex -6.394818305969238 -2.847156524658203 3
   vertex -4.6839141845703125 -5.202013969421387 3
  endloop
 endfacet
 facet normal 0 0 1
  outer loop
   vertex -4.6839141845703125 -5.202013969421387 3
   vertex -2.163119077682495 -6.657395839691162 3
   vertex 0.7316992282867432 -6.961653232574463 3
  endloop
 endfacet
 facet normal 0 0 1
  outer loop
   vertex 0.7316992282867432 -6.961653232574463 3
   vertex 3.5 -6.062177658081055 3
   vertex 5.663118839263916 -4.11449670791626 3
  endloop
 endfacet
 facet normal 0 0 1
  outer loop
   vertex 5.663118839263916 -4.11449670791626 3
   vertex 6.8470330238342285 -1.4553818702697754 3
   vertex 5.663118839263916 4.11449670791626 3
  endloop
 endfacet
 facet normal 0 0 1
  outer loop
   vertex 5.663118839263916 4.11449670791626 3
   vertex 0.7316992282867432 6.961653232574463 3
   vertex -4.6839141845703125 5.202013969421387 3
  endloop
 endfacet
 facet normal 0 0 1
  outer loop
   vertex -4.6839141845703125 5.202013969421387 3
   vertex -7 8.572527703398379e-16 3
   vertex -2.684678792953491 1.5499999523162842 3
  endloop
 endfacet
 facet normal 0 0 1
  outer loop
   vertex -2.192030906677246 -2.192030906677246 3
   vertex -2.684678792953491 -1.5499999523162842 3
   vertex -7 8.572527703398379e-16 3
  endloop
 endfacet
 facet normal 0 0 1
  outer loop
   vertex -7 8.572527703398379e-16 3
   vertex -4.6839141845703125 -5.202013969421387 3
   vertex 0.7316992282867432 -6.961653232574463 3
  endloop
 endfacet
 facet normal 0 0 1
  outer loop
   vertex 0.7316992282867432 -6.961653232574463 3
   vertex 5.663118839263916 -4.11449670791626 3
   vertex 5.663118839263916 4.11449670791626 3
  endloop
 endfacet
 facet normal 0 0 1
  outer loop
   vertex -4.6839141845703125 5.202013969421387 3
   vertex -2.684678792953491 1.5499999523162842 3
   vertex -2.192030906677246 2.192030906677246 3
  endloop
 endfacet
 facet normal 0 0 1
  outer loop
   vertex -1.5499999523162842 -2.684678792953491 3
   vertex -2.192030906677246 -2.192030906677246 3
   vertex -7 8.572527703398379e-16 3
  endloop
 endfacet
 facet normal 0 0 1
  outer loop
   vertex -4.6839141845703125 5.202013969421387 3
   vertex -2.192030906677246 2.192030906677246 3
   vertex -1.5499999523162842 2.684678792953491 3
  endloop
 endfacet
 facet normal 0 0 1
  outer loop
   vertex -1.5499999523162842 -2.684678792953491 3
   vertex -7 8.572527703398379e-16 3
   vertex 0.7316992282867432 -6.961653232574463 3
  endloop
 endfacet
 facet normal 0 0 1
  outer loop
   vertex -4.6839141845703125 5.202013969421387 3
   vertex -1.5499999523162842 2.684678792953491 3
   vertex -0.8023390173912048 2.9943699836730957 3
  endloop
 endfacet
 facet normal 0 0 1
  outer loop
   vertex -0.8023390173912048 -2.9943699836730957 3
   vertex -1.5499999523162842 -2.684678792953491 3
   vertex 0.7316992282867432 -6.961653232574463 3
  endloop
 endfacet
 facet normal 0 0 1
  outer loop
   vertex 5.663118839263916 4.11449670791626 3
   vertex -4.6839141845703125 5.202013969421387 3
   vertex -0.8023390173912048 2.9943699836730957 3
  endloop
 endfacet
 facet normal 0 0 1
  outer loop
   vertex -5.694607798346582e-16 -3.0999999046325684 3
   vertex -0.8023390173912048 -2.9943699836730957 3
   vertex 0.7316992282867432 -6.961653232574463 3
  endloop
 endfacet
 facet normal 0 0 1
  outer loop
   vertex 5.663118839263916 4.11449670791626 3
   vertex -0.8023390173912048 2.9943699836730957 3
   vertex 1.8982025553325612e-16 3.0999999046325684 3
  endloop
 endfacet
 facet normal 0 0 1
  outer loop
   vertex 0.8023390173912048 -2.9943699836730957 3
   vertex -5.694607798346582e-16 -3.0999999046325684 3
   vertex 0.7316992282867432 -6.961653232574463 3
  endloop
 endfacet
 facet normal 0 0 1
  outer loop
   vertex 5.663118839263916 4.11449670791626 3
   vertex 1.8982025553325612e-16 3.0999999046325684 3
   vertex 0.8023390173912048 2.9943699836730957 3
  endloop
 endfacet
 facet normal 0 0 1
  outer loop
   vertex 1.5499999523162842 -2.684678792953491 3
   vertex 0.8023390173912048 -2.9943699836730957 3
   vertex 0.7316992282867432 -6.961653232574463 3
  endloop
 endfacet
 facet normal 0 0 1
  outer loop
   vertex 5.663118839263916 4.11449670791626 3
   vertex 0.8023390173912048 2.9943699836730957 3
   vertex 1.5499999523162842 2.684678792953491 3
  endloop
 endfacet
 facet normal 0 0 1
  outer loop
   vertex 2.192030906677246 -2.192030906677246 3
   vertex 1.5499999523162842 -2.684678792953491 3
   vertex 0.7316992282867432 -6.961653232574463 3
  endloop
 endfacet
 facet normal 0 0 1
  outer loop
   vertex 5.663118839263916 4.11449670791626 3
   vertex 1.5499999523162842 2.684678792953491 3
   vertex 2.192030906677246 2.192030906677246 3
  endloop
 endfacet
 facet normal 0 0 1
  outer loop
   vertex 2.684678792953491 -1.5499999523162842 3
   vertex 2.192030906677246 -2.192030906677246 3
   vertex 0.7316992282867432 -6.961653232574463 3
  endloop
 endfacet
 facet normal 0 0 1
  outer loop
   vertex 5.663118839263916 4.11449670791626 3
   vertex 2.192030906677246 2.192030906677246 3
   vertex 2.684678792953491 1.5499999523162842 3
  endloop
 endfacet
 facet normal 0 0 1
  outer loop
   vertex 2.9943699836730957 -0.8023390173912048 3
   vertex 2.684678792953491 -1.5499999523162842 3
   vertex 0.7316992282867432 -6.961653232574463 3
  endloop
 endfacet
 facet normal 0 0 1
  outer loop
   vertex 5.663118839263916 4.11449670791626 3
   vertex 2.684678792953491 1.5499999523162842 3
   vertex 2.9943699836730957 0.8023390173912048 3
  endloop
 endfacet
 facet normal 0 0 1
  outer loop
   vertex 2.9943699836730957 -0.8023390173912048 3
   vertex 0.7316992282867432 -6.961653232574463 3
   vertex 5.663118839263916 4.11449670791626 3
  endloop
 endfacet
 facet normal 0 0 1
  outer loop
   vertex 5.663118839263916 4.11449670791626 3
   vertex 2.9943699836730957 0.8023390173912048 3
   vertex 3.0999999046325684 0 3
  endloop
 endfacet
 facet normal 0 0 1
  outer loop
   vertex 3.0999999046325684 0 3
   vertex 2.9943699836730957 -0.8023390173912048 3
   vertex 5.663118839263916 4.11449670791626 3
  endloop
 endfacet
 facet normal 0.994521882746964 0.10452858335131919 0
  outer loop
   vertex 7 0 0
   vertex 6.8470330238342285 1.4553818702697754 0
   vertex 7 0 3
  endloop
 endfacet
 facet normal 0.994521882746964 0.10452858335131919 0
  outer loop
   vertex 6.8470330238342285 1.4553818702697754 0
   vertex 6.8470330238342285 1.4553818702697754 3
   vertex 7 0 3
  endloop
 endfacet
 facet normal 0.9510565725399818 0.309016821271112 0
  outer loop
   vertex 6.8470330238342285 1.4553818702697754 0
   vertex 6.394818305969238 2.847156524658203 0
   vertex 6.8470330238342285 1.4553818702697754 3
  endloop
 endfacet
 facet normal 0.9510565725399818 0.309016821271112 0
  outer loop
   vertex 6.394818305969238 2.847156524658203 0
   vertex 6.394818305969238 2.847156524658203 3
   vertex 6.8470330238342285 1.4553818702697754 3
  endloop
 endfacet
 facet normal 0.8660253236718325 0.5000001387590782 0
  outer loop
   vertex 6.394818305969238 2.847156524658203 0
   vertex 5.663118839263916 4.11449670791626 0
   vertex 6.394818305969238 2.847156524658203 3
  endloop
 endfacet
 facet normal 0.8660253236718325 0.5000001387590782 0
  outer loop
   vertex 5.663118839263916 4.11449670791626 0
   vertex 5.663118839263916 4.11449670791626 3
   vertex 6.394818305969238 2.847156524658203 3
  endloop
 endfacet
 facet normal 0.7431449225950225 0.6691304984987893 0
  outer loop
   vertex 5.663118839263916 4.11449670791626 0
   vertex 4.6839141845703125 5.202013969421387 0
   vertex 5.663118839263916 4.11449670791626 3
  endloop
 endfacet
 facet normal 0.7431449225950225 0.6691304984987893 0
  outer loop
   vertex 4.6839141845703125 5.202013969421387 0
   vertex 4.6839141845703125 5.202013969421387 3
   vertex 5.663118839263916 4.11449670791626 3
  endloop
 endfacet
 facet normal 0.5877851109877581 0.8090170970388134 0
  outer loop
   vertex 4.6839141845703125 5.202013969421387 0
   vertex 3.5 6.062177658081055 0
   vertex 4.6839141845703125 5.202013969421387 3
  endloop
 endfacet
 facet normal 0.5877851109877581 0.8090170970388134 0
  outer loop
   vertex 3.5 6.062177658081055 0
   vertex 3.5 6.062177658081055 3
   vertex 4.6839141845703125 5.202013969421387 3
  endloop
 endfacet
 facet normal 0.40673689751330633 0.9135453443596822 0
  outer loop
   vertex 3.5 6.062177658081055 0
   vertex 2.163119077682495 6.657395839691162 0
   vertex 3.5 6.062177658081055 3
  endloop
 endfacet
 facet normal 0.40673689751330633 0.9135453443596822 0
  outer loop
   vertex 2.163119077682495 6.657395839691162 0
   vertex 2.163119077682495 6.657395839691162 3
   vertex 3.5 6.062177658081055 3
  endloop
 endfacet
 facet normal 0.2079115021236805 0.9781476408419512 0
  outer loop
   vertex 2.163119077682495 6.657395839691162 0
   vertex 0.7316992282867432 6.961653232574463 0
   vertex 2.163119077682495 6.657395839691162 3
  endloop
 endfacet
 facet normal 0.2079115021236805 0.9781476408419512 0
  outer loop
   vertex 0.7316992282867432 6.961653232574463 0
   vertex 0.7316992282867432 6.961653232574463 3
   vertex 2.163119077682495 6.657395839691162 3
  endloop
 endfacet
 facet normal 0 1 0
  outer loop
   vertex 0.7316992282867432 6.961653232574463 0
   vertex -0.7316992282867432 6.961653232574463 0
   vertex 0.7316992282867432 6.961653232574463 3
  endloop
 endfacet
 facet normal 0 1 0
  outer loop
   vertex -0.7316992282867432 6.961653232574463 0
   vertex -0.7316992282867432 6.961653232574463 3
   vertex 0.7316992282867432 6.961653232574463 3
  endloop
 endfacet
 facet normal -0.2079115021236805 0.9781476408419512 0
  outer loop
   vertex -0.7316992282867432 6.961653232574463 0
   vertex -2.163119077682495 6.657395839691162 0
   vertex -0.7316992282867432 6.961653232574463 3
  endloop
 endfacet
 facet normal -0.2079115021236805 0.9781476408419512 0
  outer loop
   vertex -2.163119077682495 6.657395839691162 0
   vertex -2.163119077682495 6.657395839691162 3
   vertex -0.7316992282867432 6.961653232574463 3
  endloop
 endfacet
 facet normal -0.40673689751330633 0.9135453443596822 0
  outer loop
   vertex -2.163119077682495 6.657395839691162 0
   vertex -3.5 6.062177658081055 0
   vertex -2.163119077682495 6.657395839691162 3
  endloop
 endfacet
 facet normal -0.40673689751330633 0.9135453443596822 0
  outer loop
   vertex -3.5 6.062177658081055 0
   vertex -3.5 6.062177658081055 3
   vertex -2.163119077682495 6.657395839691162 3
  endloop
 endfacet
 facet normal -0.5877851109877581 0.8090170970388134 0
  outer loop
   vertex -3.5 6.062177658081055 0
   vertex -4.6839141845703125 5.202013969421387 0
   vertex -3.5 6.062177658081055 3
  endloop
 endfacet
 facet normal -0.5877851109877581 0.8090170970388134 0
  outer loop
   vertex -4.6839141845703125 5.202013969421387 0
   vertex -4.6839141845703125 5.202013969421387 3
   vertex -3.5 6.062177658081055 3
  endloop
 endfacet
 facet normal -0.7431449225950225 0.6691304984987893 0
  outer loop
   vertex -4.6839141845703125 5.202013969421387 0
   vertex -5.663118839263916 4.11449670791626 0
   vertex -4.6839141845703125 5.202013969421387 3
  endloop
 endfacet
 facet normal -0.7431449225950225 0.6691304984987893 0
  outer loop
   vertex -5.663118839263916 4.11449670791626 0
   vertex -5.663118839263916 4.11449670791626 3
   vertex -4.6839141845703125 5.202013969421387 3
  endloop
 endfacet
 facet normal -0.8660253236718325 0.5000001387590782 0
  outer loop
   vertex -5.663118839263916 4.11449670791626 0
   vertex -6.394818305969238 2.847156524658203 0
   vertex -5.663118839263916 4.11449670791626 3
  endloop
 endfacet
 facet normal -0.8660253236718325 0.5000001387590782 0
  outer loop
   vertex -6.394818305969238 2.847156524658203 0
   vertex -6.394818305969238 2.847156524658203 3
   vertex -5.663118839263916 4.11449670791626 3
  endloop
 endfacet
 facet normal -0.9510565725399818 0.309016821271112 0
  outer loop
   vertex -6.394818305969238 2.847156524658203 0
   vertex -6.8470330238342285 1.4553818702697754 0
   vertex -6.394818305969238 2.847156524658203 3
  endloop
 endfacet
 facet normal -0.9510565725399818 0.309016821271112 0
  outer loop
   vertex -6.8470330238342285 1.4553818702697754 0
   vertex -6.8470330238342285 1.4553818702697754 3
   vertex -6.394818305969238 2.847156524658203 3
  endloop
 endfacet
 facet normal -0.994521882746964 0.10452858335131925 0
  outer loop
   vertex -6.8470330238342285 1.4553818702697754 0
   vertex -7 8.572527703398379e-16 0
   vertex -6.8470330238342285 1.4553818702697754 3
  endloop
 endfacet
 facet normal -0.994521882746964 0.10452858335131925 0
  outer loop
   vertex -7 8.572527703398379e-16 0
   vertex -7 8.572527703398379e-16 3
   vertex -6.8470330238342285 1.4553818702697754 3
  endloop
 endfacet
 facet normal -0.994521882746964 -0.10452858335131912 0
  outer loop
   vertex -7 8.572527703398379e-16 0
   vertex -6.8470330238342285 -1.4553818702697754 0
   vertex -7 8.572527703398379e-16 3
  endloop
 endfacet
 facet normal -0.994521882746964 -0.10452858335131912 0
  outer loop
   vertex -6.8470330238342285 -1.4553818702697754 0
   vertex -6.8470330238342285 -1.4553818702697754 3
   vertex -7 8.572527703398379e-16 3
  endloop
 endfacet
 facet normal -0.9510565725399818 -0.309016821271112 0
  outer loop
   vertex -6.8470330238342285 -1.4553818702697754 0
   vertex -6.394818305969238 -2.847156524658203 0
   vertex -6.8470330238342285 -1.4553818702697754 3
  endloop
 endfacet
 facet normal -0.9510565725399818 -0.309016821271112 0
  outer loop
   vertex -6.394818305969238 -2.847156524658203 0
   vertex -6.394818305969238 -2.847156524658203 3
   vertex -6.8470330238342285 -1.4553818702697754 3
  endloop
 endfacet
 facet normal -0.8660253236718325 -0.5000001387590782 0
  outer loop
   vertex -6.394818305969238 -2.847156524658203 0
   vertex -5.663118839263916 -4.11449670791626 0
   vertex -6.394818305969238 -2.847156524658203 3
  endloop
 endfacet
 facet normal -0.8660253236718325 -0.5000001387590782 0
  outer loop
   vertex -5.663118839263916 -4.11449670791626 0
   vertex -5.663118839263916 -4.11449670791626 3
   vertex -6.394818305969238 -2.847156524658203 3
  endloop
 endfacet
 facet normal -0.7431449225950225 -0.6691304984987893 0
  outer loop
   vertex -5.663118839263916 -4.11449670791626 0
   vertex -4.6839141845703125 -5.202013969421387 0
   vertex -5.663118839263916 -4.11449670791626 3
  endloop
 endfacet
 facet normal -0.7431449225950225 -0.6691304984987893 0
  outer loop
   vertex -4.6839141845703125 -5.202013969421387 0
   vertex -4.6839141845703125 -5.202013969421387 3
   vertex -5.663118839263916 -4.11449670791626 3
  endloop
 endfacet
 facet normal -0.5877851109877581 -0.8090170970388134 0
  outer loop
   vertex -4.6839141845703125 -5.202013969421387 0
   vertex -3.5 -6.062177658081055 0
   vertex -4.6839141845703125 -5.202013969421387 3
  endloop
 endfacet
 facet normal -0.5877851109877581 -0.8090170970388134 0
  outer loop
   vertex -3.5 -6.062177658081055 0
   vertex -3.5 -6.062177658081055 3
   vertex -4.6839141845703125 -5.202013969421387 3
  endloop
 endfacet
 facet normal -0.40673689751330633 -0.9135453443596822 0
  outer loop
   vertex -3.5 -6.062177658081055 0
   vertex -2.163119077682495 -6.657395839691162 0
   vertex -3.5 -6.062177658081055 3
  endloop
 endfacet
 facet normal -0.40673689751330633 -0.9135453443596822 0
  outer loop
   vertex -2.163119077682495 -6.657395839691162 0
   vertex -2.163119077682495 -6.657395839691162 3
   vertex -3.5 -6.062177658081055 3
  endloop
 endfacet
 facet normal -0.2079115021236805 -0.9781476408419512 0
  outer loop
   vertex -2.163119077682495 -6.657395839691162 0
   vertex -0.7316992282867432 -6.961653232574463 0
   vertex -2.163119077682495 -6.657395839691162 3
  endloop
 endfacet
 facet normal -0.2079115021236805 -0.9781476408419512 0
  outer loop
   vertex -0.7316992282867432 -6.961653232574463 0
   vertex -0.7316992282867432 -6.961653232574463 3
   vertex -2.163119077682495 -6.657395839691162 3
  endloop
 endfacet
 facet normal 0 -1 0
  outer loop
   vertex -0.7316992282867432 -6.961653232574463 0
   vertex 0.7316992282867432 -6.961653232574463 0
   vertex -0.7316992282867432 -6.961653232574463 3
  endloop
 endfacet
 facet normal 0 -1 0
  outer loop
   vertex 0.7316992282867432 -6.961653232574463 0
   vertex 0.7316992282867432 -6.961653232574463 3
   vertex -0.7316992282867432 -6.961653232574463 3
  endloop
 endfacet
 facet normal 0.2079115021236805 -0.9781476408419512 0
  outer loop
   vertex 0.7316992282867432 -6.961653232574463 0
   vertex 2.163119077682495 -6.657395839691162 0
   vertex 0.7316992282867432 -6.961653232574463 3
  endloop
 endfacet
 facet normal 0.2079115021236805 -0.9781476408419512 0
  outer loop
   vertex 2.163119077682495 -6.657395839691162 0
   vertex 2.163119077682495 -6.657395839691162 3
   vertex 0.7316992282867432 -6.961653232574463 3
  endloop
 endfacet
 facet normal 0.40673689751330633 -0.9135453443596822 0
  outer loop
   vertex 2.163119077682495 -6.657395839691162 0
   vertex 3.5 -6.062177658081055 0
   vertex 2.163119077682495 -6.657395839691162 3
  endloop
 endfacet
 facet normal 0.40673689751330633 -0.9135453443596822 0
  outer loop
   vertex 3.5 -6.062177658081055 0
   vertex 3.5 -6.062177658081055 3
   vertex 2.163119077682495 -6.657395839691162 3
  endloop
 endfacet
 facet normal 0.5877851109877581 -0.8090170970388134 0
  outer loop
   vertex 3.5 -6.062177658081055 0
   vertex 4.6839141845703125 -5.202013969421387 0
   vertex 3.5 -6.062177658081055 3
  endloop
 endfacet
 facet normal 0.5877851109877581 -0.8090170970388134 0
  outer loop
   vertex 4.6839141845703125 -5.202013969421387 0
   vertex 4.6839141845703125 -5.202013969421387 3
   vertex 3.5 -6.062177658081055 3
  endloop
 endfacet
 facet normal 0.7431449225950225 -0.6691304984987893 0
  outer loop
   vertex 4.6839141845703125 -5.202013969421387 0
   vertex 5.663118839263916 -4.11449670791626 0
   vertex 4.6839141845703125 -5.202013969421387 3
  endloop
 endfacet
 facet normal 0.7431449225950225 -0.6691304984987893 0
  outer loop
   vertex 5.663118839263916 -4.11449670791626 0
   vertex 5.663118839263916 -4.11449670791626 3
   vertex 4.6839141845703125 -5.202013969421387 3
  endloop
 endfacet
 facet normal 0.8660253236718325 -0.5000001387590782 0
  outer loop
   vertex 5.663118839263916 -4.11449670791626 0
   vertex 6.394818305969238 -2.847156524658203 0
   vertex 5.663118839263916 -4.11449670791626 3
  endloop
 endfacet
 facet normal 0.8660253236718325 -0.5000001387590782 0
  outer loop
   vertex 6.394818305969238 -2.847156524658203 0
   vertex 6.394818305969238 -2.847156524658203 3
   vertex 5.663118839263916 -4.11449670791626 3
  endloop
 endfacet
 facet normal 0.9510565725399818 -0.309016821271112 0
  outer loop
   vertex 6.394818305969238 -2.847156524658203 0
   vertex 6.8470330238342285 -1.4553818702697754 0
   vertex 6.394818305969238 -2.847156524658203 3
  endloop
 endfacet
 facet normal 0.9510565725399818 -0.309016821271112 0
  outer loop
   vertex 6.8470330238342285 -1.4553818702697754 0
   vertex 6.8470330238342285 -1.4553818702697754 3
   vertex 6.394818305969238 -2.847156524658203 3
  endloop
 endfacet
 facet normal 0.994521882746964 -0.10452858335131919 0
  outer loop
   vertex 6.8470330238342285 -1.4553818702697754 0
   vertex 7 0 0
   vertex 6.8470330238342285 -1.4553818702697754 3
  endloop
 endfacet
 facet normal 0.994521882746964 -0.10452858335131919 0
  outer loop
   vertex 7 0 0
   vertex 7 0 3
   vertex 6.8470330238342285 -1.4553818702697754 3
  endloop
 endfacet
 facet normal -0.9238795799493666 0.38268331783941373 0
  outer loop
   vertex 2.9943699836730957 -0.8023390173912048 0
   vertex 2.684678792953491 -1.5499999523162842 0
   vertex 2.9943699836730957 -0.8023390173912048 3
  endloop
 endfacet
 facet normal -0.9238795799493666 0.38268331783941373 0
  outer loop
   vertex 2.684678792953491 -1.5499999523162842 0
   vertex 2.684678792953491 -1.5499999523162842 3
   vertex 2.9943699836730957 -0.8023390173912048 3
  endloop
 endfacet
 facet normal -0.7933532162313717 0.6087615906866484 0
  outer loop
   vertex 2.684678792953491 -1.5499999523162842 0
   vertex 2.192030906677246 -2.192030906677246 0
   vertex 2.684678792953491 -1.5499999523162842 3
  endloop
 endfacet
 facet normal -0.7933532162313717 0.6087615906866484 0
  outer loop
   vertex 2.192030906677246 -2.192030906677246 0
   vertex 2.192030906677246 -2.192030906677246 3
   vertex 2.684678792953491 -1.5499999523162842 3
  endloop
 endfacet
 facet normal -0.6087615906866484 0.7933532162313717 0
  outer loop
   vertex 2.192030906677246 -2.192030906677246 0
   vertex 1.5499999523162842 -2.684678792953491 0
   vertex 2.192030906677246 -2.192030906677246 3
  endloop
 endfacet
 facet normal -0.6087615906866484 0.7933532162313717 0
  outer loop
   vertex 1.5499999523162842 -2.684678792953491 0
   vertex 1.5499999523162842 -2.684678792953491 3
   vertex 2.192030906677246 -2.192030906677246 3
  endloop
 endfacet
 facet normal -0.38268331783941373 0.9238795799493666 0
  outer loop
   vertex 1.5499999523162842 -2.684678792953491 0
   vertex 0.8023390173912048 -2.9943699836730957 0
   vertex 1.5499999523162842 -2.684678792953491 3
  endloop
 endfacet
 facet normal -0.38268331783941373 0.9238795799493666 0
  outer loop
   vertex 0.8023390173912048 -2.9943699836730957 0
   vertex 0.8023390173912048 -2.9943699836730957 3
   vertex 1.5499999523162842 -2.684678792953491 3
  endloop
 endfacet
 facet normal -0.13052617449614182 0.9914448637072073 0
  outer loop
   vertex 0.8023390173912048 -2.9943699836730957 0
   vertex -5.694607798346582e-16 -3.0999999046325684 0
   vertex 0.8023390173912048 -2.9943699836730957 3
  endloop
 endfacet
 facet normal -0.13052617449614182 0.9914448637072073 0
  outer loop
   vertex -5.694607798346582e-16 -3.0999999046325684 0
   vertex -5.694607798346582e-16 -3.0999999046325684 3
   vertex 0.8023390173912048 -2.9943699836730957 3
  endloop
 endfacet
 facet normal 0.130526174496142 0.9914448637072073 0
  outer loop
   vertex -5.694607798346582e-16 -3.0999999046325684 0
   vertex -0.8023390173912048 -2.9943699836730957 0
   vertex -5.694607798346582e-16 -3.0999999046325684 3
  endloop
 endfacet
 facet normal 0.130526174496142 0.9914448637072073 0
  outer loop
   vertex -0.8023390173912048 -2.9943699836730957 0
   vertex -0.8023390173912048 -2.9943699836730957 3
   vertex -5.694607798346582e-16 -3.0999999046325684 3
  endloop
 endfacet
 facet normal 0.38268331783941373 0.9238795799493666 0
  outer loop
   vertex -0.8023390173912048 -2.9943699836730957 0
   vertex -1.5499999523162842 -2.684678792953491 0
   vertex -0.8023390173912048 -2.9943699836730957 3
  endloop
 endfacet
 facet normal 0.38268331783941373 0.9238795799493666 0
  outer loop
   vertex -1.5499999523162842 -2.684678792953491 0
   vertex -1.5499999523162842 -2.684678792953491 3
   vertex -0.8023390173912048 -2.9943699836730957 3
  endloop
 endfacet
 facet normal 0.6087615906866484 0.7933532162313717 0
  outer loop
   vertex -1.5499999523162842 -2.684678792953491 0
   vertex -2.192030906677246 -2.192030906677246 0
   vertex -1.5499999523162842 -2.684678792953491 3
  endloop
 endfacet
 facet normal 0.6087615906866484 0.7933532162313717 0
  outer loop
   vertex -2.192030906677246 -2.192030906677246 0
   vertex -2.192030906677246 -2.192030906677246 3
   vertex -1.5499999523162842 -2.684678792953491 3
  endloop
 endfacet
 facet normal 0.7933532162313717 0.6087615906866484 0
  outer loop
   vertex -2.192030906677246 -2.192030906677246 0
   vertex -2.684678792953491 -1.5499999523162842 0
   vertex -2.192030906677246 -2.192030906677246 3
  endloop
 endfacet
 facet normal 0.7933532162313717 0.6087615906866484 0
  outer loop
   vertex -2.684678792953491 -1.5499999523162842 0
   vertex -2.684678792953491 -1.5499999523162842 3
   vertex -2.192030906677246 -2.192030906677246 3
  endloop
 endfacet
 facet normal 0.9238795799493666 0.38268331783941373 0
  outer loop
   vertex -2.684678792953491 -1.5499999523162842 0
   vertex -2.9943699836730957 -0.8023390173912048 0
   vertex -2.684678792953491 -1.5499999523162842 3
  endloop
 endfacet
 facet normal 0.9238795799493666 0.38268331783941373 0
  outer loop
   vertex -2.9943699836730957 -0.8023390173912048 0
   vertex -2.9943699836730957 -0.8023390173912048 3
   vertex -2.684678792953491 -1.5499999523162842 3
  endloop
 endfacet
 facet normal 0.9914448637072073 0.13052617449614187 0
  outer loop
   vertex -2.9943699836730957 -0.8023390173912048 0
   vertex -3.0999999046325684 3.7964051106651223e-16 0
   vertex -2.9943699836730957 -0.8023390173912048 3
  endloop
 endfacet
 facet normal 0.9914448637072073 0.13052617449614187 0
  outer loop
   vertex -3.0999999046325684 3.7964051106651223e-16 0
   vertex -3.0999999046325684 3.7964051106651223e-16 3
   vertex -2.9943699836730957 -0.8023390173912048 3
  endloop
 endfacet
 facet normal 0.9914448637072073 -0.13052617449614196 0
  outer loop
   vertex -3.0999999046325684 3.7964051106651223e-16 0
   vertex -2.9943699836730957 0.8023390173912048 0
   vertex -3.0999999046325684 3.7964051106651223e-16 3
  endloop
 endfacet
 facet normal 0.9914448637072073 -0.13052617449614196 0
  outer loop
   vertex -2.9943699836730957 0.8023390173912048 0
   vertex -2.9943699836730957 0.8023390173912048 3
   vertex -3.0999999046325684 3.7964051106651223e-16 3
  endloop
 endfacet
 facet normal 0.9238795799493666 -0.38268331783941373 0
  outer loop
   vertex -2.9943699836730957 0.8023390173912048 0
   vertex -2.684678792953491 1.5499999523162842 0
   vertex -2.9943699836730957 0.8023390173912048 3
  endloop
 endfacet
 facet normal 0.9238795799493666 -0.38268331783941373 0
  outer loop
   vertex -2.684678792953491 1.5499999523162842 0
   vertex -2.684678792953491 1.5499999523162842 3
   vertex -2.9943699836730957 0.8023390173912048 3
  endloop
 endfacet
 facet normal 0.7933532162313717 -0.6087615906866484 0
  outer loop
   vertex -2.684678792953491 1.5499999523162842 0
   vertex -2.192030906677246 2.192030906677246 0
   vertex -2.684678792953491 1.5499999523162842 3
  endloop
 endfacet
 facet normal 0.7933532162313717 -0.6087615906866484 0
  outer loop
   vertex -2.192030906677246 2.192030906677246 0
   vertex -2.192030906677246 2.192030906677246 3
   vertex -2.684678792953491 1.5499999523162842 3
  endloop
 endfacet
 facet normal 0.6087615906866484 -0.7933532162313717 0
  outer loop
   vertex -2.192030906677246 2.192030906677246 0
   vertex -1.5499999523162842 2.684678792953491 0
   vertex -2.192030906677246 2.192030906677246 3
  endloop
 endfacet
 facet normal 0.6087615906866484 -0.7933532162313717 0
  outer loop
   vertex -1.5499999523162842 2.684678792953491 0
   vertex -1.5499999523162842 2.684678792953491 3
   vertex -2.192030906677246 2.192030906677246 3
  endloop
 endfacet
 facet normal 0.38268331783941373 -0.9238795799493666 0
  outer loop
   vertex -1.5499999523162842 2.684678792953491 0
   vertex -0.8023390173912048 2.9943699836730957 0
   vertex -1.5499999523162842 2.684678792953491 3
  endloop
 endfacet
 facet normal 0.38268331783941373 -0.9238795799493666 0
  outer loop
   vertex -0.8023390173912048 2.9943699836730957 0
   vertex -0.8023390173912048 2.9943699836730957 3
   vertex -1.5499999523162842 2.684678792953491 3
  endloop
 endfacet
 facet normal 0.13052617449614187 -0.9914448637072073 0
  outer loop
   vertex -0.8023390173912048 2.9943699836730957 0
   vertex 1.8982025553325612e-16 3.0999999046325684 0
   vertex -0.8023390173912048 2.9943699836730957 3
  endloop
 endfacet
 facet normal 0.13052617449614187 -0.9914448637072073 0
  outer loop
   vertex 1.8982025553325612e-16 3.0999999046325684 0
   vertex 1.8982025553325612e-16 3.0999999046325684 3
   vertex -0.8023390173912048 2.9943699836730957 3
  endloop
 endfacet
 facet normal -0.13052617449614196 -0.9914448637072073 0
  outer loop
   vertex 1.8982025553325612e-16 3.0999999046325684 0
   vertex 0.8023390173912048 2.9943699836730957 0
   vertex 1.8982025553325612e-16 3.0999999046325684 3
  endloop
 endfacet
 facet normal -0.13052617449614196 -0.9914448637072073 0
  outer loop
   vertex 0.8023390173912048 2.9943699836730957 0
   vertex 0.8023390173912048 2.9943699836730957 3
   vertex 1.8982025553325612e-16 3.0999999046325684 3
  endloop
 endfacet
 facet normal -0.38268331783941373 -0.9238795799493666 0
  outer loop
   vertex 0.8023390173912048 2.9943699836730957 0
   vertex 1.5499999523162842 2.684678792953491 0
   vertex 0.8023390173912048 2.9943699836730957 3
  endloop
 endfacet
 facet normal -0.38268331783941373 -0.9238795799493666 0
  outer loop
   vertex 1.5499999523162842 2.684678792953491 0
   vertex 1.5499999523162842 2.684678792953491 3
   vertex 0.8023390173912048 2.9943699836730957 3
  endloop
 endfacet
 facet normal -0.6087615906866484 -0.7933532162313717 0
  outer loop
   vertex 1.5499999523162842 2.684678792953491 0
   vertex 2.192030906677246 2.192030906677246 0
   vertex 1.5499999523162842 2.684678792953491 3
  endloop
 endfacet
 facet normal -0.6087615906866484 -0.7933532162313717 0
  outer loop
   vertex 2.192030906677246 2.192030906677246 0
   vertex 2.192030906677246 2.192030906677246 3
   vertex 1.5499999523162842 2.684678792953491 3
  endloop
 endfacet
 facet normal -0.7933532162313717 -0.6087615906866484 0
  outer loop
   vertex 2.192030906677246 2.192030906677246 0
   vertex 2.684678792953491 1.5499999523162842 0
   vertex 2.192030906677246 2.192030906677246 3
  endloop
 endfacet
 facet normal -0.7933532162313717 -0.6087615906866484 0
  outer loop
   vertex 2.684678792953491 1.5499999523162842 0
   vertex 2.684678792953491 1.5499999523162842 3
   vertex 2.192030906677246 2.192030906677246 3
  endloop
 endfacet
 facet normal -0.9238795799493666 -0.38268331783941373 0
  outer loop
   vertex 2.684678792953491 1.5499999523162842 0
   vertex 2.9943699836730957 0.8023390173912048 0
   vertex 2.684678792953491 1.5499999523162842 3
  endloop
 endfacet
 facet normal -0.9238795799493666 -0.38268331783941373 0
  outer loop
   vertex 2.9943699836730957 0.8023390173912048 0
   vertex 2.9943699836730957 0.8023390173912048 3
   vertex 2.684678792953491 1.5499999523162842 3
  endloop
 endfacet
 facet normal -0.9914448637072073 -0.1305261744961419 0
  outer loop
   vertex 2.9943699836730957 0.8023390173912048 0
   vertex 3.0999999046325684 0 0
   vertex 2.9943699836730957 0.8023390173912048 3
  endloop
 endfacet
 facet normal -0.9914448637072073 -0.1305261744961419 0
  outer loop
   vertex 3.0999999046325684 0 0
   vertex 3.0999999046325684 0 3
   vertex 2.9943699836730957 0.8023390173912048 3
  endloop
 endfacet
 facet normal -0.9914448637072073 0.1305261744961419 0
  outer loop
   vertex 3.0999999046325684 0 0
   vertex 2.9943699836730957 -0.8023390173912048 0
   vertex 3.0999999046325684 0 3
  endloop
 endfacet
 facet normal -0.9914448637072073 0.1305261744961419 0
  outer loop
   vertex 2.9943699836730957 -0.8023390173912048 0
   vertex 2.9943699836730957 -0.8023390173912048 3
   vertex 3.0999999046325684 0 3
  endloop
 endfacet
endsolid heart-09-collar