solid heart-02-side
 facet normal 0 0 -1
  outer loop
   vertex 31.899999618530273 38 0
   vertex 0 3 0
   vertex 0 75 0
  endloop
 endfacet
 facet normal 0 0 -1
  outer loop
   vertex 0 3 0
   vertex 31.899999618530273 38 0
   vertex 32.00563049316406 37.197662353515625 0
  endloop
 endfacet
 facet normal 0 0 -1
  outer loop
   vertex 32.00563049316406 38.802337646484375 0
   vertex 31.899999618530273 38 0
   vertex 0 75 0
  endloop
 endfacet
 facet normal 0 0 -1
  outer loop
   vertex 0 3 0
   vertex 32.00563049316406 37.197662353515625 0
   vertex 32.31532287597656 36.45000076293945 0
  endloop
 endfacet
 facet normal 0 0 -1
  outer loop
   vertex 32.31532287597656 39.54999923706055 0
   vertex 32.00563049316406 38.802337646484375 0
   vertex 0 75 0
  endloop
 endfacet
 facet normal 0 0 -1
  outer loop
   vertex 0 3 0
   vertex 32.31532287597656 36.45000076293945 0
   vertex 32.80796813964844 35.80796813964844 0
  endloop
 endfacet
 facet normal 0 0 -1
  outer loop
   vertex 32.80796813964844 40.19203186035156 0
   vertex 32.31532287597656 39.54999923706055 0
   vertex 0 75 0
  endloop
 endfacet
 facet normal 0 0 -1
  outer loop
   vertex 0 3 0
   vertex 32.80796813964844 35.80796813964844 0
   vertex 33.45000076293945 35.31532287597656 0
  endloop
 endfacet
 facet normal 0 0 -1
  outer loop
   vertex 32.80796813964844 40.19203186035156 0
   vertex 0 75 0
   vertex 70 75 0
  endloop
 endfacet
 facet normal 0 0 -1
  outer loop
   vertex 0 3 0
   vertex 33.45000076293945 35.31532287597656 0
   vertex 34.197662353515625 35.00563049316406 0
  endloop
 endfacet
 facet normal 0 0 -1
  outer loop
   vertex 33.45000076293945 40.68467712402344 0
   vertex 32.80796813964844 40.19203186035156 0
   vertex 70 75 0
  endloop
 endfacet
 facet normal 0 0 -1
  outer loop
   vertex 0 3 0
   vertex 34.197662353515625 35.00563049316406 0
   vertex 35 34.900001525878906 0
  endloop
 endfacet
 facet normal 0 0 -1
  outer loop
   vertex 34.197662353515625 40.99436950683594 0
   vertex 33.45000076293945 40.68467712402344 0
   vertex 70 75 0
  endloop
 endfacet
 facet normal 0 0 -1
  outer loop
   vertex 0 3 0
   vertex 35 34.900001525878906 0
   vertex 35.802337646484375 35.00563049316406 0
  endloop
 endfacet
 facet normal 0 0 -1
  outer loop
   vertex 35 41.099998474121094 0
   vertex 34.197662353515625 40.99436950683594 0
   vertex 70 75 0
  endloop
 endfacet
 facet normal 0 0 -1
  outer loop
   vertex 0 3 0
   vertex 35.802337646484375 35.00563049316406 0
   vertex 36.54999923706055 35.31532287597656 0
  endloop
 endfacet
 facet normal 0 0 -1
  outer loop
   vertex 35.802337646484375 40.99436950683594 0
   vertex 35 41.099998474121094 0
   vertex 70 75 0
  endloop
 endfacet
 facet normal 0 0 -1
  outer loop
   vertex 0 3 0
   vertex 36.54999923706055 35.31532287597656 0
   vertex 37.19203186035156 35.80796813964844 0
  endloop
 endfacet
 facet normal 0 0 -1
  outer loop
   vertex 36.54999923706055 40.68467712402344 0
   vertex 35.802337646484375 40.99436950683594 0
   vertex 70 75 0
  endloop
 endfacet
 facet normal 0 0 -1
  outer loop
   vertex 70 3 0
   vertex 0 3 0
   vertex 37.19203186035156 35.80796813964844 0
  endloop
 endfacet
 facet normal 0 0 -1
  outer loop
   vertex 37.19203186035156 40.19203186035156 0
   vertex 36.54999923706055 40.68467712402344 0
   vertex 70 75 0
  endloop
 endfacet
 facet normal 0 0 -1
  outer loop
   vertex 70 3 0
   vertex 37.19203186035156 35.80796813964844 0
   vertex 37.68467712402344 36.45000076293945 0
  endloop
 endfacet
 facet normal 0 0 -1
  outer loop
   vertex 37.19203186035156 40.19203186035156 0
   vertex 70 75 0
   vertex 70 3 0
  endloop
 endfacet
 facet normal 0 0 -1
  outer loop
   vertex 70 3 0
   vertex 37.68467712402344 36.45000076293945 0
   vertex 37.99436950683594 37.197662353515625 0
  endloop
 endfacet
 facet normal 0 0 -1
  outer loop
   vertex 37.68467712402344 39.54999923706055 0
   vertex 37.19203186035156 40.19203186035156 0
   vertex 70 3 0
  endloop
 endfacet
 facet normal 0 0 -1
  outer loop
   vertex 70 3 0
   vertex 37.99436950683594 37.197662353515625 0
   vertex 38.099998474121094 38 0
  endloop
 endfacet
 facet normal 0 0 -1
  outer loop
   vertex 37.99436950683594 38.802337646484375 0
   vertex 37.68467712402344 39.54999923706055 0
   vertex 70 3 0
  endloop
 endfacet
 facet normal 0 0 -1
  outer loop
   vertex 70 3 0
   vertex 38.099998474121094 38 0
   vertex 37.99436950683594 38.802337646484375 0
  endloop
 endfacet
 facet normal 0 0 1
  outer loop
   vertex 0 75 3
   vertex 0 3 3
   vertex 31.899999618530273 38 3
  endloop
 endfacet
 facet normal 0 0 1
  outer loop
   vertex 32.00563049316406 37.197662353515625 3
   vertex 31.899999618530273 38 3
   vertex 0 3 3
  endloop
 endfacet
 facet normal 0 0 1
  outer loop
   vertex 0 75 3
   vertex 31.899999618530273 38 3
   vertex 32.00563049316406 38.802337646484375 3
  endloop
 endfacet
 facet normal 0 0 1
  outer loop
   vertex 32.31532287597656 36.45000076293945 3
   vertex 32.00563049316406 37.197662353515625 3
   vertex 0 3 3
  endloop
 endfacet
 facet normal 0 0 1
  outer loop
   vertex 0 75 3
   vertex 32.00563049316406 38.802337646484375 3
   vertex 32.31532287597656 39.54999923706055 3
  endloop
 endfacet
 facet normal 0 0 1
  outer loop
   vertex 32.80796813964844 35.80796813964844 3
   vertex 32.31532287597656 36.45000076293945 3
   vertex 0 3 3
  endloop
 endfacet
 facet normal 0 0 1
  outer loop
   vertex 0 75 3
   vertex 32.31532287597656 39.54999923706055 3
   vertex 32.80796813964844 40.19203186035156 3
  endloop
 endfacet
 facet normal 0 0 1
  outer loop
   vertex 33.45000076293945 35.31532287597656 3
   vertex 32.80796813964844 35.80796813964844 3
   vertex 0 3 3
  endloop
 endfacet
 facet normal 0 0 1
  outer loop
   vertex 70 75 3
   vertex 0 75 3
   vertex 32.80796813964844 40.19203186035156 3
  endloop
 endfacet
 facet normal 0 0 1
  outer loop
   vertex 34.197662353515625 35.00563049316406 3
   vertex 33.45000076293945 35.31532287597656 3
   vertex 0 3 3
  endloop
 endfacet
 facet normal 0 0 1
  outer loop
   vertex 70 75 3
   vertex 32.80796813964844 40.19203186035156 3
   vertex 33.45000076293945 40.68467712402344 3
  endloop
 endfacet
 facet normal 0 0 1
  outer loop
   vertex 35 34.900001525878906 3
   vertex 34.197662353515625 35.00563049316406 3
   vertex 0 3 3
  endloop
 endfacet
 facet normal 0 0 1
  outer loop
   vertex 70 75 3
   vertex 33.45000076293945 40.68467712402344 3
   vertex 34.197662353515625 40.99436950683594 3
  endloop
 endfacet
 facet normal 0 0 1
  outer loop
   vertex 35.802337646484375 35.00563049316406 3
   vertex 35 34.900001525878906 3
   vertex 0 3 3
  endloop
 endfacet
 facet normal 0 0 1
  outer loop
   vertex 70 75 3
   vertex 34.197662353515625 40.99436950683594 3
   vertex 35 41.099998474121094 3
  endloop
 endfacet
 facet normal 0 0 1
  outer loop
   vertex 36.54999923706055 35.31532287597656 3
   vertex 35.802337646484375 35.00563049316406 3
   vertex 0 3 3
  endloop
 endfacet
 facet normal 0 0 1
  outer loop
   vertex 70 75 3
   vertex 35 41.099998474121094 3
   vertex 35.802337646484375 40.99436950683594 3
  endloop
 endfacet
 facet normal 0 0 1
  outer loop
   vertex 37.19203186035156 35.80796813964844 3
   vertex 36.54999923706055 35.31532287597656 3
   vertex 0 3 3
  endloop
 endfacet
 facet normal 0 0 1
  outer loop
   vertex 70 75 3
   vertex 35.802337646484375 40.99436950683594 3
   vertex 36.54999923706055 40.68467712402344 3
  endloop
 endfacet
 facet normal 0 0 1
  outer loop
   vertex 37.19203186035156 35.80796813964844 3
   vertex 0 3 3
   vertex 70 3 3
  endloop
 endfacet
 facet normal 0 0 1
  outer loop
   vertex 70 75 3
   vertex 36.54999923706055 40.68467712402344 3
   vertex 37.19203186035156 40.19203186035156 3
  endloop
 endfacet
 facet normal 0 0 1
  outer loop
   vertex 37.68467712402344 36.45000076293945 3
   vertex 37.19203186035156 35.80796813964844 3
   vertex 70 3 3
  endloop
 endfacet
 facet normal 0 0 1
  outer loop
   vertex 70 3 3
   vertex 70 75 3
   vertex 37.19203186035156 40.19203186035156 3
  endloop
 endfacet
 facet normal 0 0 1
  outer loop
   vertex 37.99436950683594 37.197662353515625 3
   vertex 37.68467712402344 36.45000076293945 3
   vertex 70 3 3
  endloop
 endfacet
 facet normal 0 0 1
  outer loop
   vertex 70 3 3
   vertex 37.19203186035156 40.19203186035156 3
   vertex 37.68467712402344 39.54999923706055 3
  endloop
 endfacet
 facet normal 0 0 1
  outer loop
   vertex 38.099998474121094 38 3
   vertex 37.99436950683594 37.197662353515625 3
   vertex 70 3 3
  endloop
 endfacet
 facet normal 0 0 1
  outer loop
   vertex 70 3 3
   vertex 37.68467712402344 39.54999923706055 3
   vertex 37.99436950683594 38.802337646484375 3
  endloop
 endfacet
 facet normal 0 0 1
  outer loop
   vertex 37.99436950683594 38.802337646484375 3
   vertex 38.099998474121094 38 3
   vertex 70 3 3
  endloop
 endfacet
 facet normal 0 -1 0
  outer loop
   vertex 0 3 0
   vertex 70 3 0
   vertex 0 3 3
  endloop
 endfacet
 facet normal 0 -1 0
  outer loop
   vertex 70 3 0
   vertex 70 3 3
   vertex 0 3 3
  endloop
 endfacet
 facet normal 1 0 0
  outer loop
   vertex 70 3 0
   vertex 70 75 0
   vertex 70 3 3
  endloop
 endfacet
 facet normal 1 0 0
  outer loop
   vertex 70 75 0
   vertex 70 75 3
   vertex 70 3 3
  endloop
 endfacet
 facet normal 0 1 0
  outer loop
   vertex 70 75 0
   vertex 0 75 0
   vertex 70 75 3
  endloop
 endfacet
 facet normal 0 1 0
  outer loop
   vertex 0 75 0
   vertex 0 75 3
   vertex 70 75 3
  endloop
 endfacet
 facet normal -1 0 0
  outer loop
   vertex 0 75 0
   vertex 0 3 0
   vertex 0 75 3
  endloop
 endfacet
 facet normal -1 0 0
  outer loop
   vertex 0 3 0
   vertex 0 3 3
   vertex 0 75 3
  endloop
 endfacet
 facet normal -0.9238791777923216 0.38268428873130356 0
  outer loop
   vertex 37.99436950683594 37.197662353515625 0
   vertex 37.68467712402344 36.45000076293945 0
   vertex 37.99436950683594 37.197662353515625 3
  endloop
 endfacet
 facet normal -0.9238791777923216 0.38268428873130356 0
  outer loop
   vertex 37.68467712402344 36.45000076293945 0
   vertex 37.68467712402344 36.45000076293945 3
   vertex 37.99436950683594 37.197662353515625 3
  endloop
 endfacet
 facet normal -0.7933555456446193 0.608758554925455 0
  outer loop
   vertex 37.68467712402344 36.45000076293945 0
   vertex 37.19203186035156 35.80796813964844 0
   vertex 37.68467712402344 36.45000076293945 3
  endloop
 endfacet
 facet normal -0.7933555456446193 0.608758554925455 0
  outer loop
   vertex 37.19203186035156 35.80796813964844 0
   vertex 37.19203186035156 35.80796813964844 3
   vertex 37.68467712402344 36.45000076293945 3
  endloop
 endfacet
 facet normal -0.608758554925455 0.7933555456446193 0
  outer loop
   vertex 37.19203186035156 35.80796813964844 0
   vertex 36.54999923706055 35.31532287597656 0
   vertex 37.19203186035156 35.80796813964844 3
  endloop
 endfacet
 facet normal -0.608758554925455 0.7933555456446193 0
  outer loop
   vertex 36.54999923706055 35.31532287597656 0
   vertex 36.54999923706055 35.31532287597656 3
   vertex 37.19203186035156 35.80796813964844 3
  endloop
 endfacet
 facet normal -0.38268428873130356 0.9238791777923216 0
  outer loop
   vertex 36.54999923706055 35.31532287597656 0
   vertex 35.802337646484375 35.00563049316406 0
   vertex 36.54999923706055 35.31532287597656 3
  endloop
 endfacet
 facet normal -0.38268428873130356 0.9238791777923216 0
  outer loop
   vertex 35.802337646484375 35.00563049316406 0
   vertex 35.802337646484375 35.00563049316406 3
   vertex 36.54999923706055 35.31532287597656 3
  endloop
 endfacet
 facet normal -0.13052523534515018 0.9914449873483114 0
  outer loop
   vertex 35.802337646484375 35.00563049316406 0
   vertex 35 34.900001525878906 0
   vertex 35.802337646484375 35.00563049316406 3
  endloop
 endfacet
 facet normal -0.13052523534515018 0.9914449873483114 0
  outer loop
   vertex 35 34.900001525878906 0
   vertex 35 34.900001525878906 3
   vertex 35.802337646484375 35.00563049316406 3
  endloop
 endfacet
 facet normal 0.13052523534515018 0.9914449873483114 0
  outer loop
   vertex 35 34.900001525878906 0
   vertex 34.197662353515625 35.00563049316406 0
   vertex 35 34.900001525878906 3
  endloop
 endfacet
 facet normal 0.13052523534515018 0.9914449873483114 0
  outer loop
   vertex 34.197662353515625 35.00563049316406 0
   vertex 34.197662353515625 35.00563049316406 3
   vertex 35 34.900001525878906 3
  endloop
 endfacet
 facet normal 0.38268428873130356 0.9238791777923216 0
  outer loop
   vertex 34.197662353515625 35.00563049316406 0
   vertex 33.45000076293945 35.31532287597656 0
   vertex 34.197662353515625 35.00563049316406 3
  endloop
 endfacet
 facet normal 0.38268428873130356 0.9238791777923216 0
  outer loop
   vertex 33.45000076293945 35.31532287597656 0
   vertex 33.45000076293945 35.31532287597656 3
   vertex 34.197662353515625 35.00563049316406 3
  endloop
 endfacet
 facet normal 0.608758554925455 0.7933555456446193 0
  outer loop
   vertex 33.45000076293945 35.31532287597656 0
   vertex 32.80796813964844 35.80796813964844 0
   vertex 33.45000076293945 35.31532287597656 3
  endloop
 endfacet
 facet normal 0.608758554925455 0.7933555456446193 0
  outer loop
   vertex 32.80796813964844 35.80796813964844 0
   vertex 32.80796813964844 35.80796813964844 3
   vertex 33.45000076293945 35.31532287597656 3
  endloop
 endfacet
 facet normal 0.7933555456446193 0.608758554925455 0
  outer loop
   vertex 32.80796813964844 35.80796813964844 0
   vertex 32.31532287597656 36.45000076293945 0
   vertex 32.80796813964844 35.80796813964844 3
  endloop
 endfacet
 facet normal 0.7933555456446193 0.608758554925455 0
  outer loop
   vertex 32.31532287597656 36.45000076293945 0
   vertex 32.31532287597656 36.45000076293945 3
   vertex 32.80796813964844 35.80796813964844 3
  endloop
 endfacet
 facet normal 0.9238791777923216 0.38268428873130356 0
  outer loop
   vertex 32.31532287597656 36.45000076293945 0
   vertex 32.00563049316406 37.197662353515625 0
   vertex 32.31532287597656 36.45000076293945 3
  endloop
 endfacet
 facet normal 0.9238791777923216 0.38268428873130356 0
  outer loop
   vertex 32.00563049316406 37.197662353515625 0
   vertex 32.00563049316406 37.197662353515625 3
   vertex 32.31532287597656 36.45000076293945 3
  endloop
 endfacet
 facet normal 0.9914446823423271 0.13052755209197162 0
  outer loop
   vertex 32.00563049316406 37.197662353515625 0
   vertex 31.899999618530273 38 0
   vertex 32.00563049316406 37.197662353515625 3
  endloop
 endfacet
 facet normal 0.9914446823423271 0.13052755209197162 0
  outer loop
   vertex 31.899999618530273 38 0
   vertex 31.899999618530273 38 3
   vertex 32.00563049316406 37.197662353515625 3
  endloop
 endfacet
 facet normal 0.9914446823423271 -0.13052755209197162 0
  outer loop
   vertex 31.899999618530273 38 0
   vertex 32.00563049316406 38.802337646484375 0
   vertex 31.899999618530273 38 3
  endloop
 endfacet
 facet normal 0.9914446823423271 -0.13052755209197162 0
  outer loop
   vertex 32.00563049316406 38.802337646484375 0
   vertex 32.00563049316406 38.802337646484375 3
   vertex 31.899999618530273 38 3
  endloop
 endfacet
 facet normal 0.9238791777923216 -0.38268428873130356 0
  outer loop
   vertex 32.00563049316406 38.802337646484375 0
   vertex 32.31532287597656 39.54999923706055 0
   vertex 32.00563049316406 38.802337646484375 3
  endloop
 endfacet
 facet normal 0.9238791777923216 -0.38268428873130356 0
  outer loop
   vertex 32.31532287597656 39.54999923706055 0
   vertex 32.31532287597656 39.54999923706055 3
   vertex 32.00563049316406 38.802337646484375 3
  endloop
 endfacet
 facet normal 0.7933555456446193 -0.608758554925455 0
  outer loop
   vertex 32.31532287597656 39.54999923706055 0
   vertex 32.80796813964844 40.19203186035156 0
   vertex 32.31532287597656 39.54999923706055 3
  endloop
 endfacet
 facet normal 0.7933555456446193 -0.608758554925455 0
  outer loop
   vertex 32.80796813964844 40.19203186035156 0
   vertex 32.80796813964844 40.19203186035156 3
   vertex 32.31532287597656 39.54999923706055 3
  endloop
 endfacet
 facet normal 0.608758554925455 -0.7933555456446193 0
  outer loop
   vertex 32.80796813964844 40.19203186035156 0
   vertex 33.45000076293945 40.68467712402344 0
   vertex 32.80796813964844 40.19203186035156 3
  endloop
 endfacet
 facet normal 0.608758554925455 -0.7933555456446193 0
  outer loop
   vertex 33.45000076293945 40.68467712402344 0
   vertex 33.45000076293945 40.68467712402344 3
   vertex 32.80796813964844 40.19203186035156 3
  endloop
 endfacet
 facet normal 0.38268428873130356 -0.9238791777923216 0
  outer loop
   vertex 33.45000076293945 40.68467712402344 0
   vertex 34.197662353515625 40.99436950683594 0
   vertex 33.45000076293945 40.68467712402344 3
  endloop
 endfacet
 facet normal 0.38268428873130356 -0.9238791777923216 0
  outer loop
   vertex 34.197662353515625 40.99436950683594 0
   vertex 34.197662353515625 40.99436950683594 3
   vertex 33.45000076293945 40.68467712402344 3
  endloop
 endfacet
 facet normal 0.13052523534515018 -0.9914449873483114 0
  outer loop
   vertex 34.197662353515625 40.99436950683594 0
   vertex 35 41.099998474121094 0
   vertex 34.197662353515625 40.99436950683594 3
  endloop
 endfacet
 facet normal 0.13052523534515018 -0.9914449873483114 0
  outer loop
   vertex 35 41.099998474121094 0
   vertex 35 41.099998474121094 3
   vertex 34.197662353515625 40.99436950683594 3
  endloop
 endfacet
 facet normal -0.13052523534515018 -0.9914449873483114 0
  outer loop
   vertex 35 41.099998474121094 0
   vertex 35.802337646484375 40.99436950683594 0
   vertex 35 41.099998474121094 3
  endloop
 endfacet
 facet normal -0.13052523534515018 -0.9914449873483114 0
  outer loop
   vertex 35.802337646484375 40.99436950683594 0
   vertex 35.802337646484375 40.99436950683594 3
   vertex 35 41.099998474121094 3
  endloop
 endfacet
 facet normal -0.38268428873130356 -0.9238791777923216 0
  outer loop
   vertex 35.802337646484375 40.99436950683594 0
   vertex 36.54999923706055 40.68467712402344 0
   vertex 35.802337646484375 40.99436950683594 3
  endloop
 endfacet
 facet normal -0.38268428873130356 -0.9238791777923216 0
  outer loop
   vertex 36.54999923706055 40.68467712402344 0
   vertex 36.54999923706055 40.68467712402344 3
   vertex 35.802337646484375 40.99436950683594 3
  endloop
 endfacet
 facet normal -0.608758554925455 -0.7933555456446193 0
  outer loop
   vertex 36.54999923706055 40.68467712402344 0
   vertex 37.19203186035156 40.19203186035156 0
   vertex 36.54999923706055 40.68467712402344 3
  endloop
 endfacet
 facet normal -0.608758554925455 -0.7933555456446193 0
  outer loop
   vertex 37.19203186035156 40.19203186035156 0
   vertex 37.19203186035156 40.19203186035156 3
   vertex 36.54999923706055 40.68467712402344 3
  endloop
 endfacet
 facet normal -0.7933555456446193 -0.608758554925455 0
  outer loop
   vertex 37.19203186035156 40.19203186035156 0
   vertex 37.68467712402344 39.54999923706055 0
   vertex 37.19203186035156 40.19203186035156 3
  endloop
 endfacet
 facet normal -0.7933555456446193 -0.608758554925455 0
  outer loop
   vertex 37.68467712402344 39.54999923706055 0
   vertex 37.68467712402344 39.54999923706055 3
   vertex 37.19203186035156 40.19203186035156 3
  endloop
 endfacet
 facet normal -0.9238791777923216 -0.38268428873130356 0
  outer loop
   vertex 37.68467712402344 39.54999923706055 0
   vertex 37.99436950683594 38.802337646484375 0
   vertex 37.68467712402344 39.54999923706055 3
  endloop
 endfacet
 facet normal -0.9238791777923216 -0.38268428873130356 0
  outer loop
   vertex 37.99436950683594 38.802337646484375 0
   vertex 37.99436950683594 38.802337646484375 3
   vertex 37.68467712402344 39.54999923706055 3
  endloop
 endfacet
 facet normal -0.9914449873483114 -0.13052523534515018 0
  outer loop
   vertex 37.99436950683594 38.802337646484375 0
   vertex 38.099998474121094 38 0
   vertex 37.99436950683594 38.802337646484375 3
  endloop
 endfacet
 facet normal -0.9914449873483114 -0.13052523534515018 0
  outer loop
   vertex 38.099998474121094 38 0
   vertex 38.099998474121094 38 3
   vertex 37.99436950683594 38.802337646484375 3
  endloop
 endfacet
 facet normal -0.9914449873483114 0.13052523534515018 0
  outer loop
   vertex 38.099998474121094 38 0
   vertex 37.99436950683594 37.197662353515625 0
   vertex 38.099998474121094 38 3
  endloop
 endfacet
 facet normal -0.9914449873483114 0.13052523534515018 0
  outer loop
   vertex 37.99436950683594 37.197662353515625 0
   vertex 37.99436950683594 37.197662353515625 3
   vertex 38.099998474121094 38 3
  endloop
 endfacet
endsolid heart-02-side