solid hp-02-cap
 facet normal 1.4769553283383527e-16 2.0301221021717148e-16 -1
  outer loop
   vertex 56.7 43.3 0
   vertex 20 0 0
   vertex 20 70 0
  endloop
 endfacet
 facet normal 0 0 -1
  outer loop
   vertex 20 70 0
   vertex 63.3 43.3 0
   vertex 56.7 43.3 0
  endloop
 endfacet
 facet normal -6.228125451027105e-16 8.560756639439639e-16 -1
  outer loop
   vertex 56.7 26.7 0
   vertex 20 0 0
   vertex 56.7 43.3 0
  endloop
 endfacet
 facet normal 0 0 -1
  outer loop
   vertex 100 70 0
   vertex 63.3 43.3 0
   vertex 20 70 0
  endloop
 endfacet
 facet normal 0 0 -1
  outer loop
   vertex 56.7 26.7 0
   vertex 100 0 0
   vertex 20 0 0
  endloop
 endfacet
 facet normal -6.228125451027105e-16 8.560756639439639e-16 -1
  outer loop
   vertex 100 70 0
   vertex 63.3 26.7 0
   vertex 63.3 43.3 0
  endloop
 endfacet
 facet normal 0 0 -1
  outer loop
   vertex 63.3 26.7 0
   vertex 100 0 0
   vertex 56.7 26.7 0
  endloop
 endfacet
 facet normal 1.4769553283383527e-16 2.0301221021717148e-16 -1
  outer loop
   vertex 100 0 0
   vertex 63.3 26.7 0
   vertex 100 70 0
  endloop
 endfacet
 facet normal -1.4769553283383527e-16 -2.0301221021717148e-16 1
  outer loop
   vertex 20 0 3
   vertex 56.7 43.3 3
   vertex 20 70 3
  endloop
 endfacet
 facet normal 0 0 1
  outer loop
   vertex 63.3 43.3 3
   vertex 20 70 3
   vertex 56.7 43.3 3
  endloop
 endfacet
 facet normal 6.228125451027105e-16 -8.560756639439639e-16 1
  outer loop
   vertex 20 0 3
   vertex 56.7 26.7 3
   vertex 56.7 43.3 3
  endloop
 endfacet
 facet normal 0 0 1
  outer loop
   vertex 63.3 43.3 3
   vertex 100 70 3
   vertex 20 70 3
  endloop
 endfacet
 facet normal 0 0 1
  outer loop
   vertex 100 0 3
   vertex 56.7 26.7 3
   vertex 20 0 3
  endloop
 endfacet
 facet normal 6.228125451027105e-16 -8.560756639439639e-16 1
  outer loop
   vertex 63.3 26.7 3
   vertex 100 70 3
   vertex 63.3 43.3 3
  endloop
 endfacet
 facet normal 0 0 1
  outer loop
   vertex 100 0 3
   vertex 63.3 26.7 3
   vertex 56.7 26.7 3
  endloop
 endfacet
 facet normal -1.4769553283383527e-16 -2.0301221021717148e-16 1
  outer loop
   vertex 63.3 26.7 3
   vertex 100 0 3
   vertex 100 70 3
  endloop
 endfacet
 facet normal 0 1 0
  outer loop
   vertex 20 70 0
   vertex 20 70 3
   vertex 100 70 0
  endloop
 endfacet
 facet normal 0 1 0
  outer loop
   vertex 100 70 0
   vertex 20 70 3
   vertex 100 70 3
  endloop
 endfacet
 facet normal 1 0 0
  outer loop
   vertex 100 70 0
   vertex 100 70 3
   vertex 100 0 0
  endloop
 endfacet
 facet normal 1 0 0
  outer loop
   vertex 100 0 0
   vertex 100 70 3
   vertex 100 0 3
  endloop
 endfacet
 facet normal 0 -1 0
  outer loop
   vertex 100 0 0
   vertex 100 0 3
   vertex 20 0 0
  endloop
 endfacet
 facet normal 0 -1 0
  outer loop
   vertex 20 0 0
   vertex 100 0 3
   vertex 20 0 3
  endloop
 endfacet
 facet normal -1 0 0
  outer loop
   vertex 20 0 0
   vertex 20 0 3
   vertex 20 70 0
  endloop
 endfacet
 facet normal -1 0 0
  outer loop
   vertex 20 70 0
   vertex 20 0 3
   vertex 20 70 3
  endloop
 endfacet
 facet normal 0 1 0
  outer loop
   vertex 56.7 26.7 0
   vertex 56.7 26.7 3
   vertex 63.3 26.7 0
  endloop
 endfacet
 facet normal 0 1 0
  outer loop
   vertex 63.3 26.7 0
   vertex 56.7 26.7 3
   vertex 63.3 26.7 3
  endloop
 endfacet
 facet normal -1 0 0
  outer loop
   vertex 63.3 26.7 0
   vertex 63.3 26.7 3
   vertex 63.3 43.3 0
  endloop
 endfacet
 facet normal -1 0 0
  outer loop
   vertex 63.3 43.3 0
   vertex 63.3 26.7 3
   vertex 63.3 43.3 3
  endloop
 endfacet
 facet normal 0 -1 0
  outer loop
   vertex 63.3 43.3 0
   vertex 63.3 43.3 3
   vertex 56.7 43.3 0
  endloop
 endfacet
 facet normal 0 -1 0
  outer loop
   vertex 56.7 43.3 0
   vertex 63.3 43.3 3
   vertex 56.7 43.3 3
  endloop
 endfacet
 facet normal 1 0 0
  outer loop
   vertex 56.7 43.3 0
   vertex 56.7 43.3 3
   vertex 56.7 26.7 0
  endloop
 endfacet
 facet normal 1 0 0
  outer loop
   vertex 56.7 26.7 0
   vertex 56.7 43.3 3
   vertex 56.7 26.7 3
  endloop
 endfacet
 facet normal 1 0 0
  outer loop
   vertex 56.7 43.3 14.5
   vertex 56.7 26.7 3
   vertex 56.7 43.3 3
  endloop
 endfacet
 facet normal 1 0 0
  outer loop
   vertex 56.7 26.7 3
   vertex 56.7 43.3 14.5
   vertex 56.7 26.7 14.5
  endloop
 endfacet
 facet normal -1 0 0
  outer loop
   vertex 53.7 26.7 3
   vertex 53.7 43.3 14.5
   vertex 53.7 43.3 3
  endloop
 endfacet
 facet normal -1 0 0
  outer loop
   vertex 53.7 43.3 14.5
   vertex 53.7 26.7 3
   vertex 53.7 26.7 14.5
  endloop
 endfacet
 facet normal 0 0 1
  outer loop
   vertex 56.7 43.3 14.5
   vertex 53.7 43.3 14.5
   vertex 56.7 26.7 14.5
  endloop
 endfacet
 facet normal 0 0 1
  outer loop
   vertex 56.7 26.7 14.5
   vertex 53.7 43.3 14.5
   vertex 53.7 26.7 14.5
  endloop
 endfacet
 facet normal 0 -1 0
  outer loop
   vertex 56.7 26.7 14.5
   vertex 53.7 26.7 14.5
   vertex 56.7 26.7 3
  endloop
 endfacet
 facet normal 0 -1 0
  outer loop
   vertex 56.7 26.7 3
   vertex 53.7 26.7 14.5
   vertex 53.7 26.7 3
  endloop
 endfacet
 facet normal 0 0 -1
  outer loop
   vertex 56.7 26.7 3
   vertex 53.7 26.7 3
   vertex 56.7 43.3 3
  endloop
 endfacet
 facet normal 0 0 -1
  outer loop
   vertex 56.7 43.3 3
   vertex 53.7 26.7 3
   vertex 53.7 43.3 3
  endloop
 endfacet
 facet normal 0 1 0
  outer loop
   vertex 56.7 43.3 3
   vertex 53.7 43.3 3
   vertex 56.7 43.3 14.5
  endloop
 endfacet
 facet normal 0 1 0
  outer loop
   vertex 56.7 43.3 14.5
   vertex 53.7 43.3 3
   vertex 53.7 43.3 14.5
  endloop
 endfacet
 facet normal 1 8.560756639439639e-16 0
  outer loop
   vertex 66.3 43.3 14.5
   vertex 66.3 26.7 3
   vertex 66.3 43.3 3
  endloop
 endfacet
 facet normal 1 8.560756639439639e-16 0
  outer loop
   vertex 66.3 26.7 3
   vertex 66.3 43.3 14.5
   vertex 66.3 26.7 14.5
  endloop
 endfacet
 facet normal -1 0 0
  outer loop
   vertex 63.3 26.7 3
   vertex 63.3 43.3 14.5
   vertex 63.3 43.3 3
  endloop
 endfacet
 facet normal -1 0 0
  outer loop
   vertex 63.3 43.3 14.5
   vertex 63.3 26.7 3
   vertex 63.3 26.7 14.5
  endloop
 endfacet
 facet normal 0 0 1
  outer loop
   vertex 66.3 43.3 14.5
   vertex 63.3 43.3 14.5
   vertex 66.3 26.7 14.5
  endloop
 endfacet
 facet normal 0 0 1
  outer loop
   vertex 66.3 26.7 14.5
   vertex 63.3 43.3 14.5
   vertex 63.3 26.7 14.5
  endloop
 endfacet
 facet normal 0 -1 0
  outer loop
   vertex 66.3 26.7 14.5
   vertex 63.3 26.7 14.5
   vertex 66.3 26.7 3
  endloop
 endfacet
 facet normal 0 -1 0
  outer loop
   vertex 66.3 26.7 3
   vertex 63.3 26.7 14.5
   vertex 63.3 26.7 3
  endloop
 endfacet
 facet normal 0 0 -1
  outer loop
   vertex 66.3 26.7 3
   vertex 63.3 26.7 3
   vertex 66.3 43.3 3
  endloop
 endfacet
 facet normal 0 0 -1
  outer loop
   vertex 66.3 43.3 3
   vertex 63.3 26.7 3
   vertex 63.3 43.3 3
  endloop
 endfacet
 facet normal 0 1 0
  outer loop
   vertex 66.3 43.3 3
   vertex 63.3 43.3 3
   vertex 66.3 43.3 14.5
  endloop
 endfacet
 facet normal 0 1 0
  outer loop
   vertex 66.3 43.3 14.5
   vertex 63.3 43.3 3
   vertex 63.3 43.3 14.5
  endloop
 endfacet
 facet normal 0 1 0
  outer loop
   vertex 53.7 46.3 14.5
   vertex 66.3 46.3 3
   vertex 53.7 46.3 3
  endloop
 endfacet
 facet normal 0 1 0
  outer loop
   vertex 66.3 46.3 3
   vertex 53.7 46.3 14.5
   vertex 66.3 46.3 14.5
  endloop
 endfacet
 facet normal 0 -1 0
  outer loop
   vertex 66.3 43.3 3
   vertex 53.7 43.3 14.5
   vertex 53.7 43.3 3
  endloop
 endfacet
 facet normal 0 -1 0
  outer loop
   vertex 53.7 43.3 14.5
   vertex 66.3 43.3 3
   vertex 66.3 43.3 14.5
  endloop
 endfacet
 facet normal 0 0 1
  outer loop
   vertex 53.7 46.3 14.5
   vertex 53.7 43.3 14.5
   vertex 66.3 46.3 14.5
  endloop
 endfacet
 facet normal 0 0 1
  outer loop
   vertex 66.3 46.3 14.5
   vertex 53.7 43.3 14.5
   vertex 66.3 43.3 14.5
  endloop
 endfacet
 facet normal 1 0 0
  outer loop
   vertex 66.3 46.3 14.5
   vertex 66.3 43.3 14.5
   vertex 66.3 46.3 3
  endloop
 endfacet
 facet normal 1 0 0
  outer loop
   vertex 66.3 46.3 3
   vertex 66.3 43.3 14.5
   vertex 66.3 43.3 3
  endloop
 endfacet
 facet normal 0 0 -1
  outer loop
   vertex 66.3 46.3 3
   vertex 66.3 43.3 3
   vertex 53.7 46.3 3
  endloop
 endfacet
 facet normal 0 0 -1
  outer loop
   vertex 53.7 46.3 3
   vertex 66.3 43.3 3
   vertex 53.7 43.3 3
  endloop
 endfacet
 facet normal -1 0 0
  outer loop
   vertex 53.7 46.3 3
   vertex 53.7 43.3 3
   vertex 53.7 46.3 14.5
  endloop
 endfacet
 facet normal -1 0 0
  outer loop
   vertex 53.7 46.3 14.5
   vertex 53.7 43.3 3
   vertex 53.7 43.3 14.5
  endloop
 endfacet
 facet normal 0 1 0
  outer loop
   vertex 53.7 26.7 14.5
   vertex 66.3 26.7 3
   vertex 53.7 26.7 3
  endloop
 endfacet
 facet normal 0 1 0
  outer loop
   vertex 66.3 26.7 3
   vertex 53.7 26.7 14.5
   vertex 66.3 26.7 14.5
  endloop
 endfacet
 facet normal 0 -1 0
  outer loop
   vertex 66.3 23.7 3
   vertex 53.7 23.7 14.5
   vertex 53.7 23.7 3
  endloop
 endfacet
 facet normal 0 -1 0
  outer loop
   vertex 53.7 23.7 14.5
   vertex 66.3 23.7 3
   vertex 66.3 23.7 14.5
  endloop
 endfacet
 facet normal 0 0 1
  outer loop
   vertex 53.7 26.7 14.5
   vertex 53.7 23.7 14.5
   vertex 66.3 26.7 14.5
  endloop
 endfacet
 facet normal 0 0 1
  outer loop
   vertex 66.3 26.7 14.5
   vertex 53.7 23.7 14.5
   vertex 66.3 23.7 14.5
  endloop
 endfacet
 facet normal 1 0 0
  outer loop
   vertex 66.3 26.7 14.5
   vertex 66.3 23.7 14.5
   vertex 66.3 26.7 3
  endloop
 endfacet
 facet normal 1 0 0
  outer loop
   vertex 66.3 26.7 3
   vertex 66.3 23.7 14.5
   vertex 66.3 23.7 3
  endloop
 endfacet
 facet normal 0 0 -1
  outer loop
   vertex 66.3 26.7 3
   vertex 66.3 23.7 3
   vertex 53.7 26.7 3
  endloop
 endfacet
 facet normal 0 0 -1
  outer loop
   vertex 53.7 26.7 3
   vertex 66.3 23.7 3
   vertex 53.7 23.7 3
  endloop
 endfacet
 facet normal -1 0 0
  outer loop
   vertex 53.7 26.7 3
   vertex 53.7 23.7 3
   vertex 53.7 26.7 14.5
  endloop
 endfacet
 facet normal -1 0 0
  outer loop
   vertex 53.7 26.7 14.5
   vertex 53.7 23.7 3
   vertex 53.7 23.7 14.5
  endloop
 endfacet
 facet normal 0 1 0
  outer loop
   vertex 23.25 66.75 5
   vertex 96.75 66.75 3
   vertex 23.25 66.75 3
  endloop
 endfacet
 facet normal 0 1 0
  outer loop
   vertex 96.75 66.75 3
   vertex 23.25 66.75 5
   vertex 96.75 66.75 5
  endloop
 endfacet
 facet normal 0 -1 0
  outer loop
   vertex 96.75 64.75 3
   vertex 23.25 64.75 5
   vertex 23.25 64.75 3
  endloop
 endfacet
 facet normal 0 -1 0
  outer loop
   vertex 23.25 64.75 5
   vertex 96.75 64.75 3
   vertex 96.75 64.75 5
  endloop
 endfacet
 facet normal 0 0 1
  outer loop
   vertex 23.25 66.75 5
   vertex 23.25 64.75 5
   vertex 96.75 66.75 5
  endloop
 endfacet
 facet normal 0 0 1
  outer loop
   vertex 96.75 66.75 5
   vertex 23.25 64.75 5
   vertex 96.75 64.75 5
  endloop
 endfacet
 facet normal 1 0 0
  outer loop
   vertex 96.75 66.75 5
   vertex 96.75 64.75 5
   vertex 96.75 66.75 3
  endloop
 endfacet
 facet normal 1 0 0
  outer loop
   vertex 96.75 66.75 3
   vertex 96.75 64.75 5
   vertex 96.75 64.75 3
  endloop
 endfacet
 facet normal 0 0 -1
  outer loop
   vertex 96.75 66.75 3
   vertex 96.75 64.75 3
   vertex 23.25 66.75 3
  endloop
 endfacet
 facet normal 0 0 -1
  outer loop
   vertex 23.25 66.75 3
   vertex 96.75 64.75 3
   vertex 23.25 64.75 3
  endloop
 endfacet
 facet normal -1 0 0
  outer loop
   vertex 23.25 66.75 3
   vertex 23.25 64.75 3
   vertex 23.25 66.75 5
  endloop
 endfacet
 facet normal -1 0 0
  outer loop
   vertex 23.25 66.75 5
   vertex 23.25 64.75 3
   vertex 23.25 64.75 5
  endloop
 endfacet
 facet normal 0 1 0
  outer loop
   vertex 23.25 5.25 5
   vertex 96.75 5.25 3
   vertex 23.25 5.25 3
  endloop
 endfacet
 facet normal 0 1 0
  outer loop
   vertex 96.75 5.25 3
   vertex 23.25 5.25 5
   vertex 96.75 5.25 5
  endloop
 endfacet
 facet normal 0 -1 0
  outer loop
   vertex 96.75 3.25 3
   vertex 23.25 3.25 5
   vertex 23.25 3.25 3
  endloop
 endfacet
 facet normal 0 -1 0
  outer loop
   vertex 23.25 3.25 5
   vertex 96.75 3.25 3
   vertex 96.75 3.25 5
  endloop
 endfacet
 facet normal 0 0 1
  outer loop
   vertex 23.25 5.25 5
   vertex 23.25 3.25 5
   vertex 96.75 5.25 5
  endloop
 endfacet
 facet normal 0 0 1
  outer loop
   vertex 96.75 5.25 5
   vertex 23.25 3.25 5
   vertex 96.75 3.25 5
  endloop
 endfacet
 facet normal 1 0 0
  outer loop
   vertex 96.75 5.25 5
   vertex 96.75 3.25 5
   vertex 96.75 5.25 3
  endloop
 endfacet
 facet normal 1 0 0
  outer loop
   vertex 96.75 5.25 3
   vertex 96.75 3.25 5
   vertex 96.75 3.25 3
  endloop
 endfacet
 facet normal 0 0 -1
  outer loop
   vertex 96.75 5.25 3
   vertex 96.75 3.25 3
   vertex 23.25 5.25 3
  endloop
 endfacet
 facet normal 0 0 -1
  outer loop
   vertex 23.25 5.25 3
   vertex 96.75 3.25 3
   vertex 23.25 3.25 3
  endloop
 endfacet
 facet normal -1 0 0
  outer loop
   vertex 23.25 5.25 3
   vertex 23.25 3.25 3
   vertex 23.25 5.25 5
  endloop
 endfacet
 facet normal -1 0 0
  outer loop
   vertex 23.25 5.25 5
   vertex 23.25 3.25 3
   vertex 23.25 3.25 5
  endloop
 endfacet
 facet normal 1 2.2379298764097643e-16 0
  outer loop
   vertex 25.25 66.75 5
   vertex 25.25 3.25 3
   vertex 25.25 66.75 3
  endloop
 endfacet
 facet normal 1 2.2379298764097643e-16 0
  outer loop
   vertex 25.25 3.25 3
   vertex 25.25 66.75 5
   vertex 25.25 3.25 5
  endloop
 endfacet
 facet normal -1 -2.2379298764097643e-16 0
  outer loop
   vertex 23.25 3.25 3
   vertex 23.25 66.75 5
   vertex 23.25 66.75 3
  endloop
 endfacet
 facet normal -1 -2.2379298764097643e-16 0
  outer loop
   vertex 23.25 66.75 5
   vertex 23.25 3.25 3
   vertex 23.25 3.25 5
  endloop
 endfacet
 facet normal 0 0 1
  outer loop
   vertex 25.25 66.75 5
   vertex 23.25 66.75 5
   vertex 25.25 3.25 5
  endloop
 endfacet
 facet normal 0 0 1
  outer loop
   vertex 25.25 3.25 5
   vertex 23.25 66.75 5
   vertex 23.25 3.25 5
  endloop
 endfacet
 facet normal 0 -1 0
  outer loop
   vertex 25.25 3.25 5
   vertex 23.25 3.25 5
   vertex 25.25 3.25 3
  endloop
 endfacet
 facet normal 0 -1 0
  outer loop
   vertex 25.25 3.25 3
   vertex 23.25 3.25 5
   vertex 23.25 3.25 3
  endloop
 endfacet
 facet normal 0 0 -1
  outer loop
   vertex 25.25 3.25 3
   vertex 23.25 3.25 3
   vertex 25.25 66.75 3
  endloop
 endfacet
 facet normal 0 0 -1
  outer loop
   vertex 25.25 66.75 3
   vertex 23.25 3.25 3
   vertex 23.25 66.75 3
  endloop
 endfacet
 facet normal 0 1 0
  outer loop
   vertex 25.25 66.75 3
   vertex 23.25 66.75 3
   vertex 25.25 66.75 5
  endloop
 endfacet
 facet normal 0 1 0
  outer loop
   vertex 25.25 66.75 5
   vertex 23.25 66.75 3
   vertex 23.25 66.75 5
  endloop
 endfacet
 facet normal 1 2.2379298764097643e-16 0
  outer loop
   vertex 96.75 66.75 5
   vertex 96.75 3.25 3
   vertex 96.75 66.75 3
  endloop
 endfacet
 facet normal 1 2.2379298764097643e-16 0
  outer loop
   vertex 96.75 3.25 3
   vertex 96.75 66.75 5
   vertex 96.75 3.25 5
  endloop
 endfacet
 facet normal -1 -2.2379298764097643e-16 0
  outer loop
   vertex 94.75 3.25 3
   vertex 94.75 66.75 5
   vertex 94.75 66.75 3
  endloop
 endfacet
 facet normal -1 -2.2379298764097643e-16 0
  outer loop
   vertex 94.75 66.75 5
   vertex 94.75 3.25 3
   vertex 94.75 3.25 5
  endloop
 endfacet
 facet normal 0 0 1
  outer loop
   vertex 96.75 66.75 5
   vertex 94.75 66.75 5
   vertex 96.75 3.25 5
  endloop
 endfacet
 facet normal 0 0 1
  outer loop
   vertex 96.75 3.25 5
   vertex 94.75 66.75 5
   vertex 94.75 3.25 5
  endloop
 endfacet
 facet normal 0 -1 0
  outer loop
   vertex 96.75 3.25 5
   vertex 94.75 3.25 5
   vertex 96.75 3.25 3
  endloop
 endfacet
 facet normal 0 -1 0
  outer loop
   vertex 96.75 3.25 3
   vertex 94.75 3.25 5
   vertex 94.75 3.25 3
  endloop
 endfacet
 facet normal 0 0 -1
  outer loop
   vertex 96.75 3.25 3
   vertex 94.75 3.25 3
   vertex 96.75 66.75 3
  endloop
 endfacet
 facet normal 0 0 -1
  outer loop
   vertex 96.75 66.75 3
   vertex 94.75 3.25 3
   vertex 94.75 66.75 3
  endloop
 endfacet
 facet normal 0 1 0
  outer loop
   vertex 96.75 66.75 3
   vertex 94.75 66.75 3
   vertex 96.75 66.75 5
  endloop
 endfacet
 facet normal 0 1 0
  outer loop
   vertex 96.75 66.75 5
   vertex 94.75 66.75 3
   vertex 94.75 66.75 5
  endloop
 endfacet
endsolid hp-02-cap