solid hp-07-crank
 facet normal 0 0 -1
  outer loop
   vertex 5.6631 4.1145 0
   vertex 6.6574 2.1631 0
   vertex 7 0 0
  endloop
 endfacet
 facet normal 0 0 -1
  outer loop
   vertex 2.1631 6.6574 0
   vertex 4.1145 5.6631 0
   vertex 5.6631 4.1145 0
  endloop
 endfacet
 facet normal 0 0 -1
  outer loop
   vertex -2.1631 6.6574 0
   vertex 0 7 0
   vertex 2.1631 6.6574 0
  endloop
 endfacet
 facet normal 0 0 -1
  outer loop
   vertex -5.6631 4.1145 0
   vertex -4.1145 5.6631 0
   vertex -2.1631 6.6574 0
  endloop
 endfacet
 facet normal 0 0 -1
  outer loop
   vertex -7 0 0
   vertex -6.6574 2.1631 0
   vertex -5.6631 4.1145 0
  endloop
 endfacet
 facet normal 0 0 -1
  outer loop
   vertex -3.2999 -0.0313 0
   vertex -7 -28 0
   vertex -7 0 0
  endloop
 endfacet
 facet normal 0 0 -1
  outer loop
   vertex -7 -28 0
   vertex -3.2999 -0.0313 0
   vertex -3.2548 -0.5441 0
  endloop
 endfacet
 facet normal 0 0 -1
  outer loop
   vertex -2.9944 -27.1977 0
   vertex -3.1 -28 0
   vertex -7 -28 0
  endloop
 endfacet
 facet normal 0 0 -1
  outer loop
   vertex -7 -28 0
   vertex -3.1 -28 0
   vertex -2.9944 -28.8023 0
  endloop
 endfacet
 facet normal 0 0 -1
  outer loop
   vertex -5.6631 -32.1145 0
   vertex -6.6574 -30.1631 0
   vertex -7 -28 0
  endloop
 endfacet
 facet normal 0 0 -1
  outer loop
   vertex -2.1631 -34.6574 0
   vertex -4.1145 -33.6631 0
   vertex -5.6631 -32.1145 0
  endloop
 endfacet
 facet normal 0 0 -1
  outer loop
   vertex 2.1631 -34.6574 0
   vertex 0 -35 0
   vertex -2.1631 -34.6574 0
  endloop
 endfacet
 facet normal 0 0 -1
  outer loop
   vertex 5.6631 -32.1145 0
   vertex 4.1145 -33.6631 0
   vertex 2.1631 -34.6574 0
  endloop
 endfacet
 facet normal 0 0 -1
  outer loop
   vertex 7 -28 0
   vertex 6.6574 -30.1631 0
   vertex 5.6631 -32.1145 0
  endloop
 endfacet
 facet normal 0 0 -1
  outer loop
   vertex 5.6631 4.1145 0
   vertex 7 0 0
   vertex 7 -28 0
  endloop
 endfacet
 facet normal 0 0 -1
  outer loop
   vertex -2.1631 6.6574 0
   vertex 2.1631 6.6574 0
   vertex 5.6631 4.1145 0
  endloop
 endfacet
 facet normal 0 0 -1
  outer loop
   vertex -7 0 0
   vertex -5.6631 4.1145 0
   vertex -2.1631 6.6574 0
  endloop
 endfacet
 facet normal 0 0 -1
  outer loop
   vertex -3.2646 0.4822 0
   vertex -3.2999 -0.0313 0
   vertex -7 0 0
  endloop
 endfacet
 facet normal 0 0 -1
  outer loop
   vertex -7 -28 0
   vertex -3.2548 -0.5441 0
   vertex -3.1307 -1.0436 0
  endloop
 endfacet
 facet normal 0 0 -1
  outer loop
   vertex -2.6847 -26.45 0
   vertex -2.9944 -27.1977 0
   vertex -7 -28 0
  endloop
 endfacet
 facet normal 0 0 -1
  outer loop
   vertex -7 -28 0
   vertex -2.9944 -28.8023 0
   vertex -2.6847 -29.55 0
  endloop
 endfacet
 facet normal 0 0 -1
  outer loop
   vertex -2.1631 -34.6574 0
   vertex -5.6631 -32.1145 0
   vertex -7 -28 0
  endloop
 endfacet
 facet normal 0 0 -1
  outer loop
   vertex 5.6631 -32.1145 0
   vertex 2.1631 -34.6574 0
   vertex -2.1631 -34.6574 0
  endloop
 endfacet
 facet normal 0 0 -1
  outer loop
   vertex 5.6631 4.1145 0
   vertex 7 -28 0
   vertex 5.6631 -32.1145 0
  endloop
 endfacet
 facet normal 0 0 -1
  outer loop
   vertex -3.2646 0.4822 0
   vertex -7 0 0
   vertex -2.1631 6.6574 0
  endloop
 endfacet
 facet normal 0 0 -1
  outer loop
   vertex -7 -28 0
   vertex -3.1307 -1.0436 0
   vertex -2.9303 -1.5177 0
  endloop
 endfacet
 facet normal 0 0 -1
  outer loop
   vertex -2.192 -25.808 0
   vertex -2.6847 -26.45 0
   vertex -7 -28 0
  endloop
 endfacet
 facet normal 0 0 -1
  outer loop
   vertex -7 -28 0
   vertex -2.6847 -29.55 0
   vertex -2.192 -30.192 0
  endloop
 endfacet
 facet normal 0 0 -1
  outer loop
   vertex -3.1499 0.9839 0
   vertex -3.2646 0.4822 0
   vertex -2.1631 6.6574 0
  endloop
 endfacet
 facet normal 0 0 -1
  outer loop
   vertex -7 -28 0
   vertex -2.9303 -1.5177 0
   vertex -2.6587 -1.9549 0
  endloop
 endfacet
 facet normal 0 0 -1
  outer loop
   vertex -1.55 -25.3153 0
   vertex -2.192 -25.808 0
   vertex -7 -28 0
  endloop
 endfacet
 facet normal 0 0 -1
  outer loop
   vertex -7 -28 0
   vertex -2.192 -30.192 0
   vertex -1.55 -30.6847 0
  endloop
 endfacet
 facet normal 0 0 -1
  outer loop
   vertex -2.9586 1.4618 0
   vertex -3.1499 0.9839 0
   vertex -2.1631 6.6574 0
  endloop
 endfacet
 facet normal 0 0 -1
  outer loop
   vertex -7 -28 0
   vertex -2.6587 -1.9549 0
   vertex -2.3224 -2.3445 0
  endloop
 endfacet
 facet normal 0 0 -1
  outer loop
   vertex -2.1631 -34.6574 0
   vertex -7 -28 0
   vertex -1.55 -30.6847 0
  endloop
 endfacet
 facet normal 0 0 -1
  outer loop
   vertex -2.6953 1.9041 0
   vertex -2.9586 1.4618 0
   vertex -2.1631 6.6574 0
  endloop
 endfacet
 facet normal 0 0 -1
  outer loop
   vertex -7 -28 0
   vertex -2.3224 -2.3445 0
   vertex -1.9295 -2.6771 0
  endloop
 endfacet
 facet normal 0 0 -1
  outer loop
   vertex -2.1631 -34.6574 0
   vertex -1.55 -30.6847 0
   vertex -0.8023 -30.9944 0
  endloop
 endfacet
 facet normal 0 0 -1
  outer loop
   vertex -2.3664 2.3 0
   vertex -2.6953 1.9041 0
   vertex -2.1631 6.6574 0
  endloop
 endfacet
 facet normal 0 0 -1
  outer loop
   vertex -7 -28 0
   vertex -1.9295 -2.6771 0
   vertex -1.4898 -2.9446 0
  endloop
 endfacet
 facet normal 0 0 -1
  outer loop
   vertex -2.1631 -34.6574 0
   vertex -0.8023 -30.9944 0
   vertex 0 -31.1 0
  endloop
 endfacet
 facet normal 0 0 -1
  outer loop
   vertex -2.3664 2.3 0
   vertex -2.1631 6.6574 0
   vertex 5.6631 4.1145 0
  endloop
 endfacet
 facet normal 0 0 -1
  outer loop
   vertex -7 -28 0
   vertex -1.4898 -2.9446 0
   vertex -1.0138 -3.1404 0
  endloop
 endfacet
 facet normal 0 0 -1
  outer loop
   vertex -2.1631 -34.6574 0
   vertex 0 -31.1 0
   vertex 0.8023 -30.9944 0
  endloop
 endfacet
 facet normal 0 0 -1
  outer loop
   vertex 2.3664 2.3 0
   vertex -2.3664 2.3 0
   vertex 5.6631 4.1145 0
  endloop
 endfacet
 facet normal 0 0 -1
  outer loop
   vertex -7 -28 0
   vertex -1.0138 -3.1404 0
   vertex -0.5131 -3.2599 0
  endloop
 endfacet
 facet normal 0 0 -1
  outer loop
   vertex -2.1631 -34.6574 0
   vertex 0.8023 -30.9944 0
   vertex 1.55 -30.6847 0
  endloop
 endfacet
 facet normal 0 0 -1
  outer loop
   vertex 2.6953 1.9041 0
   vertex 2.3664 2.3 0
   vertex 5.6631 4.1145 0
  endloop
 endfacet
 facet normal 0 0 -1
  outer loop
   vertex -7 -28 0
   vertex -0.5131 -3.2599 0
   vertex 0 -3.3 0
  endloop
 endfacet
 facet normal 0 0 -1
  outer loop
   vertex -2.1631 -34.6574 0
   vertex 1.55 -30.6847 0
   vertex 2.192 -30.192 0
  endloop
 endfacet
 facet normal 0 0 -1
  outer loop
   vertex 2.9586 1.4618 0
   vertex 2.6953 1.9041 0
   vertex 5.6631 4.1145 0
  endloop
 endfacet
 facet normal 0 0 -1
  outer loop
   vertex -7 -28 0
   vertex 0 -3.3 0
   vertex 0.5131 -3.2599 0
  endloop
 endfacet
 facet normal 0 0 -1
  outer loop
   vertex 5.6631 -32.1145 0
   vertex -2.1631 -34.6574 0
   vertex 2.192 -30.192 0
  endloop
 endfacet
 facet normal 0 0 -1
  outer loop
   vertex 3.1499 0.9839 0
   vertex 2.9586 1.4618 0
   vertex 5.6631 4.1145 0
  endloop
 endfacet
 facet normal 0 0 -1
  outer loop
   vertex -7 -28 0
   vertex 0.5131 -3.2599 0
   vertex 1.0138 -3.1404 0
  endloop
 endfacet
 facet normal 0 0 -1
  outer loop
   vertex 5.6631 -32.1145 0
   vertex 2.192 -30.192 0
   vertex 2.6847 -29.55 0
  endloop
 endfacet
 facet normal 0 0 -1
  outer loop
   vertex 3.2646 0.4822 0
   vertex 3.1499 0.9839 0
   vertex 5.6631 4.1145 0
  endloop
 endfacet
 facet normal 0 0 -1
  outer loop
   vertex -7 -28 0
   vertex 1.0138 -3.1404 0
   vertex 1.4898 -2.9446 0
  endloop
 endfacet
 facet normal 0 0 -1
  outer loop
   vertex 5.6631 -32.1145 0
   vertex 2.6847 -29.55 0
   vertex 2.9944 -28.8023 0
  endloop
 endfacet
 facet normal 0 0 -1
  outer loop
   vertex 3.2646 0.4822 0
   vertex 5.6631 4.1145 0
   vertex 5.6631 -32.1145 0
  endloop
 endfacet
 facet normal 0 0 -1
  outer loop
   vertex -7 -28 0
   vertex 1.4898 -2.9446 0
   vertex 1.9295 -2.6771 0
  endloop
 endfacet
 facet normal 0 0 -1
  outer loop
   vertex 5.6631 -32.1145 0
   vertex 2.9944 -28.8023 0
   vertex 3.1 -28 0
  endloop
 endfacet
 facet normal 0 0 -1
  outer loop
   vertex 3.2999 -0.0313 0
   vertex 3.2646 0.4822 0
   vertex 5.6631 -32.1145 0
  endloop
 endfacet
 facet normal 0 0 -1
  outer loop
   vertex -7 -28 0
   vertex 1.9295 -2.6771 0
   vertex 2.3224 -2.3445 0
  endloop
 endfacet
 facet normal 0 0 -1
  outer loop
   vertex 5.6631 -32.1145 0
   vertex 3.1 -28 0
   vertex 2.9944 -27.1977 0
  endloop
 endfacet
 facet normal 0 0 -1
  outer loop
   vertex 3.2548 -0.5441 0
   vertex 3.2999 -0.0313 0
   vertex 5.6631 -32.1145 0
  endloop
 endfacet
 facet normal 0 0 -1
  outer loop
   vertex -7 -28 0
   vertex 2.3224 -2.3445 0
   vertex 2.6587 -1.9549 0
  endloop
 endfacet
 facet normal 0 0 -1
  outer loop
   vertex 5.6631 -32.1145 0
   vertex 2.9944 -27.1977 0
   vertex 2.6847 -26.45 0
  endloop
 endfacet
 facet normal 0 0 -1
  outer loop
   vertex 3.1307 -1.0436 0
   vertex 3.2548 -0.5441 0
   vertex 5.6631 -32.1145 0
  endloop
 endfacet
 facet normal 0 0 -1
  outer loop
   vertex -7 -28 0
   vertex 2.6587 -1.9549 0
   vertex 2.9303 -1.5177 0
  endloop
 endfacet
 facet normal 0 0 -1
  outer loop
   vertex 3.1307 -1.0436 0
   vertex 5.6631 -32.1145 0
   vertex 2.6847 -26.45 0
  endloop
 endfacet
 facet normal 0 0 -1
  outer loop
   vertex -7 -28 0
   vertex 2.9303 -1.5177 0
   vertex 3.1307 -1.0436 0
  endloop
 endfacet
 facet normal 0 0 -1
  outer loop
   vertex 3.1307 -1.0436 0
   vertex 2.6847 -26.45 0
   vertex 2.192 -25.808 0
  endloop
 endfacet
 facet normal 0 0 -1
  outer loop
   vertex -1.55 -25.3153 0
   vertex -7 -28 0
   vertex 3.1307 -1.0436 0
  endloop
 endfacet
 facet normal 0 0 -1
  outer loop
   vertex 3.1307 -1.0436 0
   vertex 2.192 -25.808 0
   vertex 1.55 -25.3153 0
  endloop
 endfacet
 facet normal 0 0 -1
  outer loop
   vertex -0.8023 -25.0056 0
   vertex -1.55 -25.3153 0
   vertex 3.1307 -1.0436 0
  endloop
 endfacet
 facet normal 0 0 -1
  outer loop
   vertex 3.1307 -1.0436 0
   vertex 1.55 -25.3153 0
   vertex 0.8023 -25.0056 0
  endloop
 endfacet
 facet normal 0 0 -1
  outer loop
   vertex 0 -24.9 0
   vertex -0.8023 -25.0056 0
   vertex 3.1307 -1.0436 0
  endloop
 endfacet
 facet normal 0 0 -1
  outer loop
   vertex 3.1307 -1.0436 0
   vertex 0.8023 -25.0056 0
   vertex 0 -24.9 0
  endloop
 endfacet
 facet normal 0 0 1
  outer loop
   vertex 7 0 6
   vertex 6.6574 2.1631 6
   vertex 5.6631 4.1145 6
  endloop
 endfacet
 facet normal 0 0 1
  outer loop
   vertex 5.6631 4.1145 6
   vertex 4.1145 5.6631 6
   vertex 2.1631 6.6574 6
  endloop
 endfacet
 facet normal 0 0 1
  outer loop
   vertex 2.1631 6.6574 6
   vertex 0 7 6
   vertex -2.1631 6.6574 6
  endloop
 endfacet
 facet normal 0 0 1
  outer loop
   vertex -2.1631 6.6574 6
   vertex -4.1145 5.6631 6
   vertex -5.6631 4.1145 6
  endloop
 endfacet
 facet normal 0 0 1
  outer loop
   vertex -5.6631 4.1145 6
   vertex -6.6574 2.1631 6
   vertex -7 0 6
  endloop
 endfacet
 facet normal 0 0 1
  outer loop
   vertex -7 0 6
   vertex -7 -28 6
   vertex -3.2999 -0.0313 6
  endloop
 endfacet
 facet normal 0 0 1
  outer loop
   vertex -3.2548 -0.5441 6
   vertex -3.2999 -0.0313 6
   vertex -7 -28 6
  endloop
 endfacet
 facet normal 0 0 1
  outer loop
   vertex -7 -28 6
   vertex -3.1 -28 6
   vertex -2.9944 -27.1977 6
  endloop
 endfacet
 facet normal 0 0 1
  outer loop
   vertex -2.9944 -28.8023 6
   vertex -3.1 -28 6
   vertex -7 -28 6
  endloop
 endfacet
 facet normal 0 0 1
  outer loop
   vertex -7 -28 6
   vertex -6.6574 -30.1631 6
   vertex -5.6631 -32.1145 6
  endloop
 endfacet
 facet normal 0 0 1
  outer loop
   vertex -5.6631 -32.1145 6
   vertex -4.1145 -33.6631 6
   vertex -2.1631 -34.6574 6
  endloop
 endfacet
 facet normal 0 0 1
  outer loop
   vertex -2.1631 -34.6574 6
   vertex 0 -35 6
   vertex 2.1631 -34.6574 6
  endloop
 endfacet
 facet normal 0 0 1
  outer loop
   vertex 2.1631 -34.6574 6
   vertex 4.1145 -33.6631 6
   vertex 5.6631 -32.1145 6
  endloop
 endfacet
 facet normal 0 0 1
  outer loop
   vertex 5.6631 -32.1145 6
   vertex 6.6574 -30.1631 6
   vertex 7 -28 6
  endloop
 endfacet
 facet normal 0 0 1
  outer loop
   vertex 7 -28 6
   vertex 7 0 6
   vertex 5.6631 4.1145 6
  endloop
 endfacet
 facet normal 0 0 1
  outer loop
   vertex 5.6631 4.1145 6
   vertex 2.1631 6.6574 6
   vertex -2.1631 6.6574 6
  endloop
 endfacet
 facet normal 0 0 1
  outer loop
   vertex -2.1631 6.6574 6
   vertex -5.6631 4.1145 6
   vertex -7 0 6
  endloop
 endfacet
 facet normal 0 0 1
  outer loop
   vertex -7 0 6
   vertex -3.2999 -0.0313 6
   vertex -3.2646 0.4822 6
  endloop
 endfacet
 facet normal 0 0 1
  outer loop
   vertex -3.1307 -1.0436 6
   vertex -3.2548 -0.5441 6
   vertex -7 -28 6
  endloop
 endfacet
 facet normal 0 0 1
  outer loop
   vertex -7 -28 6
   vertex -2.9944 -27.1977 6
   vertex -2.6847 -26.45 6
  endloop
 endfacet
 facet normal 0 0 1
  outer loop
   vertex -2.6847 -29.55 6
   vertex -2.9944 -28.8023 6
   vertex -7 -28 6
  endloop
 endfacet
 facet normal 0 0 1
  outer loop
   vertex -7 -28 6
   vertex -5.6631 -32.1145 6
   vertex -2.1631 -34.6574 6
  endloop
 endfacet
 facet normal 0 0 1
  outer loop
   vertex -2.1631 -34.6574 6
   vertex 2.1631 -34.6574 6
   vertex 5.6631 -32.1145 6
  endloop
 endfacet
 facet normal 0 0 1
  outer loop
   vertex 5.6631 -32.1145 6
   vertex 7 -28 6
   vertex 5.6631 4.1145 6
  endloop
 endfacet
 facet normal 0 0 1
  outer loop
   vertex -2.1631 6.6574 6
   vertex -7 0 6
   vertex -3.2646 0.4822 6
  endloop
 endfacet
 facet normal 0 0 1
  outer loop
   vertex -2.9303 -1.5177 6
   vertex -3.1307 -1.0436 6
   vertex -7 -28 6
  endloop
 endfacet
 facet normal 0 0 1
  outer loop
   vertex -7 -28 6
   vertex -2.6847 -26.45 6
   vertex -2.192 -25.808 6
  endloop
 endfacet
 facet normal 0 0 1
  outer loop
   vertex -2.192 -30.192 6
   vertex -2.6847 -29.55 6
   vertex -7 -28 6
  endloop
 endfacet
 facet normal 0 0 1
  outer loop
   vertex -2.1631 6.6574 6
   vertex -3.2646 0.4822 6
   vertex -3.1499 0.9839 6
  endloop
 endfacet
 facet normal 0 0 1
  outer loop
   vertex -2.6587 -1.9549 6
   vertex -2.9303 -1.5177 6
   vertex -7 -28 6
  endloop
 endfacet
 facet normal 0 0 1
  outer loop
   vertex -7 -28 6
   vertex -2.192 -25.808 6
   vertex -1.55 -25.3153 6
  endloop
 endfacet
 facet normal 0 0 1
  outer loop
   vertex -1.55 -30.6847 6
   vertex -2.192 -30.192 6
   vertex -7 -28 6
  endloop
 endfacet
 facet normal 0 0 1
  outer loop
   vertex -2.1631 6.6574 6
   vertex -3.1499 0.9839 6
   vertex -2.9586 1.4618 6
  endloop
 endfacet
 facet normal 0 0 1
  outer loop
   vertex -2.3224 -2.3445 6
   vertex -2.6587 -1.9549 6
   vertex -7 -28 6
  endloop
 endfacet
 facet normal 0 0 1
  outer loop
   vertex -1.55 -30.6847 6
   vertex -7 -28 6
   vertex -2.1631 -34.6574 6
  endloop
 endfacet
 facet normal 0 0 1
  outer loop
   vertex -2.1631 6.6574 6
   vertex -2.9586 1.4618 6
   vertex -2.6953 1.9041 6
  endloop
 endfacet
 facet normal 0 0 1
  outer loop
   vertex -1.9295 -2.6771 6
   vertex -2.3224 -2.3445 6
   vertex -7 -28 6
  endloop
 endfacet
 facet normal 0 0 1
  outer loop
   vertex -0.8023 -30.9944 6
   vertex -1.55 -30.6847 6
   vertex -2.1631 -34.6574 6
  endloop
 endfacet
 facet normal 0 0 1
  outer loop
   vertex -2.1631 6.6574 6
   vertex -2.6953 1.9041 6
   vertex -2.3664 2.3 6
  endloop
 endfacet
 facet normal 0 0 1
  outer loop
   vertex -1.4898 -2.9446 6
   vertex -1.9295 -2.6771 6
   vertex -7 -28 6
  endloop
 endfacet
 facet normal 0 0 1
  outer loop
   vertex 0 -31.1 6
   vertex -0.8023 -30.9944 6
   vertex -2.1631 -34.6574 6
  endloop
 endfacet
 facet normal 0 0 1
  outer loop
   vertex 5.6631 4.1145 6
   vertex -2.1631 6.6574 6
   vertex -2.3664 2.3 6
  endloop
 endfacet
 facet normal 0 0 1
  outer loop
   vertex -1.0138 -3.1404 6
   vertex -1.4898 -2.9446 6
   vertex -7 -28 6
  endloop
 endfacet
 facet normal 0 0 1
  outer loop
   vertex 0.8023 -30.9944 6
   vertex 0 -31.1 6
   vertex -2.1631 -34.6574 6
  endloop
 endfacet
 facet normal 0 0 1
  outer loop
   vertex 5.6631 4.1145 6
   vertex -2.3664 2.3 6
   vertex 2.3664 2.3 6
  endloop
 endfacet
 facet normal 0 0 1
  outer loop
   vertex -0.5131 -3.2599 6
   vertex -1.0138 -3.1404 6
   vertex -7 -28 6
  endloop
 endfacet
 facet normal 0 0 1
  outer loop
   vertex 1.55 -30.6847 6
   vertex 0.8023 -30.9944 6
   vertex -2.1631 -34.6574 6
  endloop
 endfacet
 facet normal 0 0 1
  outer loop
   vertex 5.6631 4.1145 6
   vertex 2.3664 2.3 6
   vertex 2.6953 1.9041 6
  endloop
 endfacet
 facet normal 0 0 1
  outer loop
   vertex 0 -3.3 6
   vertex -0.5131 -3.2599 6
   vertex -7 -28 6
  endloop
 endfacet
 facet normal 0 0 1
  outer loop
   vertex 2.192 -30.192 6
   vertex 1.55 -30.6847 6
   vertex -2.1631 -34.6574 6
  endloop
 endfacet
 facet normal 0 0 1
  outer loop
   vertex 5.6631 4.1145 6
   vertex 2.6953 1.9041 6
   vertex 2.9586 1.4618 6
  endloop
 endfacet
 facet normal 0 0 1
  outer loop
   vertex 0.5131 -3.2599 6
   vertex 0 -3.3 6
   vertex -7 -28 6
  endloop
 endfacet
 facet normal 0 0 1
  outer loop
   vertex 2.192 -30.192 6
   vertex -2.1631 -34.6574 6
   vertex 5.6631 -32.1145 6
  endloop
 endfacet
 facet normal 0 0 1
  outer loop
   vertex 5.6631 4.1145 6
   vertex 2.9586 1.4618 6
   vertex 3.1499 0.9839 6
  endloop
 endfacet
 facet normal 0 0 1
  outer loop
   vertex 1.0138 -3.1404 6
   vertex 0.5131 -3.2599 6
   vertex -7 -28 6
  endloop
 endfacet
 facet normal 0 0 1
  outer loop
   vertex 2.6847 -29.55 6
   vertex 2.192 -30.192 6
   vertex 5.6631 -32.1145 6
  endloop
 endfacet
 facet normal 0 0 1
  outer loop
   vertex 5.6631 4.1145 6
   vertex 3.1499 0.9839 6
   vertex 3.2646 0.4822 6
  endloop
 endfacet
 facet normal 0 0 1
  outer loop
   vertex 1.4898 -2.9446 6
   vertex 1.0138 -3.1404 6
   vertex -7 -28 6
  endloop
 endfacet
 facet normal 0 0 1
  outer loop
   vertex 2.9944 -28.8023 6
   vertex 2.6847 -29.55 6
   vertex 5.6631 -32.1145 6
  endloop
 endfacet
 facet normal 0 0 1
  outer loop
   vertex 5.6631 -32.1145 6
   vertex 5.6631 4.1145 6
   vertex 3.2646 0.4822 6
  endloop
 endfacet
 facet normal 0 0 1
  outer loop
   vertex 1.9295 -2.6771 6
   vertex 1.4898 -2.9446 6
   vertex -7 -28 6
  endloop
 endfacet
 facet normal 0 0 1
  outer loop
   vertex 3.1 -28 6
   vertex 2.9944 -28.8023 6
   vertex 5.6631 -32.1145 6
  endloop
 endfacet
 facet normal 0 0 1
  outer loop
   vertex 5.6631 -32.1145 6
   vertex 3.2646 0.4822 6
   vertex 3.2999 -0.0313 6
  endloop
 endfacet
 facet normal 0 0 1
  outer loop
   vertex 2.3224 -2.3445 6
   vertex 1.9295 -2.6771 6
   vertex -7 -28 6
  endloop
 endfacet
 facet normal 0 0 1
  outer loop
   vertex 2.9944 -27.1977 6
   vertex 3.1 -28 6
   vertex 5.6631 -32.1145 6
  endloop
 endfacet
 facet normal 0 0 1
  outer loop
   vertex 5.6631 -32.1145 6
   vertex 3.2999 -0.0313 6
   vertex 3.2548 -0.5441 6
  endloop
 endfacet
 facet normal 0 0 1
  outer loop
   vertex 2.6587 -1.9549 6
   vertex 2.3224 -2.3445 6
   vertex -7 -28 6
  endloop
 endfacet
 facet normal 0 0 1
  outer loop
   vertex 2.6847 -26.45 6
   vertex 2.9944 -27.1977 6
   vertex 5.6631 -32.1145 6
  endloop
 endfacet
 facet normal 0 0 1
  outer loop
   vertex 5.6631 -32.1145 6
   vertex 3.2548 -0.5441 6
   vertex 3.1307 -1.0436 6
  endloop
 endfacet
 facet normal 0 0 1
  outer loop
   vertex 2.9303 -1.5177 6
   vertex 2.6587 -1.9549 6
   vertex -7 -28 6
  endloop
 endfacet
 facet normal 0 0 1
  outer loop
   vertex 2.6847 -26.45 6
   vertex 5.6631 -32.1145 6
   vertex 3.1307 -1.0436 6
  endloop
 endfacet
 facet normal 0 0 1
  outer loop
   vertex 3.1307 -1.0436 6
   vertex 2.9303 -1.5177 6
   vertex -7 -28 6
  endloop
 endfacet
 facet normal 0 0 1
  outer loop
   vertex 2.192 -25.808 6
   vertex 2.6847 -26.45 6
   vertex 3.1307 -1.0436 6
  endloop
 endfacet
 facet normal 0 0 1
  outer loop
   vertex 3.1307 -1.0436 6
   vertex -7 -28 6
   vertex -1.55 -25.3153 6
  endloop
 endfacet
 facet normal 0 0 1
  outer loop
   vertex 1.55 -25.3153 6
   vertex 2.192 -25.808 6
   vertex 3.1307 -1.0436 6
  endloop
 endfacet
 facet normal 0 0 1
  outer loop
   vertex 3.1307 -1.0436 6
   vertex -1.55 -25.3153 6
   vertex -0.8023 -25.0056 6
  endloop
 endfacet
 facet normal 0 0 1
  outer loop
   vertex 0.8023 -25.0056 6
   vertex 1.55 -25.3153 6
   vertex 3.1307 -1.0436 6
  endloop
 endfacet
 facet normal 0 0 1
  outer loop
   vertex 3.1307 -1.0436 6
   vertex -0.8023 -25.0056 6
   vertex 0 -24.9 6
  endloop
 endfacet
 facet normal 0 0 1
  outer loop
   vertex 0 -24.9 6
   vertex 0.8023 -25.0056 6
   vertex 3.1307 -1.0436 6
  endloop
 endfacet
 facet normal 0.9876883578207849 0.15643435628173666 0
  outer loop
   vertex 7 0 0
   vertex 6.6574 2.1631 0
   vertex 7 0 6
  endloop
 endfacet
 facet normal 0.9876883578207849 0.15643435628173666 0
  outer loop
   vertex 6.6574 2.1631 0
   vertex 6.6574 2.1631 6
   vertex 7 0 6
  endloop
 endfacet
 facet normal 0.8910064436131097 0.45399065787736015 0
  outer loop
   vertex 6.6574 2.1631 0
   vertex 5.6631 4.1145 0
   vertex 6.6574 2.1631 6
  endloop
 endfacet
 facet normal 0.8910064436131097 0.45399065787736015 0
  outer loop
   vertex 5.6631 4.1145 0
   vertex 5.6631 4.1145 6
   vertex 6.6574 2.1631 6
  endloop
 endfacet
 facet normal 0.7071067811865475 0.7071067811865475 0
  outer loop
   vertex 5.6631 4.1145 0
   vertex 4.1145 5.6631 0
   vertex 5.6631 4.1145 6
  endloop
 endfacet
 facet normal 0.7071067811865475 0.7071067811865475 0
  outer loop
   vertex 4.1145 5.6631 0
   vertex 4.1145 5.6631 6
   vertex 5.6631 4.1145 6
  endloop
 endfacet
 facet normal 0.45399065787736015 0.8910064436131097 0
  outer loop
   vertex 4.1145 5.6631 0
   vertex 2.1631 6.6574 0
   vertex 4.1145 5.6631 6
  endloop
 endfacet
 facet normal 0.45399065787736015 0.8910064436131097 0
  outer loop
   vertex 2.1631 6.6574 0
   vertex 2.1631 6.6574 6
   vertex 4.1145 5.6631 6
  endloop
 endfacet
 facet normal 0.1564343562817367 0.9876883578207849 0
  outer loop
   vertex 2.1631 6.6574 0
   vertex 0 7 0
   vertex 2.1631 6.6574 6
  endloop
 endfacet
 facet normal 0.1564343562817367 0.9876883578207849 0
  outer loop
   vertex 0 7 0
   vertex 0 7 6
   vertex 2.1631 6.6574 6
  endloop
 endfacet
 facet normal -0.1564343562817366 0.9876883578207849 0
  outer loop
   vertex 0 7 0
   vertex -2.1631 6.6574 0
   vertex 0 7 6
  endloop
 endfacet
 facet normal -0.1564343562817366 0.9876883578207849 0
  outer loop
   vertex -2.1631 6.6574 0
   vertex -2.1631 6.6574 6
   vertex 0 7 6
  endloop
 endfacet
 facet normal -0.45399065787736015 0.8910064436131097 0
  outer loop
   vertex -2.1631 6.6574 0
   vertex -4.1145 5.6631 0
   vertex -2.1631 6.6574 6
  endloop
 endfacet
 facet normal -0.45399065787736015 0.8910064436131097 0
  outer loop
   vertex -4.1145 5.6631 0
   vertex -4.1145 5.6631 6
   vertex -2.1631 6.6574 6
  endloop
 endfacet
 facet normal -0.7071067811865475 0.7071067811865475 0
  outer loop
   vertex -4.1145 5.6631 0
   vertex -5.6631 4.1145 0
   vertex -4.1145 5.6631 6
  endloop
 endfacet
 facet normal -0.7071067811865475 0.7071067811865475 0
  outer loop
   vertex -5.6631 4.1145 0
   vertex -5.6631 4.1145 6
   vertex -4.1145 5.6631 6
  endloop
 endfacet
 facet normal -0.8910064436131097 0.45399065787736015 0
  outer loop
   vertex -5.6631 4.1145 0
   vertex -6.6574 2.1631 0
   vertex -5.6631 4.1145 6
  endloop
 endfacet
 facet normal -0.8910064436131097 0.45399065787736015 0
  outer loop
   vertex -6.6574 2.1631 0
   vertex -6.6574 2.1631 6
   vertex -5.6631 4.1145 6
  endloop
 endfacet
 facet normal -0.9876883578207849 0.15643435628173671 0
  outer loop
   vertex -6.6574 2.1631 0
   vertex -7 0 0
   vertex -6.6574 2.1631 6
  endloop
 endfacet
 facet normal -0.9876883578207849 0.15643435628173671 0
  outer loop
   vertex -7 0 0
   vertex -7 0 6
   vertex -6.6574 2.1631 6
  endloop
 endfacet
 facet normal -1 0 0
  outer loop
   vertex -7 0 0
   vertex -7 -28 0
   vertex -7 0 6
  endloop
 endfacet
 facet normal -1 0 0
  outer loop
   vertex -7 -28 0
   vertex -7 -28 6
   vertex -7 0 6
  endloop
 endfacet
 facet normal -0.9876883498286031 -0.15643440674241324 0
  outer loop
   vertex -7 -28 0
   vertex -6.6574 -30.1631 0
   vertex -7 -28 6
  endloop
 endfacet
 facet normal -0.9876883498286031 -0.15643440674241324 0
  outer loop
   vertex -6.6574 -30.1631 0
   vertex -6.6574 -30.1631 6
   vertex -7 -28 6
  endloop
 endfacet
 facet normal -0.891006645549873 -0.45399026155410294 0
  outer loop
   vertex -6.6574 -30.1631 0
   vertex -5.6631 -32.1145 0
   vertex -6.6574 -30.1631 6
  endloop
 endfacet
 facet normal -0.891006645549873 -0.45399026155410294 0
  outer loop
   vertex -5.6631 -32.1145 0
   vertex -5.6631 -32.1145 6
   vertex -6.6574 -30.1631 6
  endloop
 endfacet
 facet normal -0.7071067811865475 -0.7071067811865475 0
  outer loop
   vertex -5.6631 -32.1145 0
   vertex -4.1145 -33.6631 0
   vertex -5.6631 -32.1145 6
  endloop
 endfacet
 facet normal -0.7071067811865475 -0.7071067811865475 0
  outer loop
   vertex -4.1145 -33.6631 0
   vertex -4.1145 -33.6631 6
   vertex -5.6631 -32.1145 6
  endloop
 endfacet
 facet normal -0.4539896207718539 -0.8910069720442306 0
  outer loop
   vertex -4.1145 -33.6631 0
   vertex -2.1631 -34.6574 0
   vertex -4.1145 -33.6631 6
  endloop
 endfacet
 facet normal -0.4539896207718539 -0.8910069720442306 0
  outer loop
   vertex -2.1631 -34.6574 0
   vertex -2.1631 -34.6574 6
   vertex -4.1145 -33.6631 6
  endloop
 endfacet
 facet normal -0.15643499347423687 -0.9876882568992685 0
  outer loop
   vertex -2.1631 -34.6574 0
   vertex 0 -35 0
   vertex -2.1631 -34.6574 6
  endloop
 endfacet
 facet normal -0.15643499347423687 -0.9876882568992685 0
  outer loop
   vertex 0 -35 0
   vertex 0 -35 6
   vertex -2.1631 -34.6574 6
  endloop
 endfacet
 facet normal 0.15643499347423695 -0.9876882568992684 0
  outer loop
   vertex 0 -35 0
   vertex 2.1631 -34.6574 0
   vertex 0 -35 6
  endloop
 endfacet
 facet normal 0.15643499347423695 -0.9876882568992684 0
  outer loop
   vertex 2.1631 -34.6574 0
   vertex 2.1631 -34.6574 6
   vertex 0 -35 6
  endloop
 endfacet
 facet normal 0.4539896207718539 -0.8910069720442306 0
  outer loop
   vertex 2.1631 -34.6574 0
   vertex 4.1145 -33.6631 0
   vertex 2.1631 -34.6574 6
  endloop
 endfacet
 facet normal 0.4539896207718539 -0.8910069720442306 0
  outer loop
   vertex 4.1145 -33.6631 0
   vertex 4.1145 -33.6631 6
   vertex 2.1631 -34.6574 6
  endloop
 endfacet
 facet normal 0.7071067811865475 -0.7071067811865475 0
  outer loop
   vertex 4.1145 -33.6631 0
   vertex 5.6631 -32.1145 0
   vertex 4.1145 -33.6631 6
  endloop
 endfacet
 facet normal 0.7071067811865475 -0.7071067811865475 0
  outer loop
   vertex 5.6631 -32.1145 0
   vertex 5.6631 -32.1145 6
   vertex 4.1145 -33.6631 6
  endloop
 endfacet
 facet normal 0.891006645549873 -0.45399026155410294 0
  outer loop
   vertex 5.6631 -32.1145 0
   vertex 6.6574 -30.1631 0
   vertex 5.6631 -32.1145 6
  endloop
 endfacet
 facet normal 0.891006645549873 -0.45399026155410294 0
  outer loop
   vertex 6.6574 -30.1631 0
   vertex 6.6574 -30.1631 6
   vertex 5.6631 -32.1145 6
  endloop
 endfacet
 facet normal 0.9876883498286031 -0.15643440674241324 0
  outer loop
   vertex 6.6574 -30.1631 0
   vertex 7 -28 0
   vertex 6.6574 -30.1631 6
  endloop
 endfacet
 facet normal 0.9876883498286031 -0.15643440674241324 0
  outer loop
   vertex 7 -28 0
   vertex 7 -28 6
   vertex 6.6574 -30.1631 6
  endloop
 endfacet
 facet normal 1 0 0
  outer loop
   vertex 7 -28 0
   vertex 7 0 0
   vertex 7 -28 6
  endloop
 endfacet
 facet normal 1 0 0
  outer loop
   vertex 7 0 0
   vertex 7 0 6
   vertex 7 -28 6
  endloop
 endfacet
 facet normal -0.7692704827972541 -0.6389232538395201 0
  outer loop
   vertex 2.3664 2.3 0
   vertex 2.6953 1.9041 0
   vertex 2.3664 2.3 6
  endloop
 endfacet
 facet normal -0.7692704827972541 -0.6389232538395201 0
  outer loop
   vertex 2.6953 1.9041 0
   vertex 2.6953 1.9041 6
   vertex 2.3664 2.3 6
  endloop
 endfacet
 facet normal -0.8592640341187252 -0.5115323251467243 0
  outer loop
   vertex 2.6953 1.9041 0
   vertex 2.9586 1.4618 0
   vertex 2.6953 1.9041 6
  endloop
 endfacet
 facet normal -0.8592640341187252 -0.5115323251467243 0
  outer loop
   vertex 2.9586 1.4618 0
   vertex 2.9586 1.4618 6
   vertex 2.6953 1.9041 6
  endloop
 endfacet
 facet normal -0.9283540809771663 -0.37169705451219376 0
  outer loop
   vertex 2.9586 1.4618 0
   vertex 3.1499 0.9839 0
   vertex 2.9586 1.4618 6
  endloop
 endfacet
 facet normal -0.9283540809771663 -0.37169705451219376 0
  outer loop
   vertex 3.1499 0.9839 0
   vertex 3.1499 0.9839 6
   vertex 2.9586 1.4618 6
  endloop
 endfacet
 facet normal -0.9748597139977359 -0.2228195189480779 0
  outer loop
   vertex 3.1499 0.9839 0
   vertex 3.2646 0.4822 0
   vertex 3.1499 0.9839 6
  endloop
 endfacet
 facet normal -0.9748597139977359 -0.2228195189480779 0
  outer loop
   vertex 3.2646 0.4822 0
   vertex 3.2646 0.4822 6
   vertex 3.1499 0.9839 6
  endloop
 endfacet
 facet normal -0.9976496414657807 -0.06852147753222461 0
  outer loop
   vertex 3.2646 0.4822 0
   vertex 3.2999 -0.0313 0
   vertex 3.2646 0.4822 6
  endloop
 endfacet
 facet normal -0.9976496414657807 -0.06852147753222461 0
  outer loop
   vertex 3.2999 -0.0313 0
   vertex 3.2999 -0.0313 6
   vertex 3.2646 0.4822 6
  endloop
 endfacet
 facet normal -0.9961694665849938 0.08744366096961376 0
  outer loop
   vertex 3.2999 -0.0313 0
   vertex 3.2548 -0.5441 0
   vertex 3.2999 -0.0313 6
  endloop
 endfacet
 facet normal -0.9961694665849938 0.08744366096961376 0
  outer loop
   vertex 3.2548 -0.5441 0
   vertex 3.2548 -0.5441 6
   vertex 3.2999 -0.0313 6
  endloop
 endfacet
 facet normal -0.9704552291116115 0.24128126386010568 0
  outer loop
   vertex 3.2548 -0.5441 0
   vertex 3.1307 -1.0436 0
   vertex 3.2548 -0.5441 6
  endloop
 endfacet
 facet normal -0.9704552291116115 0.24128126386010568 0
  outer loop
   vertex 3.1307 -1.0436 0
   vertex 3.1307 -1.0436 6
   vertex 3.2548 -0.5441 6
  endloop
 endfacet
 facet normal -0.9211323380772546 0.38924955458976507 0
  outer loop
   vertex 3.1307 -1.0436 0
   vertex 2.9303 -1.5177 0
   vertex 3.1307 -1.0436 6
  endloop
 endfacet
 facet normal -0.9211323380772546 0.38924955458976507 0
  outer loop
   vertex 2.9303 -1.5177 0
   vertex 2.9303 -1.5177 6
   vertex 3.1307 -1.0436 6
  endloop
 endfacet
 facet normal -0.8494007657970523 0.5277483671821084 0
  outer loop
   vertex 2.9303 -1.5177 0
   vertex 2.6587 -1.9549 0
   vertex 2.9303 -1.5177 6
  endloop
 endfacet
 facet normal -0.8494007657970523 0.5277483671821084 0
  outer loop
   vertex 2.6587 -1.9549 0
   vertex 2.6587 -1.9549 6
   vertex 2.9303 -1.5177 6
  endloop
 endfacet
 facet normal -0.7570059403564876 0.6534079937259645 0
  outer loop
   vertex 2.6587 -1.9549 0
   vertex 2.3224 -2.3445 0
   vertex 2.6587 -1.9549 6
  endloop
 endfacet
 facet normal -0.7570059403564876 0.6534079937259645 0
  outer loop
   vertex 2.3224 -2.3445 0
   vertex 2.3224 -2.3445 6
   vertex 2.6587 -1.9549 6
  endloop
 endfacet
 facet normal -0.6461947561726873 0.7631725473933932 0
  outer loop
   vertex 2.3224 -2.3445 0
   vertex 1.9295 -2.6771 0
   vertex 2.3224 -2.3445 6
  endloop
 endfacet
 facet normal -0.6461947561726873 0.7631725473933932 0
  outer loop
   vertex 1.9295 -2.6771 0
   vertex 1.9295 -2.6771 6
   vertex 2.3224 -2.3445 6
  endloop
 endfacet
 facet normal -0.5196634814282067 0.8543710353645634 0
  outer loop
   vertex 1.9295 -2.6771 0
   vertex 1.4898 -2.9446 0
   vertex 1.9295 -2.6771 6
  endloop
 endfacet
 facet normal -0.5196634814282067 0.8543710353645634 0
  outer loop
   vertex 1.4898 -2.9446 0
   vertex 1.4898 -2.9446 6
   vertex 1.9295 -2.6771 6
  endloop
 endfacet
 facet normal -0.3804906043601525 0.9247847857710711 0
  outer loop
   vertex 1.4898 -2.9446 0
   vertex 1.0138 -3.1404 0
   vertex 1.4898 -2.9446 6
  endloop
 endfacet
 facet normal -0.3804906043601525 0.9247847857710711 0
  outer loop
   vertex 1.0138 -3.1404 0
   vertex 1.0138 -3.1404 6
   vertex 1.4898 -2.9446 6
  endloop
 endfacet
 facet normal -0.23206106685568054 0.9727012189001323 0
  outer loop
   vertex 1.0138 -3.1404 0
   vertex 0.5131 -3.2599 0
   vertex 1.0138 -3.1404 6
  endloop
 endfacet
 facet normal -0.23206106685568054 0.9727012189001323 0
  outer loop
   vertex 0.5131 -3.2599 0
   vertex 0.5131 -3.2599 6
   vertex 1.0138 -3.1404 6
  endloop
 endfacet
 facet normal -0.07798581513668708 0.9969544686882478 0
  outer loop
   vertex 0.5131 -3.2599 0
   vertex 0 -3.3 0
   vertex 0.5131 -3.2599 6
  endloop
 endfacet
 facet normal -0.07798581513668708 0.9969544686882478 0
  outer loop
   vertex 0 -3.3 0
   vertex 0 -3.3 6
   vertex 0.5131 -3.2599 6
  endloop
 endfacet
 facet normal 0.07798581513668726 0.9969544686882478 0
  outer loop
   vertex 0 -3.3 0
   vertex -0.5131 -3.2599 0
   vertex 0 -3.3 6
  endloop
 endfacet
 facet normal 0.07798581513668726 0.9969544686882478 0
  outer loop
   vertex -0.5131 -3.2599 0
   vertex -0.5131 -3.2599 6
   vertex 0 -3.3 6
  endloop
 endfacet
 facet normal 0.23206106685568054 0.9727012189001323 0
  outer loop
   vertex -0.5131 -3.2599 0
   vertex -1.0138 -3.1404 0
   vertex -0.5131 -3.2599 6
  endloop
 endfacet
 facet normal 0.23206106685568054 0.9727012189001323 0
  outer loop
   vertex -1.0138 -3.1404 0
   vertex -1.0138 -3.1404 6
   vertex -0.5131 -3.2599 6
  endloop
 endfacet
 facet normal 0.3804906043601525 0.9247847857710711 0
  outer loop
   vertex -1.0138 -3.1404 0
   vertex -1.4898 -2.9446 0
   vertex -1.0138 -3.1404 6
  endloop
 endfacet
 facet normal 0.3804906043601525 0.9247847857710711 0
  outer loop
   vertex -1.4898 -2.9446 0
   vertex -1.4898 -2.9446 6
   vertex -1.0138 -3.1404 6
  endloop
 endfacet
 facet normal 0.5196634814282067 0.8543710353645634 0
  outer loop
   vertex -1.4898 -2.9446 0
   vertex -1.9295 -2.6771 0
   vertex -1.4898 -2.9446 6
  endloop
 endfacet
 facet normal 0.5196634814282067 0.8543710353645634 0
  outer loop
   vertex -1.9295 -2.6771 0
   vertex -1.9295 -2.6771 6
   vertex -1.4898 -2.9446 6
  endloop
 endfacet
 facet normal 0.6461947561726873 0.7631725473933932 0
  outer loop
   vertex -1.9295 -2.6771 0
   vertex -2.3224 -2.3445 0
   vertex -1.9295 -2.6771 6
  endloop
 endfacet
 facet normal 0.6461947561726873 0.7631725473933932 0
  outer loop
   vertex -2.3224 -2.3445 0
   vertex -2.3224 -2.3445 6
   vertex -1.9295 -2.6771 6
  endloop
 endfacet
 facet normal 0.7570059403564876 0.6534079937259645 0
  outer loop
   vertex -2.3224 -2.3445 0
   vertex -2.6587 -1.9549 0
   vertex -2.3224 -2.3445 6
  endloop
 endfacet
 facet normal 0.7570059403564876 0.6534079937259645 0
  outer loop
   vertex -2.6587 -1.9549 0
   vertex -2.6587 -1.9549 6
   vertex -2.3224 -2.3445 6
  endloop
 endfacet
 facet normal 0.8494007657970523 0.5277483671821084 0
  outer loop
   vertex -2.6587 -1.9549 0
   vertex -2.9303 -1.5177 0
   vertex -2.6587 -1.9549 6
  endloop
 endfacet
 facet normal 0.8494007657970523 0.5277483671821084 0
  outer loop
   vertex -2.9303 -1.5177 0
   vertex -2.9303 -1.5177 6
   vertex -2.6587 -1.9549 6
  endloop
 endfacet
 facet normal 0.9211323380772546 0.38924955458976507 0
  outer loop
   vertex -2.9303 -1.5177 0
   vertex -3.1307 -1.0436 0
   vertex -2.9303 -1.5177 6
  endloop
 endfacet
 facet normal 0.9211323380772546 0.38924955458976507 0
  outer loop
   vertex -3.1307 -1.0436 0
   vertex -3.1307 -1.0436 6
   vertex -2.9303 -1.5177 6
  endloop
 endfacet
 facet normal 0.9704552291116115 0.24128126386010568 0
  outer loop
   vertex -3.1307 -1.0436 0
   vertex -3.2548 -0.5441 0
   vertex -3.1307 -1.0436 6
  endloop
 endfacet
 facet normal 0.9704552291116115 0.24128126386010568 0
  outer loop
   vertex -3.2548 -0.5441 0
   vertex -3.2548 -0.5441 6
   vertex -3.1307 -1.0436 6
  endloop
 endfacet
 facet normal 0.9961694665849938 0.08744366096961376 0
  outer loop
   vertex -3.2548 -0.5441 0
   vertex -3.2999 -0.0313 0
   vertex -3.2548 -0.5441 6
  endloop
 endfacet
 facet normal 0.9961694665849938 0.08744366096961376 0
  outer loop
   vertex -3.2999 -0.0313 0
   vertex -3.2999 -0.0313 6
   vertex -3.2548 -0.5441 6
  endloop
 endfacet
 facet normal 0.9976496414657807 -0.06852147753222461 0
  outer loop
   vertex -3.2999 -0.0313 0
   vertex -3.2646 0.4822 0
   vertex -3.2999 -0.0313 6
  endloop
 endfacet
 facet normal 0.9976496414657807 -0.06852147753222461 0
  outer loop
   vertex -3.2646 0.4822 0
   vertex -3.2646 0.4822 6
   vertex -3.2999 -0.0313 6
  endloop
 endfacet
 facet normal 0.9748597139977359 -0.2228195189480779 0
  outer loop
   vertex -3.2646 0.4822 0
   vertex -3.1499 0.9839 0
   vertex -3.2646 0.4822 6
  endloop
 endfacet
 facet normal 0.9748597139977359 -0.2228195189480779 0
  outer loop
   vertex -3.1499 0.9839 0
   vertex -3.1499 0.9839 6
   vertex -3.2646 0.4822 6
  endloop
 endfacet
 facet normal 0.9283540809771663 -0.37169705451219376 0
  outer loop
   vertex -3.1499 0.9839 0
   vertex -2.9586 1.4618 0
   vertex -3.1499 0.9839 6
  endloop
 endfacet
 facet normal 0.9283540809771663 -0.37169705451219376 0
  outer loop
   vertex -2.9586 1.4618 0
   vertex -2.9586 1.4618 6
   vertex -3.1499 0.9839 6
  endloop
 endfacet
 facet normal 0.8592640341187252 -0.5115323251467243 0
  outer loop
   vertex -2.9586 1.4618 0
   vertex -2.6953 1.9041 0
   vertex -2.9586 1.4618 6
  endloop
 endfacet
 facet normal 0.8592640341187252 -0.5115323251467243 0
  outer loop
   vertex -2.6953 1.9041 0
   vertex -2.6953 1.9041 6
   vertex -2.9586 1.4618 6
  endloop
 endfacet
 facet normal 0.7692704827972541 -0.6389232538395201 0
  outer loop
   vertex -2.6953 1.9041 0
   vertex -2.3664 2.3 0
   vertex -2.6953 1.9041 6
  endloop
 endfacet
 facet normal 0.7692704827972541 -0.6389232538395201 0
  outer loop
   vertex -2.3664 2.3 0
   vertex -2.3664 2.3 6
   vertex -2.6953 1.9041 6
  endloop
 endfacet
 facet normal 0 -1 0
  outer loop
   vertex -2.3664 2.3 0
   vertex 2.3664 2.3 0
   vertex -2.3664 2.3 6
  endloop
 endfacet
 facet normal 0 -1 0
  outer loop
   vertex 2.3664 2.3 0
   vertex 2.3664 2.3 6
   vertex -2.3664 2.3 6
  endloop
 endfacet
 facet normal -0.9238793534379639 0.38268386468604837 0
  outer loop
   vertex 2.9944 -28.8023 0
   vertex 2.6847 -29.55 0
   vertex 2.9944 -28.8023 6
  endloop
 endfacet
 facet normal -0.9238793534379639 0.38268386468604837 0
  outer loop
   vertex 2.6847 -29.55 0
   vertex 2.6847 -29.55 6
   vertex 2.9944 -28.8023 6
  endloop
 endfacet
 facet normal -0.7933539804932112 0.6087605946803533 0
  outer loop
   vertex 2.6847 -29.55 0
   vertex 2.192 -30.192 0
   vertex 2.6847 -29.55 6
  endloop
 endfacet
 facet normal -0.7933539804932112 0.6087605946803533 0
  outer loop
   vertex 2.192 -30.192 0
   vertex 2.192 -30.192 6
   vertex 2.6847 -29.55 6
  endloop
 endfacet
 facet normal -0.6087610343912168 0.7933536430917398 0
  outer loop
   vertex 2.192 -30.192 0
   vertex 1.55 -30.6847 0
   vertex 2.192 -30.192 6
  endloop
 endfacet
 facet normal -0.6087610343912168 0.7933536430917398 0
  outer loop
   vertex 1.55 -30.6847 0
   vertex 1.55 -30.6847 6
   vertex 2.192 -30.192 6
  endloop
 endfacet
 facet normal -0.3826825634371453 0.9238798924325472 0
  outer loop
   vertex 1.55 -30.6847 0
   vertex 0.8023 -30.9944 0
   vertex 1.55 -30.6847 6
  endloop
 endfacet
 facet normal -0.3826825634371453 0.9238798924325472 0
  outer loop
   vertex 0.8023 -30.9944 0
   vertex 0.8023 -30.9944 6
   vertex 1.55 -30.6847 6
  endloop
 endfacet
 facet normal -0.1305273328674072 0.9914447112040696 0
  outer loop
   vertex 0.8023 -30.9944 0
   vertex 0 -31.1 0
   vertex 0.8023 -30.9944 6
  endloop
 endfacet
 facet normal -0.1305273328674072 0.9914447112040696 0
  outer loop
   vertex 0 -31.1 0
   vertex 0 -31.1 6
   vertex 0.8023 -30.9944 6
  endloop
 endfacet
 facet normal 0.1305273328674074 0.9914447112040696 0
  outer loop
   vertex 0 -31.1 0
   vertex -0.8023 -30.9944 0
   vertex 0 -31.1 6
  endloop
 endfacet
 facet normal 0.1305273328674074 0.9914447112040696 0
  outer loop
   vertex -0.8023 -30.9944 0
   vertex -0.8023 -30.9944 6
   vertex 0 -31.1 6
  endloop
 endfacet
 facet normal 0.3826825634371453 0.9238798924325472 0
  outer loop
   vertex -0.8023 -30.9944 0
   vertex -1.55 -30.6847 0
   vertex -0.8023 -30.9944 6
  endloop
 endfacet
 facet normal 0.3826825634371453 0.9238798924325472 0
  outer loop
   vertex -1.55 -30.6847 0
   vertex -1.55 -30.6847 6
   vertex -0.8023 -30.9944 6
  endloop
 endfacet
 facet normal 0.6087610343912168 0.7933536430917398 0
  outer loop
   vertex -1.55 -30.6847 0
   vertex -2.192 -30.192 0
   vertex -1.55 -30.6847 6
  endloop
 endfacet
 facet normal 0.6087610343912168 0.7933536430917398 0
  outer loop
   vertex -2.192 -30.192 0
   vertex -2.192 -30.192 6
   vertex -1.55 -30.6847 6
  endloop
 endfacet
 facet normal 0.7933539804932112 0.6087605946803533 0
  outer loop
   vertex -2.192 -30.192 0
   vertex -2.6847 -29.55 0
   vertex -2.192 -30.192 6
  endloop
 endfacet
 facet normal 0.7933539804932112 0.6087605946803533 0
  outer loop
   vertex -2.6847 -29.55 0
   vertex -2.6847 -29.55 6
   vertex -2.192 -30.192 6
  endloop
 endfacet
 facet normal 0.9238793534379639 0.38268386468604837 0
  outer loop
   vertex -2.6847 -29.55 0
   vertex -2.9944 -28.8023 0
   vertex -2.6847 -29.55 6
  endloop
 endfacet
 facet normal 0.9238793534379639 0.38268386468604837 0
  outer loop
   vertex -2.9944 -28.8023 0
   vertex -2.9944 -28.8023 6
   vertex -2.6847 -29.55 6
  endloop
 endfacet
 facet normal 0.9914448750006941 0.13052608871355031 0
  outer loop
   vertex -2.9944 -28.8023 0
   vertex -3.1 -28 0
   vertex -2.9944 -28.8023 6
  endloop
 endfacet
 facet normal 0.9914448750006941 0.13052608871355031 0
  outer loop
   vertex -3.1 -28 0
   vertex -3.1 -28 6
   vertex -2.9944 -28.8023 6
  endloop
 endfacet
 facet normal 0.9914448750006941 -0.13052608871355031 0
  outer loop
   vertex -3.1 -28 0
   vertex -2.9944 -27.1977 0
   vertex -3.1 -28 6
  endloop
 endfacet
 facet normal 0.9914448750006941 -0.13052608871355031 0
  outer loop
   vertex -2.9944 -27.1977 0
   vertex -2.9944 -27.1977 6
   vertex -3.1 -28 6
  endloop
 endfacet
 facet normal 0.9238793534379639 -0.38268386468604837 0
  outer loop
   vertex -2.9944 -27.1977 0
   vertex -2.6847 -26.45 0
   vertex -2.9944 -27.1977 6
  endloop
 endfacet
 facet normal 0.9238793534379639 -0.38268386468604837 0
  outer loop
   vertex -2.6847 -26.45 0
   vertex -2.6847 -26.45 6
   vertex -2.9944 -27.1977 6
  endloop
 endfacet
 facet normal 0.7933539804932112 -0.6087605946803533 0
  outer loop
   vertex -2.6847 -26.45 0
   vertex -2.192 -25.808 0
   vertex -2.6847 -26.45 6
  endloop
 endfacet
 facet normal 0.7933539804932112 -0.6087605946803533 0
  outer loop
   vertex -2.192 -25.808 0
   vertex -2.192 -25.808 6
   vertex -2.6847 -26.45 6
  endloop
 endfacet
 facet normal 0.6087610343912168 -0.7933536430917398 0
  outer loop
   vertex -2.192 -25.808 0
   vertex -1.55 -25.3153 0
   vertex -2.192 -25.808 6
  endloop
 endfacet
 facet normal 0.6087610343912168 -0.7933536430917398 0
  outer loop
   vertex -1.55 -25.3153 0
   vertex -1.55 -25.3153 6
   vertex -2.192 -25.808 6
  endloop
 endfacet
 facet normal 0.3826825634371453 -0.9238798924325472 0
  outer loop
   vertex -1.55 -25.3153 0
   vertex -0.8023 -25.0056 0
   vertex -1.55 -25.3153 6
  endloop
 endfacet
 facet normal 0.3826825634371453 -0.9238798924325472 0
  outer loop
   vertex -0.8023 -25.0056 0
   vertex -0.8023 -25.0056 6
   vertex -1.55 -25.3153 6
  endloop
 endfacet
 facet normal 0.13052733286740723 -0.9914447112040696 0
  outer loop
   vertex -0.8023 -25.0056 0
   vertex 0 -24.9 0
   vertex -0.8023 -25.0056 6
  endloop
 endfacet
 facet normal 0.13052733286740723 -0.9914447112040696 0
  outer loop
   vertex 0 -24.9 0
   vertex 0 -24.9 6
   vertex -0.8023 -25.0056 6
  endloop
 endfacet
 facet normal -0.13052733286740734 -0.9914447112040696 0
  outer loop
   vertex 0 -24.9 0
   vertex 0.8023 -25.0056 0
   vertex 0 -24.9 6
  endloop
 endfacet
 facet normal -0.13052733286740734 -0.9914447112040696 0
  outer loop
   vertex 0.8023 -25.0056 0
   vertex 0.8023 -25.0056 6
   vertex 0 -24.9 6
  endloop
 endfacet
 facet normal -0.3826825634371453 -0.9238798924325472 0
  outer loop
   vertex 0.8023 -25.0056 0
   vertex 1.55 -25.3153 0
   vertex 0.8023 -25.0056 6
  endloop
 endfacet
 facet normal -0.3826825634371453 -0.9238798924325472 0
  outer loop
   vertex 1.55 -25.3153 0
   vertex 1.55 -25.3153 6
   vertex 0.8023 -25.0056 6
  endloop
 endfacet
 facet normal -0.6087610343912168 -0.7933536430917398 0
  outer loop
   vertex 1.55 -25.3153 0
   vertex 2.192 -25.808 0
   vertex 1.55 -25.3153 6
  endloop
 endfacet
 facet normal -0.6087610343912168 -0.7933536430917398 0
  outer loop
   vertex 2.192 -25.808 0
   vertex 2.192 -25.808 6
   vertex 1.55 -25.3153 6
  endloop
 endfacet
 facet normal -0.7933539804932112 -0.6087605946803533 0
  outer loop
   vertex 2.192 -25.808 0
   vertex 2.6847 -26.45 0
   vertex 2.192 -25.808 6
  endloop
 endfacet
 facet normal -0.7933539804932112 -0.6087605946803533 0
  outer loop
   vertex 2.6847 -26.45 0
   vertex 2.6847 -26.45 6
   vertex 2.192 -25.808 6
  endloop
 endfacet
 facet normal -0.9238793534379639 -0.38268386468604837 0
  outer loop
   vertex 2.6847 -26.45 0
   vertex 2.9944 -27.1977 0
   vertex 2.6847 -26.45 6
  endloop
 endfacet
 facet normal -0.9238793534379639 -0.38268386468604837 0
  outer loop
   vertex 2.9944 -27.1977 0
   vertex 2.9944 -27.1977 6
   vertex 2.6847 -26.45 6
  endloop
 endfacet
 facet normal -0.9914448750006941 -0.13052608871355031 0
  outer loop
   vertex 2.9944 -27.1977 0
   vertex 3.1 -28 0
   vertex 2.9944 -27.1977 6
  endloop
 endfacet
 facet normal -0.9914448750006941 -0.13052608871355031 0
  outer loop
   vertex 3.1 -28 0
   vertex 3.1 -28 6
   vertex 2.9944 -27.1977 6
  endloop
 endfacet
 facet normal -0.9914448750006941 0.13052608871355031 0
  outer loop
   vertex 3.1 -28 0
   vertex 2.9944 -28.8023 0
   vertex 3.1 -28 6
  endloop
 endfacet
 facet normal -0.9914448750006941 0.13052608871355031 0
  outer loop
   vertex 2.9944 -28.8023 0
   vertex 2.9944 -28.8023 6
   vertex 3.1 -28 6
  endloop
 endfacet
endsolid hp-07-crank