solid heart-07-cam
 facet normal 0 0 -1
  outer loop
   vertex 21.837142944335938 2.2770373821258545 0
   vertex 22 0 0
   vertex 21.837142944335938 -2.2770373821258545 0
  endloop
 endfacet
 facet normal 0 0 -1
  outer loop
   vertex 20.55411148071289 6.646640300750732 0
   vertex 21.351886749267578 4.507720947265625 0
   vertex 21.837142944335938 2.2770373821258545 0
  endloop
 endfacet
 facet normal 0 0 -1
  outer loop
   vertex 18.09199333190918 10.477771759033203 0
   vertex 19.46005630493164 8.650253295898438 0
   vertex 20.55411148071289 6.646640300750732 0
  endloop
 endfacet
 facet normal 0 0 -1
  outer loop
   vertex 14.650253295898438 13.46005630493164 0
   vertex 16.477771759033203 12.09199333190918 0
   vertex 18.09199333190918 10.477771759033203 0
  endloop
 endfacet
 facet normal 0 0 -1
  outer loop
   vertex 10.507720947265625 15.351887702941895 0
   vertex 12.646639823913574 14.55411148071289 0
   vertex 14.650253295898438 13.46005630493164 0
  endloop
 endfacet
 facet normal 0 0 -1
  outer loop
   vertex 6 16 0
   vertex 8.277037620544434 15.837142944335938 0
   vertex 10.507720947265625 15.351887702941895 0
  endloop
 endfacet
 facet normal 0 0 -1
  outer loop
   vertex 1.492279052734375 15.351887702941895 0
   vertex 3.7229626178741455 15.837142944335938 0
   vertex 6 16 0
  endloop
 endfacet
 facet normal 0 0 -1
  outer loop
   vertex -2.6502530574798584 13.46005630493164 0
   vertex -0.6466401815414429 14.55411148071289 0
   vertex 1.492279052734375 15.351887702941895 0
  endloop
 endfacet
 facet normal 0 0 -1
  outer loop
   vertex -6.09199333190918 10.477771759033203 0
   vertex -4.477771759033203 12.09199333190918 0
   vertex -2.6502530574798584 13.46005630493164 0
  endloop
 endfacet
 facet normal 0 0 -1
  outer loop
   vertex -8.55411148071289 6.646640300750732 0
   vertex -7.460056304931641 8.650253295898438 0
   vertex -6.09199333190918 10.477771759033203 0
  endloop
 endfacet
 facet normal 0 0 -1
  outer loop
   vertex -9.837142944335938 2.2770373821258545 0
   vertex -9.351887702941895 4.507720947265625 0
   vertex -8.55411148071289 6.646640300750732 0
  endloop
 endfacet
 facet normal 0 0 -1
  outer loop
   vertex -3.0999999046325684 3.7964051106651223e-16 0
   vertex -10 1.9594349641362686e-15 0
   vertex -9.837142944335938 2.2770373821258545 0
  endloop
 endfacet
 facet normal 0 0 -1
  outer loop
   vertex -10 1.9594349641362686e-15 0
   vertex -3.0999999046325684 3.7964051106651223e-16 0
   vertex -2.9943699836730957 -0.8023390173912048 0
  endloop
 endfacet
 facet normal 0 0 -1
  outer loop
   vertex -9.351887702941895 -4.507720947265625 0
   vertex -9.837142944335938 -2.2770373821258545 0
   vertex -10 1.9594349641362686e-15 0
  endloop
 endfacet
 facet normal 0 0 -1
  outer loop
   vertex -7.460056304931641 -8.650253295898438 0
   vertex -8.55411148071289 -6.646640300750732 0
   vertex -9.351887702941895 -4.507720947265625 0
  endloop
 endfacet
 facet normal 0 0 -1
  outer loop
   vertex -4.477771759033203 -12.09199333190918 0
   vertex -6.09199333190918 -10.477771759033203 0
   vertex -7.460056304931641 -8.650253295898438 0
  endloop
 endfacet
 facet normal 0 0 -1
  outer loop
   vertex -0.6466401815414429 -14.55411148071289 0
   vertex -2.6502530574798584 -13.46005630493164 0
   vertex -4.477771759033203 -12.09199333190918 0
  endloop
 endfacet
 facet normal 0 0 -1
  outer loop
   vertex 3.7229626178741455 -15.837142944335938 0
   vertex 1.492279052734375 -15.351887702941895 0
   vertex -0.6466401815414429 -14.55411148071289 0
  endloop
 endfacet
 facet normal 0 0 -1
  outer loop
   vertex 8.277037620544434 -15.837142944335938 0
   vertex 6 -16 0
   vertex 3.7229626178741455 -15.837142944335938 0
  endloop
 endfacet
 facet normal 0 0 -1
  outer loop
   vertex 12.646639823913574 -14.55411148071289 0
   vertex 10.507720947265625 -15.351887702941895 0
   vertex 8.277037620544434 -15.837142944335938 0
  endloop
 endfacet
 facet normal 0 0 -1
  outer loop
   vertex 16.477771759033203 -12.09199333190918 0
   vertex 14.650253295898438 -13.46005630493164 0
   vertex 12.646639823913574 -14.55411148071289 0
  endloop
 endfacet
 facet normal 0 0 -1
  outer loop
   vertex 19.46005630493164 -8.650253295898438 0
   vertex 18.09199333190918 -10.477771759033203 0
   vertex 16.477771759033203 -12.09199333190918 0
  endloop
 endfacet
 facet normal 0 0 -1
  outer loop
   vertex 21.351886749267578 -4.507720947265625 0
   vertex 20.55411148071289 -6.646640300750732 0
   vertex 19.46005630493164 -8.650253295898438 0
  endloop
 endfacet
 facet normal 0 0 -1
  outer loop
   vertex 21.837142944335938 2.2770373821258545 0
   vertex 21.837142944335938 -2.2770373821258545 0
   vertex 21.351886749267578 -4.507720947265625 0
  endloop
 endfacet
 facet normal 0 0 -1
  outer loop
   vertex 18.09199333190918 10.477771759033203 0
   vertex 20.55411148071289 6.646640300750732 0
   vertex 21.837142944335938 2.2770373821258545 0
  endloop
 endfacet
 facet normal 0 0 -1
  outer loop
   vertex 10.507720947265625 15.351887702941895 0
   vertex 14.650253295898438 13.46005630493164 0
   vertex 18.09199333190918 10.477771759033203 0
  endloop
 endfacet
 facet normal 0 0 -1
  outer loop
   vertex 1.492279052734375 15.351887702941895 0
   vertex 6 16 0
   vertex 10.507720947265625 15.351887702941895 0
  endloop
 endfacet
 facet normal 0 0 -1
  outer loop
   vertex -6.09199333190918 10.477771759033203 0
   vertex -2.6502530574798584 13.46005630493164 0
   vertex 1.492279052734375 15.351887702941895 0
  endloop
 endfacet
 facet normal 0 0 -1
  outer loop
   vertex -9.837142944335938 2.2770373821258545 0
   vertex -8.55411148071289 6.646640300750732 0
   vertex -6.09199333190918 10.477771759033203 0
  endloop
 endfacet
 facet normal 0 0 -1
  outer loop
   vertex -2.9943699836730957 0.8023390173912048 0
   vertex -3.0999999046325684 3.7964051106651223e-16 0
   vertex -9.837142944335938 2.2770373821258545 0
  endloop
 endfacet
 facet normal 0 0 -1
  outer loop
   vertex -10 1.9594349641362686e-15 0
   vertex -2.9943699836730957 -0.8023390173912048 0
   vertex -2.684678792953491 -1.5499999523162842 0
  endloop
 endfacet
 facet normal 0 0 -1
  outer loop
   vertex -7.460056304931641 -8.650253295898438 0
   vertex -9.351887702941895 -4.507720947265625 0
   vertex -10 1.9594349641362686e-15 0
  endloop
 endfacet
 facet normal 0 0 -1
  outer loop
   vertex -0.6466401815414429 -14.55411148071289 0
   vertex -4.477771759033203 -12.09199333190918 0
   vertex -7.460056304931641 -8.650253295898438 0
  endloop
 endfacet
 facet normal 0 0 -1
  outer loop
   vertex 8.277037620544434 -15.837142944335938 0
   vertex 3.7229626178741455 -15.837142944335938 0
   vertex -0.6466401815414429 -14.55411148071289 0
  endloop
 endfacet
 facet normal 0 0 -1
  outer loop
   vertex 16.477771759033203 -12.09199333190918 0
   vertex 12.646639823913574 -14.55411148071289 0
   vertex 8.277037620544434 -15.837142944335938 0
  endloop
 endfacet
 facet normal 0 0 -1
  outer loop
   vertex 21.351886749267578 -4.507720947265625 0
   vertex 19.46005630493164 -8.650253295898438 0
   vertex 16.477771759033203 -12.09199333190918 0
  endloop
 endfacet
 facet normal 0 0 -1
  outer loop
   vertex 18.09199333190918 10.477771759033203 0
   vertex 21.837142944335938 2.2770373821258545 0
   vertex 21.351886749267578 -4.507720947265625 0
  endloop
 endfacet
 facet normal 0 0 -1
  outer loop
   vertex 1.492279052734375 15.351887702941895 0
   vertex 10.507720947265625 15.351887702941895 0
   vertex 18.09199333190918 10.477771759033203 0
  endloop
 endfacet
 facet normal 0 0 -1
  outer loop
   vertex -9.837142944335938 2.2770373821258545 0
   vertex -6.09199333190918 10.477771759033203 0
   vertex 1.492279052734375 15.351887702941895 0
  endloop
 endfacet
 facet normal 0 0 -1
  outer loop
   vertex -2.684678792953491 1.5499999523162842 0
   vertex -2.9943699836730957 0.8023390173912048 0
   vertex -9.837142944335938 2.2770373821258545 0
  endloop
 endfacet
 facet normal 0 0 -1
  outer loop
   vertex -10 1.9594349641362686e-15 0
   vertex -2.684678792953491 -1.5499999523162842 0
   vertex -2.192030906677246 -2.192030906677246 0
  endloop
 endfacet
 facet normal 0 0 -1
  outer loop
   vertex -0.6466401815414429 -14.55411148071289 0
   vertex -7.460056304931641 -8.650253295898438 0
   vertex -10 1.9594349641362686e-15 0
  endloop
 endfacet
 facet normal 0 0 -1
  outer loop
   vertex 16.477771759033203 -12.09199333190918 0
   vertex 8.277037620544434 -15.837142944335938 0
   vertex -0.6466401815414429 -14.55411148071289 0
  endloop
 endfacet
 facet normal 0 0 -1
  outer loop
   vertex 18.09199333190918 10.477771759033203 0
   vertex 21.351886749267578 -4.507720947265625 0
   vertex 16.477771759033203 -12.09199333190918 0
  endloop
 endfacet
 facet normal 0 0 -1
  outer loop
   vertex -9.837142944335938 2.2770373821258545 0
   vertex 1.492279052734375 15.351887702941895 0
   vertex 18.09199333190918 10.477771759033203 0
  endloop
 endfacet
 facet normal 0 0 -1
  outer loop
   vertex -2.192030906677246 2.192030906677246 0
   vertex -2.684678792953491 1.5499999523162842 0
   vertex -9.837142944335938 2.2770373821258545 0
  endloop
 endfacet
 facet normal 0 0 -1
  outer loop
   vertex -10 1.9594349641362686e-15 0
   vertex -2.192030906677246 -2.192030906677246 0
   vertex -1.5499999523162842 -2.684678792953491 0
  endloop
 endfacet
 facet normal 0 0 -1
  outer loop
   vertex 16.477771759033203 -12.09199333190918 0
   vertex -0.6466401815414429 -14.55411148071289 0
   vertex -10 1.9594349641362686e-15 0
  endloop
 endfacet
 facet normal 0 0 -1
  outer loop
   vertex -1.5499999523162842 2.684678792953491 0
   vertex -2.192030906677246 2.192030906677246 0
   vertex -9.837142944335938 2.2770373821258545 0
  endloop
 endfacet
 facet normal 0 0 -1
  outer loop
   vertex -10 1.9594349641362686e-15 0
   vertex -1.5499999523162842 -2.684678792953491 0
   vertex -0.8023390173912048 -2.9943699836730957 0
  endloop
 endfacet
 facet normal 0 0 -1
  outer loop
   vertex -0.8023390173912048 2.9943699836730957 0
   vertex -1.5499999523162842 2.684678792953491 0
   vertex -9.837142944335938 2.2770373821258545 0
  endloop
 endfacet
 facet normal 0 0 -1
  outer loop
   vertex 16.477771759033203 -12.09199333190918 0
   vertex -10 1.9594349641362686e-15 0
   vertex -0.8023390173912048 -2.9943699836730957 0
  endloop
 endfacet
 facet normal 0 0 -1
  outer loop
   vertex -0.8023390173912048 2.9943699836730957 0
   vertex -9.837142944335938 2.2770373821258545 0
   vertex 18.09199333190918 10.477771759033203 0
  endloop
 endfacet
 facet normal 0 0 -1
  outer loop
   vertex 16.477771759033203 -12.09199333190918 0
   vertex -0.8023390173912048 -2.9943699836730957 0
   vertex -5.694607798346582e-16 -3.0999999046325684 0
  endloop
 endfacet
 facet normal 0 0 -1
  outer loop
   vertex 1.8982025553325612e-16 3.0999999046325684 0
   vertex -0.8023390173912048 2.9943699836730957 0
   vertex 18.09199333190918 10.477771759033203 0
  endloop
 endfacet
 facet normal 0 0 -1
  outer loop
   vertex 16.477771759033203 -12.09199333190918 0
   vertex -5.694607798346582e-16 -3.0999999046325684 0
   vertex 0.8023390173912048 -2.9943699836730957 0
  endloop
 endfacet
 facet normal 0 0 -1
  outer loop
   vertex 0.8023390173912048 2.9943699836730957 0
   vertex 1.8982025553325612e-16 3.0999999046325684 0
   vertex 18.09199333190918 10.477771759033203 0
  endloop
 endfacet
 facet normal 0 0 -1
  outer loop
   vertex 16.477771759033203 -12.09199333190918 0
   vertex 0.8023390173912048 -2.9943699836730957 0
   vertex 1.5499999523162842 -2.684678792953491 0
  endloop
 endfacet
 facet normal 0 0 -1
  outer loop
   vertex 1.5499999523162842 2.684678792953491 0
   vertex 0.8023390173912048 2.9943699836730957 0
   vertex 18.09199333190918 10.477771759033203 0
  endloop
 endfacet
 facet normal 0 0 -1
  outer loop
   vertex 16.477771759033203 -12.09199333190918 0
   vertex 1.5499999523162842 -2.684678792953491 0
   vertex 2.192030906677246 -2.192030906677246 0
  endloop
 endfacet
 facet normal 0 0 -1
  outer loop
   vertex 2.192030906677246 2.192030906677246 0
   vertex 1.5499999523162842 2.684678792953491 0
   vertex 18.09199333190918 10.477771759033203 0
  endloop
 endfacet
 facet normal 0 0 -1
  outer loop
   vertex 16.477771759033203 -12.09199333190918 0
   vertex 2.192030906677246 -2.192030906677246 0
   vertex 2.684678792953491 -1.5499999523162842 0
  endloop
 endfacet
 facet normal 0 0 -1
  outer loop
   vertex 2.192030906677246 2.192030906677246 0
   vertex 18.09199333190918 10.477771759033203 0
   vertex 16.477771759033203 -12.09199333190918 0
  endloop
 endfacet
 facet normal 0 0 -1
  outer loop
   vertex 16.477771759033203 -12.09199333190918 0
   vertex 2.684678792953491 -1.5499999523162842 0
   vertex 2.9943699836730957 -0.8023390173912048 0
  endloop
 endfacet
 facet normal 0 0 -1
  outer loop
   vertex 2.684678792953491 1.5499999523162842 0
   vertex 2.192030906677246 2.192030906677246 0
   vertex 16.477771759033203 -12.09199333190918 0
  endloop
 endfacet
 facet normal 0 0 -1
  outer loop
   vertex 16.477771759033203 -12.09199333190918 0
   vertex 2.9943699836730957 -0.8023390173912048 0
   vertex 3.0999999046325684 0 0
  endloop
 endfacet
 facet normal 0 0 -1
  outer loop
   vertex 2.9943699836730957 0.8023390173912048 0
   vertex 2.684678792953491 1.5499999523162842 0
   vertex 16.477771759033203 -12.09199333190918 0
  endloop
 endfacet
 facet normal 0 0 -1
  outer loop
   vertex 16.477771759033203 -12.09199333190918 0
   vertex 3.0999999046325684 0 0
   vertex 2.9943699836730957 0.8023390173912048 0
  endloop
 endfacet
 facet normal 0 0 1
  outer loop
   vertex 21.837142944335938 -2.2770373821258545 9
   vertex 22 0 9
   vertex 21.837142944335938 2.2770373821258545 9
  endloop
 endfacet
 facet normal 0 0 1
  outer loop
   vertex 21.837142944335938 2.2770373821258545 9
   vertex 21.351886749267578 4.507720947265625 9
   vertex 20.55411148071289 6.646640300750732 9
  endloop
 endfacet
 facet normal 0 0 1
  outer loop
   vertex 20.55411148071289 6.646640300750732 9
   vertex 19.46005630493164 8.650253295898438 9
   vertex 18.09199333190918 10.477771759033203 9
  endloop
 endfacet
 facet normal 0 0 1
  outer loop
   vertex 18.09199333190918 10.477771759033203 9
   vertex 16.477771759033203 12.09199333190918 9
   vertex 14.650253295898438 13.46005630493164 9
  endloop
 endfacet
 facet normal 0 0 1
  outer loop
   vertex 14.650253295898438 13.46005630493164 9
   vertex 12.646639823913574 14.55411148071289 9
   vertex 10.507720947265625 15.351887702941895 9
  endloop
 endfacet
 facet normal 0 0 1
  outer loop
   vertex 10.507720947265625 15.351887702941895 9
   vertex 8.277037620544434 15.837142944335938 9
   vertex 6 16 9
  endloop
 endfacet
 facet normal 0 0 1
  outer loop
   vertex 6 16 9
   vertex 3.7229626178741455 15.837142944335938 9
   vertex 1.492279052734375 15.351887702941895 9
  endloop
 endfacet
 facet normal 0 0 1
  outer loop
   vertex 1.492279052734375 15.351887702941895 9
   vertex -0.6466401815414429 14.55411148071289 9
   vertex -2.6502530574798584 13.46005630493164 9
  endloop
 endfacet
 facet normal 0 0 1
  outer loop
   vertex -2.6502530574798584 13.46005630493164 9
   vertex -4.477771759033203 12.09199333190918 9
   vertex -6.09199333190918 10.477771759033203 9
  endloop
 endfacet
 facet normal 0 0 1
  outer loop
   vertex -6.09199333190918 10.477771759033203 9
   vertex -7.460056304931641 8.650253295898438 9
   vertex -8.55411148071289 6.646640300750732 9
  endloop
 endfacet
 facet normal 0 0 1
  outer loop
   vertex -8.55411148071289 6.646640300750732 9
   vertex -9.351887702941895 4.507720947265625 9
   vertex -9.837142944335938 2.2770373821258545 9
  endloop
 endfacet
 facet normal 0 0 1
  outer loop
   vertex -9.837142944335938 2.2770373821258545 9
   vertex -10 1.9594349641362686e-15 9
   vertex -3.0999999046325684 3.7964051106651223e-16 9
  endloop
 endfacet
 facet normal 0 0 1
  outer loop
   vertex -2.9943699836730957 -0.8023390173912048 9
   vertex -3.0999999046325684 3.7964051106651223e-16 9
   vertex -10 1.9594349641362686e-15 9
  endloop
 endfacet
 facet normal 0 0 1
  outer loop
   vertex -10 1.9594349641362686e-15 9
   vertex -9.837142944335938 -2.2770373821258545 9
   vertex -9.351887702941895 -4.507720947265625 9
  endloop
 endfacet
 facet normal 0 0 1
  outer loop
   vertex -9.351887702941895 -4.507720947265625 9
   vertex -8.55411148071289 -6.646640300750732 9
   vertex -7.460056304931641 -8.650253295898438 9
  endloop
 endfacet
 facet normal 0 0 1
  outer loop
   vertex -7.460056304931641 -8.650253295898438 9
   vertex -6.09199333190918 -10.477771759033203 9
   vertex -4.477771759033203 -12.09199333190918 9
  endloop
 endfacet
 facet normal 0 0 1
  outer loop
   vertex -4.477771759033203 -12.09199333190918 9
   vertex -2.6502530574798584 -13.46005630493164 9
   vertex -0.6466401815414429 -14.55411148071289 9
  endloop
 endfacet
 facet normal 0 0 1
  outer loop
   vertex -0.6466401815414429 -14.55411148071289 9
   vertex 1.492279052734375 -15.351887702941895 9
   vertex 3.7229626178741455 -15.837142944335938 9
  endloop
 endfacet
 facet normal 0 0 1
  outer loop
   vertex 3.7229626178741455 -15.837142944335938 9
   vertex 6 -16 9
   vertex 8.277037620544434 -15.837142944335938 9
  endloop
 endfacet
 facet normal 0 0 1
  outer loop
   vertex 8.277037620544434 -15.837142944335938 9
   vertex 10.507720947265625 -15.351887702941895 9
   vertex 12.646639823913574 -14.55411148071289 9
  endloop
 endfacet
 facet normal 0 0 1
  outer loop
   vertex 12.646639823913574 -14.55411148071289 9
   vertex 14.650253295898438 -13.46005630493164 9
   vertex 16.477771759033203 -12.09199333190918 9
  endloop
 endfacet
 facet normal 0 0 1
  outer loop
   vertex 16.477771759033203 -12.09199333190918 9
   vertex 18.09199333190918 -10.477771759033203 9
   vertex 19.46005630493164 -8.650253295898438 9
  endloop
 endfacet
 facet normal 0 0 1
  outer loop
   vertex 19.46005630493164 -8.650253295898438 9
   vertex 20.55411148071289 -6.646640300750732 9
   vertex 21.351886749267578 -4.507720947265625 9
  endloop
 endfacet
 facet normal 0 0 1
  outer loop
   vertex 21.351886749267578 -4.507720947265625 9
   vertex 21.837142944335938 -2.2770373821258545 9
   vertex 21.837142944335938 2.2770373821258545 9
  endloop
 endfacet
 facet normal 0 0 1
  outer loop
   vertex 21.837142944335938 2.2770373821258545 9
   vertex 20.55411148071289 6.646640300750732 9
   vertex 18.09199333190918 10.477771759033203 9
  endloop
 endfacet
 facet normal 0 0 1
  outer loop
   vertex 18.09199333190918 10.477771759033203 9
   vertex 14.650253295898438 13.46005630493164 9
   vertex 10.507720947265625 15.351887702941895 9
  endloop
 endfacet
 facet normal 0 0 1
  outer loop
   vertex 10.507720947265625 15.351887702941895 9
   vertex 6 16 9
   vertex 1.492279052734375 15.351887702941895 9
  endloop
 endfacet
 facet normal 0 0 1
  outer loop
   vertex 1.492279052734375 15.351887702941895 9
   vertex -2.6502530574798584 13.46005630493164 9
   vertex -6.09199333190918 10.477771759033203 9
  endloop
 endfacet
 facet normal 0 0 1
  outer loop
   vertex -6.09199333190918 10.477771759033203 9
   vertex -8.55411148071289 6.646640300750732 9
   vertex -9.837142944335938 2.2770373821258545 9
  endloop
 endfacet
 facet normal 0 0 1
  outer loop
   vertex -9.837142944335938 2.2770373821258545 9
   vertex -3.0999999046325684 3.7964051106651223e-16 9
   vertex -2.9943699836730957 0.8023390173912048 9
  endloop
 endfacet
 facet normal 0 0 1
  outer loop
   vertex -2.684678792953491 -1.5499999523162842 9
   vertex -2.9943699836730957 -0.8023390173912048 9
   vertex -10 1.9594349641362686e-15 9
  endloop
 endfacet
 facet normal 0 0 1
  outer loop
   vertex -10 1.9594349641362686e-15 9
   vertex -9.351887702941895 -4.507720947265625 9
   vertex -7.460056304931641 -8.650253295898438 9
  endloop
 endfacet
 facet normal 0 0 1
  outer loop
   vertex -7.460056304931641 -8.650253295898438 9
   vertex -4.477771759033203 -12.09199333190918 9
   vertex -0.6466401815414429 -14.55411148071289 9
  endloop
 endfacet
 facet normal 0 0 1
  outer loop
   vertex -0.6466401815414429 -14.55411148071289 9
   vertex 3.7229626178741455 -15.837142944335938 9
   vertex 8.277037620544434 -15.837142944335938 9
  endloop
 endfacet
 facet normal 0 0 1
  outer loop
   vertex 8.277037620544434 -15.837142944335938 9
   vertex 12.646639823913574 -14.55411148071289 9
   vertex 16.477771759033203 -12.09199333190918 9
  endloop
 endfacet
 facet normal 0 0 1
  outer loop
   vertex 16.477771759033203 -12.09199333190918 9
   vertex 19.46005630493164 -8.650253295898438 9
   vertex 21.351886749267578 -4.507720947265625 9
  endloop
 endfacet
 facet normal 0 0 1
  outer loop
   vertex 21.351886749267578 -4.507720947265625 9
   vertex 21.837142944335938 2.2770373821258545 9
   vertex 18.09199333190918 10.477771759033203 9
  endloop
 endfacet
 facet normal 0 0 1
  outer loop
   vertex 18.09199333190918 10.477771759033203 9
   vertex 10.507720947265625 15.351887702941895 9
   vertex 1.492279052734375 15.351887702941895 9
  endloop
 endfacet
 facet normal 0 0 1
  outer loop
   vertex 1.492279052734375 15.351887702941895 9
   vertex -6.09199333190918 10.477771759033203 9
   vertex -9.837142944335938 2.2770373821258545 9
  endloop
 endfacet
 facet normal 0 0 1
  outer loop
   vertex -9.837142944335938 2.2770373821258545 9
   vertex -2.9943699836730957 0.8023390173912048 9
   vertex -2.684678792953491 1.5499999523162842 9
  endloop
 endfacet
 facet normal 0 0 1
  outer loop
   vertex -2.192030906677246 -2.192030906677246 9
   vertex -2.684678792953491 -1.5499999523162842 9
   vertex -10 1.9594349641362686e-15 9
  endloop
 endfacet
 facet normal 0 0 1
  outer loop
   vertex -10 1.9594349641362686e-15 9
   vertex -7.460056304931641 -8.650253295898438 9
   vertex -0.6466401815414429 -14.55411148071289 9
  endloop
 endfacet
 facet normal 0 0 1
  outer loop
   vertex -0.6466401815414429 -14.55411148071289 9
   vertex 8.277037620544434 -15.837142944335938 9
   vertex 16.477771759033203 -12.09199333190918 9
  endloop
 endfacet
 facet normal 0 0 1
  outer loop
   vertex 16.477771759033203 -12.09199333190918 9
   vertex 21.351886749267578 -4.507720947265625 9
   vertex 18.09199333190918 10.477771759033203 9
  endloop
 endfacet
 facet normal 0 0 1
  outer loop
   vertex 18.09199333190918 10.477771759033203 9
   vertex 1.492279052734375 15.351887702941895 9
   vertex -9.837142944335938 2.2770373821258545 9
  endloop
 endfacet
 facet normal 0 0 1
  outer loop
   vertex -9.837142944335938 2.2770373821258545 9
   vertex -2.684678792953491 1.5499999523162842 9
   vertex -2.192030906677246 2.192030906677246 9
  endloop
 endfacet
 facet normal 0 0 1
  outer loop
   vertex -1.5499999523162842 -2.684678792953491 9
   vertex -2.192030906677246 -2.192030906677246 9
   vertex -10 1.9594349641362686e-15 9
  endloop
 endfacet
 facet normal 0 0 1
  outer loop
   vertex -10 1.9594349641362686e-15 9
   vertex -0.6466401815414429 -14.55411148071289 9
   vertex 16.477771759033203 -12.09199333190918 9
  endloop
 endfacet
 facet normal 0 0 1
  outer loop
   vertex -9.837142944335938 2.2770373821258545 9
   vertex -2.192030906677246 2.192030906677246 9
   vertex -1.5499999523162842 2.684678792953491 9
  endloop
 endfacet
 facet normal 0 0 1
  outer loop
   vertex -0.8023390173912048 -2.9943699836730957 9
   vertex -1.5499999523162842 -2.684678792953491 9
   vertex -10 1.9594349641362686e-15 9
  endloop
 endfacet
 facet normal 0 0 1
  outer loop
   vertex -9.837142944335938 2.2770373821258545 9
   vertex -1.5499999523162842 2.684678792953491 9
   vertex -0.8023390173912048 2.9943699836730957 9
  endloop
 endfacet
 facet normal 0 0 1
  outer loop
   vertex -0.8023390173912048 -2.9943699836730957 9
   vertex -10 1.9594349641362686e-15 9
   vertex 16.477771759033203 -12.09199333190918 9
  endloop
 endfacet
 facet normal 0 0 1
  outer loop
   vertex 18.09199333190918 10.477771759033203 9
   vertex -9.837142944335938 2.2770373821258545 9
   vertex -0.8023390173912048 2.9943699836730957 9
  endloop
 endfacet
 facet normal 0 0 1
  outer loop
   vertex -5.694607798346582e-16 -3.0999999046325684 9
   vertex -0.8023390173912048 -2.9943699836730957 9
   vertex 16.477771759033203 -12.09199333190918 9
  endloop
 endfacet
 facet normal 0 0 1
  outer loop
   vertex 18.09199333190918 10.477771759033203 9
   vertex -0.8023390173912048 2.9943699836730957 9
   vertex 1.8982025553325612e-16 3.0999999046325684 9
  endloop
 endfacet
 facet normal 0 0 1
  outer loop
   vertex 0.8023390173912048 -2.9943699836730957 9
   vertex -5.694607798346582e-16 -3.0999999046325684 9
   vertex 16.477771759033203 -12.09199333190918 9
  endloop
 endfacet
 facet normal 0 0 1
  outer loop
   vertex 18.09199333190918 10.477771759033203 9
   vertex 1.8982025553325612e-16 3.0999999046325684 9
   vertex 0.8023390173912048 2.9943699836730957 9
  endloop
 endfacet
 facet normal 0 0 1
  outer loop
   vertex 1.5499999523162842 -2.684678792953491 9
   vertex 0.8023390173912048 -2.9943699836730957 9
   vertex 16.477771759033203 -12.09199333190918 9
  endloop
 endfacet
 facet normal 0 0 1
  outer loop
   vertex 18.09199333190918 10.477771759033203 9
   vertex 0.8023390173912048 2.9943699836730957 9
   vertex 1.5499999523162842 2.684678792953491 9
  endloop
 endfacet
 facet normal 0 0 1
  outer loop
   vertex 2.192030906677246 -2.192030906677246 9
   vertex 1.5499999523162842 -2.684678792953491 9
   vertex 16.477771759033203 -12.09199333190918 9
  endloop
 endfacet
 facet normal 0 0 1
  outer loop
   vertex 18.09199333190918 10.477771759033203 9
   vertex 1.5499999523162842 2.684678792953491 9
   vertex 2.192030906677246 2.192030906677246 9
  endloop
 endfacet
 facet normal 0 0 1
  outer loop
   vertex 2.684678792953491 -1.5499999523162842 9
   vertex 2.192030906677246 -2.192030906677246 9
   vertex 16.477771759033203 -12.09199333190918 9
  endloop
 endfacet
 facet normal 0 0 1
  outer loop
   vertex 16.477771759033203 -12.09199333190918 9
   vertex 18.09199333190918 10.477771759033203 9
   vertex 2.192030906677246 2.192030906677246 9
  endloop
 endfacet
 facet normal 0 0 1
  outer loop
   vertex 2.9943699836730957 -0.8023390173912048 9
   vertex 2.684678792953491 -1.5499999523162842 9
   vertex 16.477771759033203 -12.09199333190918 9
  endloop
 endfacet
 facet normal 0 0 1
  outer loop
   vertex 16.477771759033203 -12.09199333190918 9
   vertex 2.192030906677246 2.192030906677246 9
   vertex 2.684678792953491 1.5499999523162842 9
  endloop
 endfacet
 facet normal 0 0 1
  outer loop
   vertex 3.0999999046325684 0 9
   vertex 2.9943699836730957 -0.8023390173912048 9
   vertex 16.477771759033203 -12.09199333190918 9
  endloop
 endfacet
 facet normal 0 0 1
  outer loop
   vertex 16.477771759033203 -12.09199333190918 9
   vertex 2.684678792953491 1.5499999523162842 9
   vertex 2.9943699836730957 0.8023390173912048 9
  endloop
 endfacet
 facet normal 0 0 1
  outer loop
   vertex 2.9943699836730957 0.8023390173912048 9
   vertex 3.0999999046325684 0 9
   vertex 16.477771759033203 -12.09199333190918 9
  endloop
 endfacet
 facet normal 0.9974521106228663 0.07133923895016951 0
  outer loop
   vertex 22 0 0
   vertex 21.837142944335938 2.2770373821258545 0
   vertex 22 0 9
  endloop
 endfacet
 facet normal 0.9974521106228663 0.07133923895016951 0
  outer loop
   vertex 21.837142944335938 2.2770373821258545 0
   vertex 21.837142944335938 2.2770373821258545 9
   vertex 22 0 9
  endloop
 endfacet
 facet normal 0.9771468033726309 0.21256557731356343 0
  outer loop
   vertex 21.837142944335938 2.2770373821258545 0
   vertex 21.351886749267578 4.507720947265625 0
   vertex 21.837142944335938 2.2770373821258545 9
  endloop
 endfacet
 facet normal 0.9771468033726309 0.21256557731356343 0
  outer loop
   vertex 21.351886749267578 4.507720947265625 0
   vertex 21.351886749267578 4.507720947265625 9
   vertex 21.837142944335938 2.2770373821258545 9
  endloop
 endfacet
 facet normal 0.9369497829582425 0.3494640242063584 0
  outer loop
   vertex 21.351886749267578 4.507720947265625 0
   vertex 20.55411148071289 6.646640300750732 0
   vertex 21.351886749267578 4.507720947265625 9
  endloop
 endfacet
 facet normal 0.9369497829582425 0.3494640242063584 0
  outer loop
   vertex 20.55411148071289 6.646640300750732 0
   vertex 20.55411148071289 6.646640300750732 9
   vertex 21.351886749267578 4.507720947265625 9
  endloop
 endfacet
 facet normal 0.8776790434139241 0.4792488881072328 0
  outer loop
   vertex 20.55411148071289 6.646640300750732 0
   vertex 19.46005630493164 8.650253295898438 0
   vertex 20.55411148071289 6.646640300750732 9
  endloop
 endfacet
 facet normal 0.8776790434139241 0.4792488881072328 0
  outer loop
   vertex 19.46005630493164 8.650253295898438 0
   vertex 19.46005630493164 8.650253295898438 9
   vertex 20.55411148071289 6.646640300750732 9
  endloop
 endfacet
 facet normal 0.8005412855535204 0.5992776068937641 0
  outer loop
   vertex 19.46005630493164 8.650253295898438 0
   vertex 18.09199333190918 10.477771759033203 0
   vertex 19.46005630493164 8.650253295898438 9
  endloop
 endfacet
 facet normal 0.8005412855535204 0.5992776068937641 0
  outer loop
   vertex 18.09199333190918 10.477771759033203 0
   vertex 18.09199333190918 10.477771759033203 9
   vertex 19.46005630493164 8.650253295898438 9
  endloop
 endfacet
 facet normal 0.7071067811865475 0.7071067811865475 0
  outer loop
   vertex 18.09199333190918 10.477771759033203 0
   vertex 16.477771759033203 12.09199333190918 0
   vertex 18.09199333190918 10.477771759033203 9
  endloop
 endfacet
 facet normal 0.7071067811865475 0.7071067811865475 0
  outer loop
   vertex 16.477771759033203 12.09199333190918 0
   vertex 16.477771759033203 12.09199333190918 9
   vertex 18.09199333190918 10.477771759033203 9
  endloop
 endfacet
 facet normal 0.5992776068937641 0.8005412855535204 0
  outer loop
   vertex 16.477771759033203 12.09199333190918 0
   vertex 14.650253295898438 13.46005630493164 0
   vertex 16.477771759033203 12.09199333190918 9
  endloop
 endfacet
 facet normal 0.5992776068937641 0.8005412855535204 0
  outer loop
   vertex 14.650253295898438 13.46005630493164 0
   vertex 14.650253295898438 13.46005630493164 9
   vertex 16.477771759033203 12.09199333190918 9
  endloop
 endfacet
 facet normal 0.47924880024772726 0.8776790913888253 0
  outer loop
   vertex 14.650253295898438 13.46005630493164 0
   vertex 12.646639823913574 14.55411148071289 0
   vertex 14.650253295898438 13.46005630493164 9
  endloop
 endfacet
 facet normal 0.47924880024772726 0.8776790913888253 0
  outer loop
   vertex 12.646639823913574 14.55411148071289 0
   vertex 12.646639823913574 14.55411148071289 9
   vertex 14.650253295898438 13.46005630493164 9
  endloop
 endfacet
 facet normal 0.3494644593361154 0.9369496206632012 0
  outer loop
   vertex 12.646639823913574 14.55411148071289 0
   vertex 10.507720947265625 15.351887702941895 0
   vertex 12.646639823913574 14.55411148071289 9
  endloop
 endfacet
 facet normal 0.3494644593361154 0.9369496206632012 0
  outer loop
   vertex 10.507720947265625 15.351887702941895 0
   vertex 10.507720947265625 15.351887702941895 9
   vertex 12.646639823913574 14.55411148071289 9
  endloop
 endfacet
 facet normal 0.21256520012686836 0.9771468854246145 0
  outer loop
   vertex 10.507720947265625 15.351887702941895 0
   vertex 8.277037620544434 15.837142944335938 0
   vertex 10.507720947265625 15.351887702941895 9
  endloop
 endfacet
 facet normal 0.21256520012686836 0.9771468854246145 0
  outer loop
   vertex 8.277037620544434 15.837142944335938 0
   vertex 8.277037620544434 15.837142944335938 9
   vertex 10.507720947265625 15.351887702941895 9
  endloop
 endfacet
 facet normal 0.07133923151856705 0.9974521111543853 0
  outer loop
   vertex 8.277037620544434 15.837142944335938 0
   vertex 6 16 0
   vertex 8.277037620544434 15.837142944335938 9
  endloop
 endfacet
 facet normal 0.07133923151856705 0.9974521111543853 0
  outer loop
   vertex 6 16 0
   vertex 6 16 9
   vertex 8.277037620544434 15.837142944335938 9
  endloop
 endfacet
 facet normal -0.07133923895016951 0.9974521106228663 0
  outer loop
   vertex 6 16 0
   vertex 3.7229626178741455 15.837142944335938 0
   vertex 6 16 9
  endloop
 endfacet
 facet normal -0.07133923895016951 0.9974521106228663 0
  outer loop
   vertex 3.7229626178741455 15.837142944335938 0
   vertex 3.7229626178741455 15.837142944335938 9
   vertex 6 16 9
  endloop
 endfacet
 facet normal -0.2125651784341488 0.9771468901435743 0
  outer loop
   vertex 3.7229626178741455 15.837142944335938 0
   vertex 1.492279052734375 15.351887702941895 0
   vertex 3.7229626178741455 15.837142944335938 9
  endloop
 endfacet
 facet normal -0.2125651784341488 0.9771468901435743 0
  outer loop
   vertex 1.492279052734375 15.351887702941895 0
   vertex 1.492279052734375 15.351887702941895 9
   vertex 3.7229626178741455 15.837142944335938 9
  endloop
 endfacet
 facet normal -0.3494644080414176 0.9369496397951502 0
  outer loop
   vertex 1.492279052734375 15.351887702941895 0
   vertex -0.6466401815414429 14.55411148071289 0
   vertex 1.492279052734375 15.351887702941895 9
  endloop
 endfacet
 facet normal -0.3494644080414176 0.9369496397951502 0
  outer loop
   vertex -0.6466401815414429 14.55411148071289 0
   vertex -0.6466401815414429 14.55411148071289 9
   vertex 1.492279052734375 15.351887702941895 9
  endloop
 endfacet
 facet normal -0.4792489100721135 0.8776790314201948 0
  outer loop
   vertex -0.6466401815414429 14.55411148071289 0
   vertex -2.6502530574798584 13.46005630493164 0
   vertex -0.6466401815414429 14.55411148071289 9
  endloop
 endfacet
 facet normal -0.4792489100721135 0.8776790314201948 0
  outer loop
   vertex -2.6502530574798584 13.46005630493164 0
   vertex -2.6502530574798584 13.46005630493164 9
   vertex -0.6466401815414429 14.55411148071289 9
  endloop
 endfacet
 facet normal -0.5992775567896009 0.8005413230610191 0
  outer loop
   vertex -2.6502530574798584 13.46005630493164 0
   vertex -4.477771759033203 12.09199333190918 0
   vertex -2.6502530574798584 13.46005630493164 9
  endloop
 endfacet
 facet normal -0.5992775567896009 0.8005413230610191 0
  outer loop
   vertex -4.477771759033203 12.09199333190918 0
   vertex -4.477771759033203 12.09199333190918 9
   vertex -2.6502530574798584 13.46005630493164 9
  endloop
 endfacet
 facet normal -0.7071067811865475 0.7071067811865475 0
  outer loop
   vertex -4.477771759033203 12.09199333190918 0
   vertex -6.09199333190918 10.477771759033203 0
   vertex -4.477771759033203 12.09199333190918 9
  endloop
 endfacet
 facet normal -0.7071067811865475 0.7071067811865475 0
  outer loop
   vertex -6.09199333190918 10.477771759033203 0
   vertex -6.09199333190918 10.477771759033203 9
   vertex -4.477771759033203 12.09199333190918 9
  endloop
 endfacet
 facet normal -0.8005412855535204 0.5992776068937641 0
  outer loop
   vertex -6.09199333190918 10.477771759033203 0
   vertex -7.460056304931641 8.650253295898438 0
   vertex -6.09199333190918 10.477771759033203 9
  endloop
 endfacet
 facet normal -0.8005412855535204 0.5992776068937641 0
  outer loop
   vertex -7.460056304931641 8.650253295898438 0
   vertex -7.460056304931641 8.650253295898438 9
   vertex -6.09199333190918 10.477771759033203 9
  endloop
 endfacet
 facet normal -0.8776790434139241 0.4792488881072328 0
  outer loop
   vertex -7.460056304931641 8.650253295898438 0
   vertex -8.55411148071289 6.646640300750732 0
   vertex -7.460056304931641 8.650253295898438 9
  endloop
 endfacet
 facet normal -0.8776790434139241 0.4792488881072328 0
  outer loop
   vertex -8.55411148071289 6.646640300750732 0
   vertex -8.55411148071289 6.646640300750732 9
   vertex -7.460056304931641 8.650253295898438 9
  endloop
 endfacet
 facet normal -0.9369496461724647 0.3494643909431881 0
  outer loop
   vertex -8.55411148071289 6.646640300750732 0
   vertex -9.351887702941895 4.507720947265625 0
   vertex -8.55411148071289 6.646640300750732 9
  endloop
 endfacet
 facet normal -0.9369496461724647 0.3494643909431881 0
  outer loop
   vertex -9.351887702941895 4.507720947265625 0
   vertex -9.351887702941895 4.507720947265625 9
   vertex -8.55411148071289 6.646640300750732 9
  endloop
 endfacet
 facet normal -0.9771468901435743 0.2125651784341488 0
  outer loop
   vertex -9.351887702941895 4.507720947265625 0
   vertex -9.837142944335938 2.2770373821258545 0
   vertex -9.351887702941895 4.507720947265625 9
  endloop
 endfacet
 facet normal -0.9771468901435743 0.2125651784341488 0
  outer loop
   vertex -9.837142944335938 2.2770373821258545 0
   vertex -9.837142944335938 2.2770373821258545 9
   vertex -9.351887702941895 4.507720947265625 9
  endloop
 endfacet
 facet normal -0.9974521106228663 0.07133923895016955 0
  outer loop
   vertex -9.837142944335938 2.2770373821258545 0
   vertex -10 1.9594349641362686e-15 0
   vertex -9.837142944335938 2.2770373821258545 9
  endloop
 endfacet
 facet normal -0.9974521106228663 0.07133923895016955 0
  outer loop
   vertex -10 1.9594349641362686e-15 0
   vertex -10 1.9594349641362686e-15 9
   vertex -9.837142944335938 2.2770373821258545 9
  endloop
 endfacet
 facet normal -0.9974521106228663 -0.07133923895016946 0
  outer loop
   vertex -10 1.9594349641362686e-15 0
   vertex -9.837142944335938 -2.2770373821258545 0
   vertex -10 1.9594349641362686e-15 9
  endloop
 endfacet
 facet normal -0.9974521106228663 -0.07133923895016946 0
  outer loop
   vertex -9.837142944335938 -2.2770373821258545 0
   vertex -9.837142944335938 -2.2770373821258545 9
   vertex -10 1.9594349641362686e-15 9
  endloop
 endfacet
 facet normal -0.9771468901435743 -0.2125651784341488 0
  outer loop
   vertex -9.837142944335938 -2.2770373821258545 0
   vertex -9.351887702941895 -4.507720947265625 0
   vertex -9.837142944335938 -2.2770373821258545 9
  endloop
 endfacet
 facet normal -0.9771468901435743 -0.2125651784341488 0
  outer loop
   vertex -9.351887702941895 -4.507720947265625 0
   vertex -9.351887702941895 -4.507720947265625 9
   vertex -9.837142944335938 -2.2770373821258545 9
  endloop
 endfacet
 facet normal -0.9369496461724647 -0.3494643909431881 0
  outer loop
   vertex -9.351887702941895 -4.507720947265625 0
   vertex -8.55411148071289 -6.646640300750732 0
   vertex -9.351887702941895 -4.507720947265625 9
  endloop
 endfacet
 facet normal -0.9369496461724647 -0.3494643909431881 0
  outer loop
   vertex -8.55411148071289 -6.646640300750732 0
   vertex -8.55411148071289 -6.646640300750732 9
   vertex -9.351887702941895 -4.507720947265625 9
  endloop
 endfacet
 facet normal -0.8776790434139241 -0.4792488881072328 0
  outer loop
   vertex -8.55411148071289 -6.646640300750732 0
   vertex -7.460056304931641 -8.650253295898438 0
   vertex -8.55411148071289 -6.646640300750732 9
  endloop
 endfacet
 facet normal -0.8776790434139241 -0.4792488881072328 0
  outer loop
   vertex -7.460056304931641 -8.650253295898438 0
   vertex -7.460056304931641 -8.650253295898438 9
   vertex -8.55411148071289 -6.646640300750732 9
  endloop
 endfacet
 facet normal -0.8005412855535204 -0.5992776068937641 0
  outer loop
   vertex -7.460056304931641 -8.650253295898438 0
   vertex -6.09199333190918 -10.477771759033203 0
   vertex -7.460056304931641 -8.650253295898438 9
  endloop
 endfacet
 facet normal -0.8005412855535204 -0.5992776068937641 0
  outer loop
   vertex -6.09199333190918 -10.477771759033203 0
   vertex -6.09199333190918 -10.477771759033203 9
   vertex -7.460056304931641 -8.650253295898438 9
  endloop
 endfacet
 facet normal -0.7071067811865475 -0.7071067811865475 0
  outer loop
   vertex -6.09199333190918 -10.477771759033203 0
   vertex -4.477771759033203 -12.09199333190918 0
   vertex -6.09199333190918 -10.477771759033203 9
  endloop
 endfacet
 facet normal -0.7071067811865475 -0.7071067811865475 0
  outer loop
   vertex -4.477771759033203 -12.09199333190918 0
   vertex -4.477771759033203 -12.09199333190918 9
   vertex -6.09199333190918 -10.477771759033203 9
  endloop
 endfacet
 facet normal -0.5992775567896009 -0.8005413230610191 0
  outer loop
   vertex -4.477771759033203 -12.09199333190918 0
   vertex -2.6502530574798584 -13.46005630493164 0
   vertex -4.477771759033203 -12.09199333190918 9
  endloop
 endfacet
 facet normal -0.5992775567896009 -0.8005413230610191 0
  outer loop
   vertex -2.6502530574798584 -13.46005630493164 0
   vertex -2.6502530574798584 -13.46005630493164 9
   vertex -4.477771759033203 -12.09199333190918 9
  endloop
 endfacet
 facet normal -0.4792489100721135 -0.8776790314201948 0
  outer loop
   vertex -2.6502530574798584 -13.46005630493164 0
   vertex -0.6466401815414429 -14.55411148071289 0
   vertex -2.6502530574798584 -13.46005630493164 9
  endloop
 endfacet
 facet normal -0.4792489100721135 -0.8776790314201948 0
  outer loop
   vertex -0.6466401815414429 -14.55411148071289 0
   vertex -0.6466401815414429 -14.55411148071289 9
   vertex -2.6502530574798584 -13.46005630493164 9
  endloop
 endfacet
 facet normal -0.3494644080414176 -0.9369496397951502 0
  outer loop
   vertex -0.6466401815414429 -14.55411148071289 0
   vertex 1.492279052734375 -15.351887702941895 0
   vertex -0.6466401815414429 -14.55411148071289 9
  endloop
 endfacet
 facet normal -0.3494644080414176 -0.9369496397951502 0
  outer loop
   vertex 1.492279052734375 -15.351887702941895 0
   vertex 1.492279052734375 -15.351887702941895 9
   vertex -0.6466401815414429 -14.55411148071289 9
  endloop
 endfacet
 facet normal -0.2125651784341488 -0.9771468901435743 0
  outer loop
   vertex 1.492279052734375 -15.351887702941895 0
   vertex 3.7229626178741455 -15.837142944335938 0
   vertex 1.492279052734375 -15.351887702941895 9
  endloop
 endfacet
 facet normal -0.2125651784341488 -0.9771468901435743 0
  outer loop
   vertex 3.7229626178741455 -15.837142944335938 0
   vertex 3.7229626178741455 -15.837142944335938 9
   vertex 1.492279052734375 -15.351887702941895 9
  endloop
 endfacet
 facet normal -0.07133923895016951 -0.9974521106228663 0
  outer loop
   vertex 3.7229626178741455 -15.837142944335938 0
   vertex 6 -16 0
   vertex 3.7229626178741455 -15.837142944335938 9
  endloop
 endfacet
 facet normal -0.07133923895016951 -0.9974521106228663 0
  outer loop
   vertex 6 -16 0
   vertex 6 -16 9
   vertex 3.7229626178741455 -15.837142944335938 9
  endloop
 endfacet
 facet normal 0.07133923151856705 -0.9974521111543853 0
  outer loop
   vertex 6 -16 0
   vertex 8.277037620544434 -15.837142944335938 0
   vertex 6 -16 9
  endloop
 endfacet
 facet normal 0.07133923151856705 -0.9974521111543853 0
  outer loop
   vertex 8.277037620544434 -15.837142944335938 0
   vertex 8.277037620544434 -15.837142944335938 9
   vertex 6 -16 9
  endloop
 endfacet
 facet normal 0.21256520012686836 -0.9771468854246145 0
  outer loop
   vertex 8.277037620544434 -15.837142944335938 0
   vertex 10.507720947265625 -15.351887702941895 0
   vertex 8.277037620544434 -15.837142944335938 9
  endloop
 endfacet
 facet normal 0.21256520012686836 -0.9771468854246145 0
  outer loop
   vertex 10.507720947265625 -15.351887702941895 0
   vertex 10.507720947265625 -15.351887702941895 9
   vertex 8.277037620544434 -15.837142944335938 9
  endloop
 endfacet
 facet normal 0.3494644593361154 -0.9369496206632012 0
  outer loop
   vertex 10.507720947265625 -15.351887702941895 0
   vertex 12.646639823913574 -14.55411148071289 0
   vertex 10.507720947265625 -15.351887702941895 9
  endloop
 endfacet
 facet normal 0.3494644593361154 -0.9369496206632012 0
  outer loop
   vertex 12.646639823913574 -14.55411148071289 0
   vertex 12.646639823913574 -14.55411148071289 9
   vertex 10.507720947265625 -15.351887702941895 9
  endloop
 endfacet
 facet normal 0.47924880024772726 -0.8776790913888253 0
  outer loop
   vertex 12.646639823913574 -14.55411148071289 0
   vertex 14.650253295898438 -13.46005630493164 0
   vertex 12.646639823913574 -14.55411148071289 9
  endloop
 endfacet
 facet normal 0.47924880024772726 -0.8776790913888253 0
  outer loop
   vertex 14.650253295898438 -13.46005630493164 0
   vertex 14.650253295898438 -13.46005630493164 9
   vertex 12.646639823913574 -14.55411148071289 9
  endloop
 endfacet
 facet normal 0.5992776068937641 -0.8005412855535204 0
  outer loop
   vertex 14.650253295898438 -13.46005630493164 0
   vertex 16.477771759033203 -12.09199333190918 0
   vertex 14.650253295898438 -13.46005630493164 9
  endloop
 endfacet
 facet normal 0.5992776068937641 -0.8005412855535204 0
  outer loop
   vertex 16.477771759033203 -12.09199333190918 0
   vertex 16.477771759033203 -12.09199333190918 9
   vertex 14.650253295898438 -13.46005630493164 9
  endloop
 endfacet
 facet normal 0.7071067811865475 -0.7071067811865475 0
  outer loop
   vertex 16.477771759033203 -12.09199333190918 0
   vertex 18.09199333190918 -10.477771759033203 0
   vertex 16.477771759033203 -12.09199333190918 9
  endloop
 endfacet
 facet normal 0.7071067811865475 -0.7071067811865475 0
  outer loop
   vertex 18.09199333190918 -10.477771759033203 0
   vertex 18.09199333190918 -10.477771759033203 9
   vertex 16.477771759033203 -12.09199333190918 9
  endloop
 endfacet
 facet normal 0.8005412855535204 -0.5992776068937641 0
  outer loop
   vertex 18.09199333190918 -10.477771759033203 0
   vertex 19.46005630493164 -8.650253295898438 0
   vertex 18.09199333190918 -10.477771759033203 9
  endloop
 endfacet
 facet normal 0.8005412855535204 -0.5992776068937641 0
  outer loop
   vertex 19.46005630493164 -8.650253295898438 0
   vertex 19.46005630493164 -8.650253295898438 9
   vertex 18.09199333190918 -10.477771759033203 9
  endloop
 endfacet
 facet normal 0.8776790434139241 -0.4792488881072328 0
  outer loop
   vertex 19.46005630493164 -8.650253295898438 0
   vertex 20.55411148071289 -6.646640300750732 0
   vertex 19.46005630493164 -8.650253295898438 9
  endloop
 endfacet
 facet normal 0.8776790434139241 -0.4792488881072328 0
  outer loop
   vertex 20.55411148071289 -6.646640300750732 0
   vertex 20.55411148071289 -6.646640300750732 9
   vertex 19.46005630493164 -8.650253295898438 9
  endloop
 endfacet
 facet normal 0.9369497829582425 -0.3494640242063584 0
  outer loop
   vertex 20.55411148071289 -6.646640300750732 0
   vertex 21.351886749267578 -4.507720947265625 0
   vertex 20.55411148071289 -6.646640300750732 9
  endloop
 endfacet
 facet normal 0.9369497829582425 -0.3494640242063584 0
  outer loop
   vertex 21.351886749267578 -4.507720947265625 0
   vertex 21.351886749267578 -4.507720947265625 9
   vertex 20.55411148071289 -6.646640300750732 9
  endloop
 endfacet
 facet normal 0.9771468033726309 -0.21256557731356343 0
  outer loop
   vertex 21.351886749267578 -4.507720947265625 0
   vertex 21.837142944335938 -2.2770373821258545 0
   vertex 21.351886749267578 -4.507720947265625 9
  endloop
 endfacet
 facet normal 0.9771468033726309 -0.21256557731356343 0
  outer loop
   vertex 21.837142944335938 -2.2770373821258545 0
   vertex 21.837142944335938 -2.2770373821258545 9
   vertex 21.351886749267578 -4.507720947265625 9
  endloop
 endfacet
 facet normal 0.9974521106228663 -0.07133923895016951 0
  outer loop
   vertex 21.837142944335938 -2.2770373821258545 0
   vertex 22 0 0
   vertex 21.837142944335938 -2.2770373821258545 9
  endloop
 endfacet
 facet normal 0.9974521106228663 -0.07133923895016951 0
  outer loop
   vertex 22 0 0
   vertex 22 0 9
   vertex 21.837142944335938 -2.2770373821258545 9
  endloop
 endfacet
 facet normal -0.9238795799493666 0.38268331783941373 0
  outer loop
   vertex 2.9943699836730957 -0.8023390173912048 0
   vertex 2.684678792953491 -1.5499999523162842 0
   vertex 2.9943699836730957 -0.8023390173912048 9
  endloop
 endfacet
 facet normal -0.9238795799493666 0.38268331783941373 0
  outer loop
   vertex 2.684678792953491 -1.5499999523162842 0
   vertex 2.684678792953491 -1.5499999523162842 9
   vertex 2.9943699836730957 -0.8023390173912048 9
  endloop
 endfacet
 facet normal -0.7933532162313718 0.6087615906866484 0
  outer loop
   vertex 2.684678792953491 -1.5499999523162842 0
   vertex 2.192030906677246 -2.192030906677246 0
   vertex 2.684678792953491 -1.5499999523162842 9
  endloop
 endfacet
 facet normal -0.7933532162313718 0.6087615906866484 0
  outer loop
   vertex 2.192030906677246 -2.192030906677246 0
   vertex 2.192030906677246 -2.192030906677246 9
   vertex 2.684678792953491 -1.5499999523162842 9
  endloop
 endfacet
 facet normal -0.6087615906866484 0.7933532162313718 0
  outer loop
   vertex 2.192030906677246 -2.192030906677246 0
   vertex 1.5499999523162842 -2.684678792953491 0
   vertex 2.192030906677246 -2.192030906677246 9
  endloop
 endfacet
 facet normal -0.6087615906866484 0.7933532162313718 0
  outer loop
   vertex 1.5499999523162842 -2.684678792953491 0
   vertex 1.5499999523162842 -2.684678792953491 9
   vertex 2.192030906677246 -2.192030906677246 9
  endloop
 endfacet
 facet normal -0.38268331783941373 0.9238795799493666 0
  outer loop
   vertex 1.5499999523162842 -2.684678792953491 0
   vertex 0.8023390173912048 -2.9943699836730957 0
   vertex 1.5499999523162842 -2.684678792953491 9
  endloop
 endfacet
 facet normal -0.38268331783941373 0.9238795799493666 0
  outer loop
   vertex 0.8023390173912048 -2.9943699836730957 0
   vertex 0.8023390173912048 -2.9943699836730957 9
   vertex 1.5499999523162842 -2.684678792953491 9
  endloop
 endfacet
 facet normal -0.13052617449614182 0.9914448637072073 0
  outer loop
   vertex 0.8023390173912048 -2.9943699836730957 0
   vertex -5.694607798346582e-16 -3.0999999046325684 0
   vertex 0.8023390173912048 -2.9943699836730957 9
  endloop
 endfacet
 facet normal -0.13052617449614182 0.9914448637072073 0
  outer loop
   vertex -5.694607798346582e-16 -3.0999999046325684 0
   vertex -5.694607798346582e-16 -3.0999999046325684 9
   vertex 0.8023390173912048 -2.9943699836730957 9
  endloop
 endfacet
 facet normal 0.130526174496142 0.9914448637072073 0
  outer loop
   vertex -5.694607798346582e-16 -3.0999999046325684 0
   vertex -0.8023390173912048 -2.9943699836730957 0
   vertex -5.694607798346582e-16 -3.0999999046325684 9
  endloop
 endfacet
 facet normal 0.130526174496142 0.9914448637072073 0
  outer loop
   vertex -0.8023390173912048 -2.9943699836730957 0
   vertex -0.8023390173912048 -2.9943699836730957 9
   vertex -5.694607798346582e-16 -3.0999999046325684 9
  endloop
 endfacet
 facet normal 0.38268331783941373 0.9238795799493666 0
  outer loop
   vertex -0.8023390173912048 -2.9943699836730957 0
   vertex -1.5499999523162842 -2.684678792953491 0
   vertex -0.8023390173912048 -2.9943699836730957 9
  endloop
 endfacet
 facet normal 0.38268331783941373 0.9238795799493666 0
  outer loop
   vertex -1.5499999523162842 -2.684678792953491 0
   vertex -1.5499999523162842 -2.684678792953491 9
   vertex -0.8023390173912048 -2.9943699836730957 9
  endloop
 endfacet
 facet normal 0.6087615906866484 0.7933532162313718 0
  outer loop
   vertex -1.5499999523162842 -2.684678792953491 0
   vertex -2.192030906677246 -2.192030906677246 0
   vertex -1.5499999523162842 -2.684678792953491 9
  endloop
 endfacet
 facet normal 0.6087615906866484 0.7933532162313718 0
  outer loop
   vertex -2.192030906677246 -2.192030906677246 0
   vertex -2.192030906677246 -2.192030906677246 9
   vertex -1.5499999523162842 -2.684678792953491 9
  endloop
 endfacet
 facet normal 0.7933532162313718 0.6087615906866484 0
  outer loop
   vertex -2.192030906677246 -2.192030906677246 0
   vertex -2.684678792953491 -1.5499999523162842 0
   vertex -2.192030906677246 -2.192030906677246 9
  endloop
 endfacet
 facet normal 0.7933532162313718 0.6087615906866484 0
  outer loop
   vertex -2.684678792953491 -1.5499999523162842 0
   vertex -2.684678792953491 -1.5499999523162842 9
   vertex -2.192030906677246 -2.192030906677246 9
  endloop
 endfacet
 facet normal 0.9238795799493666 0.38268331783941373 0
  outer loop
   vertex -2.684678792953491 -1.5499999523162842 0
   vertex -2.9943699836730957 -0.8023390173912048 0
   vertex -2.684678792953491 -1.5499999523162842 9
  endloop
 endfacet
 facet normal 0.9238795799493666 0.38268331783941373 0
  outer loop
   vertex -2.9943699836730957 -0.8023390173912048 0
   vertex -2.9943699836730957 -0.8023390173912048 9
   vertex -2.684678792953491 -1.5499999523162842 9
  endloop
 endfacet
 facet normal 0.9914448637072073 0.13052617449614187 0
  outer loop
   vertex -2.9943699836730957 -0.8023390173912048 0
   vertex -3.0999999046325684 3.7964051106651223e-16 0
   vertex -2.9943699836730957 -0.8023390173912048 9
  endloop
 endfacet
 facet normal 0.9914448637072073 0.13052617449614187 0
  outer loop
   vertex -3.0999999046325684 3.7964051106651223e-16 0
   vertex -3.0999999046325684 3.7964051106651223e-16 9
   vertex -2.9943699836730957 -0.8023390173912048 9
  endloop
 endfacet
 facet normal 0.9914448637072073 -0.13052617449614196 0
  outer loop
   vertex -3.0999999046325684 3.7964051106651223e-16 0
   vertex -2.9943699836730957 0.8023390173912048 0
   vertex -3.0999999046325684 3.7964051106651223e-16 9
  endloop
 endfacet
 facet normal 0.9914448637072073 -0.13052617449614196 0
  outer loop
   vertex -2.9943699836730957 0.8023390173912048 0
   vertex -2.9943699836730957 0.8023390173912048 9
   vertex -3.0999999046325684 3.7964051106651223e-16 9
  endloop
 endfacet
 facet normal 0.9238795799493666 -0.38268331783941373 0
  outer loop
   vertex -2.9943699836730957 0.8023390173912048 0
   vertex -2.684678792953491 1.5499999523162842 0
   vertex -2.9943699836730957 0.8023390173912048 9
  endloop
 endfacet
 facet normal 0.9238795799493666 -0.38268331783941373 0
  outer loop
   vertex -2.684678792953491 1.5499999523162842 0
   vertex -2.684678792953491 1.5499999523162842 9
   vertex -2.9943699836730957 0.8023390173912048 9
  endloop
 endfacet
 facet normal 0.7933532162313718 -0.6087615906866484 0
  outer loop
   vertex -2.684678792953491 1.5499999523162842 0
   vertex -2.192030906677246 2.192030906677246 0
   vertex -2.684678792953491 1.5499999523162842 9
  endloop
 endfacet
 facet normal 0.7933532162313718 -0.6087615906866484 0
  outer loop
   vertex -2.192030906677246 2.192030906677246 0
   vertex -2.192030906677246 2.192030906677246 9
   vertex -2.684678792953491 1.5499999523162842 9
  endloop
 endfacet
 facet normal 0.6087615906866484 -0.7933532162313718 0
  outer loop
   vertex -2.192030906677246 2.192030906677246 0
   vertex -1.5499999523162842 2.684678792953491 0
   vertex -2.192030906677246 2.192030906677246 9
  endloop
 endfacet
 facet normal 0.6087615906866484 -0.7933532162313718 0
  outer loop
   vertex -1.5499999523162842 2.684678792953491 0
   vertex -1.5499999523162842 2.684678792953491 9
   vertex -2.192030906677246 2.192030906677246 9
  endloop
 endfacet
 facet normal 0.38268331783941373 -0.9238795799493666 0
  outer loop
   vertex -1.5499999523162842 2.684678792953491 0
   vertex -0.8023390173912048 2.9943699836730957 0
   vertex -1.5499999523162842 2.684678792953491 9
  endloop
 endfacet
 facet normal 0.38268331783941373 -0.9238795799493666 0
  outer loop
   vertex -0.8023390173912048 2.9943699836730957 0
   vertex -0.8023390173912048 2.9943699836730957 9
   vertex -1.5499999523162842 2.684678792953491 9
  endloop
 endfacet
 facet normal 0.13052617449614187 -0.9914448637072073 0
  outer loop
   vertex -0.8023390173912048 2.9943699836730957 0
   vertex 1.8982025553325612e-16 3.0999999046325684 0
   vertex -0.8023390173912048 2.9943699836730957 9
  endloop
 endfacet
 facet normal 0.13052617449614187 -0.9914448637072073 0
  outer loop
   vertex 1.8982025553325612e-16 3.0999999046325684 0
   vertex 1.8982025553325612e-16 3.0999999046325684 9
   vertex -0.8023390173912048 2.9943699836730957 9
  endloop
 endfacet
 facet normal -0.13052617449614196 -0.9914448637072073 0
  outer loop
   vertex 1.8982025553325612e-16 3.0999999046325684 0
   vertex 0.8023390173912048 2.9943699836730957 0
   vertex 1.8982025553325612e-16 3.0999999046325684 9
  endloop
 endfacet
 facet normal -0.13052617449614196 -0.9914448637072073 0
  outer loop
   vertex 0.8023390173912048 2.9943699836730957 0
   vertex 0.8023390173912048 2.9943699836730957 9
   vertex 1.8982025553325612e-16 3.0999999046325684 9
  endloop
 endfacet
 facet normal -0.38268331783941373 -0.9238795799493666 0
  outer loop
   vertex 0.8023390173912048 2.9943699836730957 0
   vertex 1.5499999523162842 2.684678792953491 0
   vertex 0.8023390173912048 2.9943699836730957 9
  endloop
 endfacet
 facet normal -0.38268331783941373 -0.9238795799493666 0
  outer loop
   vertex 1.5499999523162842 2.684678792953491 0
   vertex 1.5499999523162842 2.684678792953491 9
   vertex 0.8023390173912048 2.9943699836730957 9
  endloop
 endfacet
 facet normal -0.6087615906866484 -0.7933532162313718 0
  outer loop
   vertex 1.5499999523162842 2.684678792953491 0
   vertex 2.192030906677246 2.192030906677246 0
   vertex 1.5499999523162842 2.684678792953491 9
  endloop
 endfacet
 facet normal -0.6087615906866484 -0.7933532162313718 0
  outer loop
   vertex 2.192030906677246 2.192030906677246 0
   vertex 2.192030906677246 2.192030906677246 9
   vertex 1.5499999523162842 2.684678792953491 9
  endloop
 endfacet
 facet normal -0.7933532162313718 -0.6087615906866484 0
  outer loop
   vertex 2.192030906677246 2.192030906677246 0
   vertex 2.684678792953491 1.5499999523162842 0
   vertex 2.192030906677246 2.192030906677246 9
  endloop
 endfacet
 facet normal -0.7933532162313718 -0.6087615906866484 0
  outer loop
   vertex 2.684678792953491 1.5499999523162842 0
   vertex 2.684678792953491 1.5499999523162842 9
   vertex 2.192030906677246 2.192030906677246 9
  endloop
 endfacet
 facet normal -0.9238795799493666 -0.38268331783941373 0
  outer loop
   vertex 2.684678792953491 1.5499999523162842 0
   vertex 2.9943699836730957 0.8023390173912048 0
   vertex 2.684678792953491 1.5499999523162842 9
  endloop
 endfacet
 facet normal -0.9238795799493666 -0.38268331783941373 0
  outer loop
   vertex 2.9943699836730957 0.8023390173912048 0
   vertex 2.9943699836730957 0.8023390173912048 9
   vertex 2.684678792953491 1.5499999523162842 9
  endloop
 endfacet
 facet normal -0.9914448637072073 -0.1305261744961419 0
  outer loop
   vertex 2.9943699836730957 0.8023390173912048 0
   vertex 3.0999999046325684 0 0
   vertex 2.9943699836730957 0.8023390173912048 9
  endloop
 endfacet
 facet normal -0.9914448637072073 -0.1305261744961419 0
  outer loop
   vertex 3.0999999046325684 0 0
   vertex 3.0999999046325684 0 9
   vertex 2.9943699836730957 0.8023390173912048 9
  endloop
 endfacet
 facet normal -0.9914448637072073 0.1305261744961419 0
  outer loop
   vertex 3.0999999046325684 0 0
   vertex 2.9943699836730957 -0.8023390173912048 0
   vertex 3.0999999046325684 0 9
  endloop
 endfacet
 facet normal -0.9914448637072073 0.1305261744961419 0
  outer loop
   vertex 2.9943699836730957 -0.8023390173912048 0
   vertex 2.9943699836730957 -0.8023390173912048 9
   vertex 3.0999999046325684 0 9
  endloop
 endfacet
endsolid heart-07-cam