solid heart-08-crank
 facet normal 0 0 -1
  outer loop
   vertex 5.663118839263916 4.11449670791626 0
   vertex 6.657395839691162 2.163119077682495 0
   vertex 7 0 0
  endloop
 endfacet
 facet normal 0 0 -1
  outer loop
   vertex 2.163119077682495 6.657395839691162 0
   vertex 4.11449670791626 5.663118839263916 0
   vertex 5.663118839263916 4.11449670791626 0
  endloop
 endfacet
 facet normal 0 0 -1
  outer loop
   vertex -2.163119077682495 6.657395839691162 0
   vertex 4.2862638516991895e-16 7 0
   vertex 2.163119077682495 6.657395839691162 0
  endloop
 endfacet
 facet normal 0 0 -1
  outer loop
   vertex -5.663118839263916 4.11449670791626 0
   vertex -4.11449670791626 5.663118839263916 0
   vertex -2.163119077682495 6.657395839691162 0
  endloop
 endfacet
 facet normal 0 0 -1
  outer loop
   vertex -7 8.572527703398379e-16 0
   vertex -6.657395839691162 2.163119077682495 0
   vertex -5.663118839263916 4.11449670791626 0
  endloop
 endfacet
 facet normal 0 0 -1
  outer loop
   vertex -3.0999999046325684 3.7964051106651223e-16 0
   vertex -7 -28 0
   vertex -7 8.572527703398379e-16 0
  endloop
 endfacet
 facet normal 0 0 -1
  outer loop
   vertex -7 -28 0
   vertex -3.0999999046325684 3.7964051106651223e-16 0
   vertex -2.9943699836730957 -0.8023390173912048 0
  endloop
 endfacet
 facet normal 0 0 -1
  outer loop
   vertex -2.9943699836730957 -27.197660446166992 0
   vertex -3.0999999046325684 -28 0
   vertex -7 -28 0
  endloop
 endfacet
 facet normal 0 0 -1
  outer loop
   vertex -7 -28 0
   vertex -3.0999999046325684 -28 0
   vertex -2.9943699836730957 -28.802339553833008 0
  endloop
 endfacet
 facet normal 0 0 -1
  outer loop
   vertex -5.663118839263916 -32.114498138427734 0
   vertex -6.657395839691162 -30.163118362426758 0
   vertex -7 -28 0
  endloop
 endfacet
 facet normal 0 0 -1
  outer loop
   vertex -2.163119077682495 -34.65739440917969 0
   vertex -4.11449670791626 -33.66312026977539 0
   vertex -5.663118839263916 -32.114498138427734 0
  endloop
 endfacet
 facet normal 0 0 -1
  outer loop
   vertex 2.163119077682495 -34.65739440917969 0
   vertex 4.2862638516991895e-16 -35 0
   vertex -2.163119077682495 -34.65739440917969 0
  endloop
 endfacet
 facet normal 0 0 -1
  outer loop
   vertex 5.663118839263916 -32.114498138427734 0
   vertex 4.11449670791626 -33.66312026977539 0
   vertex 2.163119077682495 -34.65739440917969 0
  endloop
 endfacet
 facet normal 0 0 -1
  outer loop
   vertex 7 -28 0
   vertex 6.657395839691162 -30.163118362426758 0
   vertex 5.663118839263916 -32.114498138427734 0
  endloop
 endfacet
 facet normal 0 0 -1
  outer loop
   vertex 5.663118839263916 4.11449670791626 0
   vertex 7 0 0
   vertex 7 -28 0
  endloop
 endfacet
 facet normal 0 0 -1
  outer loop
   vertex -2.163119077682495 6.657395839691162 0
   vertex 2.163119077682495 6.657395839691162 0
   vertex 5.663118839263916 4.11449670791626 0
  endloop
 endfacet
 facet normal 0 0 -1
  outer loop
   vertex -7 8.572527703398379e-16 0
   vertex -5.663118839263916 4.11449670791626 0
   vertex -2.163119077682495 6.657395839691162 0
  endloop
 endfacet
 facet normal 0 0 -1
  outer loop
   vertex -2.9943699836730957 0.8023390173912048 0
   vertex -3.0999999046325684 3.7964051106651223e-16 0
   vertex -7 8.572527703398379e-16 0
  endloop
 endfacet
 facet normal 0 0 -1
  outer loop
   vertex -7 -28 0
   vertex -2.9943699836730957 -0.8023390173912048 0
   vertex -2.684678792953491 -1.5499999523162842 0
  endloop
 endfacet
 facet normal 0 0 -1
  outer loop
   vertex -2.684678792953491 -26.450000762939453 0
   vertex -2.9943699836730957 -27.197660446166992 0
   vertex -7 -28 0
  endloop
 endfacet
 facet normal 0 0 -1
  outer loop
   vertex -7 -28 0
   vertex -2.9943699836730957 -28.802339553833008 0
   vertex -2.684678792953491 -29.549999237060547 0
  endloop
 endfacet
 facet normal 0 0 -1
  outer loop
   vertex -2.163119077682495 -34.65739440917969 0
   vertex -5.663118839263916 -32.114498138427734 0
   vertex -7 -28 0
  endloop
 endfacet
 facet normal 0 0 -1
  outer loop
   vertex 5.663118839263916 -32.114498138427734 0
   vertex 2.163119077682495 -34.65739440917969 0
   vertex -2.163119077682495 -34.65739440917969 0
  endloop
 endfacet
 facet normal 0 0 -1
  outer loop
   vertex 5.663118839263916 4.11449670791626 0
   vertex 7 -28 0
   vertex 5.663118839263916 -32.114498138427734 0
  endloop
 endfacet
 facet normal 0 0 -1
  outer loop
   vertex -2.9943699836730957 0.8023390173912048 0
   vertex -7 8.572527703398379e-16 0
   vertex -2.163119077682495 6.657395839691162 0
  endloop
 endfacet
 facet normal 0 0 -1
  outer loop
   vertex -7 -28 0
   vertex -2.684678792953491 -1.5499999523162842 0
   vertex -2.192030906677246 -2.192030906677246 0
  endloop
 endfacet
 facet normal 0 0 -1
  outer loop
   vertex -2.192030906677246 -25.807968139648438 0
   vertex -2.684678792953491 -26.450000762939453 0
   vertex -7 -28 0
  endloop
 endfacet
 facet normal 0 0 -1
  outer loop
   vertex -7 -28 0
   vertex -2.684678792953491 -29.549999237060547 0
   vertex -2.192030906677246 -30.192031860351562 0
  endloop
 endfacet
 facet normal 0 0 -1
  outer loop
   vertex -2.684678792953491 1.5499999523162842 0
   vertex -2.9943699836730957 0.8023390173912048 0
   vertex -2.163119077682495 6.657395839691162 0
  endloop
 endfacet
 facet normal 0 0 -1
  outer loop
   vertex -7 -28 0
   vertex -2.192030906677246 -2.192030906677246 0
   vertex -1.5499999523162842 -2.684678792953491 0
  endloop
 endfacet
 facet normal 0 0 -1
  outer loop
   vertex -1.5499999523162842 -25.31532096862793 0
   vertex -2.192030906677246 -25.807968139648438 0
   vertex -7 -28 0
  endloop
 endfacet
 facet normal 0 0 -1
  outer loop
   vertex -7 -28 0
   vertex -2.192030906677246 -30.192031860351562 0
   vertex -1.5499999523162842 -30.68467903137207 0
  endloop
 endfacet
 facet normal 0 0 -1
  outer loop
   vertex -2.192030906677246 2.192030906677246 0
   vertex -2.684678792953491 1.5499999523162842 0
   vertex -2.163119077682495 6.657395839691162 0
  endloop
 endfacet
 facet normal 0 0 -1
  outer loop
   vertex -7 -28 0
   vertex -1.5499999523162842 -2.684678792953491 0
   vertex -0.8023390173912048 -2.9943699836730957 0
  endloop
 endfacet
 facet normal 0 0 -1
  outer loop
   vertex -2.163119077682495 -34.65739440917969 0
   vertex -7 -28 0
   vertex -1.5499999523162842 -30.68467903137207 0
  endloop
 endfacet
 facet normal 0 0 -1
  outer loop
   vertex -1.5499999523162842 2.684678792953491 0
   vertex -2.192030906677246 2.192030906677246 0
   vertex -2.163119077682495 6.657395839691162 0
  endloop
 endfacet
 facet normal 0 0 -1
  outer loop
   vertex -7 -28 0
   vertex -0.8023390173912048 -2.9943699836730957 0
   vertex -5.694607798346582e-16 -3.0999999046325684 0
  endloop
 endfacet
 facet normal 0 0 -1
  outer loop
   vertex -2.163119077682495 -34.65739440917969 0
   vertex -1.5499999523162842 -30.68467903137207 0
   vertex -0.8023390173912048 -30.994369506835938 0
  endloop
 endfacet
 facet normal 0 0 -1
  outer loop
   vertex -0.8023390173912048 2.9943699836730957 0
   vertex -1.5499999523162842 2.684678792953491 0
   vertex -2.163119077682495 6.657395839691162 0
  endloop
 endfacet
 facet normal 0 0 -1
  outer loop
   vertex -7 -28 0
   vertex -5.694607798346582e-16 -3.0999999046325684 0
   vertex 0.8023390173912048 -2.9943699836730957 0
  endloop
 endfacet
 facet normal 0 0 -1
  outer loop
   vertex -2.163119077682495 -34.65739440917969 0
   vertex -0.8023390173912048 -30.994369506835938 0
   vertex -5.694607798346582e-16 -31.100000381469727 0
  endloop
 endfacet
 facet normal 0 0 -1
  outer loop
   vertex -0.8023390173912048 2.9943699836730957 0
   vertex -2.163119077682495 6.657395839691162 0
   vertex 5.663118839263916 4.11449670791626 0
  endloop
 endfacet
 facet normal 0 0 -1
  outer loop
   vertex -7 -28 0
   vertex 0.8023390173912048 -2.9943699836730957 0
   vertex 1.5499999523162842 -2.684678792953491 0
  endloop
 endfacet
 facet normal 0 0 -1
  outer loop
   vertex -2.163119077682495 -34.65739440917969 0
   vertex -5.694607798346582e-16 -31.100000381469727 0
   vertex 0.8023390173912048 -30.994369506835938 0
  endloop
 endfacet
 facet normal 0 0 -1
  outer loop
   vertex 1.8982025553325612e-16 3.0999999046325684 0
   vertex -0.8023390173912048 2.9943699836730957 0
   vertex 5.663118839263916 4.11449670791626 0
  endloop
 endfacet
 facet normal 0 0 -1
  outer loop
   vertex -7 -28 0
   vertex 1.5499999523162842 -2.684678792953491 0
   vertex 2.192030906677246 -2.192030906677246 0
  endloop
 endfacet
 facet normal 0 0 -1
  outer loop
   vertex -2.163119077682495 -34.65739440917969 0
   vertex 0.8023390173912048 -30.994369506835938 0
   vertex 1.5499999523162842 -30.68467903137207 0
  endloop
 endfacet
 facet normal 0 0 -1
  outer loop
   vertex 0.8023390173912048 2.9943699836730957 0
   vertex 1.8982025553325612e-16 3.0999999046325684 0
   vertex 5.663118839263916 4.11449670791626 0
  endloop
 endfacet
 facet normal 0 0 -1
  outer loop
   vertex -7 -28 0
   vertex 2.192030906677246 -2.192030906677246 0
   vertex 2.684678792953491 -1.5499999523162842 0
  endloop
 endfacet
 facet normal 0 0 -1
  outer loop
   vertex -2.163119077682495 -34.65739440917969 0
   vertex 1.5499999523162842 -30.68467903137207 0
   vertex 2.192030906677246 -30.192031860351562 0
  endloop
 endfacet
 facet normal 0 0 -1
  outer loop
   vertex 1.5499999523162842 2.684678792953491 0
   vertex 0.8023390173912048 2.9943699836730957 0
   vertex 5.663118839263916 4.11449670791626 0
  endloop
 endfacet
 facet normal 0 0 -1
  outer loop
   vertex -7 -28 0
   vertex 2.684678792953491 -1.5499999523162842 0
   vertex 2.9943699836730957 -0.8023390173912048 0
  endloop
 endfacet
 facet normal 0 0 -1
  outer loop
   vertex 5.663118839263916 -32.114498138427734 0
   vertex -2.163119077682495 -34.65739440917969 0
   vertex 2.192030906677246 -30.192031860351562 0
  endloop
 endfacet
 facet normal 0 0 -1
  outer loop
   vertex 2.192030906677246 2.192030906677246 0
   vertex 1.5499999523162842 2.684678792953491 0
   vertex 5.663118839263916 4.11449670791626 0
  endloop
 endfacet
 facet normal 0 0 -1
  outer loop
   vertex -1.5499999523162842 -25.31532096862793 0
   vertex -7 -28 0
   vertex 2.9943699836730957 -0.8023390173912048 0
  endloop
 endfacet
 facet normal 0 0 -1
  outer loop
   vertex 5.663118839263916 -32.114498138427734 0
   vertex 2.192030906677246 -30.192031860351562 0
   vertex 2.684678792953491 -29.549999237060547 0
  endloop
 endfacet
 facet normal 0 0 -1
  outer loop
   vertex 2.684678792953491 1.5499999523162842 0
   vertex 2.192030906677246 2.192030906677246 0
   vertex 5.663118839263916 4.11449670791626 0
  endloop
 endfacet
 facet normal 0 0 -1
  outer loop
   vertex -0.8023390173912048 -25.005630493164062 0
   vertex -1.5499999523162842 -25.31532096862793 0
   vertex 2.9943699836730957 -0.8023390173912048 0
  endloop
 endfacet
 facet normal 0 0 -1
  outer loop
   vertex 5.663118839263916 -32.114498138427734 0
   vertex 2.684678792953491 -29.549999237060547 0
   vertex 2.9943699836730957 -28.802339553833008 0
  endloop
 endfacet
 facet normal 0 0 -1
  outer loop
   vertex 2.9943699836730957 0.8023390173912048 0
   vertex 2.684678792953491 1.5499999523162842 0
   vertex 5.663118839263916 4.11449670791626 0
  endloop
 endfacet
 facet normal 0 0 -1
  outer loop
   vertex 1.8982025553325612e-16 -24.899999618530273 0
   vertex -0.8023390173912048 -25.005630493164062 0
   vertex 2.9943699836730957 -0.8023390173912048 0
  endloop
 endfacet
 facet normal 0 0 -1
  outer loop
   vertex 5.663118839263916 -32.114498138427734 0
   vertex 2.9943699836730957 -28.802339553833008 0
   vertex 3.0999999046325684 -28 0
  endloop
 endfacet
 facet normal 0 0 -1
  outer loop
   vertex 3.0999999046325684 0 0
   vertex 2.9943699836730957 0.8023390173912048 0
   vertex 5.663118839263916 4.11449670791626 0
  endloop
 endfacet
 facet normal 0 0 -1
  outer loop
   vertex 1.8982025553325612e-16 -24.899999618530273 0
   vertex 2.9943699836730957 -0.8023390173912048 0
   vertex 3.0999999046325684 0 0
  endloop
 endfacet
 facet normal 0 0 -1
  outer loop
   vertex 5.663118839263916 -32.114498138427734 0
   vertex 3.0999999046325684 -28 0
   vertex 2.9943699836730957 -27.197660446166992 0
  endloop
 endfacet
 facet normal 0 0 -1
  outer loop
   vertex 3.0999999046325684 0 0
   vertex 5.663118839263916 4.11449670791626 0
   vertex 5.663118839263916 -32.114498138427734 0
  endloop
 endfacet
 facet normal 0 0 -1
  outer loop
   vertex 0.8023390173912048 -25.005630493164062 0
   vertex 1.8982025553325612e-16 -24.899999618530273 0
   vertex 3.0999999046325684 0 0
  endloop
 endfacet
 facet normal 0 0 -1
  outer loop
   vertex 5.663118839263916 -32.114498138427734 0
   vertex 2.9943699836730957 -27.197660446166992 0
   vertex 2.684678792953491 -26.450000762939453 0
  endloop
 endfacet
 facet normal 0 0 -1
  outer loop
   vertex 1.5499999523162842 -25.31532096862793 0
   vertex 0.8023390173912048 -25.005630493164062 0
   vertex 3.0999999046325684 0 0
  endloop
 endfacet
 facet normal 0 0 -1
  outer loop
   vertex 3.0999999046325684 0 0
   vertex 5.663118839263916 -32.114498138427734 0
   vertex 2.684678792953491 -26.450000762939453 0
  endloop
 endfacet
 facet normal 0 0 -1
  outer loop
   vertex 2.192030906677246 -25.807968139648438 0
   vertex 1.5499999523162842 -25.31532096862793 0
   vertex 3.0999999046325684 0 0
  endloop
 endfacet
 facet normal 0 0 -1
  outer loop
   vertex 3.0999999046325684 0 0
   vertex 2.684678792953491 -26.450000762939453 0
   vertex 2.192030906677246 -25.807968139648438 0
  endloop
 endfacet
 facet normal 0 0 1
  outer loop
   vertex 7 0 6
   vertex 6.657395839691162 2.163119077682495 6
   vertex 5.663118839263916 4.11449670791626 6
  endloop
 endfacet
 facet normal 0 0 1
  outer loop
   vertex 5.663118839263916 4.11449670791626 6
   vertex 4.11449670791626 5.663118839263916 6
   vertex 2.163119077682495 6.657395839691162 6
  endloop
 endfacet
 facet normal 0 0 1
  outer loop
   vertex 2.163119077682495 6.657395839691162 6
   vertex 4.2862638516991895e-16 7 6
   vertex -2.163119077682495 6.657395839691162 6
  endloop
 endfacet
 facet normal 0 0 1
  outer loop
   vertex -2.163119077682495 6.657395839691162 6
   vertex -4.11449670791626 5.663118839263916 6
   vertex -5.663118839263916 4.11449670791626 6
  endloop
 endfacet
 facet normal 0 0 1
  outer loop
   vertex -5.663118839263916 4.11449670791626 6
   vertex -6.657395839691162 2.163119077682495 6
   vertex -7 8.572527703398379e-16 6
  endloop
 endfacet
 facet normal 0 0 1
  outer loop
   vertex -7 8.572527703398379e-16 6
   vertex -7 -28 6
   vertex -3.0999999046325684 3.7964051106651223e-16 6
  endloop
 endfacet
 facet normal 0 0 1
  outer loop
   vertex -2.9943699836730957 -0.8023390173912048 6
   vertex -3.0999999046325684 3.7964051106651223e-16 6
   vertex -7 -28 6
  endloop
 endfacet
 facet normal 0 0 1
  outer loop
   vertex -7 -28 6
   vertex -3.0999999046325684 -28 6
   vertex -2.9943699836730957 -27.197660446166992 6
  endloop
 endfacet
 facet normal 0 0 1
  outer loop
   vertex -2.9943699836730957 -28.802339553833008 6
   vertex -3.0999999046325684 -28 6
   vertex -7 -28 6
  endloop
 endfacet
 facet normal 0 0 1
  outer loop
   vertex -7 -28 6
   vertex -6.657395839691162 -30.163118362426758 6
   vertex -5.663118839263916 -32.114498138427734 6
  endloop
 endfacet
 facet normal 0 0 1
  outer loop
   vertex -5.663118839263916 -32.114498138427734 6
   vertex -4.11449670791626 -33.66312026977539 6
   vertex -2.163119077682495 -34.65739440917969 6
  endloop
 endfacet
 facet normal 0 0 1
  outer loop
   vertex -2.163119077682495 -34.65739440917969 6
   vertex 4.2862638516991895e-16 -35 6
   vertex 2.163119077682495 -34.65739440917969 6
  endloop
 endfacet
 facet normal 0 0 1
  outer loop
   vertex 2.163119077682495 -34.65739440917969 6
   vertex 4.11449670791626 -33.66312026977539 6
   vertex 5.663118839263916 -32.114498138427734 6
  endloop
 endfacet
 facet normal 0 0 1
  outer loop
   vertex 5.663118839263916 -32.114498138427734 6
   vertex 6.657395839691162 -30.163118362426758 6
   vertex 7 -28 6
  endloop
 endfacet
 facet normal 0 0 1
  outer loop
   vertex 7 -28 6
   vertex 7 0 6
   vertex 5.663118839263916 4.11449670791626 6
  endloop
 endfacet
 facet normal 0 0 1
  outer loop
   vertex 5.663118839263916 4.11449670791626 6
   vertex 2.163119077682495 6.657395839691162 6
   vertex -2.163119077682495 6.657395839691162 6
  endloop
 endfacet
 facet normal 0 0 1
  outer loop
   vertex -2.163119077682495 6.657395839691162 6
   vertex -5.663118839263916 4.11449670791626 6
   vertex -7 8.572527703398379e-16 6
  endloop
 endfacet
 facet normal 0 0 1
  outer loop
   vertex -7 8.572527703398379e-16 6
   vertex -3.0999999046325684 3.7964051106651223e-16 6
   vertex -2.9943699836730957 0.8023390173912048 6
  endloop
 endfacet
 facet normal 0 0 1
  outer loop
   vertex -2.684678792953491 -1.5499999523162842 6
   vertex -2.9943699836730957 -0.8023390173912048 6
   vertex -7 -28 6
  endloop
 endfacet
 facet normal 0 0 1
  outer loop
   vertex -7 -28 6
   vertex -2.9943699836730957 -27.197660446166992 6
   vertex -2.684678792953491 -26.450000762939453 6
  endloop
 endfacet
 facet normal 0 0 1
  outer loop
   vertex -2.684678792953491 -29.549999237060547 6
   vertex -2.9943699836730957 -28.802339553833008 6
   vertex -7 -28 6
  endloop
 endfacet
 facet normal 0 0 1
  outer loop
   vertex -7 -28 6
   vertex -5.663118839263916 -32.114498138427734 6
   vertex -2.163119077682495 -34.65739440917969 6
  endloop
 endfacet
 facet normal 0 0 1
  outer loop
   vertex -2.163119077682495 -34.65739440917969 6
   vertex 2.163119077682495 -34.65739440917969 6
   vertex 5.663118839263916 -32.114498138427734 6
  endloop
 endfacet
 facet normal 0 0 1
  outer loop
   vertex 5.663118839263916 -32.114498138427734 6
   vertex 7 -28 6
   vertex 5.663118839263916 4.11449670791626 6
  endloop
 endfacet
 facet normal 0 0 1
  outer loop
   vertex -2.163119077682495 6.657395839691162 6
   vertex -7 8.572527703398379e-16 6
   vertex -2.9943699836730957 0.8023390173912048 6
  endloop
 endfacet
 facet normal 0 0 1
  outer loop
   vertex -2.192030906677246 -2.192030906677246 6
   vertex -2.684678792953491 -1.5499999523162842 6
   vertex -7 -28 6
  endloop
 endfacet
 facet normal 0 0 1
  outer loop
   vertex -7 -28 6
   vertex -2.684678792953491 -26.450000762939453 6
   vertex -2.192030906677246 -25.807968139648438 6
  endloop
 endfacet
 facet normal 0 0 1
  outer loop
   vertex -2.192030906677246 -30.192031860351562 6
   vertex -2.684678792953491 -29.549999237060547 6
   vertex -7 -28 6
  endloop
 endfacet
 facet normal 0 0 1
  outer loop
   vertex -2.163119077682495 6.657395839691162 6
   vertex -2.9943699836730957 0.8023390173912048 6
   vertex -2.684678792953491 1.5499999523162842 6
  endloop
 endfacet
 facet normal 0 0 1
  outer loop
   vertex -1.5499999523162842 -2.684678792953491 6
   vertex -2.192030906677246 -2.192030906677246 6
   vertex -7 -28 6
  endloop
 endfacet
 facet normal 0 0 1
  outer loop
   vertex -7 -28 6
   vertex -2.192030906677246 -25.807968139648438 6
   vertex -1.5499999523162842 -25.31532096862793 6
  endloop
 endfacet
 facet normal 0 0 1
  outer loop
   vertex -1.5499999523162842 -30.68467903137207 6
   vertex -2.192030906677246 -30.192031860351562 6
   vertex -7 -28 6
  endloop
 endfacet
 facet normal 0 0 1
  outer loop
   vertex -2.163119077682495 6.657395839691162 6
   vertex -2.684678792953491 1.5499999523162842 6
   vertex -2.192030906677246 2.192030906677246 6
  endloop
 endfacet
 facet normal 0 0 1
  outer loop
   vertex -0.8023390173912048 -2.9943699836730957 6
   vertex -1.5499999523162842 -2.684678792953491 6
   vertex -7 -28 6
  endloop
 endfacet
 facet normal 0 0 1
  outer loop
   vertex -1.5499999523162842 -30.68467903137207 6
   vertex -7 -28 6
   vertex -2.163119077682495 -34.65739440917969 6
  endloop
 endfacet
 facet normal 0 0 1
  outer loop
   vertex -2.163119077682495 6.657395839691162 6
   vertex -2.192030906677246 2.192030906677246 6
   vertex -1.5499999523162842 2.684678792953491 6
  endloop
 endfacet
 facet normal 0 0 1
  outer loop
   vertex -5.694607798346582e-16 -3.0999999046325684 6
   vertex -0.8023390173912048 -2.9943699836730957 6
   vertex -7 -28 6
  endloop
 endfacet
 facet normal 0 0 1
  outer loop
   vertex -0.8023390173912048 -30.994369506835938 6
   vertex -1.5499999523162842 -30.68467903137207 6
   vertex -2.163119077682495 -34.65739440917969 6
  endloop
 endfacet
 facet normal 0 0 1
  outer loop
   vertex -2.163119077682495 6.657395839691162 6
   vertex -1.5499999523162842 2.684678792953491 6
   vertex -0.8023390173912048 2.9943699836730957 6
  endloop
 endfacet
 facet normal 0 0 1
  outer loop
   vertex 0.8023390173912048 -2.9943699836730957 6
   vertex -5.694607798346582e-16 -3.0999999046325684 6
   vertex -7 -28 6
  endloop
 endfacet
 facet normal 0 0 1
  outer loop
   vertex -5.694607798346582e-16 -31.100000381469727 6
   vertex -0.8023390173912048 -30.994369506835938 6
   vertex -2.163119077682495 -34.65739440917969 6
  endloop
 endfacet
 facet normal 0 0 1
  outer loop
   vertex 5.663118839263916 4.11449670791626 6
   vertex -2.163119077682495 6.657395839691162 6
   vertex -0.8023390173912048 2.9943699836730957 6
  endloop
 endfacet
 facet normal 0 0 1
  outer loop
   vertex 1.5499999523162842 -2.684678792953491 6
   vertex 0.8023390173912048 -2.9943699836730957 6
   vertex -7 -28 6
  endloop
 endfacet
 facet normal 0 0 1
  outer loop
   vertex 0.8023390173912048 -30.994369506835938 6
   vertex -5.694607798346582e-16 -31.100000381469727 6
   vertex -2.163119077682495 -34.65739440917969 6
  endloop
 endfacet
 facet normal 0 0 1
  outer loop
   vertex 5.663118839263916 4.11449670791626 6
   vertex -0.8023390173912048 2.9943699836730957 6
   vertex 1.8982025553325612e-16 3.0999999046325684 6
  endloop
 endfacet
 facet normal 0 0 1
  outer loop
   vertex 2.192030906677246 -2.192030906677246 6
   vertex 1.5499999523162842 -2.684678792953491 6
   vertex -7 -28 6
  endloop
 endfacet
 facet normal 0 0 1
  outer loop
   vertex 1.5499999523162842 -30.68467903137207 6
   vertex 0.8023390173912048 -30.994369506835938 6
   vertex -2.163119077682495 -34.65739440917969 6
  endloop
 endfacet
 facet normal 0 0 1
  outer loop
   vertex 5.663118839263916 4.11449670791626 6
   vertex 1.8982025553325612e-16 3.0999999046325684 6
   vertex 0.8023390173912048 2.9943699836730957 6
  endloop
 endfacet
 facet normal 0 0 1
  outer loop
   vertex 2.684678792953491 -1.5499999523162842 6
   vertex 2.192030906677246 -2.192030906677246 6
   vertex -7 -28 6
  endloop
 endfacet
 facet normal 0 0 1
  outer loop
   vertex 2.192030906677246 -30.192031860351562 6
   vertex 1.5499999523162842 -30.68467903137207 6
   vertex -2.163119077682495 -34.65739440917969 6
  endloop
 endfacet
 facet normal 0 0 1
  outer loop
   vertex 5.663118839263916 4.11449670791626 6
   vertex 0.8023390173912048 2.9943699836730957 6
   vertex 1.5499999523162842 2.684678792953491 6
  endloop
 endfacet
 facet normal 0 0 1
  outer loop
   vertex 2.9943699836730957 -0.8023390173912048 6
   vertex 2.684678792953491 -1.5499999523162842 6
   vertex -7 -28 6
  endloop
 endfacet
 facet normal 0 0 1
  outer loop
   vertex 2.192030906677246 -30.192031860351562 6
   vertex -2.163119077682495 -34.65739440917969 6
   vertex 5.663118839263916 -32.114498138427734 6
  endloop
 endfacet
 facet normal 0 0 1
  outer loop
   vertex 5.663118839263916 4.11449670791626 6
   vertex 1.5499999523162842 2.684678792953491 6
   vertex 2.192030906677246 2.192030906677246 6
  endloop
 endfacet
 facet normal 0 0 1
  outer loop
   vertex 2.9943699836730957 -0.8023390173912048 6
   vertex -7 -28 6
   vertex -1.5499999523162842 -25.31532096862793 6
  endloop
 endfacet
 facet normal 0 0 1
  outer loop
   vertex 2.684678792953491 -29.549999237060547 6
   vertex 2.192030906677246 -30.192031860351562 6
   vertex 5.663118839263916 -32.114498138427734 6
  endloop
 endfacet
 facet normal 0 0 1
  outer loop
   vertex 5.663118839263916 4.11449670791626 6
   vertex 2.192030906677246 2.192030906677246 6
   vertex 2.684678792953491 1.5499999523162842 6
  endloop
 endfacet
 facet normal 0 0 1
  outer loop
   vertex 2.9943699836730957 -0.8023390173912048 6
   vertex -1.5499999523162842 -25.31532096862793 6
   vertex -0.8023390173912048 -25.005630493164062 6
  endloop
 endfacet
 facet normal 0 0 1
  outer loop
   vertex 2.9943699836730957 -28.802339553833008 6
   vertex 2.684678792953491 -29.549999237060547 6
   vertex 5.663118839263916 -32.114498138427734 6
  endloop
 endfacet
 facet normal 0 0 1
  outer loop
   vertex 5.663118839263916 4.11449670791626 6
   vertex 2.684678792953491 1.5499999523162842 6
   vertex 2.9943699836730957 0.8023390173912048 6
  endloop
 endfacet
 facet normal 0 0 1
  outer loop
   vertex 2.9943699836730957 -0.8023390173912048 6
   vertex -0.8023390173912048 -25.005630493164062 6
   vertex 1.8982025553325612e-16 -24.899999618530273 6
  endloop
 endfacet
 facet normal 0 0 1
  outer loop
   vertex 3.0999999046325684 -28 6
   vertex 2.9943699836730957 -28.802339553833008 6
   vertex 5.663118839263916 -32.114498138427734 6
  endloop
 endfacet
 facet normal 0 0 1
  outer loop
   vertex 5.663118839263916 4.11449670791626 6
   vertex 2.9943699836730957 0.8023390173912048 6
   vertex 3.0999999046325684 0 6
  endloop
 endfacet
 facet normal 0 0 1
  outer loop
   vertex 3.0999999046325684 0 6
   vertex 2.9943699836730957 -0.8023390173912048 6
   vertex 1.8982025553325612e-16 -24.899999618530273 6
  endloop
 endfacet
 facet normal 0 0 1
  outer loop
   vertex 2.9943699836730957 -27.197660446166992 6
   vertex 3.0999999046325684 -28 6
   vertex 5.663118839263916 -32.114498138427734 6
  endloop
 endfacet
 facet normal 0 0 1
  outer loop
   vertex 5.663118839263916 -32.114498138427734 6
   vertex 5.663118839263916 4.11449670791626 6
   vertex 3.0999999046325684 0 6
  endloop
 endfacet
 facet normal 0 0 1
  outer loop
   vertex 3.0999999046325684 0 6
   vertex 1.8982025553325612e-16 -24.899999618530273 6
   vertex 0.8023390173912048 -25.005630493164062 6
  endloop
 endfacet
 facet normal 0 0 1
  outer loop
   vertex 2.684678792953491 -26.450000762939453 6
   vertex 2.9943699836730957 -27.197660446166992 6
   vertex 5.663118839263916 -32.114498138427734 6
  endloop
 endfacet
 facet normal 0 0 1
  outer loop
   vertex 3.0999999046325684 0 6
   vertex 0.8023390173912048 -25.005630493164062 6
   vertex 1.5499999523162842 -25.31532096862793 6
  endloop
 endfacet
 facet normal 0 0 1
  outer loop
   vertex 2.684678792953491 -26.450000762939453 6
   vertex 5.663118839263916 -32.114498138427734 6
   vertex 3.0999999046325684 0 6
  endloop
 endfacet
 facet normal 0 0 1
  outer loop
   vertex 3.0999999046325684 0 6
   vertex 1.5499999523162842 -25.31532096862793 6
   vertex 2.192030906677246 -25.807968139648438 6
  endloop
 endfacet
 facet normal 0 0 1
  outer loop
   vertex 2.192030906677246 -25.807968139648438 6
   vertex 2.684678792953491 -26.450000762939453 6
   vertex 3.0999999046325684 0 6
  endloop
 endfacet
 facet normal 0.9876883578207849 0.15643435628173666 0
  outer loop
   vertex 7 0 0
   vertex 6.657395839691162 2.163119077682495 0
   vertex 7 0 6
  endloop
 endfacet
 facet normal 0.9876883578207849 0.15643435628173666 0
  outer loop
   vertex 6.657395839691162 2.163119077682495 0
   vertex 6.657395839691162 2.163119077682495 6
   vertex 7 0 6
  endloop
 endfacet
 facet normal 0.8910064436131097 0.45399065787736015 0
  outer loop
   vertex 6.657395839691162 2.163119077682495 0
   vertex 5.663118839263916 4.11449670791626 0
   vertex 6.657395839691162 2.163119077682495 6
  endloop
 endfacet
 facet normal 0.8910064436131097 0.45399065787736015 0
  outer loop
   vertex 5.663118839263916 4.11449670791626 0
   vertex 5.663118839263916 4.11449670791626 6
   vertex 6.657395839691162 2.163119077682495 6
  endloop
 endfacet
 facet normal 0.7071067811865475 0.7071067811865475 0
  outer loop
   vertex 5.663118839263916 4.11449670791626 0
   vertex 4.11449670791626 5.663118839263916 0
   vertex 5.663118839263916 4.11449670791626 6
  endloop
 endfacet
 facet normal 0.7071067811865475 0.7071067811865475 0
  outer loop
   vertex 4.11449670791626 5.663118839263916 0
   vertex 4.11449670791626 5.663118839263916 6
   vertex 5.663118839263916 4.11449670791626 6
  endloop
 endfacet
 facet normal 0.45399065787736015 0.8910064436131097 0
  outer loop
   vertex 4.11449670791626 5.663118839263916 0
   vertex 2.163119077682495 6.657395839691162 0
   vertex 4.11449670791626 5.663118839263916 6
  endloop
 endfacet
 facet normal 0.45399065787736015 0.8910064436131097 0
  outer loop
   vertex 2.163119077682495 6.657395839691162 0
   vertex 2.163119077682495 6.657395839691162 6
   vertex 4.11449670791626 5.663118839263916 6
  endloop
 endfacet
 facet normal 0.1564343562817367 0.9876883578207849 0
  outer loop
   vertex 2.163119077682495 6.657395839691162 0
   vertex 4.2862638516991895e-16 7 0
   vertex 2.163119077682495 6.657395839691162 6
  endloop
 endfacet
 facet normal 0.1564343562817367 0.9876883578207849 0
  outer loop
   vertex 4.2862638516991895e-16 7 0
   vertex 4.2862638516991895e-16 7 6
   vertex 2.163119077682495 6.657395839691162 6
  endloop
 endfacet
 facet normal -0.1564343562817366 0.9876883578207849 0
  outer loop
   vertex 4.2862638516991895e-16 7 0
   vertex -2.163119077682495 6.657395839691162 0
   vertex 4.2862638516991895e-16 7 6
  endloop
 endfacet
 facet normal -0.1564343562817366 0.9876883578207849 0
  outer loop
   vertex -2.163119077682495 6.657395839691162 0
   vertex -2.163119077682495 6.657395839691162 6
   vertex 4.2862638516991895e-16 7 6
  endloop
 endfacet
 facet normal -0.45399065787736015 0.8910064436131097 0
  outer loop
   vertex -2.163119077682495 6.657395839691162 0
   vertex -4.11449670791626 5.663118839263916 0
   vertex -2.163119077682495 6.657395839691162 6
  endloop
 endfacet
 facet normal -0.45399065787736015 0.8910064436131097 0
  outer loop
   vertex -4.11449670791626 5.663118839263916 0
   vertex -4.11449670791626 5.663118839263916 6
   vertex -2.163119077682495 6.657395839691162 6
  endloop
 endfacet
 facet normal -0.7071067811865475 0.7071067811865475 0
  outer loop
   vertex -4.11449670791626 5.663118839263916 0
   vertex -5.663118839263916 4.11449670791626 0
   vertex -4.11449670791626 5.663118839263916 6
  endloop
 endfacet
 facet normal -0.7071067811865475 0.7071067811865475 0
  outer loop
   vertex -5.663118839263916 4.11449670791626 0
   vertex -5.663118839263916 4.11449670791626 6
   vertex -4.11449670791626 5.663118839263916 6
  endloop
 endfacet
 facet normal -0.8910064436131097 0.45399065787736015 0
  outer loop
   vertex -5.663118839263916 4.11449670791626 0
   vertex -6.657395839691162 2.163119077682495 0
   vertex -5.663118839263916 4.11449670791626 6
  endloop
 endfacet
 facet normal -0.8910064436131097 0.45399065787736015 0
  outer loop
   vertex -6.657395839691162 2.163119077682495 0
   vertex -6.657395839691162 2.163119077682495 6
   vertex -5.663118839263916 4.11449670791626 6
  endloop
 endfacet
 facet normal -0.9876883578207849 0.15643435628173671 0
  outer loop
   vertex -6.657395839691162 2.163119077682495 0
   vertex -7 8.572527703398379e-16 0
   vertex -6.657395839691162 2.163119077682495 6
  endloop
 endfacet
 facet normal -0.9876883578207849 0.15643435628173671 0
  outer loop
   vertex -7 8.572527703398379e-16 0
   vertex -7 8.572527703398379e-16 6
   vertex -6.657395839691162 2.163119077682495 6
  endloop
 endfacet
 facet normal -1 0 0
  outer loop
   vertex -7 8.572527703398379e-16 0
   vertex -7 -28 0
   vertex -7 8.572527703398379e-16 6
  endloop
 endfacet
 facet normal -1 0 0
  outer loop
   vertex -7 -28 0
   vertex -7 -28 6
   vertex -7 8.572527703398379e-16 6
  endloop
 endfacet
 facet normal -0.9876883498286031 -0.15643440674241324 0
  outer loop
   vertex -7 -28 0
   vertex -6.657395839691162 -30.163118362426758 0
   vertex -7 -28 6
  endloop
 endfacet
 facet normal -0.9876883498286031 -0.15643440674241324 0
  outer loop
   vertex -6.657395839691162 -30.163118362426758 0
   vertex -6.657395839691162 -30.163118362426758 6
   vertex -7 -28 6
  endloop
 endfacet
 facet normal -0.891006645549873 -0.45399026155410294 0
  outer loop
   vertex -6.657395839691162 -30.163118362426758 0
   vertex -5.663118839263916 -32.114498138427734 0
   vertex -6.657395839691162 -30.163118362426758 6
  endloop
 endfacet
 facet normal -0.891006645549873 -0.45399026155410294 0
  outer loop
   vertex -5.663118839263916 -32.114498138427734 0
   vertex -5.663118839263916 -32.114498138427734 6
   vertex -6.657395839691162 -30.163118362426758 6
  endloop
 endfacet
 facet normal -0.7071067811865475 -0.7071067811865475 0
  outer loop
   vertex -5.663118839263916 -32.114498138427734 0
   vertex -4.11449670791626 -33.66312026977539 0
   vertex -5.663118839263916 -32.114498138427734 6
  endloop
 endfacet
 facet normal -0.7071067811865475 -0.7071067811865475 0
  outer loop
   vertex -4.11449670791626 -33.66312026977539 0
   vertex -4.11449670791626 -33.66312026977539 6
   vertex -5.663118839263916 -32.114498138427734 6
  endloop
 endfacet
 facet normal -0.4539896207718539 -0.8910069720442306 0
  outer loop
   vertex -4.11449670791626 -33.66312026977539 0
   vertex -2.163119077682495 -34.65739440917969 0
   vertex -4.11449670791626 -33.66312026977539 6
  endloop
 endfacet
 facet normal -0.4539896207718539 -0.8910069720442306 0
  outer loop
   vertex -2.163119077682495 -34.65739440917969 0
   vertex -2.163119077682495 -34.65739440917969 6
   vertex -4.11449670791626 -33.66312026977539 6
  endloop
 endfacet
 facet normal -0.15643499347423687 -0.9876882568992685 0
  outer loop
   vertex -2.163119077682495 -34.65739440917969 0
   vertex 4.2862638516991895e-16 -35 0
   vertex -2.163119077682495 -34.65739440917969 6
  endloop
 endfacet
 facet normal -0.15643499347423687 -0.9876882568992685 0
  outer loop
   vertex 4.2862638516991895e-16 -35 0
   vertex 4.2862638516991895e-16 -35 6
   vertex -2.163119077682495 -34.65739440917969 6
  endloop
 endfacet
 facet normal 0.15643499347423695 -0.9876882568992684 0
  outer loop
   vertex 4.2862638516991895e-16 -35 0
   vertex 2.163119077682495 -34.65739440917969 0
   vertex 4.2862638516991895e-16 -35 6
  endloop
 endfacet
 facet normal 0.15643499347423695 -0.9876882568992684 0
  outer loop
   vertex 2.163119077682495 -34.65739440917969 0
   vertex 2.163119077682495 -34.65739440917969 6
   vertex 4.2862638516991895e-16 -35 6
  endloop
 endfacet
 facet normal 0.4539896207718539 -0.8910069720442306 0
  outer loop
   vertex 2.163119077682495 -34.65739440917969 0
   vertex 4.11449670791626 -33.66312026977539 0
   vertex 2.163119077682495 -34.65739440917969 6
  endloop
 endfacet
 facet normal 0.4539896207718539 -0.8910069720442306 0
  outer loop
   vertex 4.11449670791626 -33.66312026977539 0
   vertex 4.11449670791626 -33.66312026977539 6
   vertex 2.163119077682495 -34.65739440917969 6
  endloop
 endfacet
 facet normal 0.7071067811865475 -0.7071067811865475 0
  outer loop
   vertex 4.11449670791626 -33.66312026977539 0
   vertex 5.663118839263916 -32.114498138427734 0
   vertex 4.11449670791626 -33.66312026977539 6
  endloop
 endfacet
 facet normal 0.7071067811865475 -0.7071067811865475 0
  outer loop
   vertex 5.663118839263916 -32.114498138427734 0
   vertex 5.663118839263916 -32.114498138427734 6
   vertex 4.11449670791626 -33.66312026977539 6
  endloop
 endfacet
 facet normal 0.891006645549873 -0.45399026155410294 0
  outer loop
   vertex 5.663118839263916 -32.114498138427734 0
   vertex 6.657395839691162 -30.163118362426758 0
   vertex 5.663118839263916 -32.114498138427734 6
  endloop
 endfacet
 facet normal 0.891006645549873 -0.45399026155410294 0
  outer loop
   vertex 6.657395839691162 -30.163118362426758 0
   vertex 6.657395839691162 -30.163118362426758 6
   vertex 5.663118839263916 -32.114498138427734 6
  endloop
 endfacet
 facet normal 0.9876883498286031 -0.15643440674241324 0
  outer loop
   vertex 6.657395839691162 -30.163118362426758 0
   vertex 7 -28 0
   vertex 6.657395839691162 -30.163118362426758 6
  endloop
 endfacet
 facet normal 0.9876883498286031 -0.15643440674241324 0
  outer loop
   vertex 7 -28 0
   vertex 7 -28 6
   vertex 6.657395839691162 -30.163118362426758 6
  endloop
 endfacet
 facet normal 1 0 0
  outer loop
   vertex 7 -28 0
   vertex 7 0 0
   vertex 7 -28 6
  endloop
 endfacet
 facet normal 1 0 0
  outer loop
   vertex 7 0 0
   vertex 7 0 6
   vertex 7 -28 6
  endloop
 endfacet
 facet normal -0.9238795799493666 0.38268331783941373 0
  outer loop
   vertex 2.9943699836730957 -0.8023390173912048 0
   vertex 2.684678792953491 -1.5499999523162842 0
   vertex 2.9943699836730957 -0.8023390173912048 6
  endloop
 endfacet
 facet normal -0.9238795799493666 0.38268331783941373 0
  outer loop
   vertex 2.684678792953491 -1.5499999523162842 0
   vertex 2.684678792953491 -1.5499999523162842 6
   vertex 2.9943699836730957 -0.8023390173912048 6
  endloop
 endfacet
 facet normal -0.7933532162313717 0.6087615906866484 0
  outer loop
   vertex 2.684678792953491 -1.5499999523162842 0
   vertex 2.192030906677246 -2.192030906677246 0
   vertex 2.684678792953491 -1.5499999523162842 6
  endloop
 endfacet
 facet normal -0.7933532162313717 0.6087615906866484 0
  outer loop
   vertex 2.192030906677246 -2.192030906677246 0
   vertex 2.192030906677246 -2.192030906677246 6
   vertex 2.684678792953491 -1.5499999523162842 6
  endloop
 endfacet
 facet normal -0.6087615906866484 0.7933532162313717 0
  outer loop
   vertex 2.192030906677246 -2.192030906677246 0
   vertex 1.5499999523162842 -2.684678792953491 0
   vertex 2.192030906677246 -2.192030906677246 6
  endloop
 endfacet
 facet normal -0.6087615906866484 0.7933532162313717 0
  outer loop
   vertex 1.5499999523162842 -2.684678792953491 0
   vertex 1.5499999523162842 -2.684678792953491 6
   vertex 2.192030906677246 -2.192030906677246 6
  endloop
 endfacet
 facet normal -0.38268331783941373 0.9238795799493666 0
  outer loop
   vertex 1.5499999523162842 -2.684678792953491 0
   vertex 0.8023390173912048 -2.9943699836730957 0
   vertex 1.5499999523162842 -2.684678792953491 6
  endloop
 endfacet
 facet normal -0.38268331783941373 0.9238795799493666 0
  outer loop
   vertex 0.8023390173912048 -2.9943699836730957 0
   vertex 0.8023390173912048 -2.9943699836730957 6
   vertex 1.5499999523162842 -2.684678792953491 6
  endloop
 endfacet
 facet normal -0.13052617449614182 0.9914448637072073 0
  outer loop
   vertex 0.8023390173912048 -2.9943699836730957 0
   vertex -5.694607798346582e-16 -3.0999999046325684 0
   vertex 0.8023390173912048 -2.9943699836730957 6
  endloop
 endfacet
 facet normal -0.13052617449614182 0.9914448637072073 0
  outer loop
   vertex -5.694607798346582e-16 -3.0999999046325684 0
   vertex -5.694607798346582e-16 -3.0999999046325684 6
   vertex 0.8023390173912048 -2.9943699836730957 6
  endloop
 endfacet
 facet normal 0.130526174496142 0.9914448637072073 0
  outer loop
   vertex -5.694607798346582e-16 -3.0999999046325684 0
   vertex -0.8023390173912048 -2.9943699836730957 0
   vertex -5.694607798346582e-16 -3.0999999046325684 6
  endloop
 endfacet
 facet normal 0.130526174496142 0.9914448637072073 0
  outer loop
   vertex -0.8023390173912048 -2.9943699836730957 0
   vertex -0.8023390173912048 -2.9943699836730957 6
   vertex -5.694607798346582e-16 -3.0999999046325684 6
  endloop
 endfacet
 facet normal 0.38268331783941373 0.9238795799493666 0
  outer loop
   vertex -0.8023390173912048 -2.9943699836730957 0
   vertex -1.5499999523162842 -2.684678792953491 0
   vertex -0.8023390173912048 -2.9943699836730957 6
  endloop
 endfacet
 facet normal 0.38268331783941373 0.9238795799493666 0
  outer loop
   vertex -1.5499999523162842 -2.684678792953491 0
   vertex -1.5499999523162842 -2.684678792953491 6
   vertex -0.8023390173912048 -2.9943699836730957 6
  endloop
 endfacet
 facet normal 0.6087615906866484 0.7933532162313717 0
  outer loop
   vertex -1.5499999523162842 -2.684678792953491 0
   vertex -2.192030906677246 -2.192030906677246 0
   vertex -1.5499999523162842 -2.684678792953491 6
  endloop
 endfacet
 facet normal 0.6087615906866484 0.7933532162313717 0
  outer loop
   vertex -2.192030906677246 -2.192030906677246 0
   vertex -2.192030906677246 -2.192030906677246 6
   vertex -1.5499999523162842 -2.684678792953491 6
  endloop
 endfacet
 facet normal 0.7933532162313717 0.6087615906866484 0
  outer loop
   vertex -2.192030906677246 -2.192030906677246 0
   vertex -2.684678792953491 -1.5499999523162842 0
   vertex -2.192030906677246 -2.192030906677246 6
  endloop
 endfacet
 facet normal 0.7933532162313717 0.6087615906866484 0
  outer loop
   vertex -2.684678792953491 -1.5499999523162842 0
   vertex -2.684678792953491 -1.5499999523162842 6
   vertex -2.192030906677246 -2.192030906677246 6
  endloop
 endfacet
 facet normal 0.9238795799493666 0.38268331783941373 0
  outer loop
   vertex -2.684678792953491 -1.5499999523162842 0
   vertex -2.9943699836730957 -0.8023390173912048 0
   vertex -2.684678792953491 -1.5499999523162842 6
  endloop
 endfacet
 facet normal 0.9238795799493666 0.38268331783941373 0
  outer loop
   vertex -2.9943699836730957 -0.8023390173912048 0
   vertex -2.9943699836730957 -0.8023390173912048 6
   vertex -2.684678792953491 -1.5499999523162842 6
  endloop
 endfacet
 facet normal 0.9914448637072073 0.13052617449614187 0
  outer loop
   vertex -2.9943699836730957 -0.8023390173912048 0
   vertex -3.0999999046325684 3.7964051106651223e-16 0
   vertex -2.9943699836730957 -0.8023390173912048 6
  endloop
 endfacet
 facet normal 0.9914448637072073 0.13052617449614187 0
  outer loop
   vertex -3.0999999046325684 3.7964051106651223e-16 0
   vertex -3.0999999046325684 3.7964051106651223e-16 6
   vertex -2.9943699836730957 -0.8023390173912048 6
  endloop
 endfacet
 facet normal 0.9914448637072073 -0.13052617449614196 0
  outer loop
   vertex -3.0999999046325684 3.7964051106651223e-16 0
   vertex -2.9943699836730957 0.8023390173912048 0
   vertex -3.0999999046325684 3.7964051106651223e-16 6
  endloop
 endfacet
 facet normal 0.9914448637072073 -0.13052617449614196 0
  outer loop
   vertex -2.9943699836730957 0.8023390173912048 0
   vertex -2.9943699836730957 0.8023390173912048 6
   vertex -3.0999999046325684 3.7964051106651223e-16 6
  endloop
 endfacet
 facet normal 0.9238795799493666 -0.38268331783941373 0
  outer loop
   vertex -2.9943699836730957 0.8023390173912048 0
   vertex -2.684678792953491 1.5499999523162842 0
   vertex -2.9943699836730957 0.8023390173912048 6
  endloop
 endfacet
 facet normal 0.9238795799493666 -0.38268331783941373 0
  outer loop
   vertex -2.684678792953491 1.5499999523162842 0
   vertex -2.684678792953491 1.5499999523162842 6
   vertex -2.9943699836730957 0.8023390173912048 6
  endloop
 endfacet
 facet normal 0.7933532162313717 -0.6087615906866484 0
  outer loop
   vertex -2.684678792953491 1.5499999523162842 0
   vertex -2.192030906677246 2.192030906677246 0
   vertex -2.684678792953491 1.5499999523162842 6
  endloop
 endfacet
 facet normal 0.7933532162313717 -0.6087615906866484 0
  outer loop
   vertex -2.192030906677246 2.192030906677246 0
   vertex -2.192030906677246 2.192030906677246 6
   vertex -2.684678792953491 1.5499999523162842 6
  endloop
 endfacet
 facet normal 0.6087615906866484 -0.7933532162313717 0
  outer loop
   vertex -2.192030906677246 2.192030906677246 0
   vertex -1.5499999523162842 2.684678792953491 0
   vertex -2.192030906677246 2.192030906677246 6
  endloop
 endfacet
 facet normal 0.6087615906866484 -0.7933532162313717 0
  outer loop
   vertex -1.5499999523162842 2.684678792953491 0
   vertex -1.5499999523162842 2.684678792953491 6
   vertex -2.192030906677246 2.192030906677246 6
  endloop
 endfacet
 facet normal 0.38268331783941373 -0.9238795799493666 0
  outer loop
   vertex -1.5499999523162842 2.684678792953491 0
   vertex -0.8023390173912048 2.9943699836730957 0
   vertex -1.5499999523162842 2.684678792953491 6
  endloop
 endfacet
 facet normal 0.38268331783941373 -0.9238795799493666 0
  outer loop
   vertex -0.8023390173912048 2.9943699836730957 0
   vertex -0.8023390173912048 2.9943699836730957 6
   vertex -1.5499999523162842 2.684678792953491 6
  endloop
 endfacet
 facet normal 0.13052617449614187 -0.9914448637072073 0
  outer loop
   vertex -0.8023390173912048 2.9943699836730957 0
   vertex 1.8982025553325612e-16 3.0999999046325684 0
   vertex -0.8023390173912048 2.9943699836730957 6
  endloop
 endfacet
 facet normal 0.13052617449614187 -0.9914448637072073 0
  outer loop
   vertex 1.8982025553325612e-16 3.0999999046325684 0
   vertex 1.8982025553325612e-16 3.0999999046325684 6
   vertex -0.8023390173912048 2.9943699836730957 6
  endloop
 endfacet
 facet normal -0.13052617449614196 -0.9914448637072073 0
  outer loop
   vertex 1.8982025553325612e-16 3.0999999046325684 0
   vertex 0.8023390173912048 2.9943699836730957 0
   vertex 1.8982025553325612e-16 3.0999999046325684 6
  endloop
 endfacet
 facet normal -0.13052617449614196 -0.9914448637072073 0
  outer loop
   vertex 0.8023390173912048 2.9943699836730957 0
   vertex 0.8023390173912048 2.9943699836730957 6
   vertex 1.8982025553325612e-16 3.0999999046325684 6
  endloop
 endfacet
 facet normal -0.38268331783941373 -0.9238795799493666 0
  outer loop
   vertex 0.8023390173912048 2.9943699836730957 0
   vertex 1.5499999523162842 2.684678792953491 0
   vertex 0.8023390173912048 2.9943699836730957 6
  endloop
 endfacet
 facet normal -0.38268331783941373 -0.9238795799493666 0
  outer loop
   vertex 1.5499999523162842 2.684678792953491 0
   vertex 1.5499999523162842 2.684678792953491 6
   vertex 0.8023390173912048 2.9943699836730957 6
  endloop
 endfacet
 facet normal -0.6087615906866484 -0.7933532162313717 0
  outer loop
   vertex 1.5499999523162842 2.684678792953491 0
   vertex 2.192030906677246 2.192030906677246 0
   vertex 1.5499999523162842 2.684678792953491 6
  endloop
 endfacet
 facet normal -0.6087615906866484 -0.7933532162313717 0
  outer loop
   vertex 2.192030906677246 2.192030906677246 0
   vertex 2.192030906677246 2.192030906677246 6
   vertex 1.5499999523162842 2.684678792953491 6
  endloop
 endfacet
 facet normal -0.7933532162313717 -0.6087615906866484 0
  outer loop
   vertex 2.192030906677246 2.192030906677246 0
   vertex 2.684678792953491 1.5499999523162842 0
   vertex 2.192030906677246 2.192030906677246 6
  endloop
 endfacet
 facet normal -0.7933532162313717 -0.6087615906866484 0
  outer loop
   vertex 2.684678792953491 1.5499999523162842 0
   vertex 2.684678792953491 1.5499999523162842 6
   vertex 2.192030906677246 2.192030906677246 6
  endloop
 endfacet
 facet normal -0.9238795799493666 -0.38268331783941373 0
  outer loop
   vertex 2.684678792953491 1.5499999523162842 0
   vertex 2.9943699836730957 0.8023390173912048 0
   vertex 2.684678792953491 1.5499999523162842 6
  endloop
 endfacet
 facet normal -0.9238795799493666 -0.38268331783941373 0
  outer loop
   vertex 2.9943699836730957 0.8023390173912048 0
   vertex 2.9943699836730957 0.8023390173912048 6
   vertex 2.684678792953491 1.5499999523162842 6
  endloop
 endfacet
 facet normal -0.9914448637072073 -0.1305261744961419 0
  outer loop
   vertex 2.9943699836730957 0.8023390173912048 0
   vertex 3.0999999046325684 0 0
   vertex 2.9943699836730957 0.8023390173912048 6
  endloop
 endfacet
 facet normal -0.9914448637072073 -0.1305261744961419 0
  outer loop
   vertex 3.0999999046325684 0 0
   vertex 3.0999999046325684 0 6
   vertex 2.9943699836730957 0.8023390173912048 6
  endloop
 endfacet
 facet normal -0.9914448637072073 0.1305261744961419 0
  outer loop
   vertex 3.0999999046325684 0 0
   vertex 2.9943699836730957 -0.8023390173912048 0
   vertex 3.0999999046325684 0 6
  endloop
 endfacet
 facet normal -0.9914448637072073 0.1305261744961419 0
  outer loop
   vertex 2.9943699836730957 -0.8023390173912048 0
   vertex 2.9943699836730957 -0.8023390173912048 6
   vertex 3.0999999046325684 0 6
  endloop
 endfacet
 facet normal -0.9238793534379639 0.38268386468604837 0
  outer loop
   vertex 2.9943699836730957 -28.802339553833008 0
   vertex 2.684678792953491 -29.549999237060547 0
   vertex 2.9943699836730957 -28.802339553833008 6
  endloop
 endfacet
 facet normal -0.9238793534379639 0.38268386468604837 0
  outer loop
   vertex 2.684678792953491 -29.549999237060547 0
   vertex 2.684678792953491 -29.549999237060547 6
   vertex 2.9943699836730957 -28.802339553833008 6
  endloop
 endfacet
 facet normal -0.7933539804932112 0.6087605946803533 0
  outer loop
   vertex 2.684678792953491 -29.549999237060547 0
   vertex 2.192030906677246 -30.192031860351562 0
   vertex 2.684678792953491 -29.549999237060547 6
  endloop
 endfacet
 facet normal -0.7933539804932112 0.6087605946803533 0
  outer loop
   vertex 2.192030906677246 -30.192031860351562 0
   vertex 2.192030906677246 -30.192031860351562 6
   vertex 2.684678792953491 -29.549999237060547 6
  endloop
 endfacet
 facet normal -0.6087610343912168 0.7933536430917398 0
  outer loop
   vertex 2.192030906677246 -30.192031860351562 0
   vertex 1.5499999523162842 -30.68467903137207 0
   vertex 2.192030906677246 -30.192031860351562 6
  endloop
 endfacet
 facet normal -0.6087610343912168 0.7933536430917398 0
  outer loop
   vertex 1.5499999523162842 -30.68467903137207 0
   vertex 1.5499999523162842 -30.68467903137207 6
   vertex 2.192030906677246 -30.192031860351562 6
  endloop
 endfacet
 facet normal -0.3826825634371453 0.9238798924325472 0
  outer loop
   vertex 1.5499999523162842 -30.68467903137207 0
   vertex 0.8023390173912048 -30.994369506835938 0
   vertex 1.5499999523162842 -30.68467903137207 6
  endloop
 endfacet
 facet normal -0.3826825634371453 0.9238798924325472 0
  outer loop
   vertex 0.8023390173912048 -30.994369506835938 0
   vertex 0.8023390173912048 -30.994369506835938 6
   vertex 1.5499999523162842 -30.68467903137207 6
  endloop
 endfacet
 facet normal -0.1305273328674072 0.9914447112040696 0
  outer loop
   vertex 0.8023390173912048 -30.994369506835938 0
   vertex -5.694607798346582e-16 -31.100000381469727 0
   vertex 0.8023390173912048 -30.994369506835938 6
  endloop
 endfacet
 facet normal -0.1305273328674072 0.9914447112040696 0
  outer loop
   vertex -5.694607798346582e-16 -31.100000381469727 0
   vertex -5.694607798346582e-16 -31.100000381469727 6
   vertex 0.8023390173912048 -30.994369506835938 6
  endloop
 endfacet
 facet normal 0.1305273328674074 0.9914447112040696 0
  outer loop
   vertex -5.694607798346582e-16 -31.100000381469727 0
   vertex -0.8023390173912048 -30.994369506835938 0
   vertex -5.694607798346582e-16 -31.100000381469727 6
  endloop
 endfacet
 facet normal 0.1305273328674074 0.9914447112040696 0
  outer loop
   vertex -0.8023390173912048 -30.994369506835938 0
   vertex -0.8023390173912048 -30.994369506835938 6
   vertex -5.694607798346582e-16 -31.100000381469727 6
  endloop
 endfacet
 facet normal 0.3826825634371453 0.9238798924325472 0
  outer loop
   vertex -0.8023390173912048 -30.994369506835938 0
   vertex -1.5499999523162842 -30.68467903137207 0
   vertex -0.8023390173912048 -30.994369506835938 6
  endloop
 endfacet
 facet normal 0.3826825634371453 0.9238798924325472 0
  outer loop
   vertex -1.5499999523162842 -30.68467903137207 0
   vertex -1.5499999523162842 -30.68467903137207 6
   vertex -0.8023390173912048 -30.994369506835938 6
  endloop
 endfacet
 facet normal 0.6087610343912168 0.7933536430917398 0
  outer loop
   vertex -1.5499999523162842 -30.68467903137207 0
   vertex -2.192030906677246 -30.192031860351562 0
   vertex -1.5499999523162842 -30.68467903137207 6
  endloop
 endfacet
 facet normal 0.6087610343912168 0.7933536430917398 0
  outer loop
   vertex -2.192030906677246 -30.192031860351562 0
   vertex -2.192030906677246 -30.192031860351562 6
   vertex -1.5499999523162842 -30.68467903137207 6
  endloop
 endfacet
 facet normal 0.7933539804932112 0.6087605946803533 0
  outer loop
   vertex -2.192030906677246 -30.192031860351562 0
   vertex -2.684678792953491 -29.549999237060547 0
   vertex -2.192030906677246 -30.192031860351562 6
  endloop
 endfacet
 facet normal 0.7933539804932112 0.6087605946803533 0
  outer loop
   vertex -2.684678792953491 -29.549999237060547 0
   vertex -2.684678792953491 -29.549999237060547 6
   vertex -2.192030906677246 -30.192031860351562 6
  endloop
 endfacet
 facet normal 0.9238793534379639 0.38268386468604837 0
  outer loop
   vertex -2.684678792953491 -29.549999237060547 0
   vertex -2.9943699836730957 -28.802339553833008 0
   vertex -2.684678792953491 -29.549999237060547 6
  endloop
 endfacet
 facet normal 0.9238793534379639 0.38268386468604837 0
  outer loop
   vertex -2.9943699836730957 -28.802339553833008 0
   vertex -2.9943699836730957 -28.802339553833008 6
   vertex -2.684678792953491 -29.549999237060547 6
  endloop
 endfacet
 facet normal 0.9914448750006941 0.13052608871355031 0
  outer loop
   vertex -2.9943699836730957 -28.802339553833008 0
   vertex -3.0999999046325684 -28 0
   vertex -2.9943699836730957 -28.802339553833008 6
  endloop
 endfacet
 facet normal 0.9914448750006941 0.13052608871355031 0
  outer loop
   vertex -3.0999999046325684 -28 0
   vertex -3.0999999046325684 -28 6
   vertex -2.9943699836730957 -28.802339553833008 6
  endloop
 endfacet
 facet normal 0.9914448750006941 -0.13052608871355031 0
  outer loop
   vertex -3.0999999046325684 -28 0
   vertex -2.9943699836730957 -27.197660446166992 0
   vertex -3.0999999046325684 -28 6
  endloop
 endfacet
 facet normal 0.9914448750006941 -0.13052608871355031 0
  outer loop
   vertex -2.9943699836730957 -27.197660446166992 0
   vertex -2.9943699836730957 -27.197660446166992 6
   vertex -3.0999999046325684 -28 6
  endloop
 endfacet
 facet normal 0.9238793534379639 -0.38268386468604837 0
  outer loop
   vertex -2.9943699836730957 -27.197660446166992 0
   vertex -2.684678792953491 -26.450000762939453 0
   vertex -2.9943699836730957 -27.197660446166992 6
  endloop
 endfacet
 facet normal 0.9238793534379639 -0.38268386468604837 0
  outer loop
   vertex -2.684678792953491 -26.450000762939453 0
   vertex -2.684678792953491 -26.450000762939453 6
   vertex -2.9943699836730957 -27.197660446166992 6
  endloop
 endfacet
 facet normal 0.7933539804932112 -0.6087605946803533 0
  outer loop
   vertex -2.684678792953491 -26.450000762939453 0
   vertex -2.192030906677246 -25.807968139648438 0
   vertex -2.684678792953491 -26.450000762939453 6
  endloop
 endfacet
 facet normal 0.7933539804932112 -0.6087605946803533 0
  outer loop
   vertex -2.192030906677246 -25.807968139648438 0
   vertex -2.192030906677246 -25.807968139648438 6
   vertex -2.684678792953491 -26.450000762939453 6
  endloop
 endfacet
 facet normal 0.6087610343912168 -0.7933536430917398 0
  outer loop
   vertex -2.192030906677246 -25.807968139648438 0
   vertex -1.5499999523162842 -25.31532096862793 0
   vertex -2.192030906677246 -25.807968139648438 6
  endloop
 endfacet
 facet normal 0.6087610343912168 -0.7933536430917398 0
  outer loop
   vertex -1.5499999523162842 -25.31532096862793 0
   vertex -1.5499999523162842 -25.31532096862793 6
   vertex -2.192030906677246 -25.807968139648438 6
  endloop
 endfacet
 facet normal 0.3826825634371453 -0.9238798924325472 0
  outer loop
   vertex -1.5499999523162842 -25.31532096862793 0
   vertex -0.8023390173912048 -25.005630493164062 0
   vertex -1.5499999523162842 -25.31532096862793 6
  endloop
 endfacet
 facet normal 0.3826825634371453 -0.9238798924325472 0
  outer loop
   vertex -0.8023390173912048 -25.005630493164062 0
   vertex -0.8023390173912048 -25.005630493164062 6
   vertex -1.5499999523162842 -25.31532096862793 6
  endloop
 endfacet
 facet normal 0.13052733286740723 -0.9914447112040696 0
  outer loop
   vertex -0.8023390173912048 -25.005630493164062 0
   vertex 1.8982025553325612e-16 -24.899999618530273 0
   vertex -0.8023390173912048 -25.005630493164062 6
  endloop
 endfacet
 facet normal 0.13052733286740723 -0.9914447112040696 0
  outer loop
   vertex 1.8982025553325612e-16 -24.899999618530273 0
   vertex 1.8982025553325612e-16 -24.899999618530273 6
   vertex -0.8023390173912048 -25.005630493164062 6
  endloop
 endfacet
 facet normal -0.13052733286740734 -0.9914447112040696 0
  outer loop
   vertex 1.8982025553325612e-16 -24.899999618530273 0
   vertex 0.8023390173912048 -25.005630493164062 0
   vertex 1.8982025553325612e-16 -24.899999618530273 6
  endloop
 endfacet
 facet normal -0.13052733286740734 -0.9914447112040696 0
  outer loop
   vertex 0.8023390173912048 -25.005630493164062 0
   vertex 0.8023390173912048 -25.005630493164062 6
   vertex 1.8982025553325612e-16 -24.899999618530273 6
  endloop
 endfacet
 facet normal -0.3826825634371453 -0.9238798924325472 0
  outer loop
   vertex 0.8023390173912048 -25.005630493164062 0
   vertex 1.5499999523162842 -25.31532096862793 0
   vertex 0.8023390173912048 -25.005630493164062 6
  endloop
 endfacet
 facet normal -0.3826825634371453 -0.9238798924325472 0
  outer loop
   vertex 1.5499999523162842 -25.31532096862793 0
   vertex 1.5499999523162842 -25.31532096862793 6
   vertex 0.8023390173912048 -25.005630493164062 6
  endloop
 endfacet
 facet normal -0.6087610343912168 -0.7933536430917398 0
  outer loop
   vertex 1.5499999523162842 -25.31532096862793 0
   vertex 2.192030906677246 -25.807968139648438 0
   vertex 1.5499999523162842 -25.31532096862793 6
  endloop
 endfacet
 facet normal -0.6087610343912168 -0.7933536430917398 0
  outer loop
   vertex 2.192030906677246 -25.807968139648438 0
   vertex 2.192030906677246 -25.807968139648438 6
   vertex 1.5499999523162842 -25.31532096862793 6
  endloop
 endfacet
 facet normal -0.7933539804932112 -0.6087605946803533 0
  outer loop
   vertex 2.192030906677246 -25.807968139648438 0
   vertex 2.684678792953491 -26.450000762939453 0
   vertex 2.192030906677246 -25.807968139648438 6
  endloop
 endfacet
 facet normal -0.7933539804932112 -0.6087605946803533 0
  outer loop
   vertex 2.684678792953491 -26.450000762939453 0
   vertex 2.684678792953491 -26.450000762939453 6
   vertex 2.192030906677246 -25.807968139648438 6
  endloop
 endfacet
 facet normal -0.9238793534379639 -0.38268386468604837 0
  outer loop
   vertex 2.684678792953491 -26.450000762939453 0
   vertex 2.9943699836730957 -27.197660446166992 0
   vertex 2.684678792953491 -26.450000762939453 6
  endloop
 endfacet
 facet normal -0.9238793534379639 -0.38268386468604837 0
  outer loop
   vertex 2.9943699836730957 -27.197660446166992 0
   vertex 2.9943699836730957 -27.197660446166992 6
   vertex 2.684678792953491 -26.450000762939453 6
  endloop
 endfacet
 facet normal -0.9914448750006941 -0.13052608871355031 0
  outer loop
   vertex 2.9943699836730957 -27.197660446166992 0
   vertex 3.0999999046325684 -28 0
   vertex 2.9943699836730957 -27.197660446166992 6
  endloop
 endfacet
 facet normal -0.9914448750006941 -0.13052608871355031 0
  outer loop
   vertex 3.0999999046325684 -28 0
   vertex 3.0999999046325684 -28 6
   vertex 2.9943699836730957 -27.197660446166992 6
  endloop
 endfacet
 facet normal -0.9914448750006941 0.13052608871355031 0
  outer loop
   vertex 3.0999999046325684 -28 0
   vertex 2.9943699836730957 -28.802339553833008 0
   vertex 3.0999999046325684 -28 6
  endloop
 endfacet
 facet normal -0.9914448750006941 0.13052608871355031 0
  outer loop
   vertex 2.9943699836730957 -28.802339553833008 0
   vertex 2.9943699836730957 -28.802339553833008 6
   vertex 3.0999999046325684 -28 6
  endloop
 endfacet
endsolid heart-08-crank