solid heart-01-base
 facet normal 0 0 -1
  outer loop
   vertex 14 0 0
   vertex 14 70 0
   vertex 100 70 0
  endloop
 endfacet
 facet normal 0 0 -1
  outer loop
   vertex 100 70 0
   vertex 100 0 0
   vertex 14 0 0
  endloop
 endfacet
 facet normal 0 0 1
  outer loop
   vertex 100 70 3
   vertex 14 70 3
   vertex 14 0 3
  endloop
 endfacet
 facet normal 0 0 1
  outer loop
   vertex 14 0 3
   vertex 100 0 3
   vertex 100 70 3
  endloop
 endfacet
 facet normal 0 -1 0
  outer loop
   vertex 14 0 0
   vertex 100 0 0
   vertex 14 0 3
  endloop
 endfacet
 facet normal 0 -1 0
  outer loop
   vertex 100 0 0
   vertex 100 0 3
   vertex 14 0 3
  endloop
 endfacet
 facet normal 1 0 0
  outer loop
   vertex 100 0 0
   vertex 100 70 0
   vertex 100 0 3
  endloop
 endfacet
 facet normal 1 0 0
  outer loop
   vertex 100 70 0
   vertex 100 70 3
   vertex 100 0 3
  endloop
 endfacet
 facet normal 0 1 0
  outer loop
   vertex 100 70 0
   vertex 14 70 0
   vertex 100 70 3
  endloop
 endfacet
 facet normal 0 1 0
  outer loop
   vertex 14 70 0
   vertex 14 70 3
   vertex 100 70 3
  endloop
 endfacet
 facet normal -1 0 0
  outer loop
   vertex 14 70 0
   vertex 14 0 0
   vertex 14 70 3
  endloop
 endfacet
 facet normal -1 0 0
  outer loop
   vertex 14 0 0
   vertex 14 0 3
   vertex 14 70 3
  endloop
 endfacet
endsolid heart-01-base