solid heart-06-guide-frontback
 facet normal 0 0 -1
  outer loop
   vertex 53.70000076293945 63.5 0
   vertex 53.70000076293945 75 0
   vertex 66.30000305175781 75 0
  endloop
 endfacet
 facet normal 0 0 -1
  outer loop
   vertex 66.30000305175781 75 0
   vertex 66.30000305175781 63.5 0
   vertex 53.70000076293945 63.5 0
  endloop
 endfacet
 facet normal 0 0 1
  outer loop
   vertex 66.30000305175781 75 3
   vertex 53.70000076293945 75 3
   vertex 53.70000076293945 63.5 3
  endloop
 endfacet
 facet normal 0 0 1
  outer loop
   vertex 53.70000076293945 63.5 3
   vertex 66.30000305175781 63.5 3
   vertex 66.30000305175781 75 3
  endloop
 endfacet
 facet normal 0 -1 0
  outer loop
   vertex 53.70000076293945 63.5 0
   vertex 66.30000305175781 63.5 0
   vertex 53.70000076293945 63.5 3
  endloop
 endfacet
 facet normal 0 -1 0
  outer loop
   vertex 66.30000305175781 63.5 0
   vertex 66.30000305175781 63.5 3
   vertex 53.70000076293945 63.5 3
  endloop
 endfacet
 facet normal 1 0 0
  outer loop
   vertex 66.30000305175781 63.5 0
   vertex 66.30000305175781 75 0
   vertex 66.30000305175781 63.5 3
  endloop
 endfacet
 facet normal 1 0 0
  outer loop
   vertex 66.30000305175781 75 0
   vertex 66.30000305175781 75 3
   vertex 66.30000305175781 63.5 3
  endloop
 endfacet
 facet normal 0 1 0
  outer loop
   vertex 66.30000305175781 75 0
   vertex 53.70000076293945 75 0
   vertex 66.30000305175781 75 3
  endloop
 endfacet
 facet normal 0 1 0
  outer loop
   vertex 53.70000076293945 75 0
   vertex 53.70000076293945 75 3
   vertex 66.30000305175781 75 3
  endloop
 endfacet
 facet normal -1 0 0
  outer loop
   vertex 53.70000076293945 75 0
   vertex 53.70000076293945 63.5 0
   vertex 53.70000076293945 75 3
  endloop
 endfacet
 facet normal -1 0 0
  outer loop
   vertex 53.70000076293945 63.5 0
   vertex 53.70000076293945 63.5 3
   vertex 53.70000076293945 75 3
  endloop
 endfacet
endsolid heart-06-guide-frontback