0
SECTION
2
ENTITIES
0
POLYLINE
8
CUT
66
1
70
1
0
VERTEX
8
CUT
10
8.000
20
258.000
0
VERTEX
8
CUT
10
48.000
20
258.000
0
VERTEX
8
CUT
10
48.000
20
289.000
0
VERTEX
8
CUT
10
8.000
20
289.000
0
SEQEND
8
CUT
0
POLYLINE
8
CUT
66
1
70
1
0
VERTEX
8
CUT
10
14.200
20
287.000
0
VERTEX
8
CUT
10
25.800
20
287.000
0
VERTEX
8
CUT
10
25.800
20
277.000
0
VERTEX
8
CUT
10
14.200
20
277.000
0
SEQEND
8
CUT
0
POLYLINE
8
CUT
66
1
70
1
0
VERTEX
8
CUT
10
14.220
20
262.080
0
VERTEX
8
CUT
10
13.700
20
261.300
0
VERTEX
8
CUT
10
12.920
20
260.780
0
VERTEX
8
CUT
10
12.000
20
260.600
0
VERTEX
8
CUT
10
11.080
20
260.780
0
VERTEX
8
CUT
10
10.300
20
261.300
0
VERTEX
8
CUT
10
9.780
20
262.080
0
VERTEX
8
CUT
10
9.600
20
263.000
0
VERTEX
8
CUT
10
9.780
20
263.920
0
VERTEX
8
CUT
10
10.300
20
264.700
0
VERTEX
8
CUT
10
11.080
20
265.220
0
VERTEX
8
CUT
10
12.000
20
265.400
0
VERTEX
8
CUT
10
12.920
20
265.220
0
VERTEX
8
CUT
10
13.700
20
264.700
0
VERTEX
8
CUT
10
14.220
20
263.920
0
VERTEX
8
CUT
10
14.400
20
263.000
0
SEQEND
8
CUT
0
POLYLINE
8
CUT
66
1
70
1
0
VERTEX
8
CUT
10
46.220
20
286.080
0
VERTEX
8
CUT
10
45.700
20
285.300
0
VERTEX
8
CUT
10
44.920
20
284.780
0
VERTEX
8
CUT
10
44.000
20
284.600
0
VERTEX
8
CUT
10
43.080
20
284.780
0
VERTEX
8
CUT
10
42.300
20
285.300
0
VERTEX
8
CUT
10
41.780
20
286.080
0
VERTEX
8
CUT
10
41.600
20
287.000
0
VERTEX
8
CUT
10
41.780
20
287.920
0
VERTEX
8
CUT
10
42.300
20
288.700
0
VERTEX
8
CUT
10
43.080
20
289.220
0
VERTEX
8
CUT
10
44.000
20
289.400
0
VERTEX
8
CUT
10
44.920
20
289.220
0
VERTEX
8
CUT
10
45.700
20
288.700
0
VERTEX
8
CUT
10
46.220
20
287.920
0
VERTEX
8
CUT
10
46.400
20
287.000
0
SEQEND
8
CUT
0
POLYLINE
8
CUT
66
1
70
1
0
VERTEX
8
CUT
10
82.000
20
274.000
0
VERTEX
8
CUT
10
81.710
20
276.930
0
VERTEX
8
CUT
10
80.860
20
279.740
0
VERTEX
8
CUT
10
79.470
20
282.330
0
VERTEX
8
CUT
10
77.610
20
284.610
0
VERTEX
8
CUT
10
75.330
20
286.470
0
VERTEX
8
CUT
10
72.740
20
287.860
0
VERTEX
8
CUT
10
69.930
20
288.710
0
VERTEX
8
CUT
10
67.000
20
289.000
0
VERTEX
8
CUT
10
64.070
20
288.710
0
VERTEX
8
CUT
10
61.260
20
287.860
0
VERTEX
8
CUT
10
58.670
20
286.470
0
VERTEX
8
CUT
10
56.390
20
284.610
0
VERTEX
8
CUT
10
54.530
20
282.330
0
VERTEX
8
CUT
10
53.140
20
279.740
0
VERTEX
8
CUT
10
52.290
20
276.930
0
VERTEX
8
CUT
10
52.000
20
274.000
0
VERTEX
8
CUT
10
52.290
20
271.070
0
VERTEX
8
CUT
10
53.140
20
268.260
0
VERTEX
8
CUT
10
54.530
20
265.670
0
VERTEX
8
CUT
10
56.390
20
263.390
0
VERTEX
8
CUT
10
58.670
20
261.530
0
VERTEX
8
CUT
10
61.260
20
260.140
0
VERTEX
8
CUT
10
64.070
20
259.290
0
VERTEX
8
CUT
10
67.000
20
259.000
0
VERTEX
8
CUT
10
69.930
20
259.290
0
VERTEX
8
CUT
10
72.740
20
260.140
0
VERTEX
8
CUT
10
75.330
20
261.530
0
VERTEX
8
CUT
10
77.610
20
263.390
0
VERTEX
8
CUT
10
79.470
20
265.670
0
VERTEX
8
CUT
10
80.860
20
268.260
0
VERTEX
8
CUT
10
81.710
20
271.070
0
SEQEND
8
CUT
0
POLYLINE
8
CUT
66
1
70
1
0
VERTEX
8
CUT
10
62.700
20
277.300
0
VERTEX
8
CUT
10
71.300
20
277.300
0
VERTEX
8
CUT
10
71.300
20
270.700
0
VERTEX
8
CUT
10
62.700
20
270.700
0
SEQEND
8
CUT
0
POLYLINE
8
CUT
66
1
70
1
0
VERTEX
8
CUT
10
116.000
20
274.000
0
VERTEX
8
CUT
10
115.710
20
276.930
0
VERTEX
8
CUT
10
114.860
20
279.740
0
VERTEX
8
CUT
10
113.470
20
282.330
0
VERTEX
8
CUT
10
111.610
20
284.610
0
VERTEX
8
CUT
10
109.330
20
286.470
0
VERTEX
8
CUT
10
106.740
20
287.860
0
VERTEX
8
CUT
10
103.930
20
288.710
0
VERTEX
8
CUT
10
101.000
20
289.000
0
VERTEX
8
CUT
10
98.070
20
288.710
0
VERTEX
8
CUT
10
95.260
20
287.860
0
VERTEX
8
CUT
10
92.670
20
286.470
0
VERTEX
8
CUT
10
90.390
20
284.610
0
VERTEX
8
CUT
10
88.530
20
282.330
0
VERTEX
8
CUT
10
87.140
20
279.740
0
VERTEX
8
CUT
10
86.290
20
276.930
0
VERTEX
8
CUT
10
86.000
20
274.000
0
VERTEX
8
CUT
10
86.290
20
271.070
0
VERTEX
8
CUT
10
87.140
20
268.260
0
VERTEX
8
CUT
10
88.530
20
265.670
0
VERTEX
8
CUT
10
90.390
20
263.390
0
VERTEX
8
CUT
10
92.670
20
261.530
0
VERTEX
8
CUT
10
95.260
20
260.140
0
VERTEX
8
CUT
10
98.070
20
259.290
0
VERTEX
8
CUT
10
101.000
20
259.000
0
VERTEX
8
CUT
10
103.930
20
259.290
0
VERTEX
8
CUT
10
106.740
20
260.140
0
VERTEX
8
CUT
10
109.330
20
261.530
0
VERTEX
8
CUT
10
111.610
20
263.390
0
VERTEX
8
CUT
10
113.470
20
265.670
0
VERTEX
8
CUT
10
114.860
20
268.260
0
VERTEX
8
CUT
10
115.710
20
271.070
0
SEQEND
8
CUT
0
POLYLINE
8
CUT
66
1
70
1
0
VERTEX
8
CUT
10
96.700
20
277.300
0
VERTEX
8
CUT
10
105.300
20
277.300
0
VERTEX
8
CUT
10
105.300
20
270.700
0
VERTEX
8
CUT
10
96.700
20
270.700
0
SEQEND
8
CUT
0
POLYLINE
8
CUT
66
1
70
1
0
VERTEX
8
CUT
10
120.000
20
259.000
0
VERTEX
8
CUT
10
142.000
20
259.000
0
VERTEX
8
CUT
10
142.000
20
289.000
0
VERTEX
8
CUT
10
120.000
20
289.000
0
SEQEND
8
CUT
0
POLYLINE
8
CUT
66
1
70
1
0
VERTEX
8
CUT
10
148.750
20
287.000
0
VERTEX
8
CUT
10
150.700
20
287.560
0
VERTEX
8
CUT
10
153.200
20
288.020
0
VERTEX
8
CUT
10
156.140
20
288.370
0
VERTEX
8
CUT
10
159.370
20
288.620
0
VERTEX
8
CUT
10
162.780
20
288.810
0
VERTEX
8
CUT
10
166.230
20
288.920
0
VERTEX
8
CUT
10
169.600
20
288.980
0
VERTEX
8
CUT
10
172.750
20
289.000
0
VERTEX
8
CUT
10
175.900
20
288.980
0
VERTEX
8
CUT
10
179.270
20
288.920
0
VERTEX
8
CUT
10
182.720
20
288.810
0
VERTEX
8
CUT
10
186.120
20
288.620
0
VERTEX
8
CUT
10
189.360
20
288.370
0
VERTEX
8
CUT
10
192.300
20
288.020
0
VERTEX
8
CUT
10
194.800
20
287.560
0
VERTEX
8
CUT
10
196.750
20
287.000
0
VERTEX
8
CUT
10
198.090
20
286.300
0
VERTEX
8
CUT
10
198.940
20
285.470
0
VERTEX
8
CUT
10
199.370
20
284.530
0
VERTEX
8
CUT
10
199.500
20
283.500
0
VERTEX
8
CUT
10
199.410
20
282.410
0
VERTEX
8
CUT
10
199.190
20
281.280
0
VERTEX
8
CUT
10
198.940
20
280.140
0
VERTEX
8
CUT
10
198.750
20
279.000
0
VERTEX
8
CUT
10
198.580
20
277.830
0
VERTEX
8
CUT
10
198.310
20
276.570
0
VERTEX
8
CUT
10
197.950
20
275.260
0
VERTEX
8
CUT
10
197.500
20
273.940
0
VERTEX
8
CUT
10
196.950
20
272.620
0
VERTEX
8
CUT
10
196.310
20
271.340
0
VERTEX
8
CUT
10
195.580
20
270.120
0
VERTEX
8
CUT
10
194.750
20
269.000
0
VERTEX
8
CUT
10
193.800
20
267.950
0
VERTEX
8
CUT
10
192.720
20
266.920
0
VERTEX
8
CUT
10
191.530
20
265.940
0
VERTEX
8
CUT
10
190.250
20
265.000
0
VERTEX
8
CUT
10
188.910
20
264.130
0
VERTEX
8
CUT
10
187.530
20
263.330
0
VERTEX
8
CUT
10
186.140
20
262.620
0
VERTEX
8
CUT
10
184.750
20
262.000
0
VERTEX
8
CUT
10
183.350
20
261.480
0
VERTEX
8
CUT
10
181.890
20
261.050
0
VERTEX
8
CUT
10
180.400
20
260.710
0
VERTEX
8
CUT
10
178.870
20
260.440
0
VERTEX
8
CUT
10
177.340
20
260.240
0
VERTEX
8
CUT
10
175.800
20
260.100
0
VERTEX
8
CUT
10
174.260
20
260.020
0
VERTEX
8
CUT
10
172.750
20
260.000
0
VERTEX
8
CUT
10
171.240
20
260.020
0
VERTEX
8
CUT
10
169.700
20
260.100
0
VERTEX
8
CUT
10
168.160
20
260.240
0
VERTEX
8
CUT
10
166.620
20
260.440
0
VERTEX
8
CUT
10
165.100
20
260.710
0
VERTEX
8
CUT
10
163.610
20
261.050
0
VERTEX
8
CUT
10
162.150
20
261.480
0
VERTEX
8
CUT
10
160.750
20
262.000
0
VERTEX
8
CUT
10
159.360
20
262.620
0
VERTEX
8
CUT
10
157.970
20
263.330
0
VERTEX
8
CUT
10
156.590
20
264.130
0
VERTEX
8
CUT
10
155.250
20
265.000
0
VERTEX
8
CUT
10
153.970
20
265.940
0
VERTEX
8
CUT
10
152.780
20
266.920
0
VERTEX
8
CUT
10
151.700
20
267.950
0
VERTEX
8
CUT
10
150.750
20
269.000
0
VERTEX
8
CUT
10
149.920
20
270.120
0
VERTEX
8
CUT
10
149.190
20
271.340
0
VERTEX
8
CUT
10
148.550
20
272.620
0
VERTEX
8
CUT
10
148.000
20
273.940
0
VERTEX
8
CUT
10
147.550
20
275.260
0
VERTEX
8
CUT
10
147.190
20
276.570
0
VERTEX
8
CUT
10
146.920
20
277.830
0
VERTEX
8
CUT
10
146.750
20
279.000
0
VERTEX
8
CUT
10
146.560
20
280.140
0
VERTEX
8
CUT
10
146.310
20
281.280
0
VERTEX
8
CUT
10
146.090
20
282.410
0
VERTEX
8
CUT
10
146.000
20
283.500
0
VERTEX
8
CUT
10
146.120
20
284.530
0
VERTEX
8
CUT
10
146.560
20
285.470
0
VERTEX
8
CUT
10
147.410
20
286.300
0
VERTEX
8
CUT
10
148.750
20
287.000
0
SEQEND
8
CUT
0
POLYLINE
8
CUT
66
1
70
1
0
VERTEX
8
CUT
10
148.850
20
263.100
0
VERTEX
8
CUT
10
154.650
20
263.100
0
VERTEX
8
CUT
10
154.650
20
259.900
0
VERTEX
8
CUT
10
148.850
20
259.900
0
SEQEND
8
CUT
0
POLYLINE
8
CUT
66
1
70
1
0
VERTEX
8
CUT
10
158.850
20
263.100
0
VERTEX
8
CUT
10
164.650
20
263.100
0
VERTEX
8
CUT
10
164.650
20
259.900
0
VERTEX
8
CUT
10
158.850
20
259.900
0
SEQEND
8
CUT
0
POLYLINE
8
CUT
66
1
70
1
0
VERTEX
8
CUT
10
10.750
20
252.000
0
VERTEX
8
CUT
10
12.700
20
252.560
0
VERTEX
8
CUT
10
15.200
20
253.020
0
VERTEX
8
CUT
10
18.140
20
253.370
0
VERTEX
8
CUT
10
21.370
20
253.620
0
VERTEX
8
CUT
10
24.780
20
253.810
0
VERTEX
8
CUT
10
28.230
20
253.920
0
VERTEX
8
CUT
10
31.600
20
253.980
0
VERTEX
8
CUT
10
34.750
20
254.000
0
VERTEX
8
CUT
10
37.900
20
253.980
0
VERTEX
8
CUT
10
41.270
20
253.920
0
VERTEX
8
CUT
10
44.720
20
253.810
0
VERTEX
8
CUT
10
48.120
20
253.620
0
VERTEX
8
CUT
10
51.360
20
253.370
0
VERTEX
8
CUT
10
54.300
20
253.020
0
VERTEX
8
CUT
10
56.800
20
252.560
0
VERTEX
8
CUT
10
58.750
20
252.000
0
VERTEX
8
CUT
10
60.090
20
251.300
0
VERTEX
8
CUT
10
60.940
20
250.470
0
VERTEX
8
CUT
10
61.370
20
249.530
0
VERTEX
8
CUT
10
61.500
20
248.500
0
VERTEX
8
CUT
10
61.410
20
247.410
0
VERTEX
8
CUT
10
61.190
20
246.280
0
VERTEX
8
CUT
10
60.940
20
245.140
0
VERTEX
8
CUT
10
60.750
20
244.000
0
VERTEX
8
CUT
10
60.580
20
242.830
0
VERTEX
8
CUT
10
60.310
20
241.570
0
VERTEX
8
CUT
10
59.950
20
240.260
0
VERTEX
8
CUT
10
59.500
20
238.940
0
VERTEX
8
CUT
10
58.950
20
237.620
0
VERTEX
8
CUT
10
58.310
20
236.340
0
VERTEX
8
CUT
10
57.580
20
235.120
0
VERTEX
8
CUT
10
56.750
20
234.000
0
VERTEX
8
CUT
10
55.800
20
232.950
0
VERTEX
8
CUT
10
54.720
20
231.920
0
VERTEX
8
CUT
10
53.530
20
230.940
0
VERTEX
8
CUT
10
52.250
20
230.000
0
VERTEX
8
CUT
10
50.910
20
229.130
0
VERTEX
8
CUT
10
49.530
20
228.330
0
VERTEX
8
CUT
10
48.140
20
227.620
0
VERTEX
8
CUT
10
46.750
20
227.000
0
VERTEX
8
CUT
10
45.350
20
226.480
0
VERTEX
8
CUT
10
43.890
20
226.050
0
VERTEX
8
CUT
10
42.400
20
225.710
0
VERTEX
8
CUT
10
40.870
20
225.440
0
VERTEX
8
CUT
10
39.340
20
225.240
0
VERTEX
8
CUT
10
37.800
20
225.100
0
VERTEX
8
CUT
10
36.260
20
225.020
0
VERTEX
8
CUT
10
34.750
20
225.000
0
VERTEX
8
CUT
10
33.240
20
225.020
0
VERTEX
8
CUT
10
31.700
20
225.100
0
VERTEX
8
CUT
10
30.160
20
225.240
0
VERTEX
8
CUT
10
28.620
20
225.440
0
VERTEX
8
CUT
10
27.100
20
225.710
0
VERTEX
8
CUT
10
25.610
20
226.050
0
VERTEX
8
CUT
10
24.150
20
226.480
0
VERTEX
8
CUT
10
22.750
20
227.000
0
VERTEX
8
CUT
10
21.360
20
227.620
0
VERTEX
8
CUT
10
19.970
20
228.330
0
VERTEX
8
CUT
10
18.590
20
229.130
0
VERTEX
8
CUT
10
17.250
20
230.000
0
VERTEX
8
CUT
10
15.970
20
230.940
0
VERTEX
8
CUT
10
14.780
20
231.920
0
VERTEX
8
CUT
10
13.700
20
232.950
0
VERTEX
8
CUT
10
12.750
20
234.000
0
VERTEX
8
CUT
10
11.920
20
235.120
0
VERTEX
8
CUT
10
11.190
20
236.340
0
VERTEX
8
CUT
10
10.550
20
237.620
0
VERTEX
8
CUT
10
10.000
20
238.940
0
VERTEX
8
CUT
10
9.550
20
240.260
0
VERTEX
8
CUT
10
9.190
20
241.570
0
VERTEX
8
CUT
10
8.920
20
242.830
0
VERTEX
8
CUT
10
8.750
20
244.000
0
VERTEX
8
CUT
10
8.560
20
245.140
0
VERTEX
8
CUT
10
8.310
20
246.280
0
VERTEX
8
CUT
10
8.090
20
247.410
0
VERTEX
8
CUT
10
8.000
20
248.500
0
VERTEX
8
CUT
10
8.120
20
249.530
0
VERTEX
8
CUT
10
8.560
20
250.470
0
VERTEX
8
CUT
10
9.410
20
251.300
0
VERTEX
8
CUT
10
10.750
20
252.000
0
SEQEND
8
CUT
0
POLYLINE
8
CUT
66
1
70
1
0
VERTEX
8
CUT
10
10.850
20
228.100
0
VERTEX
8
CUT
10
16.650
20
228.100
0
VERTEX
8
CUT
10
16.650
20
224.900
0
VERTEX
8
CUT
10
10.850
20
224.900
0
SEQEND
8
CUT
0
POLYLINE
8
CUT
66
1
70
1
0
VERTEX
8
CUT
10
20.850
20
228.100
0
VERTEX
8
CUT
10
26.650
20
228.100
0
VERTEX
8
CUT
10
26.650
20
224.900
0
VERTEX
8
CUT
10
20.850
20
224.900
0
SEQEND
8
CUT
0
POLYLINE
8
CUT
66
1
70
1
0
VERTEX
8
CUT
10
65.500
20
228.000
0
VERTEX
8
CUT
10
93.500
20
228.000
0
VERTEX
8
CUT
10
93.500
20
254.000
0
VERTEX
8
CUT
10
65.500
20
254.000
0
SEQEND
8
CUT
0
POLYLINE
8
CUT
66
1
70
1
0
VERTEX
8
CUT
10
97.500
20
228.000
0
VERTEX
8
CUT
10
117.500
20
228.000
0
VERTEX
8
CUT
10
117.500
20
254.000
0
VERTEX
8
CUT
10
97.500
20
254.000
0
SEQEND
8
CUT
0
POLYLINE
8
CUT
66
1
70
1
0
VERTEX
8
CUT
10
157.500
20
242.000
0
VERTEX
8
CUT
10
157.340
20
243.870
0
VERTEX
8
CUT
10
156.850
20
245.690
0
VERTEX
8
CUT
10
156.070
20
247.390
0
VERTEX
8
CUT
10
155.040
20
248.920
0
VERTEX
8
CUT
10
153.790
20
250.250
0
VERTEX
8
CUT
10
152.390
20
251.360
0
VERTEX
8
CUT
10
150.880
20
252.250
0
VERTEX
8
CUT
10
149.330
20
252.910
0
VERTEX
8
CUT
10
147.770
20
253.390
0
VERTEX
8
CUT
10
146.250
20
253.690
0
VERTEX
8
CUT
10
144.780
20
253.870
0
VERTEX
8
CUT
10
143.390
20
253.960
0
VERTEX
8
CUT
10
142.050
20
253.990
0
VERTEX
8
CUT
10
140.760
20
254.000
0
VERTEX
8
CUT
10
139.500
20
254.000
0
VERTEX
8
CUT
10
138.240
20
254.000
0
VERTEX
8
CUT
10
136.950
20
253.990
0
VERTEX
8
CUT
10
135.610
20
253.960
0
VERTEX
8
CUT
10
134.220
20
253.870
0
VERTEX
8
CUT
10
132.750
20
253.690
0
VERTEX
8
CUT
10
131.230
20
253.390
0
VERTEX
8
CUT
10
129.670
20
252.910
0
VERTEX
8
CUT
10
128.120
20
252.250
0
VERTEX
8
CUT
10
126.610
20
251.360
0
VERTEX
8
CUT
10
125.210
20
250.250
0
VERTEX
8
CUT
10
123.960
20
248.920
0
VERTEX
8
CUT
10
122.930
20
247.390
0
VERTEX
8
CUT
10
122.150
20
245.690
0
VERTEX
8
CUT
10
121.660
20
243.870
0
VERTEX
8
CUT
10
121.500
20
242.000
0
VERTEX
8
CUT
10
121.660
20
240.130
0
VERTEX
8
CUT
10
122.150
20
238.310
0
VERTEX
8
CUT
10
122.930
20
236.610
0
VERTEX
8
CUT
10
123.960
20
235.080
0
VERTEX
8
CUT
10
125.210
20
233.750
0
VERTEX
8
CUT
10
126.610
20
232.640
0
VERTEX
8
CUT
10
128.120
20
231.750
0
VERTEX
8
CUT
10
129.670
20
231.090
0
VERTEX
8
CUT
10
131.230
20
230.610
0
VERTEX
8
CUT
10
132.750
20
230.310
0
VERTEX
8
CUT
10
134.220
20
230.130
0
VERTEX
8
CUT
10
135.610
20
230.040
0
VERTEX
8
CUT
10
136.950
20
230.010
0
VERTEX
8
CUT
10
138.240
20
230.000
0
VERTEX
8
CUT
10
139.500
20
230.000
0
VERTEX
8
CUT
10
140.760
20
230.000
0
VERTEX
8
CUT
10
142.050
20
230.010
0
VERTEX
8
CUT
10
143.390
20
230.040
0
VERTEX
8
CUT
10
144.780
20
230.130
0
VERTEX
8
CUT
10
146.250
20
230.310
0
VERTEX
8
CUT
10
147.770
20
230.610
0
VERTEX
8
CUT
10
149.330
20
231.090
0
VERTEX
8
CUT
10
150.880
20
231.750
0
VERTEX
8
CUT
10
152.390
20
232.640
0
VERTEX
8
CUT
10
153.790
20
233.750
0
VERTEX
8
CUT
10
155.040
20
235.080
0
VERTEX
8
CUT
10
156.070
20
236.610
0
VERTEX
8
CUT
10
156.850
20
238.310
0
VERTEX
8
CUT
10
157.340
20
240.130
0
SEQEND
8
CUT
0
POLYLINE
8
CUT
66
1
70
1
0
VERTEX
8
CUT
10
142.350
20
241.070
0
VERTEX
8
CUT
10
141.930
20
240.240
0
VERTEX
8
CUT
10
141.260
20
239.570
0
VERTEX
8
CUT
10
140.430
20
239.150
0
VERTEX
8
CUT
10
139.500
20
239.000
0
VERTEX
8
CUT
10
138.570
20
239.150
0
VERTEX
8
CUT
10
137.740
20
239.570
0
VERTEX
8
CUT
10
137.070
20
240.240
0
VERTEX
8
CUT
10
136.650
20
241.070
0
VERTEX
8
CUT
10
136.500
20
242.000
0
VERTEX
8
CUT
10
136.650
20
242.930
0
VERTEX
8
CUT
10
137.070
20
243.760
0
VERTEX
8
CUT
10
137.740
20
244.430
0
VERTEX
8
CUT
10
138.570
20
244.850
0
VERTEX
8
CUT
10
139.500
20
245.000
0
VERTEX
8
CUT
10
140.430
20
244.850
0
VERTEX
8
CUT
10
141.260
20
244.430
0
VERTEX
8
CUT
10
141.930
20
243.760
0
VERTEX
8
CUT
10
142.350
20
242.930
0
VERTEX
8
CUT
10
142.500
20
242.000
0
SEQEND
8
CUT
0
POLYLINE
8
CUT
66
1
70
1
0
VERTEX
8
CUT
10
185.500
20
242.000
0
VERTEX
8
CUT
10
185.400
20
243.570
0
VERTEX
8
CUT
10
185.090
20
245.110
0
VERTEX
8
CUT
10
184.590
20
246.590
0
VERTEX
8
CUT
10
183.890
20
248.000
0
VERTEX
8
CUT
10
183.020
20
249.310
0
VERTEX
8
CUT
10
181.990
20
250.490
0
VERTEX
8
CUT
10
180.810
20
251.520
0
VERTEX
8
CUT
10
179.500
20
252.390
0
VERTEX
8
CUT
10
178.090
20
253.090
0
VERTEX
8
CUT
10
176.610
20
253.590
0
VERTEX
8
CUT
10
175.070
20
253.900
0
VERTEX
8
CUT
10
173.500
20
254.000
0
VERTEX
8
CUT
10
171.930
20
253.900
0
VERTEX
8
CUT
10
170.390
20
253.590
0
VERTEX
8
CUT
10
168.910
20
253.090
0
VERTEX
8
CUT
10
167.500
20
252.390
0
VERTEX
8
CUT
10
166.190
20
251.520
0
VERTEX
8
CUT
10
165.010
20
250.490
0
VERTEX
8
CUT
10
163.980
20
249.310
0
VERTEX
8
CUT
10
163.110
20
248.000
0
VERTEX
8
CUT
10
162.410
20
246.590
0
VERTEX
8
CUT
10
161.910
20
245.110
0
VERTEX
8
CUT
10
161.600
20
243.570
0
VERTEX
8
CUT
10
161.500
20
242.000
0
VERTEX
8
CUT
10
161.600
20
240.430
0
VERTEX
8
CUT
10
161.910
20
238.890
0
VERTEX
8
CUT
10
162.410
20
237.410
0
VERTEX
8
CUT
10
163.110
20
236.000
0
VERTEX
8
CUT
10
163.980
20
234.690
0
VERTEX
8
CUT
10
165.010
20
233.510
0
VERTEX
8
CUT
10
166.190
20
232.480
0
VERTEX
8
CUT
10
167.500
20
231.610
0
VERTEX
8
CUT
10
168.910
20
230.910
0
VERTEX
8
CUT
10
170.390
20
230.410
0
VERTEX
8
CUT
10
171.930
20
230.100
0
VERTEX
8
CUT
10
173.500
20
230.000
0
VERTEX
8
CUT
10
175.070
20
230.100
0
VERTEX
8
CUT
10
176.610
20
230.410
0
VERTEX
8
CUT
10
178.090
20
230.910
0
VERTEX
8
CUT
10
179.500
20
231.610
0
VERTEX
8
CUT
10
180.810
20
232.480
0
VERTEX
8
CUT
10
181.990
20
233.510
0
VERTEX
8
CUT
10
183.020
20
234.690
0
VERTEX
8
CUT
10
183.890
20
236.000
0
VERTEX
8
CUT
10
184.590
20
237.410
0
VERTEX
8
CUT
10
185.090
20
238.890
0
VERTEX
8
CUT
10
185.400
20
240.430
0
SEQEND
8
CUT
0
POLYLINE
8
CUT
66
1
70
1
0
VERTEX
8
CUT
10
176.350
20
237.070
0
VERTEX
8
CUT
10
175.930
20
236.240
0
VERTEX
8
CUT
10
175.260
20
235.570
0
VERTEX
8
CUT
10
174.430
20
235.150
0
VERTEX
8
CUT
10
173.500
20
235.000
0
VERTEX
8
CUT
10
172.570
20
235.150
0
VERTEX
8
CUT
10
171.740
20
235.570
0
VERTEX
8
CUT
10
171.070
20
236.240
0
VERTEX
8
CUT
10
170.650
20
237.070
0
VERTEX
8
CUT
10
170.500
20
238.000
0
VERTEX
8
CUT
10
170.650
20
238.930
0
VERTEX
8
CUT
10
171.070
20
239.760
0
VERTEX
8
CUT
10
171.740
20
240.430
0
VERTEX
8
CUT
10
172.570
20
240.850
0
VERTEX
8
CUT
10
173.500
20
241.000
0
VERTEX
8
CUT
10
174.430
20
240.850
0
VERTEX
8
CUT
10
175.260
20
240.430
0
VERTEX
8
CUT
10
175.930
20
239.760
0
VERTEX
8
CUT
10
176.350
20
238.930
0
VERTEX
8
CUT
10
176.500
20
238.000
0
SEQEND
8
CUT
0
POLYLINE
8
CUT
66
1
70
1
0
VERTEX
8
CUT
10
28.000
20
211.000
0
VERTEX
8
CUT
10
27.750
20
213.230
0
VERTEX
8
CUT
10
27.010
20
215.340
0
VERTEX
8
CUT
10
25.820
20
217.230
0
VERTEX
8
CUT
10
24.230
20
218.820
0
VERTEX
8
CUT
10
22.340
20
220.010
0
VERTEX
8
CUT
10
20.230
20
220.750
0
VERTEX
8
CUT
10
18.000
20
221.000
0
VERTEX
8
CUT
10
15.770
20
220.750
0
VERTEX
8
CUT
10
13.660
20
220.010
0
VERTEX
8
CUT
10
11.770
20
218.820
0
VERTEX
8
CUT
10
10.180
20
217.230
0
VERTEX
8
CUT
10
8.990
20
215.340
0
VERTEX
8
CUT
10
8.250
20
213.230
0
VERTEX
8
CUT
10
8.000
20
211.000
0
VERTEX
8
CUT
10
8.250
20
208.770
0
VERTEX
8
CUT
10
8.990
20
206.660
0
VERTEX
8
CUT
10
10.180
20
204.770
0
VERTEX
8
CUT
10
11.770
20
203.180
0
VERTEX
8
CUT
10
13.660
20
201.990
0
VERTEX
8
CUT
10
15.770
20
201.250
0
VERTEX
8
CUT
10
18.000
20
201.000
0
VERTEX
8
CUT
10
20.230
20
201.250
0
VERTEX
8
CUT
10
22.340
20
201.990
0
VERTEX
8
CUT
10
24.230
20
203.180
0
VERTEX
8
CUT
10
25.820
20
204.770
0
VERTEX
8
CUT
10
27.010
20
206.660
0
VERTEX
8
CUT
10
27.750
20
208.770
0
SEQEND
8
CUT
0
POLYLINE
8
CUT
66
1
70
1
0
VERTEX
8
CUT
10
13.700
20
214.300
0
VERTEX
8
CUT
10
22.300
20
214.300
0
VERTEX
8
CUT
10
22.300
20
207.700
0
VERTEX
8
CUT
10
13.700
20
207.700
0
SEQEND
8
CUT
0
POLYLINE
8
CUT
66
1
70
1
0
VERTEX
8
CUT
10
52.000
20
211.000
0
VERTEX
8
CUT
10
51.750
20
213.230
0
VERTEX
8
CUT
10
51.010
20
215.340
0
VERTEX
8
CUT
10
49.820
20
217.230
0
VERTEX
8
CUT
10
48.230
20
218.820
0
VERTEX
8
CUT
10
46.340
20
220.010
0
VERTEX
8
CUT
10
44.230
20
220.750
0
VERTEX
8
CUT
10
42.000
20
221.000
0
VERTEX
8
CUT
10
39.770
20
220.750
0
VERTEX
8
CUT
10
37.660
20
220.010
0
VERTEX
8
CUT
10
35.770
20
218.820
0
VERTEX
8
CUT
10
34.180
20
217.230
0
VERTEX
8
CUT
10
32.990
20
215.340
0
VERTEX
8
CUT
10
32.250
20
213.230
0
VERTEX
8
CUT
10
32.000
20
211.000
0
VERTEX
8
CUT
10
32.250
20
208.770
0
VERTEX
8
CUT
10
32.990
20
206.660
0
VERTEX
8
CUT
10
34.180
20
204.770
0
VERTEX
8
CUT
10
35.770
20
203.180
0
VERTEX
8
CUT
10
37.660
20
201.990
0
VERTEX
8
CUT
10
39.770
20
201.250
0
VERTEX
8
CUT
10
42.000
20
201.000
0
VERTEX
8
CUT
10
44.230
20
201.250
0
VERTEX
8
CUT
10
46.340
20
201.990
0
VERTEX
8
CUT
10
48.230
20
203.180
0
VERTEX
8
CUT
10
49.820
20
204.770
0
VERTEX
8
CUT
10
51.010
20
206.660
0
VERTEX
8
CUT
10
51.750
20
208.770
0
SEQEND
8
CUT
0
POLYLINE
8
CUT
66
1
70
1
0
VERTEX
8
CUT
10
37.700
20
214.300
0
VERTEX
8
CUT
10
46.300
20
214.300
0
VERTEX
8
CUT
10
46.300
20
207.700
0
VERTEX
8
CUT
10
37.700
20
207.700
0
SEQEND
8
CUT
0
POLYLINE
8
CUT
66
1
70
1
0
VERTEX
8
CUT
10
56.000
20
205.000
0
VERTEX
8
CUT
10
80.000
20
205.000
0
VERTEX
8
CUT
10
80.000
20
221.000
0
VERTEX
8
CUT
10
56.000
20
221.000
0
SEQEND
8
CUT
0
POLYLINE
8
CUT
66
1
70
1
0
VERTEX
8
CUT
10
71.090
20
212.170
0
VERTEX
8
CUT
10
70.770
20
211.400
0
VERTEX
8
CUT
10
70.260
20
210.740
0
VERTEX
8
CUT
10
69.600
20
210.230
0
VERTEX
8
CUT
10
68.830
20
209.910
0
VERTEX
8
CUT
10
68.000
20
209.800
0
VERTEX
8
CUT
10
67.170
20
209.910
0
VERTEX
8
CUT
10
66.400
20
210.230
0
VERTEX
8
CUT
10
65.740
20
210.740
0
VERTEX
8
CUT
10
65.230
20
211.400
0
VERTEX
8
CUT
10
64.910
20
212.170
0
VERTEX
8
CUT
10
64.800
20
213.000
0
VERTEX
8
CUT
10
64.910
20
213.830
0
VERTEX
8
CUT
10
65.230
20
214.600
0
VERTEX
8
CUT
10
65.740
20
215.260
0
VERTEX
8
CUT
10
66.400
20
215.770
0
VERTEX
8
CUT
10
67.170
20
216.090
0
VERTEX
8
CUT
10
68.000
20
216.200
0
VERTEX
8
CUT
10
68.830
20
216.090
0
VERTEX
8
CUT
10
69.600
20
215.770
0
VERTEX
8
CUT
10
70.260
20
215.260
0
VERTEX
8
CUT
10
70.770
20
214.600
0
VERTEX
8
CUT
10
71.090
20
213.830
0
VERTEX
8
CUT
10
71.200
20
213.000
0
SEQEND
8
CUT
0
POLYLINE
8
CUT
66
1
70
1
0
VERTEX
8
CUT
10
84.000
20
205.000
0
VERTEX
8
CUT
10
108.000
20
205.000
0
VERTEX
8
CUT
10
108.000
20
221.000
0
VERTEX
8
CUT
10
84.000
20
221.000
0
SEQEND
8
CUT
0
POLYLINE
8
CUT
66
1
70
1
0
VERTEX
8
CUT
10
99.090
20
212.170
0
VERTEX
8
CUT
10
98.770
20
211.400
0
VERTEX
8
CUT
10
98.260
20
210.740
0
VERTEX
8
CUT
10
97.600
20
210.230
0
VERTEX
8
CUT
10
96.830
20
209.910
0
VERTEX
8
CUT
10
96.000
20
209.800
0
VERTEX
8
CUT
10
95.170
20
209.910
0
VERTEX
8
CUT
10
94.400
20
210.230
0
VERTEX
8
CUT
10
93.740
20
210.740
0
VERTEX
8
CUT
10
93.230
20
211.400
0
VERTEX
8
CUT
10
92.910
20
212.170
0
VERTEX
8
CUT
10
92.800
20
213.000
0
VERTEX
8
CUT
10
92.910
20
213.830
0
VERTEX
8
CUT
10
93.230
20
214.600
0
VERTEX
8
CUT
10
93.740
20
215.260
0
VERTEX
8
CUT
10
94.400
20
215.770
0
VERTEX
8
CUT
10
95.170
20
216.090
0
VERTEX
8
CUT
10
96.000
20
216.200
0
VERTEX
8
CUT
10
96.830
20
216.090
0
VERTEX
8
CUT
10
97.600
20
215.770
0
VERTEX
8
CUT
10
98.260
20
215.260
0
VERTEX
8
CUT
10
98.770
20
214.600
0
VERTEX
8
CUT
10
99.090
20
213.830
0
VERTEX
8
CUT
10
99.200
20
213.000
0
SEQEND
8
CUT
0
POLYLINE
8
CUT
66
1
70
1
0
VERTEX
8
CUT
10
112.000
20
205.000
0
VERTEX
8
CUT
10
136.000
20
205.000
0
VERTEX
8
CUT
10
136.000
20
221.000
0
VERTEX
8
CUT
10
112.000
20
221.000
0
SEQEND
8
CUT
0
POLYLINE
8
CUT
66
1
70
1
0
VERTEX
8
CUT
10
127.090
20
212.170
0
VERTEX
8
CUT
10
126.770
20
211.400
0
VERTEX
8
CUT
10
126.260
20
210.740
0
VERTEX
8
CUT
10
125.600
20
210.230
0
VERTEX
8
CUT
10
124.830
20
209.910
0
VERTEX
8
CUT
10
124.000
20
209.800
0
VERTEX
8
CUT
10
123.170
20
209.910
0
VERTEX
8
CUT
10
122.400
20
210.230
0
VERTEX
8
CUT
10
121.740
20
210.740
0
VERTEX
8
CUT
10
121.230
20
211.400
0
VERTEX
8
CUT
10
120.910
20
212.170
0
VERTEX
8
CUT
10
120.800
20
213.000
0
VERTEX
8
CUT
10
120.910
20
213.830
0
VERTEX
8
CUT
10
121.230
20
214.600
0
VERTEX
8
CUT
10
121.740
20
215.260
0
VERTEX
8
CUT
10
122.400
20
215.770
0
VERTEX
8
CUT
10
123.170
20
216.090
0
VERTEX
8
CUT
10
124.000
20
216.200
0
VERTEX
8
CUT
10
124.830
20
216.090
0
VERTEX
8
CUT
10
125.600
20
215.770
0
VERTEX
8
CUT
10
126.260
20
215.260
0
VERTEX
8
CUT
10
126.770
20
214.600
0
VERTEX
8
CUT
10
127.090
20
213.830
0
VERTEX
8
CUT
10
127.200
20
213.000
0
SEQEND
8
CUT
0
POLYLINE
8
CUT
66
1
70
1
0
VERTEX
8
CUT
10
140.000
20
205.000
0
VERTEX
8
CUT
10
164.000
20
205.000
0
VERTEX
8
CUT
10
164.000
20
221.000
0
VERTEX
8
CUT
10
140.000
20
221.000
0
SEQEND
8
CUT
0
POLYLINE
8
CUT
66
1
70
1
0
VERTEX
8
CUT
10
155.090
20
212.170
0
VERTEX
8
CUT
10
154.770
20
211.400
0
VERTEX
8
CUT
10
154.260
20
210.740
0
VERTEX
8
CUT
10
153.600
20
210.230
0
VERTEX
8
CUT
10
152.830
20
209.910
0
VERTEX
8
CUT
10
152.000
20
209.800
0
VERTEX
8
CUT
10
151.170
20
209.910
0
VERTEX
8
CUT
10
150.400
20
210.230
0
VERTEX
8
CUT
10
149.740
20
210.740
0
VERTEX
8
CUT
10
149.230
20
211.400
0
VERTEX
8
CUT
10
148.910
20
212.170
0
VERTEX
8
CUT
10
148.800
20
213.000
0
VERTEX
8
CUT
10
148.910
20
213.830
0
VERTEX
8
CUT
10
149.230
20
214.600
0
VERTEX
8
CUT
10
149.740
20
215.260
0
VERTEX
8
CUT
10
150.400
20
215.770
0
VERTEX
8
CUT
10
151.170
20
216.090
0
VERTEX
8
CUT
10
152.000
20
216.200
0
VERTEX
8
CUT
10
152.830
20
216.090
0
VERTEX
8
CUT
10
153.600
20
215.770
0
VERTEX
8
CUT
10
154.260
20
215.260
0
VERTEX
8
CUT
10
154.770
20
214.600
0
VERTEX
8
CUT
10
155.090
20
213.830
0
VERTEX
8
CUT
10
155.200
20
213.000
0
SEQEND
8
CUT
0
POLYLINE
8
CUT
66
1
70
1
0
VERTEX
8
CUT
10
168.000
20
205.000
0
VERTEX
8
CUT
10
188.000
20
205.000
0
VERTEX
8
CUT
10
188.000
20
221.000
0
VERTEX
8
CUT
10
168.000
20
221.000
0
SEQEND
8
CUT
0
POLYLINE
8
CUT
66
1
70
1
0
VERTEX
8
CUT
10
8.000
20
184.000
0
VERTEX
8
CUT
10
36.000
20
184.000
0
VERTEX
8
CUT
10
36.000
20
197.000
0
VERTEX
8
CUT
10
8.000
20
197.000
0
SEQEND
8
CUT
0
POLYLINE
8
CUT
66
1
70
1
0
VERTEX
8
CUT
10
40.000
20
184.000
0
VERTEX
8
CUT
10
68.000
20
184.000
0
VERTEX
8
CUT
10
68.000
20
197.000
0
VERTEX
8
CUT
10
40.000
20
197.000
0
SEQEND
8
CUT
0
POLYLINE
8
CUT
66
1
70
1
0
VERTEX
8
CUT
10
72.000
20
190.000
0
VERTEX
8
CUT
10
90.000
20
190.000
0
VERTEX
8
CUT
10
90.000
20
197.000
0
VERTEX
8
CUT
10
72.000
20
197.000
0
SEQEND
8
CUT
0
POLYLINE
8
CUT
66
1
70
1
0
VERTEX
8
CUT
10
94.000
20
191.000
0
VERTEX
8
CUT
10
100.000
20
191.000
0
VERTEX
8
CUT
10
100.000
20
197.000
0
VERTEX
8
CUT
10
94.000
20
197.000
0
SEQEND
8
CUT
0
POLYLINE
8
CUT
66
1
70
1
0
VERTEX
8
CUT
10
104.000
20
191.000
0
VERTEX
8
CUT
10
110.000
20
191.000
0
VERTEX
8
CUT
10
110.000
20
197.000
0
VERTEX
8
CUT
10
104.000
20
197.000
0
SEQEND
8
CUT
0
POLYLINE
8
CUT
66
1
70
1
0
VERTEX
8
CUT
10
114.000
20
194.000
0
VERTEX
8
CUT
10
120.000
20
194.000
0
VERTEX
8
CUT
10
120.000
20
197.000
0
VERTEX
8
CUT
10
114.000
20
197.000
0
SEQEND
8
CUT
0
ENDSEC
0
EOF
