0
SECTION
2
ENTITIES
0
POLYLINE
8
CUT
66
1
70
1
0
VERTEX
8
CUT
10
8.000
20
172.000
0
VERTEX
8
CUT
10
47.000
20
172.000
0
VERTEX
8
CUT
10
47.000
20
289.000
0
VERTEX
8
CUT
10
37.000
20
289.000
0
VERTEX
8
CUT
10
37.000
20
178.000
0
VERTEX
8
CUT
10
8.000
20
178.000
0
SEQEND
8
CUT
0
POLYLINE
8
CUT
66
1
70
1
0
VERTEX
8
CUT
10
51.000
20
172.000
0
VERTEX
8
CUT
10
90.000
20
172.000
0
VERTEX
8
CUT
10
90.000
20
289.000
0
VERTEX
8
CUT
10
80.000
20
289.000
0
VERTEX
8
CUT
10
80.000
20
178.000
0
VERTEX
8
CUT
10
51.000
20
178.000
0
SEQEND
8
CUT
0
POLYLINE
8
CUT
66
1
70
1
0
VERTEX
8
CUT
10
8.000
20
54.000
0
VERTEX
8
CUT
10
188.000
20
54.000
0
VERTEX
8
CUT
10
188.000
20
168.000
0
VERTEX
8
CUT
10
8.000
20
168.000
0
SEQEND
8
CUT
0
POLYLINE
8
CUT
66
1
70
1
0
VERTEX
8
CUT
10
93.940
20
105.200
0
VERTEX
8
CUT
10
93.480
20
104.520
0
VERTEX
8
CUT
10
92.800
20
104.060
0
VERTEX
8
CUT
10
92.000
20
103.900
0
VERTEX
8
CUT
10
91.200
20
104.060
0
VERTEX
8
CUT
10
90.520
20
104.520
0
VERTEX
8
CUT
10
90.060
20
105.200
0
VERTEX
8
CUT
10
89.900
20
106.000
0
VERTEX
8
CUT
10
90.060
20
106.800
0
VERTEX
8
CUT
10
90.520
20
107.480
0
VERTEX
8
CUT
10
91.200
20
107.940
0
VERTEX
8
CUT
10
92.000
20
108.100
0
VERTEX
8
CUT
10
92.800
20
107.940
0
VERTEX
8
CUT
10
93.480
20
107.480
0
VERTEX
8
CUT
10
93.940
20
106.800
0
VERTEX
8
CUT
10
94.100
20
106.000
0
SEQEND
8
CUT
0
POLYLINE
8
CUT
66
1
70
1
0
VERTEX
8
CUT
10
121.940
20
121.200
0
VERTEX
8
CUT
10
121.480
20
120.520
0
VERTEX
8
CUT
10
120.800
20
120.060
0
VERTEX
8
CUT
10
120.000
20
119.900
0
VERTEX
8
CUT
10
119.200
20
120.060
0
VERTEX
8
CUT
10
118.520
20
120.520
0
VERTEX
8
CUT
10
118.060
20
121.200
0
VERTEX
8
CUT
10
117.900
20
122.000
0
VERTEX
8
CUT
10
118.060
20
122.800
0
VERTEX
8
CUT
10
118.520
20
123.480
0
VERTEX
8
CUT
10
119.200
20
123.940
0
VERTEX
8
CUT
10
120.000
20
124.100
0
VERTEX
8
CUT
10
120.800
20
123.940
0
VERTEX
8
CUT
10
121.480
20
123.480
0
VERTEX
8
CUT
10
121.940
20
122.800
0
VERTEX
8
CUT
10
122.100
20
122.000
0
SEQEND
8
CUT
0
ENDSEC
0
EOF
