0
SECTION
2
ENTITIES
0
POLYLINE
8
CUT
66
1
70
1
0
VERTEX
8
CUT
10
8.000
20
257.000
0
VERTEX
8
CUT
10
16.000
20
257.000
0
VERTEX
8
CUT
10
16.000
20
289.000
0
VERTEX
8
CUT
10
8.000
20
289.000
0
SEQEND
8
CUT
0
POLYLINE
8
CUT
66
1
70
1
0
VERTEX
8
CUT
10
9.800
20
286.000
0
VERTEX
8
CUT
10
14.200
20
286.000
0
VERTEX
8
CUT
10
14.200
20
263.000
0
VERTEX
8
CUT
10
9.800
20
263.000
0
SEQEND
8
CUT
0
POLYLINE
8
CUT
66
1
70
1
0
VERTEX
8
CUT
10
20.000
20
257.000
0
VERTEX
8
CUT
10
28.000
20
257.000
0
VERTEX
8
CUT
10
28.000
20
289.000
0
VERTEX
8
CUT
10
20.000
20
289.000
0
SEQEND
8
CUT
0
POLYLINE
8
CUT
66
1
70
1
0
VERTEX
8
CUT
10
21.800
20
286.000
0
VERTEX
8
CUT
10
26.200
20
286.000
0
VERTEX
8
CUT
10
26.200
20
263.000
0
VERTEX
8
CUT
10
21.800
20
263.000
0
SEQEND
8
CUT
0
POLYLINE
8
CUT
66
1
70
1
0
VERTEX
8
CUT
10
32.000
20
258.000
0
VERTEX
8
CUT
10
72.000
20
258.000
0
VERTEX
8
CUT
10
72.000
20
289.000
0
VERTEX
8
CUT
10
32.000
20
289.000
0
SEQEND
8
CUT
0
POLYLINE
8
CUT
66
1
70
1
0
VERTEX
8
CUT
10
38.200
20
287.000
0
VERTEX
8
CUT
10
49.800
20
287.000
0
VERTEX
8
CUT
10
49.800
20
277.000
0
VERTEX
8
CUT
10
38.200
20
277.000
0
SEQEND
8
CUT
0
POLYLINE
8
CUT
66
1
70
1
0
VERTEX
8
CUT
10
38.220
20
262.080
0
VERTEX
8
CUT
10
37.700
20
261.300
0
VERTEX
8
CUT
10
36.920
20
260.780
0
VERTEX
8
CUT
10
36.000
20
260.600
0
VERTEX
8
CUT
10
35.080
20
260.780
0
VERTEX
8
CUT
10
34.300
20
261.300
0
VERTEX
8
CUT
10
33.780
20
262.080
0
VERTEX
8
CUT
10
33.600
20
263.000
0
VERTEX
8
CUT
10
33.780
20
263.920
0
VERTEX
8
CUT
10
34.300
20
264.700
0
VERTEX
8
CUT
10
35.080
20
265.220
0
VERTEX
8
CUT
10
36.000
20
265.400
0
VERTEX
8
CUT
10
36.920
20
265.220
0
VERTEX
8
CUT
10
37.700
20
264.700
0
VERTEX
8
CUT
10
38.220
20
263.920
0
VERTEX
8
CUT
10
38.400
20
263.000
0
SEQEND
8
CUT
0
POLYLINE
8
CUT
66
1
70
1
0
VERTEX
8
CUT
10
70.220
20
282.080
0
VERTEX
8
CUT
10
69.700
20
281.300
0
VERTEX
8
CUT
10
68.920
20
280.780
0
VERTEX
8
CUT
10
68.000
20
280.600
0
VERTEX
8
CUT
10
67.080
20
280.780
0
VERTEX
8
CUT
10
66.300
20
281.300
0
VERTEX
8
CUT
10
65.780
20
282.080
0
VERTEX
8
CUT
10
65.600
20
283.000
0
VERTEX
8
CUT
10
65.780
20
283.920
0
VERTEX
8
CUT
10
66.300
20
284.700
0
VERTEX
8
CUT
10
67.080
20
285.220
0
VERTEX
8
CUT
10
68.000
20
285.400
0
VERTEX
8
CUT
10
68.920
20
285.220
0
VERTEX
8
CUT
10
69.700
20
284.700
0
VERTEX
8
CUT
10
70.220
20
283.920
0
VERTEX
8
CUT
10
70.400
20
283.000
0
SEQEND
8
CUT
0
POLYLINE
8
CUT
66
1
70
1
0
VERTEX
8
CUT
10
106.000
20
274.000
0
VERTEX
8
CUT
10
105.710
20
276.930
0
VERTEX
8
CUT
10
104.860
20
279.740
0
VERTEX
8
CUT
10
103.470
20
282.330
0
VERTEX
8
CUT
10
101.610
20
284.610
0
VERTEX
8
CUT
10
99.330
20
286.470
0
VERTEX
8
CUT
10
96.740
20
287.860
0
VERTEX
8
CUT
10
93.930
20
288.710
0
VERTEX
8
CUT
10
91.000
20
289.000
0
VERTEX
8
CUT
10
88.070
20
288.710
0
VERTEX
8
CUT
10
85.260
20
287.860
0
VERTEX
8
CUT
10
82.670
20
286.470
0
VERTEX
8
CUT
10
80.390
20
284.610
0
VERTEX
8
CUT
10
78.530
20
282.330
0
VERTEX
8
CUT
10
77.140
20
279.740
0
VERTEX
8
CUT
10
76.290
20
276.930
0
VERTEX
8
CUT
10
76.000
20
274.000
0
VERTEX
8
CUT
10
76.290
20
271.070
0
VERTEX
8
CUT
10
77.140
20
268.260
0
VERTEX
8
CUT
10
78.530
20
265.670
0
VERTEX
8
CUT
10
80.390
20
263.390
0
VERTEX
8
CUT
10
82.670
20
261.530
0
VERTEX
8
CUT
10
85.260
20
260.140
0
VERTEX
8
CUT
10
88.070
20
259.290
0
VERTEX
8
CUT
10
91.000
20
259.000
0
VERTEX
8
CUT
10
93.930
20
259.290
0
VERTEX
8
CUT
10
96.740
20
260.140
0
VERTEX
8
CUT
10
99.330
20
261.530
0
VERTEX
8
CUT
10
101.610
20
263.390
0
VERTEX
8
CUT
10
103.470
20
265.670
0
VERTEX
8
CUT
10
104.860
20
268.260
0
VERTEX
8
CUT
10
105.710
20
271.070
0
SEQEND
8
CUT
0
POLYLINE
8
CUT
66
1
70
1
0
VERTEX
8
CUT
10
86.700
20
277.300
0
VERTEX
8
CUT
10
95.300
20
277.300
0
VERTEX
8
CUT
10
95.300
20
270.700
0
VERTEX
8
CUT
10
86.700
20
270.700
0
SEQEND
8
CUT
0
POLYLINE
8
CUT
66
1
70
1
0
VERTEX
8
CUT
10
140.000
20
274.000
0
VERTEX
8
CUT
10
139.710
20
276.930
0
VERTEX
8
CUT
10
138.860
20
279.740
0
VERTEX
8
CUT
10
137.470
20
282.330
0
VERTEX
8
CUT
10
135.610
20
284.610
0
VERTEX
8
CUT
10
133.330
20
286.470
0
VERTEX
8
CUT
10
130.740
20
287.860
0
VERTEX
8
CUT
10
127.930
20
288.710
0
VERTEX
8
CUT
10
125.000
20
289.000
0
VERTEX
8
CUT
10
122.070
20
288.710
0
VERTEX
8
CUT
10
119.260
20
287.860
0
VERTEX
8
CUT
10
116.670
20
286.470
0
VERTEX
8
CUT
10
114.390
20
284.610
0
VERTEX
8
CUT
10
112.530
20
282.330
0
VERTEX
8
CUT
10
111.140
20
279.740
0
VERTEX
8
CUT
10
110.290
20
276.930
0
VERTEX
8
CUT
10
110.000
20
274.000
0
VERTEX
8
CUT
10
110.290
20
271.070
0
VERTEX
8
CUT
10
111.140
20
268.260
0
VERTEX
8
CUT
10
112.530
20
265.670
0
VERTEX
8
CUT
10
114.390
20
263.390
0
VERTEX
8
CUT
10
116.670
20
261.530
0
VERTEX
8
CUT
10
119.260
20
260.140
0
VERTEX
8
CUT
10
122.070
20
259.290
0
VERTEX
8
CUT
10
125.000
20
259.000
0
VERTEX
8
CUT
10
127.930
20
259.290
0
VERTEX
8
CUT
10
130.740
20
260.140
0
VERTEX
8
CUT
10
133.330
20
261.530
0
VERTEX
8
CUT
10
135.610
20
263.390
0
VERTEX
8
CUT
10
137.470
20
265.670
0
VERTEX
8
CUT
10
138.860
20
268.260
0
VERTEX
8
CUT
10
139.710
20
271.070
0
SEQEND
8
CUT
0
POLYLINE
8
CUT
66
1
70
1
0
VERTEX
8
CUT
10
120.700
20
277.300
0
VERTEX
8
CUT
10
129.300
20
277.300
0
VERTEX
8
CUT
10
129.300
20
270.700
0
VERTEX
8
CUT
10
120.700
20
270.700
0
SEQEND
8
CUT
0
POLYLINE
8
CUT
66
1
70
1
0
VERTEX
8
CUT
10
146.750
20
287.000
0
VERTEX
8
CUT
10
148.700
20
287.560
0
VERTEX
8
CUT
10
151.200
20
288.020
0
VERTEX
8
CUT
10
154.140
20
288.370
0
VERTEX
8
CUT
10
157.370
20
288.620
0
VERTEX
8
CUT
10
160.780
20
288.810
0
VERTEX
8
CUT
10
164.230
20
288.920
0
VERTEX
8
CUT
10
167.600
20
288.980
0
VERTEX
8
CUT
10
170.750
20
289.000
0
VERTEX
8
CUT
10
173.900
20
288.980
0
VERTEX
8
CUT
10
177.270
20
288.920
0
VERTEX
8
CUT
10
180.720
20
288.810
0
VERTEX
8
CUT
10
184.120
20
288.620
0
VERTEX
8
CUT
10
187.360
20
288.370
0
VERTEX
8
CUT
10
190.300
20
288.020
0
VERTEX
8
CUT
10
192.800
20
287.560
0
VERTEX
8
CUT
10
194.750
20
287.000
0
VERTEX
8
CUT
10
196.090
20
286.300
0
VERTEX
8
CUT
10
196.940
20
285.470
0
VERTEX
8
CUT
10
197.370
20
284.530
0
VERTEX
8
CUT
10
197.500
20
283.500
0
VERTEX
8
CUT
10
197.410
20
282.410
0
VERTEX
8
CUT
10
197.190
20
281.280
0
VERTEX
8
CUT
10
196.940
20
280.140
0
VERTEX
8
CUT
10
196.750
20
279.000
0
VERTEX
8
CUT
10
196.580
20
277.830
0
VERTEX
8
CUT
10
196.310
20
276.570
0
VERTEX
8
CUT
10
195.950
20
275.260
0
VERTEX
8
CUT
10
195.500
20
273.940
0
VERTEX
8
CUT
10
194.950
20
272.620
0
VERTEX
8
CUT
10
194.310
20
271.340
0
VERTEX
8
CUT
10
193.580
20
270.120
0
VERTEX
8
CUT
10
192.750
20
269.000
0
VERTEX
8
CUT
10
191.800
20
267.950
0
VERTEX
8
CUT
10
190.720
20
266.920
0
VERTEX
8
CUT
10
189.530
20
265.940
0
VERTEX
8
CUT
10
188.250
20
265.000
0
VERTEX
8
CUT
10
186.910
20
264.130
0
VERTEX
8
CUT
10
185.530
20
263.330
0
VERTEX
8
CUT
10
184.140
20
262.620
0
VERTEX
8
CUT
10
182.750
20
262.000
0
VERTEX
8
CUT
10
181.350
20
261.480
0
VERTEX
8
CUT
10
179.890
20
261.050
0
VERTEX
8
CUT
10
178.400
20
260.710
0
VERTEX
8
CUT
10
176.870
20
260.440
0
VERTEX
8
CUT
10
175.340
20
260.240
0
VERTEX
8
CUT
10
173.800
20
260.100
0
VERTEX
8
CUT
10
172.260
20
260.020
0
VERTEX
8
CUT
10
170.750
20
260.000
0
VERTEX
8
CUT
10
169.240
20
260.020
0
VERTEX
8
CUT
10
167.700
20
260.100
0
VERTEX
8
CUT
10
166.160
20
260.240
0
VERTEX
8
CUT
10
164.620
20
260.440
0
VERTEX
8
CUT
10
163.100
20
260.710
0
VERTEX
8
CUT
10
161.610
20
261.050
0
VERTEX
8
CUT
10
160.150
20
261.480
0
VERTEX
8
CUT
10
158.750
20
262.000
0
VERTEX
8
CUT
10
157.360
20
262.620
0
VERTEX
8
CUT
10
155.970
20
263.330
0
VERTEX
8
CUT
10
154.590
20
264.130
0
VERTEX
8
CUT
10
153.250
20
265.000
0
VERTEX
8
CUT
10
151.970
20
265.940
0
VERTEX
8
CUT
10
150.780
20
266.920
0
VERTEX
8
CUT
10
149.700
20
267.950
0
VERTEX
8
CUT
10
148.750
20
269.000
0
VERTEX
8
CUT
10
147.920
20
270.120
0
VERTEX
8
CUT
10
147.190
20
271.340
0
VERTEX
8
CUT
10
146.550
20
272.620
0
VERTEX
8
CUT
10
146.000
20
273.940
0
VERTEX
8
CUT
10
145.550
20
275.260
0
VERTEX
8
CUT
10
145.190
20
276.570
0
VERTEX
8
CUT
10
144.920
20
277.830
0
VERTEX
8
CUT
10
144.750
20
279.000
0
VERTEX
8
CUT
10
144.560
20
280.140
0
VERTEX
8
CUT
10
144.310
20
281.280
0
VERTEX
8
CUT
10
144.090
20
282.410
0
VERTEX
8
CUT
10
144.000
20
283.500
0
VERTEX
8
CUT
10
144.120
20
284.530
0
VERTEX
8
CUT
10
144.560
20
285.470
0
VERTEX
8
CUT
10
145.410
20
286.300
0
VERTEX
8
CUT
10
146.750
20
287.000
0
SEQEND
8
CUT
0
POLYLINE
8
CUT
66
1
70
1
0
VERTEX
8
CUT
10
10.750
20
251.000
0
VERTEX
8
CUT
10
12.700
20
251.560
0
VERTEX
8
CUT
10
15.200
20
252.020
0
VERTEX
8
CUT
10
18.140
20
252.370
0
VERTEX
8
CUT
10
21.370
20
252.620
0
VERTEX
8
CUT
10
24.780
20
252.810
0
VERTEX
8
CUT
10
28.230
20
252.920
0
VERTEX
8
CUT
10
31.600
20
252.980
0
VERTEX
8
CUT
10
34.750
20
253.000
0
VERTEX
8
CUT
10
37.900
20
252.980
0
VERTEX
8
CUT
10
41.270
20
252.920
0
VERTEX
8
CUT
10
44.720
20
252.810
0
VERTEX
8
CUT
10
48.120
20
252.620
0
VERTEX
8
CUT
10
51.360
20
252.370
0
VERTEX
8
CUT
10
54.300
20
252.020
0
VERTEX
8
CUT
10
56.800
20
251.560
0
VERTEX
8
CUT
10
58.750
20
251.000
0
VERTEX
8
CUT
10
60.090
20
250.300
0
VERTEX
8
CUT
10
60.940
20
249.470
0
VERTEX
8
CUT
10
61.370
20
248.530
0
VERTEX
8
CUT
10
61.500
20
247.500
0
VERTEX
8
CUT
10
61.410
20
246.410
0
VERTEX
8
CUT
10
61.190
20
245.280
0
VERTEX
8
CUT
10
60.940
20
244.140
0
VERTEX
8
CUT
10
60.750
20
243.000
0
VERTEX
8
CUT
10
60.580
20
241.830
0
VERTEX
8
CUT
10
60.310
20
240.570
0
VERTEX
8
CUT
10
59.950
20
239.260
0
VERTEX
8
CUT
10
59.500
20
237.940
0
VERTEX
8
CUT
10
58.950
20
236.620
0
VERTEX
8
CUT
10
58.310
20
235.340
0
VERTEX
8
CUT
10
57.580
20
234.120
0
VERTEX
8
CUT
10
56.750
20
233.000
0
VERTEX
8
CUT
10
55.800
20
231.950
0
VERTEX
8
CUT
10
54.720
20
230.920
0
VERTEX
8
CUT
10
53.530
20
229.940
0
VERTEX
8
CUT
10
52.250
20
229.000
0
VERTEX
8
CUT
10
50.910
20
228.130
0
VERTEX
8
CUT
10
49.530
20
227.330
0
VERTEX
8
CUT
10
48.140
20
226.620
0
VERTEX
8
CUT
10
46.750
20
226.000
0
VERTEX
8
CUT
10
45.350
20
225.480
0
VERTEX
8
CUT
10
43.890
20
225.050
0
VERTEX
8
CUT
10
42.400
20
224.710
0
VERTEX
8
CUT
10
40.870
20
224.440
0
VERTEX
8
CUT
10
39.340
20
224.240
0
VERTEX
8
CUT
10
37.800
20
224.100
0
VERTEX
8
CUT
10
36.260
20
224.020
0
VERTEX
8
CUT
10
34.750
20
224.000
0
VERTEX
8
CUT
10
33.240
20
224.020
0
VERTEX
8
CUT
10
31.700
20
224.100
0
VERTEX
8
CUT
10
30.160
20
224.240
0
VERTEX
8
CUT
10
28.620
20
224.440
0
VERTEX
8
CUT
10
27.100
20
224.710
0
VERTEX
8
CUT
10
25.610
20
225.050
0
VERTEX
8
CUT
10
24.150
20
225.480
0
VERTEX
8
CUT
10
22.750
20
226.000
0
VERTEX
8
CUT
10
21.360
20
226.620
0
VERTEX
8
CUT
10
19.970
20
227.330
0
VERTEX
8
CUT
10
18.590
20
228.130
0
VERTEX
8
CUT
10
17.250
20
229.000
0
VERTEX
8
CUT
10
15.970
20
229.940
0
VERTEX
8
CUT
10
14.780
20
230.920
0
VERTEX
8
CUT
10
13.700
20
231.950
0
VERTEX
8
CUT
10
12.750
20
233.000
0
VERTEX
8
CUT
10
11.920
20
234.120
0
VERTEX
8
CUT
10
11.190
20
235.340
0
VERTEX
8
CUT
10
10.550
20
236.620
0
VERTEX
8
CUT
10
10.000
20
237.940
0
VERTEX
8
CUT
10
9.550
20
239.260
0
VERTEX
8
CUT
10
9.190
20
240.570
0
VERTEX
8
CUT
10
8.920
20
241.830
0
VERTEX
8
CUT
10
8.750
20
243.000
0
VERTEX
8
CUT
10
8.560
20
244.140
0
VERTEX
8
CUT
10
8.310
20
245.280
0
VERTEX
8
CUT
10
8.090
20
246.410
0
VERTEX
8
CUT
10
8.000
20
247.500
0
VERTEX
8
CUT
10
8.120
20
248.530
0
VERTEX
8
CUT
10
8.560
20
249.470
0
VERTEX
8
CUT
10
9.410
20
250.300
0
VERTEX
8
CUT
10
10.750
20
251.000
0
SEQEND
8
CUT
0
POLYLINE
8
CUT
66
1
70
1
0
VERTEX
8
CUT
10
65.500
20
227.000
0
VERTEX
8
CUT
10
93.500
20
227.000
0
VERTEX
8
CUT
10
93.500
20
253.000
0
VERTEX
8
CUT
10
65.500
20
253.000
0
SEQEND
8
CUT
0
POLYLINE
8
CUT
66
1
70
1
0
VERTEX
8
CUT
10
97.500
20
227.000
0
VERTEX
8
CUT
10
117.500
20
227.000
0
VERTEX
8
CUT
10
117.500
20
253.000
0
VERTEX
8
CUT
10
97.500
20
253.000
0
SEQEND
8
CUT
0
POLYLINE
8
CUT
66
1
70
1
0
VERTEX
8
CUT
10
157.500
20
241.000
0
VERTEX
8
CUT
10
157.340
20
242.870
0
VERTEX
8
CUT
10
156.850
20
244.690
0
VERTEX
8
CUT
10
156.070
20
246.390
0
VERTEX
8
CUT
10
155.040
20
247.920
0
VERTEX
8
CUT
10
153.790
20
249.250
0
VERTEX
8
CUT
10
152.390
20
250.360
0
VERTEX
8
CUT
10
150.880
20
251.250
0
VERTEX
8
CUT
10
149.330
20
251.910
0
VERTEX
8
CUT
10
147.770
20
252.390
0
VERTEX
8
CUT
10
146.250
20
252.690
0
VERTEX
8
CUT
10
144.780
20
252.870
0
VERTEX
8
CUT
10
143.390
20
252.960
0
VERTEX
8
CUT
10
142.050
20
252.990
0
VERTEX
8
CUT
10
140.760
20
253.000
0
VERTEX
8
CUT
10
139.500
20
253.000
0
VERTEX
8
CUT
10
138.240
20
253.000
0
VERTEX
8
CUT
10
136.950
20
252.990
0
VERTEX
8
CUT
10
135.610
20
252.960
0
VERTEX
8
CUT
10
134.220
20
252.870
0
VERTEX
8
CUT
10
132.750
20
252.690
0
VERTEX
8
CUT
10
131.230
20
252.390
0
VERTEX
8
CUT
10
129.670
20
251.910
0
VERTEX
8
CUT
10
128.120
20
251.250
0
VERTEX
8
CUT
10
126.610
20
250.360
0
VERTEX
8
CUT
10
125.210
20
249.250
0
VERTEX
8
CUT
10
123.960
20
247.920
0
VERTEX
8
CUT
10
122.930
20
246.390
0
VERTEX
8
CUT
10
122.150
20
244.690
0
VERTEX
8
CUT
10
121.660
20
242.870
0
VERTEX
8
CUT
10
121.500
20
241.000
0
VERTEX
8
CUT
10
121.660
20
239.130
0
VERTEX
8
CUT
10
122.150
20
237.310
0
VERTEX
8
CUT
10
122.930
20
235.610
0
VERTEX
8
CUT
10
123.960
20
234.080
0
VERTEX
8
CUT
10
125.210
20
232.750
0
VERTEX
8
CUT
10
126.610
20
231.640
0
VERTEX
8
CUT
10
128.120
20
230.750
0
VERTEX
8
CUT
10
129.670
20
230.090
0
VERTEX
8
CUT
10
131.230
20
229.610
0
VERTEX
8
CUT
10
132.750
20
229.310
0
VERTEX
8
CUT
10
134.220
20
229.130
0
VERTEX
8
CUT
10
135.610
20
229.040
0
VERTEX
8
CUT
10
136.950
20
229.010
0
VERTEX
8
CUT
10
138.240
20
229.000
0
VERTEX
8
CUT
10
139.500
20
229.000
0
VERTEX
8
CUT
10
140.760
20
229.000
0
VERTEX
8
CUT
10
142.050
20
229.010
0
VERTEX
8
CUT
10
143.390
20
229.040
0
VERTEX
8
CUT
10
144.780
20
229.130
0
VERTEX
8
CUT
10
146.250
20
229.310
0
VERTEX
8
CUT
10
147.770
20
229.610
0
VERTEX
8
CUT
10
149.330
20
230.090
0
VERTEX
8
CUT
10
150.880
20
230.750
0
VERTEX
8
CUT
10
152.390
20
231.640
0
VERTEX
8
CUT
10
153.790
20
232.750
0
VERTEX
8
CUT
10
155.040
20
234.080
0
VERTEX
8
CUT
10
156.070
20
235.610
0
VERTEX
8
CUT
10
156.850
20
237.310
0
VERTEX
8
CUT
10
157.340
20
239.130
0
SEQEND
8
CUT
0
POLYLINE
8
CUT
66
1
70
1
0
VERTEX
8
CUT
10
142.350
20
240.070
0
VERTEX
8
CUT
10
141.930
20
239.240
0
VERTEX
8
CUT
10
141.260
20
238.570
0
VERTEX
8
CUT
10
140.430
20
238.150
0
VERTEX
8
CUT
10
139.500
20
238.000
0
VERTEX
8
CUT
10
138.570
20
238.150
0
VERTEX
8
CUT
10
137.740
20
238.570
0
VERTEX
8
CUT
10
137.070
20
239.240
0
VERTEX
8
CUT
10
136.650
20
240.070
0
VERTEX
8
CUT
10
136.500
20
241.000
0
VERTEX
8
CUT
10
136.650
20
241.930
0
VERTEX
8
CUT
10
137.070
20
242.760
0
VERTEX
8
CUT
10
137.740
20
243.430
0
VERTEX
8
CUT
10
138.570
20
243.850
0
VERTEX
8
CUT
10
139.500
20
244.000
0
VERTEX
8
CUT
10
140.430
20
243.850
0
VERTEX
8
CUT
10
141.260
20
243.430
0
VERTEX
8
CUT
10
141.930
20
242.760
0
VERTEX
8
CUT
10
142.350
20
241.930
0
VERTEX
8
CUT
10
142.500
20
241.000
0
SEQEND
8
CUT
0
POLYLINE
8
CUT
66
1
70
1
0
VERTEX
8
CUT
10
185.500
20
241.000
0
VERTEX
8
CUT
10
185.400
20
242.570
0
VERTEX
8
CUT
10
185.090
20
244.110
0
VERTEX
8
CUT
10
184.590
20
245.590
0
VERTEX
8
CUT
10
183.890
20
247.000
0
VERTEX
8
CUT
10
183.020
20
248.310
0
VERTEX
8
CUT
10
181.990
20
249.490
0
VERTEX
8
CUT
10
180.810
20
250.520
0
VERTEX
8
CUT
10
179.500
20
251.390
0
VERTEX
8
CUT
10
178.090
20
252.090
0
VERTEX
8
CUT
10
176.610
20
252.590
0
VERTEX
8
CUT
10
175.070
20
252.900
0
VERTEX
8
CUT
10
173.500
20
253.000
0
VERTEX
8
CUT
10
171.930
20
252.900
0
VERTEX
8
CUT
10
170.390
20
252.590
0
VERTEX
8
CUT
10
168.910
20
252.090
0
VERTEX
8
CUT
10
167.500
20
251.390
0
VERTEX
8
CUT
10
166.190
20
250.520
0
VERTEX
8
CUT
10
165.010
20
249.490
0
VERTEX
8
CUT
10
163.980
20
248.310
0
VERTEX
8
CUT
10
163.110
20
247.000
0
VERTEX
8
CUT
10
162.410
20
245.590
0
VERTEX
8
CUT
10
161.910
20
244.110
0
VERTEX
8
CUT
10
161.600
20
242.570
0
VERTEX
8
CUT
10
161.500
20
241.000
0
VERTEX
8
CUT
10
161.600
20
239.430
0
VERTEX
8
CUT
10
161.910
20
237.890
0
VERTEX
8
CUT
10
162.410
20
236.410
0
VERTEX
8
CUT
10
163.110
20
235.000
0
VERTEX
8
CUT
10
163.980
20
233.690
0
VERTEX
8
CUT
10
165.010
20
232.510
0
VERTEX
8
CUT
10
166.190
20
231.480
0
VERTEX
8
CUT
10
167.500
20
230.610
0
VERTEX
8
CUT
10
168.910
20
229.910
0
VERTEX
8
CUT
10
170.390
20
229.410
0
VERTEX
8
CUT
10
171.930
20
229.100
0
VERTEX
8
CUT
10
173.500
20
229.000
0
VERTEX
8
CUT
10
175.070
20
229.100
0
VERTEX
8
CUT
10
176.610
20
229.410
0
VERTEX
8
CUT
10
178.090
20
229.910
0
VERTEX
8
CUT
10
179.500
20
230.610
0
VERTEX
8
CUT
10
180.810
20
231.480
0
VERTEX
8
CUT
10
181.990
20
232.510
0
VERTEX
8
CUT
10
183.020
20
233.690
0
VERTEX
8
CUT
10
183.890
20
235.000
0
VERTEX
8
CUT
10
184.590
20
236.410
0
VERTEX
8
CUT
10
185.090
20
237.890
0
VERTEX
8
CUT
10
185.400
20
239.430
0
SEQEND
8
CUT
0
POLYLINE
8
CUT
66
1
70
1
0
VERTEX
8
CUT
10
176.350
20
236.070
0
VERTEX
8
CUT
10
175.930
20
235.240
0
VERTEX
8
CUT
10
175.260
20
234.570
0
VERTEX
8
CUT
10
174.430
20
234.150
0
VERTEX
8
CUT
10
173.500
20
234.000
0
VERTEX
8
CUT
10
172.570
20
234.150
0
VERTEX
8
CUT
10
171.740
20
234.570
0
VERTEX
8
CUT
10
171.070
20
235.240
0
VERTEX
8
CUT
10
170.650
20
236.070
0
VERTEX
8
CUT
10
170.500
20
237.000
0
VERTEX
8
CUT
10
170.650
20
237.930
0
VERTEX
8
CUT
10
171.070
20
238.760
0
VERTEX
8
CUT
10
171.740
20
239.430
0
VERTEX
8
CUT
10
172.570
20
239.850
0
VERTEX
8
CUT
10
173.500
20
240.000
0
VERTEX
8
CUT
10
174.430
20
239.850
0
VERTEX
8
CUT
10
175.260
20
239.430
0
VERTEX
8
CUT
10
175.930
20
238.760
0
VERTEX
8
CUT
10
176.350
20
237.930
0
VERTEX
8
CUT
10
176.500
20
237.000
0
SEQEND
8
CUT
0
POLYLINE
8
CUT
66
1
70
1
0
VERTEX
8
CUT
10
28.000
20
210.000
0
VERTEX
8
CUT
10
27.750
20
212.230
0
VERTEX
8
CUT
10
27.010
20
214.340
0
VERTEX
8
CUT
10
25.820
20
216.230
0
VERTEX
8
CUT
10
24.230
20
217.820
0
VERTEX
8
CUT
10
22.340
20
219.010
0
VERTEX
8
CUT
10
20.230
20
219.750
0
VERTEX
8
CUT
10
18.000
20
220.000
0
VERTEX
8
CUT
10
15.770
20
219.750
0
VERTEX
8
CUT
10
13.660
20
219.010
0
VERTEX
8
CUT
10
11.770
20
217.820
0
VERTEX
8
CUT
10
10.180
20
216.230
0
VERTEX
8
CUT
10
8.990
20
214.340
0
VERTEX
8
CUT
10
8.250
20
212.230
0
VERTEX
8
CUT
10
8.000
20
210.000
0
VERTEX
8
CUT
10
8.250
20
207.770
0
VERTEX
8
CUT
10
8.990
20
205.660
0
VERTEX
8
CUT
10
10.180
20
203.770
0
VERTEX
8
CUT
10
11.770
20
202.180
0
VERTEX
8
CUT
10
13.660
20
200.990
0
VERTEX
8
CUT
10
15.770
20
200.250
0
VERTEX
8
CUT
10
18.000
20
200.000
0
VERTEX
8
CUT
10
20.230
20
200.250
0
VERTEX
8
CUT
10
22.340
20
200.990
0
VERTEX
8
CUT
10
24.230
20
202.180
0
VERTEX
8
CUT
10
25.820
20
203.770
0
VERTEX
8
CUT
10
27.010
20
205.660
0
VERTEX
8
CUT
10
27.750
20
207.770
0
SEQEND
8
CUT
0
POLYLINE
8
CUT
66
1
70
1
0
VERTEX
8
CUT
10
13.700
20
213.300
0
VERTEX
8
CUT
10
22.300
20
213.300
0
VERTEX
8
CUT
10
22.300
20
206.700
0
VERTEX
8
CUT
10
13.700
20
206.700
0
SEQEND
8
CUT
0
POLYLINE
8
CUT
66
1
70
1
0
VERTEX
8
CUT
10
52.000
20
210.000
0
VERTEX
8
CUT
10
51.750
20
212.230
0
VERTEX
8
CUT
10
51.010
20
214.340
0
VERTEX
8
CUT
10
49.820
20
216.230
0
VERTEX
8
CUT
10
48.230
20
217.820
0
VERTEX
8
CUT
10
46.340
20
219.010
0
VERTEX
8
CUT
10
44.230
20
219.750
0
VERTEX
8
CUT
10
42.000
20
220.000
0
VERTEX
8
CUT
10
39.770
20
219.750
0
VERTEX
8
CUT
10
37.660
20
219.010
0
VERTEX
8
CUT
10
35.770
20
217.820
0
VERTEX
8
CUT
10
34.180
20
216.230
0
VERTEX
8
CUT
10
32.990
20
214.340
0
VERTEX
8
CUT
10
32.250
20
212.230
0
VERTEX
8
CUT
10
32.000
20
210.000
0
VERTEX
8
CUT
10
32.250
20
207.770
0
VERTEX
8
CUT
10
32.990
20
205.660
0
VERTEX
8
CUT
10
34.180
20
203.770
0
VERTEX
8
CUT
10
35.770
20
202.180
0
VERTEX
8
CUT
10
37.660
20
200.990
0
VERTEX
8
CUT
10
39.770
20
200.250
0
VERTEX
8
CUT
10
42.000
20
200.000
0
VERTEX
8
CUT
10
44.230
20
200.250
0
VERTEX
8
CUT
10
46.340
20
200.990
0
VERTEX
8
CUT
10
48.230
20
202.180
0
VERTEX
8
CUT
10
49.820
20
203.770
0
VERTEX
8
CUT
10
51.010
20
205.660
0
VERTEX
8
CUT
10
51.750
20
207.770
0
SEQEND
8
CUT
0
POLYLINE
8
CUT
66
1
70
1
0
VERTEX
8
CUT
10
37.700
20
213.300
0
VERTEX
8
CUT
10
46.300
20
213.300
0
VERTEX
8
CUT
10
46.300
20
206.700
0
VERTEX
8
CUT
10
37.700
20
206.700
0
SEQEND
8
CUT
0
POLYLINE
8
CUT
66
1
70
1
0
VERTEX
8
CUT
10
56.000
20
204.000
0
VERTEX
8
CUT
10
80.000
20
204.000
0
VERTEX
8
CUT
10
80.000
20
220.000
0
VERTEX
8
CUT
10
56.000
20
220.000
0
SEQEND
8
CUT
0
POLYLINE
8
CUT
66
1
70
1
0
VERTEX
8
CUT
10
71.090
20
211.170
0
VERTEX
8
CUT
10
70.770
20
210.400
0
VERTEX
8
CUT
10
70.260
20
209.740
0
VERTEX
8
CUT
10
69.600
20
209.230
0
VERTEX
8
CUT
10
68.830
20
208.910
0
VERTEX
8
CUT
10
68.000
20
208.800
0
VERTEX
8
CUT
10
67.170
20
208.910
0
VERTEX
8
CUT
10
66.400
20
209.230
0
VERTEX
8
CUT
10
65.740
20
209.740
0
VERTEX
8
CUT
10
65.230
20
210.400
0
VERTEX
8
CUT
10
64.910
20
211.170
0
VERTEX
8
CUT
10
64.800
20
212.000
0
VERTEX
8
CUT
10
64.910
20
212.830
0
VERTEX
8
CUT
10
65.230
20
213.600
0
VERTEX
8
CUT
10
65.740
20
214.260
0
VERTEX
8
CUT
10
66.400
20
214.770
0
VERTEX
8
CUT
10
67.170
20
215.090
0
VERTEX
8
CUT
10
68.000
20
215.200
0
VERTEX
8
CUT
10
68.830
20
215.090
0
VERTEX
8
CUT
10
69.600
20
214.770
0
VERTEX
8
CUT
10
70.260
20
214.260
0
VERTEX
8
CUT
10
70.770
20
213.600
0
VERTEX
8
CUT
10
71.090
20
212.830
0
VERTEX
8
CUT
10
71.200
20
212.000
0
SEQEND
8
CUT
0
POLYLINE
8
CUT
66
1
70
1
0
VERTEX
8
CUT
10
84.000
20
204.000
0
VERTEX
8
CUT
10
108.000
20
204.000
0
VERTEX
8
CUT
10
108.000
20
220.000
0
VERTEX
8
CUT
10
84.000
20
220.000
0
SEQEND
8
CUT
0
POLYLINE
8
CUT
66
1
70
1
0
VERTEX
8
CUT
10
99.090
20
211.170
0
VERTEX
8
CUT
10
98.770
20
210.400
0
VERTEX
8
CUT
10
98.260
20
209.740
0
VERTEX
8
CUT
10
97.600
20
209.230
0
VERTEX
8
CUT
10
96.830
20
208.910
0
VERTEX
8
CUT
10
96.000
20
208.800
0
VERTEX
8
CUT
10
95.170
20
208.910
0
VERTEX
8
CUT
10
94.400
20
209.230
0
VERTEX
8
CUT
10
93.740
20
209.740
0
VERTEX
8
CUT
10
93.230
20
210.400
0
VERTEX
8
CUT
10
92.910
20
211.170
0
VERTEX
8
CUT
10
92.800
20
212.000
0
VERTEX
8
CUT
10
92.910
20
212.830
0
VERTEX
8
CUT
10
93.230
20
213.600
0
VERTEX
8
CUT
10
93.740
20
214.260
0
VERTEX
8
CUT
10
94.400
20
214.770
0
VERTEX
8
CUT
10
95.170
20
215.090
0
VERTEX
8
CUT
10
96.000
20
215.200
0
VERTEX
8
CUT
10
96.830
20
215.090
0
VERTEX
8
CUT
10
97.600
20
214.770
0
VERTEX
8
CUT
10
98.260
20
214.260
0
VERTEX
8
CUT
10
98.770
20
213.600
0
VERTEX
8
CUT
10
99.090
20
212.830
0
VERTEX
8
CUT
10
99.200
20
212.000
0
SEQEND
8
CUT
0
POLYLINE
8
CUT
66
1
70
1
0
VERTEX
8
CUT
10
112.000
20
204.000
0
VERTEX
8
CUT
10
136.000
20
204.000
0
VERTEX
8
CUT
10
136.000
20
220.000
0
VERTEX
8
CUT
10
112.000
20
220.000
0
SEQEND
8
CUT
0
POLYLINE
8
CUT
66
1
70
1
0
VERTEX
8
CUT
10
127.090
20
211.170
0
VERTEX
8
CUT
10
126.770
20
210.400
0
VERTEX
8
CUT
10
126.260
20
209.740
0
VERTEX
8
CUT
10
125.600
20
209.230
0
VERTEX
8
CUT
10
124.830
20
208.910
0
VERTEX
8
CUT
10
124.000
20
208.800
0
VERTEX
8
CUT
10
123.170
20
208.910
0
VERTEX
8
CUT
10
122.400
20
209.230
0
VERTEX
8
CUT
10
121.740
20
209.740
0
VERTEX
8
CUT
10
121.230
20
210.400
0
VERTEX
8
CUT
10
120.910
20
211.170
0
VERTEX
8
CUT
10
120.800
20
212.000
0
VERTEX
8
CUT
10
120.910
20
212.830
0
VERTEX
8
CUT
10
121.230
20
213.600
0
VERTEX
8
CUT
10
121.740
20
214.260
0
VERTEX
8
CUT
10
122.400
20
214.770
0
VERTEX
8
CUT
10
123.170
20
215.090
0
VERTEX
8
CUT
10
124.000
20
215.200
0
VERTEX
8
CUT
10
124.830
20
215.090
0
VERTEX
8
CUT
10
125.600
20
214.770
0
VERTEX
8
CUT
10
126.260
20
214.260
0
VERTEX
8
CUT
10
126.770
20
213.600
0
VERTEX
8
CUT
10
127.090
20
212.830
0
VERTEX
8
CUT
10
127.200
20
212.000
0
SEQEND
8
CUT
0
POLYLINE
8
CUT
66
1
70
1
0
VERTEX
8
CUT
10
140.000
20
204.000
0
VERTEX
8
CUT
10
164.000
20
204.000
0
VERTEX
8
CUT
10
164.000
20
220.000
0
VERTEX
8
CUT
10
140.000
20
220.000
0
SEQEND
8
CUT
0
POLYLINE
8
CUT
66
1
70
1
0
VERTEX
8
CUT
10
155.090
20
211.170
0
VERTEX
8
CUT
10
154.770
20
210.400
0
VERTEX
8
CUT
10
154.260
20
209.740
0
VERTEX
8
CUT
10
153.600
20
209.230
0
VERTEX
8
CUT
10
152.830
20
208.910
0
VERTEX
8
CUT
10
152.000
20
208.800
0
VERTEX
8
CUT
10
151.170
20
208.910
0
VERTEX
8
CUT
10
150.400
20
209.230
0
VERTEX
8
CUT
10
149.740
20
209.740
0
VERTEX
8
CUT
10
149.230
20
210.400
0
VERTEX
8
CUT
10
148.910
20
211.170
0
VERTEX
8
CUT
10
148.800
20
212.000
0
VERTEX
8
CUT
10
148.910
20
212.830
0
VERTEX
8
CUT
10
149.230
20
213.600
0
VERTEX
8
CUT
10
149.740
20
214.260
0
VERTEX
8
CUT
10
150.400
20
214.770
0
VERTEX
8
CUT
10
151.170
20
215.090
0
VERTEX
8
CUT
10
152.000
20
215.200
0
VERTEX
8
CUT
10
152.830
20
215.090
0
VERTEX
8
CUT
10
153.600
20
214.770
0
VERTEX
8
CUT
10
154.260
20
214.260
0
VERTEX
8
CUT
10
154.770
20
213.600
0
VERTEX
8
CUT
10
155.090
20
212.830
0
VERTEX
8
CUT
10
155.200
20
212.000
0
SEQEND
8
CUT
0
POLYLINE
8
CUT
66
1
70
1
0
VERTEX
8
CUT
10
168.000
20
204.000
0
VERTEX
8
CUT
10
188.000
20
204.000
0
VERTEX
8
CUT
10
188.000
20
220.000
0
VERTEX
8
CUT
10
168.000
20
220.000
0
SEQEND
8
CUT
0
POLYLINE
8
CUT
66
1
70
1
0
VERTEX
8
CUT
10
8.000
20
183.000
0
VERTEX
8
CUT
10
36.000
20
183.000
0
VERTEX
8
CUT
10
36.000
20
196.000
0
VERTEX
8
CUT
10
8.000
20
196.000
0
SEQEND
8
CUT
0
POLYLINE
8
CUT
66
1
70
1
0
VERTEX
8
CUT
10
40.000
20
183.000
0
VERTEX
8
CUT
10
68.000
20
183.000
0
VERTEX
8
CUT
10
68.000
20
196.000
0
VERTEX
8
CUT
10
40.000
20
196.000
0
SEQEND
8
CUT
0
POLYLINE
8
CUT
66
1
70
1
0
VERTEX
8
CUT
10
72.000
20
189.000
0
VERTEX
8
CUT
10
90.000
20
189.000
0
VERTEX
8
CUT
10
90.000
20
196.000
0
VERTEX
8
CUT
10
72.000
20
196.000
0
SEQEND
8
CUT
0
POLYLINE
8
CUT
66
1
70
1
0
VERTEX
8
CUT
10
94.000
20
192.000
0
VERTEX
8
CUT
10
99.000
20
192.000
0
VERTEX
8
CUT
10
99.000
20
196.000
0
VERTEX
8
CUT
10
94.000
20
196.000
0
SEQEND
8
CUT
0
POLYLINE
8
CUT
66
1
70
1
0
VERTEX
8
CUT
10
103.000
20
192.000
0
VERTEX
8
CUT
10
108.000
20
192.000
0
VERTEX
8
CUT
10
108.000
20
196.000
0
VERTEX
8
CUT
10
103.000
20
196.000
0
SEQEND
8
CUT
0
POLYLINE
8
CUT
66
1
70
1
0
VERTEX
8
CUT
10
112.000
20
192.000
0
VERTEX
8
CUT
10
117.000
20
192.000
0
VERTEX
8
CUT
10
117.000
20
196.000
0
VERTEX
8
CUT
10
112.000
20
196.000
0
SEQEND
8
CUT
0
POLYLINE
8
CUT
66
1
70
1
0
VERTEX
8
CUT
10
121.000
20
192.000
0
VERTEX
8
CUT
10
126.000
20
192.000
0
VERTEX
8
CUT
10
126.000
20
196.000
0
VERTEX
8
CUT
10
121.000
20
196.000
0
SEQEND
8
CUT
0
POLYLINE
8
CUT
66
1
70
1
0
VERTEX
8
CUT
10
130.000
20
193.000
0
VERTEX
8
CUT
10
136.000
20
193.000
0
VERTEX
8
CUT
10
136.000
20
196.000
0
VERTEX
8
CUT
10
130.000
20
196.000
0
SEQEND
8
CUT
0
ENDSEC
0
EOF
