<svg xmlns="http://www.w3.org/2000/svg" width="210mm" height="297mm"
     viewBox="0 0 210 297">
  <style>
    polygon{fill:none;stroke:#000;stroke-width:.1}
    .lb{fill:#06c;font:2.6px "Noto Sans TC",sans-serif;text-anchor:middle;dominant-baseline:middle}
    .hd{fill:#06c;font:3.4px sans-serif}
  </style>
  <g stroke="#000" stroke-width=".15" fill="none">
    <path d="M8,285 h50 M8,283 v4 M33,284 v3 M58,283 v4"/>
  </g>
  <text class="hd" style="font-size:2.4px" x="61" y="286">↑ 這段必須剛好 50mm,不對就是印表機縮放了</text>
  <text class="hd" x="8" y="294">骷髏頭凸輪玩具 · 3mm 板 · 1:1 · 第 2/5 張 · 黑線=切割 藍字=刻字</text>
<g><polygon points="8.00,122.00 188.00,122.00 188.00,8.00 8.00,8.00"/><polygon points="58.40,36.00 65.60,36.00 65.60,50.00 58.40,50.00"/><polygon points="74.40,36.00 81.60,36.00 81.60,50.00 74.40,50.00"/><polygon points="128.40,27.00 135.60,27.00 135.60,73.00 128.40,73.00"/><polygon points="108.07,55.14 107.41,57.19 106.33,59.05 104.89,60.65 103.15,61.92 101.18,62.80 99.08,63.24 96.92,63.24 94.82,62.80 92.85,61.92 91.11,60.65 89.67,59.05 88.59,57.19 87.93,55.14 87.70,53.00 87.93,50.86 88.59,48.81 89.67,46.95 91.11,45.35 92.85,44.08 94.82,43.20 96.92,42.76 99.08,42.76 101.18,43.20 103.15,44.08 104.89,45.35 106.33,46.95 107.41,48.81 108.07,50.86 108.30,53.00"/><text class="lb" style="font-size:2.6px" x="98.0" y="65.0">頂板</text></g>
<g><polygon points="42.15,126.00 44.18,126.06 46.24,126.25 48.33,126.56 50.40,127.00 52.44,127.56 54.43,128.25 56.34,129.06 58.15,130.00 59.88,131.08 61.57,132.30 63.21,133.65 64.78,135.13 66.27,136.71 67.67,138.39 68.96,140.16 70.15,142.00 71.24,143.98 72.26,146.13 73.19,148.40 74.02,150.75 74.75,153.13 75.35,155.50 75.82,157.80 76.15,160.00 76.30,162.12 76.26,164.23 76.07,166.32 75.77,168.38 75.40,170.38 74.98,172.33 74.55,174.21 74.15,176.00 73.77,177.71 73.38,179.33 72.97,180.88 72.52,182.38 72.03,183.82 71.48,185.23 70.86,186.62 70.15,188.00 69.33,189.35 68.38,190.64 67.36,191.90 66.27,193.13 65.18,194.34 64.10,195.55 63.08,196.76 62.15,198.00 61.30,199.27 60.51,200.57 59.75,201.88 59.02,203.19 58.31,204.47 57.60,205.71 56.89,206.89 56.15,208.00 55.41,209.05 54.70,210.08 53.99,211.06 53.28,212.00 52.55,212.87 51.79,213.67 51.00,214.38 50.15,215.00 49.25,215.52 48.29,215.95 47.30,216.29 46.28,216.56 45.24,216.76 44.20,216.90 43.16,216.98 42.15,217.00 41.14,216.98 40.10,216.90 39.06,216.76 38.03,216.56 37.00,216.29 36.01,215.95 35.05,215.52 34.15,215.00 33.30,214.38 32.51,213.67 31.75,212.87 31.02,212.00 30.31,211.06 29.60,210.08 28.89,209.05 28.15,208.00 27.41,206.89 26.70,205.71 25.99,204.47 25.28,203.19 24.55,201.88 23.79,200.57 23.00,199.27 22.15,198.00 21.22,196.76 20.20,195.55 19.12,194.34 18.02,193.13 16.94,191.90 15.92,190.64 14.97,189.35 14.15,188.00 13.44,186.62 12.82,185.23 12.27,183.82 11.78,182.38 11.33,180.88 10.92,179.33 10.53,177.71 10.15,176.00 9.75,174.21 9.32,172.33 8.90,170.38 8.53,168.38 8.23,166.32 8.04,164.23 8.00,162.12 8.15,160.00 8.48,157.80 8.95,155.50 9.55,153.13 10.28,150.75 11.11,148.40 12.04,146.13 13.06,143.98 14.15,142.00 15.34,140.16 16.63,138.39 18.03,136.71 19.53,135.13 21.09,133.65 22.73,132.30 24.42,131.08 26.15,130.00 27.96,129.06 29.87,128.25 31.86,127.56 33.90,127.00 35.97,126.56 38.06,126.25 40.12,126.06 42.15,126.00"/><polygon points="40.83,162.63 39.89,165.11 38.38,167.29 36.40,169.05 34.05,170.29 31.48,170.92 28.82,170.92 26.25,170.29 23.90,169.05 21.92,167.29 20.41,165.11 19.47,162.63 19.15,160.00 19.47,157.37 20.41,154.89 21.92,152.71 23.90,150.95 26.25,149.71 28.82,149.08 31.48,149.08 34.05,149.71 36.40,150.95 38.38,152.71 39.89,154.89 40.83,157.37 41.15,160.00"/><polygon points="64.83,162.63 63.89,165.11 62.38,167.29 60.40,169.05 58.05,170.29 55.48,170.92 52.82,170.92 50.25,170.29 47.90,169.05 45.92,167.29 44.41,165.11 43.47,162.63 43.15,160.00 43.47,157.37 44.41,154.89 45.92,152.71 47.90,150.95 50.25,149.71 52.82,149.08 55.48,149.08 58.05,149.71 60.40,150.95 62.38,152.71 63.89,154.89 64.83,157.37 65.15,160.00"/><polygon points="42.15,171.00 48.15,182.00 36.15,182.00"/><polygon points="30.09,186.80 29.63,187.48 28.95,187.94 28.15,188.10 27.35,187.94 26.67,187.48 26.21,186.80 26.05,186.00 26.21,185.20 26.67,184.52 27.35,184.06 28.15,183.90 28.95,184.06 29.63,184.52 30.09,185.20 30.25,186.00"/><polygon points="58.09,186.80 57.63,187.48 56.95,187.94 56.15,188.10 55.35,187.94 54.67,187.48 54.21,186.80 54.05,186.00 54.21,185.20 54.67,184.52 55.35,184.06 56.15,183.90 56.95,184.06 57.63,184.52 58.09,185.20 58.25,186.00"/><polygon points="16.09,166.80 15.63,167.48 14.95,167.94 14.15,168.10 13.35,167.94 12.67,167.48 12.21,166.80 12.05,166.00 12.21,165.20 12.67,164.52 13.35,164.06 14.15,163.90 14.95,164.06 15.63,164.52 16.09,165.20 16.25,166.00"/><polygon points="72.09,166.80 71.63,167.48 70.95,167.94 70.15,168.10 69.35,167.94 68.67,167.48 68.21,166.80 68.05,166.00 68.21,165.20 68.67,164.52 69.35,164.06 70.15,163.90 70.95,164.06 71.63,164.52 72.09,165.20 72.25,166.00"/><text class="lb" style="font-size:2.6px" x="42.2" y="171.5">頭骨主片</text></g>
<g><polygon points="114.45,126.00 116.48,126.06 118.54,126.25 120.63,126.56 122.70,127.00 124.74,127.56 126.73,128.25 128.64,129.06 130.45,130.00 132.18,131.08 133.87,132.30 135.51,133.65 137.08,135.13 138.57,136.71 139.97,138.39 141.26,140.16 142.45,142.00 143.54,143.98 144.56,146.13 145.49,148.40 146.32,150.75 147.05,153.13 147.65,155.50 148.12,157.80 148.45,160.00 148.60,162.12 148.56,164.23 148.37,166.32 148.07,168.38 147.70,170.38 147.28,172.33 146.85,174.21 146.45,176.00 146.07,177.71 145.68,179.33 145.27,180.88 144.82,182.38 144.33,183.82 143.78,185.23 143.16,186.62 142.45,188.00 141.63,189.35 140.68,190.64 139.66,191.90 138.57,193.13 137.48,194.34 136.40,195.55 135.38,196.76 134.45,198.00 133.60,199.27 132.81,200.57 132.05,201.88 131.32,203.19 130.61,204.47 129.90,205.71 129.19,206.89 128.45,208.00 127.71,209.05 127.00,210.08 126.29,211.06 125.58,212.00 124.85,212.87 124.09,213.67 123.30,214.38 122.45,215.00 121.55,215.52 120.59,215.95 119.60,216.29 118.58,216.56 117.54,216.76 116.50,216.90 115.46,216.98 114.45,217.00 113.44,216.98 112.40,216.90 111.36,216.76 110.33,216.56 109.30,216.29 108.31,215.95 107.35,215.52 106.45,215.00 105.60,214.38 104.81,213.67 104.05,212.87 103.32,212.00 102.61,211.06 101.90,210.08 101.19,209.05 100.45,208.00 99.71,206.89 99.00,205.71 98.29,204.47 97.58,203.19 96.85,201.88 96.09,200.57 95.30,199.27 94.45,198.00 93.52,196.76 92.50,195.55 91.42,194.34 90.32,193.13 89.24,191.90 88.22,190.64 87.27,189.35 86.45,188.00 85.74,186.62 85.12,185.23 84.57,183.82 84.08,182.38 83.63,180.88 83.22,179.33 82.83,177.71 82.45,176.00 82.05,174.21 81.62,172.33 81.20,170.38 80.83,168.38 80.53,166.32 80.34,164.23 80.30,162.12 80.45,160.00 80.78,157.80 81.25,155.50 81.85,153.13 82.58,150.75 83.41,148.40 84.34,146.13 85.36,143.98 86.45,142.00 87.64,140.16 88.93,138.39 90.33,136.71 91.83,135.13 93.39,133.65 95.03,132.30 96.72,131.08 98.45,130.00 100.26,129.06 102.17,128.25 104.16,127.56 106.20,127.00 108.27,126.56 110.36,126.25 112.42,126.06 114.45,126.00"/><polygon points="113.13,162.63 112.19,165.11 110.68,167.29 108.70,169.05 106.35,170.29 103.78,170.92 101.12,170.92 98.55,170.29 96.20,169.05 94.22,167.29 92.71,165.11 91.77,162.63 91.45,160.00 91.77,157.37 92.71,154.89 94.22,152.71 96.20,150.95 98.55,149.71 101.12,149.08 103.78,149.08 106.35,149.71 108.70,150.95 110.68,152.71 112.19,154.89 113.13,157.37 113.45,160.00"/><polygon points="137.13,162.63 136.19,165.11 134.68,167.29 132.70,169.05 130.35,170.29 127.78,170.92 125.12,170.92 122.55,170.29 120.20,169.05 118.22,167.29 116.71,165.11 115.77,162.63 115.45,160.00 115.77,157.37 116.71,154.89 118.22,152.71 120.20,150.95 122.55,149.71 125.12,149.08 127.78,149.08 130.35,149.71 132.70,150.95 134.68,152.71 136.19,154.89 137.13,157.37 137.45,160.00"/><polygon points="114.45,171.00 120.45,182.00 108.45,182.00"/><polygon points="102.39,186.80 101.93,187.48 101.25,187.94 100.45,188.10 99.65,187.94 98.97,187.48 98.51,186.80 98.35,186.00 98.51,185.20 98.97,184.52 99.65,184.06 100.45,183.90 101.25,184.06 101.93,184.52 102.39,185.20 102.55,186.00"/><polygon points="130.39,186.80 129.93,187.48 129.25,187.94 128.45,188.10 127.65,187.94 126.97,187.48 126.51,186.80 126.35,186.00 126.51,185.20 126.97,184.52 127.65,184.06 128.45,183.90 129.25,184.06 129.93,184.52 130.39,185.20 130.55,186.00"/><polygon points="88.39,166.80 87.93,167.48 87.25,167.94 86.45,168.10 85.65,167.94 84.97,167.48 84.51,166.80 84.35,166.00 84.51,165.20 84.97,164.52 85.65,164.06 86.45,163.90 87.25,164.06 87.93,164.52 88.39,165.20 88.55,166.00"/><polygon points="144.39,166.80 143.93,167.48 143.25,167.94 142.45,168.10 141.65,167.94 140.97,167.48 140.51,166.80 140.35,166.00 140.51,165.20 140.97,164.52 141.65,164.06 142.45,163.90 143.25,164.06 143.93,164.52 144.39,165.20 144.55,166.00"/><text class="lb" style="font-size:2.6px" x="114.5" y="171.5">頭骨主片</text></g>
</svg>