0
SECTION
2
ENTITIES
0
POLYLINE
8
CUT
66
1
70
1
0
VERTEX
8
CUT
10
8.000
20
199.000
0
VERTEX
8
CUT
10
188.000
20
199.000
0
VERTEX
8
CUT
10
188.000
20
289.000
0
VERTEX
8
CUT
10
8.000
20
289.000
0
SEQEND
8
CUT
0
POLYLINE
8
CUT
66
1
70
1
0
VERTEX
8
CUT
10
8.000
20
105.000
0
VERTEX
8
CUT
10
188.000
20
105.000
0
VERTEX
8
CUT
10
188.000
20
195.000
0
VERTEX
8
CUT
10
8.000
20
195.000
0
SEQEND
8
CUT
0
POLYLINE
8
CUT
66
1
70
1
0
VERTEX
8
CUT
10
8.000
20
11.000
0
VERTEX
8
CUT
10
116.000
20
11.000
0
VERTEX
8
CUT
10
116.000
20
101.000
0
VERTEX
8
CUT
10
8.000
20
101.000
0
SEQEND
8
CUT
0
POLYLINE
8
CUT
66
1
70
1
0
VERTEX
8
CUT
10
65.090
20
46.170
0
VERTEX
8
CUT
10
64.770
20
45.400
0
VERTEX
8
CUT
10
64.260
20
44.740
0
VERTEX
8
CUT
10
63.600
20
44.230
0
VERTEX
8
CUT
10
62.830
20
43.910
0
VERTEX
8
CUT
10
62.000
20
43.800
0
VERTEX
8
CUT
10
61.170
20
43.910
0
VERTEX
8
CUT
10
60.400
20
44.230
0
VERTEX
8
CUT
10
59.740
20
44.740
0
VERTEX
8
CUT
10
59.230
20
45.400
0
VERTEX
8
CUT
10
58.910
20
46.170
0
VERTEX
8
CUT
10
58.800
20
47.000
0
VERTEX
8
CUT
10
58.910
20
47.830
0
VERTEX
8
CUT
10
59.230
20
48.600
0
VERTEX
8
CUT
10
59.740
20
49.260
0
VERTEX
8
CUT
10
60.400
20
49.770
0
VERTEX
8
CUT
10
61.170
20
50.090
0
VERTEX
8
CUT
10
62.000
20
50.200
0
VERTEX
8
CUT
10
62.830
20
50.090
0
VERTEX
8
CUT
10
63.600
20
49.770
0
VERTEX
8
CUT
10
64.260
20
49.260
0
VERTEX
8
CUT
10
64.770
20
48.600
0
VERTEX
8
CUT
10
65.090
20
47.830
0
VERTEX
8
CUT
10
65.200
20
47.000
0
SEQEND
8
CUT
0
ENDSEC
0
EOF
