0
SECTION
2
ENTITIES
0
POLYLINE
8
CUT
66
1
70
1
0
VERTEX
8
CUT
10
8.000
20
172.000
0
VERTEX
8
CUT
10
47.000
20
172.000
0
VERTEX
8
CUT
10
47.000
20
289.000
0
VERTEX
8
CUT
10
37.000
20
289.000
0
VERTEX
8
CUT
10
37.000
20
178.000
0
VERTEX
8
CUT
10
8.000
20
178.000
0
SEQEND
8
CUT
0
POLYLINE
8
CUT
66
1
70
1
0
VERTEX
8
CUT
10
51.000
20
172.000
0
VERTEX
8
CUT
10
90.000
20
172.000
0
VERTEX
8
CUT
10
90.000
20
289.000
0
VERTEX
8
CUT
10
80.000
20
289.000
0
VERTEX
8
CUT
10
80.000
20
178.000
0
VERTEX
8
CUT
10
51.000
20
178.000
0
SEQEND
8
CUT
0
POLYLINE
8
CUT
66
1
70
1
0
VERTEX
8
CUT
10
8.000
20
54.000
0
VERTEX
8
CUT
10
188.000
20
54.000
0
VERTEX
8
CUT
10
188.000
20
168.000
0
VERTEX
8
CUT
10
8.000
20
168.000
0
SEQEND
8
CUT
0
POLYLINE
8
CUT
66
1
70
1
0
VERTEX
8
CUT
10
84.300
20
126.200
0
VERTEX
8
CUT
10
87.700
20
126.200
0
VERTEX
8
CUT
10
87.700
20
115.800
0
VERTEX
8
CUT
10
84.300
20
115.800
0
SEQEND
8
CUT
0
POLYLINE
8
CUT
66
1
70
1
0
VERTEX
8
CUT
10
110.300
20
126.200
0
VERTEX
8
CUT
10
113.700
20
126.200
0
VERTEX
8
CUT
10
113.700
20
115.800
0
VERTEX
8
CUT
10
110.300
20
115.800
0
SEQEND
8
CUT
0
ENDSEC
0
EOF
