0
SECTION
2
ENTITIES
0
POLYLINE
8
CUT
66
1
70
1
0
VERTEX
8
CUT
10
8.000
20
257.000
0
VERTEX
8
CUT
10
20.000
20
257.000
0
VERTEX
8
CUT
10
20.000
20
264.000
0
VERTEX
8
CUT
10
94.000
20
264.000
0
VERTEX
8
CUT
10
94.000
20
289.000
0
VERTEX
8
CUT
10
8.000
20
289.000
0
SEQEND
8
CUT
0
POLYLINE
8
CUT
66
1
70
1
0
VERTEX
8
CUT
10
30.300
20
286.000
0
VERTEX
8
CUT
10
33.700
20
286.000
0
VERTEX
8
CUT
10
33.700
20
266.000
0
VERTEX
8
CUT
10
30.300
20
266.000
0
SEQEND
8
CUT
0
POLYLINE
8
CUT
66
1
70
1
0
VERTEX
8
CUT
10
86.300
20
286.000
0
VERTEX
8
CUT
10
89.700
20
286.000
0
VERTEX
8
CUT
10
89.700
20
266.000
0
VERTEX
8
CUT
10
86.300
20
266.000
0
SEQEND
8
CUT
0
POLYLINE
8
CUT
66
1
70
1
0
VERTEX
8
CUT
10
10.900
20
267.100
0
VERTEX
8
CUT
10
17.100
20
267.100
0
VERTEX
8
CUT
10
17.100
20
263.900
0
VERTEX
8
CUT
10
10.900
20
263.900
0
SEQEND
8
CUT
0
POLYLINE
8
CUT
66
1
70
1
0
VERTEX
8
CUT
10
128.000
20
274.000
0
VERTEX
8
CUT
10
127.710
20
276.930
0
VERTEX
8
CUT
10
126.860
20
279.740
0
VERTEX
8
CUT
10
125.470
20
282.330
0
VERTEX
8
CUT
10
123.610
20
284.610
0
VERTEX
8
CUT
10
121.330
20
286.470
0
VERTEX
8
CUT
10
118.740
20
287.860
0
VERTEX
8
CUT
10
115.930
20
288.710
0
VERTEX
8
CUT
10
113.000
20
289.000
0
VERTEX
8
CUT
10
110.070
20
288.710
0
VERTEX
8
CUT
10
107.260
20
287.860
0
VERTEX
8
CUT
10
104.670
20
286.470
0
VERTEX
8
CUT
10
102.390
20
284.610
0
VERTEX
8
CUT
10
100.530
20
282.330
0
VERTEX
8
CUT
10
99.140
20
279.740
0
VERTEX
8
CUT
10
98.290
20
276.930
0
VERTEX
8
CUT
10
98.000
20
274.000
0
VERTEX
8
CUT
10
98.290
20
271.070
0
VERTEX
8
CUT
10
99.140
20
268.260
0
VERTEX
8
CUT
10
100.530
20
265.670
0
VERTEX
8
CUT
10
102.390
20
263.390
0
VERTEX
8
CUT
10
104.670
20
261.530
0
VERTEX
8
CUT
10
107.260
20
260.140
0
VERTEX
8
CUT
10
110.070
20
259.290
0
VERTEX
8
CUT
10
113.000
20
259.000
0
VERTEX
8
CUT
10
115.930
20
259.290
0
VERTEX
8
CUT
10
118.740
20
260.140
0
VERTEX
8
CUT
10
121.330
20
261.530
0
VERTEX
8
CUT
10
123.610
20
263.390
0
VERTEX
8
CUT
10
125.470
20
265.670
0
VERTEX
8
CUT
10
126.860
20
268.260
0
VERTEX
8
CUT
10
127.710
20
271.070
0
SEQEND
8
CUT
0
POLYLINE
8
CUT
66
1
70
1
0
VERTEX
8
CUT
10
108.700
20
277.300
0
VERTEX
8
CUT
10
117.300
20
277.300
0
VERTEX
8
CUT
10
117.300
20
270.700
0
VERTEX
8
CUT
10
108.700
20
270.700
0
SEQEND
8
CUT
0
POLYLINE
8
CUT
66
1
70
1
0
VERTEX
8
CUT
10
162.000
20
274.000
0
VERTEX
8
CUT
10
161.710
20
276.930
0
VERTEX
8
CUT
10
160.860
20
279.740
0
VERTEX
8
CUT
10
159.470
20
282.330
0
VERTEX
8
CUT
10
157.610
20
284.610
0
VERTEX
8
CUT
10
155.330
20
286.470
0
VERTEX
8
CUT
10
152.740
20
287.860
0
VERTEX
8
CUT
10
149.930
20
288.710
0
VERTEX
8
CUT
10
147.000
20
289.000
0
VERTEX
8
CUT
10
144.070
20
288.710
0
VERTEX
8
CUT
10
141.260
20
287.860
0
VERTEX
8
CUT
10
138.670
20
286.470
0
VERTEX
8
CUT
10
136.390
20
284.610
0
VERTEX
8
CUT
10
134.530
20
282.330
0
VERTEX
8
CUT
10
133.140
20
279.740
0
VERTEX
8
CUT
10
132.290
20
276.930
0
VERTEX
8
CUT
10
132.000
20
274.000
0
VERTEX
8
CUT
10
132.290
20
271.070
0
VERTEX
8
CUT
10
133.140
20
268.260
0
VERTEX
8
CUT
10
134.530
20
265.670
0
VERTEX
8
CUT
10
136.390
20
263.390
0
VERTEX
8
CUT
10
138.670
20
261.530
0
VERTEX
8
CUT
10
141.260
20
260.140
0
VERTEX
8
CUT
10
144.070
20
259.290
0
VERTEX
8
CUT
10
147.000
20
259.000
0
VERTEX
8
CUT
10
149.930
20
259.290
0
VERTEX
8
CUT
10
152.740
20
260.140
0
VERTEX
8
CUT
10
155.330
20
261.530
0
VERTEX
8
CUT
10
157.610
20
263.390
0
VERTEX
8
CUT
10
159.470
20
265.670
0
VERTEX
8
CUT
10
160.860
20
268.260
0
VERTEX
8
CUT
10
161.710
20
271.070
0
SEQEND
8
CUT
0
POLYLINE
8
CUT
66
1
70
1
0
VERTEX
8
CUT
10
142.700
20
277.300
0
VERTEX
8
CUT
10
151.300
20
277.300
0
VERTEX
8
CUT
10
151.300
20
270.700
0
VERTEX
8
CUT
10
142.700
20
270.700
0
SEQEND
8
CUT
0
POLYLINE
8
CUT
66
1
70
1
0
VERTEX
8
CUT
10
166.000
20
263.000
0
VERTEX
8
CUT
10
169.000
20
263.000
0
VERTEX
8
CUT
10
169.000
20
260.000
0
VERTEX
8
CUT
10
175.000
20
260.000
0
VERTEX
8
CUT
10
175.000
20
263.000
0
VERTEX
8
CUT
10
198.000
20
263.000
0
VERTEX
8
CUT
10
198.000
20
289.000
0
VERTEX
8
CUT
10
166.000
20
289.000
0
SEQEND
8
CUT
0
POLYLINE
8
CUT
66
1
70
1
0
VERTEX
8
CUT
10
8.000
20
227.000
0
VERTEX
8
CUT
10
28.000
20
227.000
0
VERTEX
8
CUT
10
28.000
20
253.000
0
VERTEX
8
CUT
10
8.000
20
253.000
0
SEQEND
8
CUT
0
POLYLINE
8
CUT
66
1
70
1
0
VERTEX
8
CUT
10
68.000
20
241.000
0
VERTEX
8
CUT
10
67.840
20
242.870
0
VERTEX
8
CUT
10
67.350
20
244.690
0
VERTEX
8
CUT
10
66.570
20
246.390
0
VERTEX
8
CUT
10
65.540
20
247.920
0
VERTEX
8
CUT
10
64.290
20
249.250
0
VERTEX
8
CUT
10
62.890
20
250.360
0
VERTEX
8
CUT
10
61.380
20
251.250
0
VERTEX
8
CUT
10
59.830
20
251.910
0
VERTEX
8
CUT
10
58.270
20
252.390
0
VERTEX
8
CUT
10
56.750
20
252.690
0
VERTEX
8
CUT
10
55.280
20
252.870
0
VERTEX
8
CUT
10
53.890
20
252.960
0
VERTEX
8
CUT
10
52.550
20
252.990
0
VERTEX
8
CUT
10
51.260
20
253.000
0
VERTEX
8
CUT
10
50.000
20
253.000
0
VERTEX
8
CUT
10
48.740
20
253.000
0
VERTEX
8
CUT
10
47.450
20
252.990
0
VERTEX
8
CUT
10
46.110
20
252.960
0
VERTEX
8
CUT
10
44.720
20
252.870
0
VERTEX
8
CUT
10
43.250
20
252.690
0
VERTEX
8
CUT
10
41.730
20
252.390
0
VERTEX
8
CUT
10
40.170
20
251.910
0
VERTEX
8
CUT
10
38.620
20
251.250
0
VERTEX
8
CUT
10
37.110
20
250.360
0
VERTEX
8
CUT
10
35.710
20
249.250
0
VERTEX
8
CUT
10
34.460
20
247.920
0
VERTEX
8
CUT
10
33.430
20
246.390
0
VERTEX
8
CUT
10
32.650
20
244.690
0
VERTEX
8
CUT
10
32.160
20
242.870
0
VERTEX
8
CUT
10
32.000
20
241.000
0
VERTEX
8
CUT
10
32.160
20
239.130
0
VERTEX
8
CUT
10
32.650
20
237.310
0
VERTEX
8
CUT
10
33.430
20
235.610
0
VERTEX
8
CUT
10
34.460
20
234.080
0
VERTEX
8
CUT
10
35.710
20
232.750
0
VERTEX
8
CUT
10
37.110
20
231.640
0
VERTEX
8
CUT
10
38.620
20
230.750
0
VERTEX
8
CUT
10
40.170
20
230.090
0
VERTEX
8
CUT
10
41.730
20
229.610
0
VERTEX
8
CUT
10
43.250
20
229.310
0
VERTEX
8
CUT
10
44.720
20
229.130
0
VERTEX
8
CUT
10
46.110
20
229.040
0
VERTEX
8
CUT
10
47.450
20
229.010
0
VERTEX
8
CUT
10
48.740
20
229.000
0
VERTEX
8
CUT
10
50.000
20
229.000
0
VERTEX
8
CUT
10
51.260
20
229.000
0
VERTEX
8
CUT
10
52.550
20
229.010
0
VERTEX
8
CUT
10
53.890
20
229.040
0
VERTEX
8
CUT
10
55.280
20
229.130
0
VERTEX
8
CUT
10
56.750
20
229.310
0
VERTEX
8
CUT
10
58.270
20
229.610
0
VERTEX
8
CUT
10
59.830
20
230.090
0
VERTEX
8
CUT
10
61.380
20
230.750
0
VERTEX
8
CUT
10
62.890
20
231.640
0
VERTEX
8
CUT
10
64.290
20
232.750
0
VERTEX
8
CUT
10
65.540
20
234.080
0
VERTEX
8
CUT
10
66.570
20
235.610
0
VERTEX
8
CUT
10
67.350
20
237.310
0
VERTEX
8
CUT
10
67.840
20
239.130
0
SEQEND
8
CUT
0
POLYLINE
8
CUT
66
1
70
1
0
VERTEX
8
CUT
10
52.850
20
240.070
0
VERTEX
8
CUT
10
52.430
20
239.240
0
VERTEX
8
CUT
10
51.760
20
238.570
0
VERTEX
8
CUT
10
50.930
20
238.150
0
VERTEX
8
CUT
10
50.000
20
238.000
0
VERTEX
8
CUT
10
49.070
20
238.150
0
VERTEX
8
CUT
10
48.240
20
238.570
0
VERTEX
8
CUT
10
47.570
20
239.240
0
VERTEX
8
CUT
10
47.150
20
240.070
0
VERTEX
8
CUT
10
47.000
20
241.000
0
VERTEX
8
CUT
10
47.150
20
241.930
0
VERTEX
8
CUT
10
47.570
20
242.760
0
VERTEX
8
CUT
10
48.240
20
243.430
0
VERTEX
8
CUT
10
49.070
20
243.850
0
VERTEX
8
CUT
10
50.000
20
244.000
0
VERTEX
8
CUT
10
50.930
20
243.850
0
VERTEX
8
CUT
10
51.760
20
243.430
0
VERTEX
8
CUT
10
52.430
20
242.760
0
VERTEX
8
CUT
10
52.850
20
241.930
0
VERTEX
8
CUT
10
53.000
20
241.000
0
SEQEND
8
CUT
0
POLYLINE
8
CUT
66
1
70
1
0
VERTEX
8
CUT
10
96.000
20
241.000
0
VERTEX
8
CUT
10
95.900
20
242.570
0
VERTEX
8
CUT
10
95.590
20
244.110
0
VERTEX
8
CUT
10
95.090
20
245.590
0
VERTEX
8
CUT
10
94.390
20
247.000
0
VERTEX
8
CUT
10
93.520
20
248.310
0
VERTEX
8
CUT
10
92.490
20
249.490
0
VERTEX
8
CUT
10
91.310
20
250.520
0
VERTEX
8
CUT
10
90.000
20
251.390
0
VERTEX
8
CUT
10
88.590
20
252.090
0
VERTEX
8
CUT
10
87.110
20
252.590
0
VERTEX
8
CUT
10
85.570
20
252.900
0
VERTEX
8
CUT
10
84.000
20
253.000
0
VERTEX
8
CUT
10
82.430
20
252.900
0
VERTEX
8
CUT
10
80.890
20
252.590
0
VERTEX
8
CUT
10
79.410
20
252.090
0
VERTEX
8
CUT
10
78.000
20
251.390
0
VERTEX
8
CUT
10
76.690
20
250.520
0
VERTEX
8
CUT
10
75.510
20
249.490
0
VERTEX
8
CUT
10
74.480
20
248.310
0
VERTEX
8
CUT
10
73.610
20
247.000
0
VERTEX
8
CUT
10
72.910
20
245.590
0
VERTEX
8
CUT
10
72.410
20
244.110
0
VERTEX
8
CUT
10
72.100
20
242.570
0
VERTEX
8
CUT
10
72.000
20
241.000
0
VERTEX
8
CUT
10
72.100
20
239.430
0
VERTEX
8
CUT
10
72.410
20
237.890
0
VERTEX
8
CUT
10
72.910
20
236.410
0
VERTEX
8
CUT
10
73.610
20
235.000
0
VERTEX
8
CUT
10
74.480
20
233.690
0
VERTEX
8
CUT
10
75.510
20
232.510
0
VERTEX
8
CUT
10
76.690
20
231.480
0
VERTEX
8
CUT
10
78.000
20
230.610
0
VERTEX
8
CUT
10
79.410
20
229.910
0
VERTEX
8
CUT
10
80.890
20
229.410
0
VERTEX
8
CUT
10
82.430
20
229.100
0
VERTEX
8
CUT
10
84.000
20
229.000
0
VERTEX
8
CUT
10
85.570
20
229.100
0
VERTEX
8
CUT
10
87.110
20
229.410
0
VERTEX
8
CUT
10
88.590
20
229.910
0
VERTEX
8
CUT
10
90.000
20
230.610
0
VERTEX
8
CUT
10
91.310
20
231.480
0
VERTEX
8
CUT
10
92.490
20
232.510
0
VERTEX
8
CUT
10
93.520
20
233.690
0
VERTEX
8
CUT
10
94.390
20
235.000
0
VERTEX
8
CUT
10
95.090
20
236.410
0
VERTEX
8
CUT
10
95.590
20
237.890
0
VERTEX
8
CUT
10
95.900
20
239.430
0
SEQEND
8
CUT
0
POLYLINE
8
CUT
66
1
70
1
0
VERTEX
8
CUT
10
86.850
20
236.070
0
VERTEX
8
CUT
10
86.430
20
235.240
0
VERTEX
8
CUT
10
85.760
20
234.570
0
VERTEX
8
CUT
10
84.930
20
234.150
0
VERTEX
8
CUT
10
84.000
20
234.000
0
VERTEX
8
CUT
10
83.070
20
234.150
0
VERTEX
8
CUT
10
82.240
20
234.570
0
VERTEX
8
CUT
10
81.570
20
235.240
0
VERTEX
8
CUT
10
81.150
20
236.070
0
VERTEX
8
CUT
10
81.000
20
237.000
0
VERTEX
8
CUT
10
81.150
20
237.930
0
VERTEX
8
CUT
10
81.570
20
238.760
0
VERTEX
8
CUT
10
82.240
20
239.430
0
VERTEX
8
CUT
10
83.070
20
239.850
0
VERTEX
8
CUT
10
84.000
20
240.000
0
VERTEX
8
CUT
10
84.930
20
239.850
0
VERTEX
8
CUT
10
85.760
20
239.430
0
VERTEX
8
CUT
10
86.430
20
238.760
0
VERTEX
8
CUT
10
86.850
20
237.930
0
VERTEX
8
CUT
10
87.000
20
237.000
0
SEQEND
8
CUT
0
POLYLINE
8
CUT
66
1
70
1
0
VERTEX
8
CUT
10
120.000
20
243.000
0
VERTEX
8
CUT
10
119.750
20
245.230
0
VERTEX
8
CUT
10
119.010
20
247.340
0
VERTEX
8
CUT
10
117.820
20
249.230
0
VERTEX
8
CUT
10
116.230
20
250.820
0
VERTEX
8
CUT
10
114.340
20
252.010
0
VERTEX
8
CUT
10
112.230
20
252.750
0
VERTEX
8
CUT
10
110.000
20
253.000
0
VERTEX
8
CUT
10
107.770
20
252.750
0
VERTEX
8
CUT
10
105.660
20
252.010
0
VERTEX
8
CUT
10
103.770
20
250.820
0
VERTEX
8
CUT
10
102.180
20
249.230
0
VERTEX
8
CUT
10
100.990
20
247.340
0
VERTEX
8
CUT
10
100.250
20
245.230
0
VERTEX
8
CUT
10
100.000
20
243.000
0
VERTEX
8
CUT
10
100.250
20
240.770
0
VERTEX
8
CUT
10
100.990
20
238.660
0
VERTEX
8
CUT
10
102.180
20
236.770
0
VERTEX
8
CUT
10
103.770
20
235.180
0
VERTEX
8
CUT
10
105.660
20
233.990
0
VERTEX
8
CUT
10
107.770
20
233.250
0
VERTEX
8
CUT
10
110.000
20
233.000
0
VERTEX
8
CUT
10
112.230
20
233.250
0
VERTEX
8
CUT
10
114.340
20
233.990
0
VERTEX
8
CUT
10
116.230
20
235.180
0
VERTEX
8
CUT
10
117.820
20
236.770
0
VERTEX
8
CUT
10
119.010
20
238.660
0
VERTEX
8
CUT
10
119.750
20
240.770
0
SEQEND
8
CUT
0
POLYLINE
8
CUT
66
1
70
1
0
VERTEX
8
CUT
10
105.700
20
246.300
0
VERTEX
8
CUT
10
114.300
20
246.300
0
VERTEX
8
CUT
10
114.300
20
239.700
0
VERTEX
8
CUT
10
105.700
20
239.700
0
SEQEND
8
CUT
0
POLYLINE
8
CUT
66
1
70
1
0
VERTEX
8
CUT
10
144.000
20
243.000
0
VERTEX
8
CUT
10
143.750
20
245.230
0
VERTEX
8
CUT
10
143.010
20
247.340
0
VERTEX
8
CUT
10
141.820
20
249.230
0
VERTEX
8
CUT
10
140.230
20
250.820
0
VERTEX
8
CUT
10
138.340
20
252.010
0
VERTEX
8
CUT
10
136.230
20
252.750
0
VERTEX
8
CUT
10
134.000
20
253.000
0
VERTEX
8
CUT
10
131.770
20
252.750
0
VERTEX
8
CUT
10
129.660
20
252.010
0
VERTEX
8
CUT
10
127.770
20
250.820
0
VERTEX
8
CUT
10
126.180
20
249.230
0
VERTEX
8
CUT
10
124.990
20
247.340
0
VERTEX
8
CUT
10
124.250
20
245.230
0
VERTEX
8
CUT
10
124.000
20
243.000
0
VERTEX
8
CUT
10
124.250
20
240.770
0
VERTEX
8
CUT
10
124.990
20
238.660
0
VERTEX
8
CUT
10
126.180
20
236.770
0
VERTEX
8
CUT
10
127.770
20
235.180
0
VERTEX
8
CUT
10
129.660
20
233.990
0
VERTEX
8
CUT
10
131.770
20
233.250
0
VERTEX
8
CUT
10
134.000
20
233.000
0
VERTEX
8
CUT
10
136.230
20
233.250
0
VERTEX
8
CUT
10
138.340
20
233.990
0
VERTEX
8
CUT
10
140.230
20
235.180
0
VERTEX
8
CUT
10
141.820
20
236.770
0
VERTEX
8
CUT
10
143.010
20
238.660
0
VERTEX
8
CUT
10
143.750
20
240.770
0
SEQEND
8
CUT
0
POLYLINE
8
CUT
66
1
70
1
0
VERTEX
8
CUT
10
129.700
20
246.300
0
VERTEX
8
CUT
10
138.300
20
246.300
0
VERTEX
8
CUT
10
138.300
20
239.700
0
VERTEX
8
CUT
10
129.700
20
239.700
0
SEQEND
8
CUT
0
POLYLINE
8
CUT
66
1
70
1
0
VERTEX
8
CUT
10
148.000
20
237.000
0
VERTEX
8
CUT
10
172.000
20
237.000
0
VERTEX
8
CUT
10
172.000
20
253.000
0
VERTEX
8
CUT
10
148.000
20
253.000
0
SEQEND
8
CUT
0
POLYLINE
8
CUT
66
1
70
1
0
VERTEX
8
CUT
10
163.090
20
244.170
0
VERTEX
8
CUT
10
162.770
20
243.400
0
VERTEX
8
CUT
10
162.260
20
242.740
0
VERTEX
8
CUT
10
161.600
20
242.230
0
VERTEX
8
CUT
10
160.830
20
241.910
0
VERTEX
8
CUT
10
160.000
20
241.800
0
VERTEX
8
CUT
10
159.170
20
241.910
0
VERTEX
8
CUT
10
158.400
20
242.230
0
VERTEX
8
CUT
10
157.740
20
242.740
0
VERTEX
8
CUT
10
157.230
20
243.400
0
VERTEX
8
CUT
10
156.910
20
244.170
0
VERTEX
8
CUT
10
156.800
20
245.000
0
VERTEX
8
CUT
10
156.910
20
245.830
0
VERTEX
8
CUT
10
157.230
20
246.600
0
VERTEX
8
CUT
10
157.740
20
247.260
0
VERTEX
8
CUT
10
158.400
20
247.770
0
VERTEX
8
CUT
10
159.170
20
248.090
0
VERTEX
8
CUT
10
160.000
20
248.200
0
VERTEX
8
CUT
10
160.830
20
248.090
0
VERTEX
8
CUT
10
161.600
20
247.770
0
VERTEX
8
CUT
10
162.260
20
247.260
0
VERTEX
8
CUT
10
162.770
20
246.600
0
VERTEX
8
CUT
10
163.090
20
245.830
0
VERTEX
8
CUT
10
163.200
20
245.000
0
SEQEND
8
CUT
0
POLYLINE
8
CUT
66
1
70
1
0
VERTEX
8
CUT
10
176.000
20
237.000
0
VERTEX
8
CUT
10
200.000
20
237.000
0
VERTEX
8
CUT
10
200.000
20
253.000
0
VERTEX
8
CUT
10
176.000
20
253.000
0
SEQEND
8
CUT
0
POLYLINE
8
CUT
66
1
70
1
0
VERTEX
8
CUT
10
191.090
20
244.170
0
VERTEX
8
CUT
10
190.770
20
243.400
0
VERTEX
8
CUT
10
190.260
20
242.740
0
VERTEX
8
CUT
10
189.600
20
242.230
0
VERTEX
8
CUT
10
188.830
20
241.910
0
VERTEX
8
CUT
10
188.000
20
241.800
0
VERTEX
8
CUT
10
187.170
20
241.910
0
VERTEX
8
CUT
10
186.400
20
242.230
0
VERTEX
8
CUT
10
185.740
20
242.740
0
VERTEX
8
CUT
10
185.230
20
243.400
0
VERTEX
8
CUT
10
184.910
20
244.170
0
VERTEX
8
CUT
10
184.800
20
245.000
0
VERTEX
8
CUT
10
184.910
20
245.830
0
VERTEX
8
CUT
10
185.230
20
246.600
0
VERTEX
8
CUT
10
185.740
20
247.260
0
VERTEX
8
CUT
10
186.400
20
247.770
0
VERTEX
8
CUT
10
187.170
20
248.090
0
VERTEX
8
CUT
10
188.000
20
248.200
0
VERTEX
8
CUT
10
188.830
20
248.090
0
VERTEX
8
CUT
10
189.600
20
247.770
0
VERTEX
8
CUT
10
190.260
20
247.260
0
VERTEX
8
CUT
10
190.770
20
246.600
0
VERTEX
8
CUT
10
191.090
20
245.830
0
VERTEX
8
CUT
10
191.200
20
245.000
0
SEQEND
8
CUT
0
POLYLINE
8
CUT
66
1
70
1
0
VERTEX
8
CUT
10
8.000
20
207.000
0
VERTEX
8
CUT
10
32.000
20
207.000
0
VERTEX
8
CUT
10
32.000
20
223.000
0
VERTEX
8
CUT
10
8.000
20
223.000
0
SEQEND
8
CUT
0
POLYLINE
8
CUT
66
1
70
1
0
VERTEX
8
CUT
10
23.090
20
214.170
0
VERTEX
8
CUT
10
22.770
20
213.400
0
VERTEX
8
CUT
10
22.260
20
212.740
0
VERTEX
8
CUT
10
21.600
20
212.230
0
VERTEX
8
CUT
10
20.830
20
211.910
0
VERTEX
8
CUT
10
20.000
20
211.800
0
VERTEX
8
CUT
10
19.170
20
211.910
0
VERTEX
8
CUT
10
18.400
20
212.230
0
VERTEX
8
CUT
10
17.740
20
212.740
0
VERTEX
8
CUT
10
17.230
20
213.400
0
VERTEX
8
CUT
10
16.910
20
214.170
0
VERTEX
8
CUT
10
16.800
20
215.000
0
VERTEX
8
CUT
10
16.910
20
215.830
0
VERTEX
8
CUT
10
17.230
20
216.600
0
VERTEX
8
CUT
10
17.740
20
217.260
0
VERTEX
8
CUT
10
18.400
20
217.770
0
VERTEX
8
CUT
10
19.170
20
218.090
0
VERTEX
8
CUT
10
20.000
20
218.200
0
VERTEX
8
CUT
10
20.830
20
218.090
0
VERTEX
8
CUT
10
21.600
20
217.770
0
VERTEX
8
CUT
10
22.260
20
217.260
0
VERTEX
8
CUT
10
22.770
20
216.600
0
VERTEX
8
CUT
10
23.090
20
215.830
0
VERTEX
8
CUT
10
23.200
20
215.000
0
SEQEND
8
CUT
0
POLYLINE
8
CUT
66
1
70
1
0
VERTEX
8
CUT
10
36.000
20
207.000
0
VERTEX
8
CUT
10
60.000
20
207.000
0
VERTEX
8
CUT
10
60.000
20
223.000
0
VERTEX
8
CUT
10
36.000
20
223.000
0
SEQEND
8
CUT
0
POLYLINE
8
CUT
66
1
70
1
0
VERTEX
8
CUT
10
51.090
20
214.170
0
VERTEX
8
CUT
10
50.770
20
213.400
0
VERTEX
8
CUT
10
50.260
20
212.740
0
VERTEX
8
CUT
10
49.600
20
212.230
0
VERTEX
8
CUT
10
48.830
20
211.910
0
VERTEX
8
CUT
10
48.000
20
211.800
0
VERTEX
8
CUT
10
47.170
20
211.910
0
VERTEX
8
CUT
10
46.400
20
212.230
0
VERTEX
8
CUT
10
45.740
20
212.740
0
VERTEX
8
CUT
10
45.230
20
213.400
0
VERTEX
8
CUT
10
44.910
20
214.170
0
VERTEX
8
CUT
10
44.800
20
215.000
0
VERTEX
8
CUT
10
44.910
20
215.830
0
VERTEX
8
CUT
10
45.230
20
216.600
0
VERTEX
8
CUT
10
45.740
20
217.260
0
VERTEX
8
CUT
10
46.400
20
217.770
0
VERTEX
8
CUT
10
47.170
20
218.090
0
VERTEX
8
CUT
10
48.000
20
218.200
0
VERTEX
8
CUT
10
48.830
20
218.090
0
VERTEX
8
CUT
10
49.600
20
217.770
0
VERTEX
8
CUT
10
50.260
20
217.260
0
VERTEX
8
CUT
10
50.770
20
216.600
0
VERTEX
8
CUT
10
51.090
20
215.830
0
VERTEX
8
CUT
10
51.200
20
215.000
0
SEQEND
8
CUT
0
POLYLINE
8
CUT
66
1
70
1
0
VERTEX
8
CUT
10
64.000
20
209.000
0
VERTEX
8
CUT
10
80.000
20
209.000
0
VERTEX
8
CUT
10
80.000
20
223.000
0
VERTEX
8
CUT
10
64.000
20
223.000
0
SEQEND
8
CUT
0
POLYLINE
8
CUT
66
1
70
1
0
VERTEX
8
CUT
10
98.000
20
216.050
0
VERTEX
8
CUT
10
97.800
20
217.730
0
VERTEX
8
CUT
10
97.200
20
219.300
0
VERTEX
8
CUT
10
96.240
20
220.690
0
VERTEX
8
CUT
10
94.980
20
221.810
0
VERTEX
8
CUT
10
93.480
20
222.600
0
VERTEX
8
CUT
10
91.840
20
223.000
0
VERTEX
8
CUT
10
90.160
20
223.000
0
VERTEX
8
CUT
10
88.520
20
222.600
0
VERTEX
8
CUT
10
87.020
20
221.810
0
VERTEX
8
CUT
10
85.760
20
220.690
0
VERTEX
8
CUT
10
84.800
20
219.300
0
VERTEX
8
CUT
10
84.200
20
217.730
0
VERTEX
8
CUT
10
84.000
20
216.050
0
VERTEX
8
CUT
10
84.200
20
214.380
0
VERTEX
8
CUT
10
84.800
20
212.800
0
VERTEX
8
CUT
10
85.760
20
211.410
0
VERTEX
8
CUT
10
87.020
20
210.290
0
VERTEX
8
CUT
10
88.520
20
209.510
0
VERTEX
8
CUT
10
90.160
20
209.100
0
VERTEX
8
CUT
10
91.840
20
209.100
0
VERTEX
8
CUT
10
93.480
20
209.510
0
VERTEX
8
CUT
10
94.980
20
210.290
0
VERTEX
8
CUT
10
96.240
20
211.410
0
VERTEX
8
CUT
10
97.200
20
212.800
0
VERTEX
8
CUT
10
97.800
20
214.380
0
SEQEND
8
CUT
0
POLYLINE
8
CUT
66
1
70
1
0
VERTEX
8
CUT
10
93.950
20
215.090
0
VERTEX
8
CUT
10
93.510
20
214.230
0
VERTEX
8
CUT
10
92.820
20
213.540
0
VERTEX
8
CUT
10
91.960
20
213.100
0
VERTEX
8
CUT
10
91.000
20
212.950
0
VERTEX
8
CUT
10
90.040
20
213.100
0
VERTEX
8
CUT
10
89.180
20
213.540
0
VERTEX
8
CUT
10
88.490
20
214.230
0
VERTEX
8
CUT
10
88.050
20
215.090
0
VERTEX
8
CUT
10
87.900
20
216.050
0
VERTEX
8
CUT
10
88.050
20
217.010
0
VERTEX
8
CUT
10
88.490
20
217.870
0
VERTEX
8
CUT
10
89.180
20
218.560
0
VERTEX
8
CUT
10
90.040
20
219.000
0
VERTEX
8
CUT
10
91.000
20
219.150
0
VERTEX
8
CUT
10
91.960
20
219.000
0
VERTEX
8
CUT
10
92.820
20
218.560
0
VERTEX
8
CUT
10
93.510
20
217.870
0
VERTEX
8
CUT
10
93.950
20
217.010
0
VERTEX
8
CUT
10
94.100
20
216.050
0
SEQEND
8
CUT
0
POLYLINE
8
CUT
66
1
70
1
0
VERTEX
8
CUT
10
116.000
20
216.050
0
VERTEX
8
CUT
10
115.800
20
217.730
0
VERTEX
8
CUT
10
115.200
20
219.300
0
VERTEX
8
CUT
10
114.240
20
220.690
0
VERTEX
8
CUT
10
112.980
20
221.810
0
VERTEX
8
CUT
10
111.480
20
222.600
0
VERTEX
8
CUT
10
109.840
20
223.000
0
VERTEX
8
CUT
10
108.160
20
223.000
0
VERTEX
8
CUT
10
106.520
20
222.600
0
VERTEX
8
CUT
10
105.020
20
221.810
0
VERTEX
8
CUT
10
103.760
20
220.690
0
VERTEX
8
CUT
10
102.800
20
219.300
0
VERTEX
8
CUT
10
102.200
20
217.730
0
VERTEX
8
CUT
10
102.000
20
216.050
0
VERTEX
8
CUT
10
102.200
20
214.380
0
VERTEX
8
CUT
10
102.800
20
212.800
0
VERTEX
8
CUT
10
103.760
20
211.410
0
VERTEX
8
CUT
10
105.020
20
210.290
0
VERTEX
8
CUT
10
106.520
20
209.510
0
VERTEX
8
CUT
10
108.160
20
209.100
0
VERTEX
8
CUT
10
109.840
20
209.100
0
VERTEX
8
CUT
10
111.480
20
209.510
0
VERTEX
8
CUT
10
112.980
20
210.290
0
VERTEX
8
CUT
10
114.240
20
211.410
0
VERTEX
8
CUT
10
115.200
20
212.800
0
VERTEX
8
CUT
10
115.800
20
214.380
0
SEQEND
8
CUT
0
POLYLINE
8
CUT
66
1
70
1
0
VERTEX
8
CUT
10
111.950
20
215.090
0
VERTEX
8
CUT
10
111.510
20
214.230
0
VERTEX
8
CUT
10
110.820
20
213.540
0
VERTEX
8
CUT
10
109.960
20
213.100
0
VERTEX
8
CUT
10
109.000
20
212.950
0
VERTEX
8
CUT
10
108.040
20
213.100
0
VERTEX
8
CUT
10
107.180
20
213.540
0
VERTEX
8
CUT
10
106.490
20
214.230
0
VERTEX
8
CUT
10
106.050
20
215.090
0
VERTEX
8
CUT
10
105.900
20
216.050
0
VERTEX
8
CUT
10
106.050
20
217.010
0
VERTEX
8
CUT
10
106.490
20
217.870
0
VERTEX
8
CUT
10
107.180
20
218.560
0
VERTEX
8
CUT
10
108.040
20
219.000
0
VERTEX
8
CUT
10
109.000
20
219.150
0
VERTEX
8
CUT
10
109.960
20
219.000
0
VERTEX
8
CUT
10
110.820
20
218.560
0
VERTEX
8
CUT
10
111.510
20
217.870
0
VERTEX
8
CUT
10
111.950
20
217.010
0
VERTEX
8
CUT
10
112.100
20
216.050
0
SEQEND
8
CUT
0
POLYLINE
8
CUT
66
1
70
1
0
VERTEX
8
CUT
10
120.000
20
210.000
0
VERTEX
8
CUT
10
148.000
20
210.000
0
VERTEX
8
CUT
10
148.000
20
223.000
0
VERTEX
8
CUT
10
120.000
20
223.000
0
SEQEND
8
CUT
0
POLYLINE
8
CUT
66
1
70
1
0
VERTEX
8
CUT
10
152.000
20
210.000
0
VERTEX
8
CUT
10
180.000
20
210.000
0
VERTEX
8
CUT
10
180.000
20
223.000
0
VERTEX
8
CUT
10
152.000
20
223.000
0
SEQEND
8
CUT
0
POLYLINE
8
CUT
66
1
70
1
0
VERTEX
8
CUT
10
184.000
20
216.000
0
VERTEX
8
CUT
10
202.000
20
216.000
0
VERTEX
8
CUT
10
202.000
20
223.000
0
VERTEX
8
CUT
10
184.000
20
223.000
0
SEQEND
8
CUT
0
POLYLINE
8
CUT
66
1
70
1
0
VERTEX
8
CUT
10
8.000
20
197.000
0
VERTEX
8
CUT
10
26.000
20
197.000
0
VERTEX
8
CUT
10
26.000
20
203.000
0
VERTEX
8
CUT
10
8.000
20
203.000
0
SEQEND
8
CUT
0
POLYLINE
8
CUT
66
1
70
1
0
VERTEX
8
CUT
10
30.000
20
197.000
0
VERTEX
8
CUT
10
48.000
20
197.000
0
VERTEX
8
CUT
10
48.000
20
203.000
0
VERTEX
8
CUT
10
30.000
20
203.000
0
SEQEND
8
CUT
0
POLYLINE
8
CUT
66
1
70
1
0
VERTEX
8
CUT
10
52.000
20
197.000
0
VERTEX
8
CUT
10
66.000
20
197.000
0
VERTEX
8
CUT
10
66.000
20
203.000
0
VERTEX
8
CUT
10
52.000
20
203.000
0
SEQEND
8
CUT
0
POLYLINE
8
CUT
66
1
70
1
0
VERTEX
8
CUT
10
70.000
20
197.000
0
VERTEX
8
CUT
10
84.000
20
197.000
0
VERTEX
8
CUT
10
84.000
20
203.000
0
VERTEX
8
CUT
10
70.000
20
203.000
0
SEQEND
8
CUT
0
ENDSEC
0
EOF
