0
SECTION
2
ENTITIES
0
POLYLINE
8
CUT
66
1
70
1
0
VERTEX
8
CUT
10
8.000
20
199.000
0
VERTEX
8
CUT
10
116.000
20
199.000
0
VERTEX
8
CUT
10
116.000
20
289.000
0
VERTEX
8
CUT
10
8.000
20
289.000
0
SEQEND
8
CUT
0
POLYLINE
8
CUT
66
1
70
1
0
VERTEX
8
CUT
10
65.090
20
234.170
0
VERTEX
8
CUT
10
64.770
20
233.400
0
VERTEX
8
CUT
10
64.260
20
232.740
0
VERTEX
8
CUT
10
63.600
20
232.230
0
VERTEX
8
CUT
10
62.830
20
231.910
0
VERTEX
8
CUT
10
62.000
20
231.800
0
VERTEX
8
CUT
10
61.170
20
231.910
0
VERTEX
8
CUT
10
60.400
20
232.230
0
VERTEX
8
CUT
10
59.740
20
232.740
0
VERTEX
8
CUT
10
59.230
20
233.400
0
VERTEX
8
CUT
10
58.910
20
234.170
0
VERTEX
8
CUT
10
58.800
20
235.000
0
VERTEX
8
CUT
10
58.910
20
235.830
0
VERTEX
8
CUT
10
59.230
20
236.600
0
VERTEX
8
CUT
10
59.740
20
237.260
0
VERTEX
8
CUT
10
60.400
20
237.770
0
VERTEX
8
CUT
10
61.170
20
238.090
0
VERTEX
8
CUT
10
62.000
20
238.200
0
VERTEX
8
CUT
10
62.830
20
238.090
0
VERTEX
8
CUT
10
63.600
20
237.770
0
VERTEX
8
CUT
10
64.260
20
237.260
0
VERTEX
8
CUT
10
64.770
20
236.600
0
VERTEX
8
CUT
10
65.090
20
235.830
0
VERTEX
8
CUT
10
65.200
20
235.000
0
SEQEND
8
CUT
0
POLYLINE
8
CUT
66
1
70
1
0
VERTEX
8
CUT
10
120.000
20
207.000
0
VERTEX
8
CUT
10
164.000
20
207.000
0
VERTEX
8
CUT
10
164.000
20
289.000
0
VERTEX
8
CUT
10
120.000
20
289.000
0
VERTEX
8
CUT
10
120.000
20
249.400
0
VERTEX
8
CUT
10
158.000
20
249.400
0
VERTEX
8
CUT
10
158.000
20
209.000
0
VERTEX
8
CUT
10
120.000
20
209.000
0
SEQEND
8
CUT
0
POLYLINE
8
CUT
66
1
70
1
0
VERTEX
8
CUT
10
133.600
20
264.900
0
VERTEX
8
CUT
10
149.600
20
280.900
0
VERTEX
8
CUT
10
144.400
20
286.100
0
VERTEX
8
CUT
10
128.400
20
270.100
0
SEQEND
8
CUT
0
POLYLINE
8
CUT
66
1
70
1
0
VERTEX
8
CUT
10
168.000
20
213.000
0
VERTEX
8
CUT
10
178.000
20
213.000
0
VERTEX
8
CUT
10
178.000
20
289.000
0
VERTEX
8
CUT
10
168.000
20
289.000
0
SEQEND
8
CUT
0
POLYLINE
8
CUT
66
1
70
1
0
VERTEX
8
CUT
10
182.000
20
213.000
0
VERTEX
8
CUT
10
192.000
20
213.000
0
VERTEX
8
CUT
10
192.000
20
289.000
0
VERTEX
8
CUT
10
182.000
20
289.000
0
SEQEND
8
CUT
0
POLYLINE
8
CUT
66
1
70
1
0
VERTEX
8
CUT
10
43.750
20
163.840
0
VERTEX
8
CUT
10
43.750
20
195.000
0
VERTEX
8
CUT
10
53.750
20
195.000
0
VERTEX
8
CUT
10
53.750
20
163.090
0
VERTEX
8
CUT
10
54.300
20
163.020
0
VERTEX
8
CUT
10
56.800
20
162.560
0
VERTEX
8
CUT
10
58.750
20
162.000
0
VERTEX
8
CUT
10
60.090
20
161.300
0
VERTEX
8
CUT
10
60.940
20
160.470
0
VERTEX
8
CUT
10
61.370
20
159.530
0
VERTEX
8
CUT
10
61.500
20
158.500
0
VERTEX
8
CUT
10
61.410
20
157.410
0
VERTEX
8
CUT
10
61.190
20
156.280
0
VERTEX
8
CUT
10
60.940
20
155.140
0
VERTEX
8
CUT
10
60.750
20
154.000
0
VERTEX
8
CUT
10
60.580
20
152.830
0
VERTEX
8
CUT
10
60.310
20
151.570
0
VERTEX
8
CUT
10
59.950
20
150.260
0
VERTEX
8
CUT
10
59.500
20
148.940
0
VERTEX
8
CUT
10
58.950
20
147.620
0
VERTEX
8
CUT
10
58.310
20
146.340
0
VERTEX
8
CUT
10
57.580
20
145.120
0
VERTEX
8
CUT
10
56.750
20
144.000
0
VERTEX
8
CUT
10
55.800
20
142.950
0
VERTEX
8
CUT
10
54.720
20
141.920
0
VERTEX
8
CUT
10
53.530
20
140.940
0
VERTEX
8
CUT
10
52.250
20
140.000
0
VERTEX
8
CUT
10
50.910
20
139.130
0
VERTEX
8
CUT
10
49.530
20
138.330
0
VERTEX
8
CUT
10
48.140
20
137.620
0
VERTEX
8
CUT
10
46.750
20
137.000
0
VERTEX
8
CUT
10
45.350
20
136.480
0
VERTEX
8
CUT
10
43.890
20
136.050
0
VERTEX
8
CUT
10
42.400
20
135.710
0
VERTEX
8
CUT
10
41.750
20
135.600
0
VERTEX
8
CUT
10
41.750
20
132.000
0
VERTEX
8
CUT
10
36.750
20
132.000
0
VERTEX
8
CUT
10
36.750
20
135.050
0
VERTEX
8
CUT
10
36.260
20
135.020
0
VERTEX
8
CUT
10
34.750
20
135.000
0
VERTEX
8
CUT
10
33.240
20
135.020
0
VERTEX
8
CUT
10
32.750
20
135.050
0
VERTEX
8
CUT
10
32.750
20
132.000
0
VERTEX
8
CUT
10
27.750
20
132.000
0
VERTEX
8
CUT
10
27.750
20
135.590
0
VERTEX
8
CUT
10
27.100
20
135.710
0
VERTEX
8
CUT
10
25.610
20
136.050
0
VERTEX
8
CUT
10
24.150
20
136.480
0
VERTEX
8
CUT
10
22.750
20
137.000
0
VERTEX
8
CUT
10
21.360
20
137.620
0
VERTEX
8
CUT
10
19.970
20
138.330
0
VERTEX
8
CUT
10
18.590
20
139.130
0
VERTEX
8
CUT
10
17.250
20
140.000
0
VERTEX
8
CUT
10
15.970
20
140.940
0
VERTEX
8
CUT
10
14.780
20
141.920
0
VERTEX
8
CUT
10
13.700
20
142.950
0
VERTEX
8
CUT
10
12.750
20
144.000
0
VERTEX
8
CUT
10
11.920
20
145.120
0
VERTEX
8
CUT
10
11.190
20
146.340
0
VERTEX
8
CUT
10
10.550
20
147.620
0
VERTEX
8
CUT
10
10.000
20
148.940
0
VERTEX
8
CUT
10
9.550
20
150.260
0
VERTEX
8
CUT
10
9.190
20
151.570
0
VERTEX
8
CUT
10
8.920
20
152.830
0
VERTEX
8
CUT
10
8.750
20
154.000
0
VERTEX
8
CUT
10
8.560
20
155.140
0
VERTEX
8
CUT
10
8.310
20
156.280
0
VERTEX
8
CUT
10
8.090
20
157.410
0
VERTEX
8
CUT
10
8.000
20
158.500
0
VERTEX
8
CUT
10
8.120
20
159.530
0
VERTEX
8
CUT
10
8.560
20
160.470
0
VERTEX
8
CUT
10
9.410
20
161.300
0
VERTEX
8
CUT
10
10.750
20
162.000
0
VERTEX
8
CUT
10
10.750
20
162.000
0
VERTEX
8
CUT
10
12.700
20
162.560
0
VERTEX
8
CUT
10
15.200
20
163.020
0
VERTEX
8
CUT
10
15.750
20
163.090
0
VERTEX
8
CUT
10
15.750
20
195.000
0
VERTEX
8
CUT
10
25.750
20
195.000
0
VERTEX
8
CUT
10
25.750
20
163.840
0
VERTEX
8
CUT
10
28.230
20
163.920
0
VERTEX
8
CUT
10
31.600
20
163.980
0
VERTEX
8
CUT
10
34.750
20
164.000
0
VERTEX
8
CUT
10
37.900
20
163.980
0
VERTEX
8
CUT
10
41.270
20
163.920
0
SEQEND
8
CUT
0
POLYLINE
8
CUT
66
1
70
1
0
VERTEX
8
CUT
10
19.050
20
192.000
0
VERTEX
8
CUT
10
22.450
20
192.000
0
VERTEX
8
CUT
10
22.450
20
165.000
0
VERTEX
8
CUT
10
19.050
20
165.000
0
SEQEND
8
CUT
0
POLYLINE
8
CUT
66
1
70
1
0
VERTEX
8
CUT
10
47.050
20
192.000
0
VERTEX
8
CUT
10
50.450
20
192.000
0
VERTEX
8
CUT
10
50.450
20
165.000
0
VERTEX
8
CUT
10
47.050
20
165.000
0
SEQEND
8
CUT
0
POLYLINE
8
CUT
66
1
70
1
0
VERTEX
8
CUT
10
101.250
20
163.840
0
VERTEX
8
CUT
10
101.250
20
195.000
0
VERTEX
8
CUT
10
111.250
20
195.000
0
VERTEX
8
CUT
10
111.250
20
163.090
0
VERTEX
8
CUT
10
111.800
20
163.020
0
VERTEX
8
CUT
10
114.300
20
162.560
0
VERTEX
8
CUT
10
116.250
20
162.000
0
VERTEX
8
CUT
10
117.590
20
161.300
0
VERTEX
8
CUT
10
118.440
20
160.470
0
VERTEX
8
CUT
10
118.870
20
159.530
0
VERTEX
8
CUT
10
119.000
20
158.500
0
VERTEX
8
CUT
10
118.910
20
157.410
0
VERTEX
8
CUT
10
118.690
20
156.280
0
VERTEX
8
CUT
10
118.440
20
155.140
0
VERTEX
8
CUT
10
118.250
20
154.000
0
VERTEX
8
CUT
10
118.080
20
152.830
0
VERTEX
8
CUT
10
117.810
20
151.570
0
VERTEX
8
CUT
10
117.450
20
150.260
0
VERTEX
8
CUT
10
117.000
20
148.940
0
VERTEX
8
CUT
10
116.450
20
147.620
0
VERTEX
8
CUT
10
115.810
20
146.340
0
VERTEX
8
CUT
10
115.080
20
145.120
0
VERTEX
8
CUT
10
114.250
20
144.000
0
VERTEX
8
CUT
10
113.300
20
142.950
0
VERTEX
8
CUT
10
112.220
20
141.920
0
VERTEX
8
CUT
10
111.030
20
140.940
0
VERTEX
8
CUT
10
109.750
20
140.000
0
VERTEX
8
CUT
10
108.410
20
139.130
0
VERTEX
8
CUT
10
107.030
20
138.330
0
VERTEX
8
CUT
10
105.640
20
137.620
0
VERTEX
8
CUT
10
104.250
20
137.000
0
VERTEX
8
CUT
10
102.850
20
136.480
0
VERTEX
8
CUT
10
101.390
20
136.050
0
VERTEX
8
CUT
10
99.900
20
135.710
0
VERTEX
8
CUT
10
99.250
20
135.600
0
VERTEX
8
CUT
10
99.250
20
132.000
0
VERTEX
8
CUT
10
94.250
20
132.000
0
VERTEX
8
CUT
10
94.250
20
135.050
0
VERTEX
8
CUT
10
93.760
20
135.020
0
VERTEX
8
CUT
10
92.250
20
135.000
0
VERTEX
8
CUT
10
90.740
20
135.020
0
VERTEX
8
CUT
10
90.250
20
135.050
0
VERTEX
8
CUT
10
90.250
20
132.000
0
VERTEX
8
CUT
10
85.250
20
132.000
0
VERTEX
8
CUT
10
85.250
20
135.590
0
VERTEX
8
CUT
10
84.600
20
135.710
0
VERTEX
8
CUT
10
83.110
20
136.050
0
VERTEX
8
CUT
10
81.650
20
136.480
0
VERTEX
8
CUT
10
80.250
20
137.000
0
VERTEX
8
CUT
10
78.860
20
137.620
0
VERTEX
8
CUT
10
77.470
20
138.330
0
VERTEX
8
CUT
10
76.090
20
139.130
0
VERTEX
8
CUT
10
74.750
20
140.000
0
VERTEX
8
CUT
10
73.470
20
140.940
0
VERTEX
8
CUT
10
72.280
20
141.920
0
VERTEX
8
CUT
10
71.200
20
142.950
0
VERTEX
8
CUT
10
70.250
20
144.000
0
VERTEX
8
CUT
10
69.420
20
145.120
0
VERTEX
8
CUT
10
68.690
20
146.340
0
VERTEX
8
CUT
10
68.050
20
147.620
0
VERTEX
8
CUT
10
67.500
20
148.940
0
VERTEX
8
CUT
10
67.050
20
150.260
0
VERTEX
8
CUT
10
66.690
20
151.570
0
VERTEX
8
CUT
10
66.420
20
152.830
0
VERTEX
8
CUT
10
66.250
20
154.000
0
VERTEX
8
CUT
10
66.060
20
155.140
0
VERTEX
8
CUT
10
65.810
20
156.280
0
VERTEX
8
CUT
10
65.590
20
157.410
0
VERTEX
8
CUT
10
65.500
20
158.500
0
VERTEX
8
CUT
10
65.620
20
159.530
0
VERTEX
8
CUT
10
66.060
20
160.470
0
VERTEX
8
CUT
10
66.910
20
161.300
0
VERTEX
8
CUT
10
68.250
20
162.000
0
VERTEX
8
CUT
10
68.250
20
162.000
0
VERTEX
8
CUT
10
70.200
20
162.560
0
VERTEX
8
CUT
10
72.700
20
163.020
0
VERTEX
8
CUT
10
73.250
20
163.090
0
VERTEX
8
CUT
10
73.250
20
195.000
0
VERTEX
8
CUT
10
83.250
20
195.000
0
VERTEX
8
CUT
10
83.250
20
163.840
0
VERTEX
8
CUT
10
85.730
20
163.920
0
VERTEX
8
CUT
10
89.100
20
163.980
0
VERTEX
8
CUT
10
92.250
20
164.000
0
VERTEX
8
CUT
10
95.400
20
163.980
0
VERTEX
8
CUT
10
98.770
20
163.920
0
SEQEND
8
CUT
0
POLYLINE
8
CUT
66
1
70
1
0
VERTEX
8
CUT
10
76.550
20
192.000
0
VERTEX
8
CUT
10
79.950
20
192.000
0
VERTEX
8
CUT
10
79.950
20
165.000
0
VERTEX
8
CUT
10
76.550
20
165.000
0
SEQEND
8
CUT
0
POLYLINE
8
CUT
66
1
70
1
0
VERTEX
8
CUT
10
104.550
20
192.000
0
VERTEX
8
CUT
10
107.950
20
192.000
0
VERTEX
8
CUT
10
107.950
20
165.000
0
VERTEX
8
CUT
10
104.550
20
165.000
0
SEQEND
8
CUT
0
POLYLINE
8
CUT
66
1
70
1
0
VERTEX
8
CUT
10
123.000
20
133.000
0
VERTEX
8
CUT
10
139.000
20
133.000
0
VERTEX
8
CUT
10
139.000
20
195.000
0
VERTEX
8
CUT
10
123.000
20
195.000
0
SEQEND
8
CUT
0
POLYLINE
8
CUT
66
1
70
1
0
VERTEX
8
CUT
10
133.820
20
139.970
0
VERTEX
8
CUT
10
133.300
20
139.070
0
VERTEX
8
CUT
10
132.500
20
138.400
0
VERTEX
8
CUT
10
131.520
20
138.050
0
VERTEX
8
CUT
10
130.480
20
138.050
0
VERTEX
8
CUT
10
129.500
20
138.400
0
VERTEX
8
CUT
10
128.700
20
139.070
0
VERTEX
8
CUT
10
128.180
20
139.970
0
VERTEX
8
CUT
10
128.000
20
141.000
0
VERTEX
8
CUT
10
128.180
20
142.030
0
VERTEX
8
CUT
10
128.700
20
142.930
0
VERTEX
8
CUT
10
129.500
20
143.600
0
VERTEX
8
CUT
10
130.480
20
143.950
0
VERTEX
8
CUT
10
131.520
20
143.950
0
VERTEX
8
CUT
10
132.500
20
143.600
0
VERTEX
8
CUT
10
133.300
20
142.930
0
VERTEX
8
CUT
10
133.820
20
142.030
0
VERTEX
8
CUT
10
134.000
20
141.000
0
SEQEND
8
CUT
0
POLYLINE
8
CUT
66
1
70
1
0
VERTEX
8
CUT
10
134.760
20
185.630
0
VERTEX
8
CUT
10
134.060
20
184.430
0
VERTEX
8
CUT
10
133.000
20
183.540
0
VERTEX
8
CUT
10
131.690
20
183.060
0
VERTEX
8
CUT
10
130.310
20
183.060
0
VERTEX
8
CUT
10
129.000
20
183.540
0
VERTEX
8
CUT
10
127.940
20
184.430
0
VERTEX
8
CUT
10
127.240
20
185.630
0
VERTEX
8
CUT
10
127.000
20
187.000
0
VERTEX
8
CUT
10
127.240
20
188.370
0
VERTEX
8
CUT
10
127.940
20
189.570
0
VERTEX
8
CUT
10
129.000
20
190.460
0
VERTEX
8
CUT
10
130.310
20
190.940
0
VERTEX
8
CUT
10
131.690
20
190.940
0
VERTEX
8
CUT
10
133.000
20
190.460
0
VERTEX
8
CUT
10
134.060
20
189.570
0
VERTEX
8
CUT
10
134.760
20
188.370
0
VERTEX
8
CUT
10
135.000
20
187.000
0
SEQEND
8
CUT
0
POLYLINE
8
CUT
66
1
70
1
0
VERTEX
8
CUT
10
143.000
20
133.000
0
VERTEX
8
CUT
10
159.000
20
133.000
0
VERTEX
8
CUT
10
159.000
20
195.000
0
VERTEX
8
CUT
10
143.000
20
195.000
0
SEQEND
8
CUT
0
POLYLINE
8
CUT
66
1
70
1
0
VERTEX
8
CUT
10
153.820
20
139.970
0
VERTEX
8
CUT
10
153.300
20
139.070
0
VERTEX
8
CUT
10
152.500
20
138.400
0
VERTEX
8
CUT
10
151.520
20
138.050
0
VERTEX
8
CUT
10
150.480
20
138.050
0
VERTEX
8
CUT
10
149.500
20
138.400
0
VERTEX
8
CUT
10
148.700
20
139.070
0
VERTEX
8
CUT
10
148.180
20
139.970
0
VERTEX
8
CUT
10
148.000
20
141.000
0
VERTEX
8
CUT
10
148.180
20
142.030
0
VERTEX
8
CUT
10
148.700
20
142.930
0
VERTEX
8
CUT
10
149.500
20
143.600
0
VERTEX
8
CUT
10
150.480
20
143.950
0
VERTEX
8
CUT
10
151.520
20
143.950
0
VERTEX
8
CUT
10
152.500
20
143.600
0
VERTEX
8
CUT
10
153.300
20
142.930
0
VERTEX
8
CUT
10
153.820
20
142.030
0
VERTEX
8
CUT
10
154.000
20
141.000
0
SEQEND
8
CUT
0
POLYLINE
8
CUT
66
1
70
1
0
VERTEX
8
CUT
10
154.760
20
185.630
0
VERTEX
8
CUT
10
154.060
20
184.430
0
VERTEX
8
CUT
10
153.000
20
183.540
0
VERTEX
8
CUT
10
151.690
20
183.060
0
VERTEX
8
CUT
10
150.310
20
183.060
0
VERTEX
8
CUT
10
149.000
20
183.540
0
VERTEX
8
CUT
10
147.940
20
184.430
0
VERTEX
8
CUT
10
147.240
20
185.630
0
VERTEX
8
CUT
10
147.000
20
187.000
0
VERTEX
8
CUT
10
147.240
20
188.370
0
VERTEX
8
CUT
10
147.940
20
189.570
0
VERTEX
8
CUT
10
149.000
20
190.460
0
VERTEX
8
CUT
10
150.310
20
190.940
0
VERTEX
8
CUT
10
151.690
20
190.940
0
VERTEX
8
CUT
10
153.000
20
190.460
0
VERTEX
8
CUT
10
154.060
20
189.570
0
VERTEX
8
CUT
10
154.760
20
188.370
0
VERTEX
8
CUT
10
155.000
20
187.000
0
SEQEND
8
CUT
0
POLYLINE
8
CUT
66
1
70
1
0
VERTEX
8
CUT
10
163.000
20
138.000
0
VERTEX
8
CUT
10
202.000
20
138.000
0
VERTEX
8
CUT
10
202.000
20
195.000
0
VERTEX
8
CUT
10
192.000
20
195.000
0
VERTEX
8
CUT
10
192.000
20
144.000
0
VERTEX
8
CUT
10
163.000
20
144.000
0
SEQEND
8
CUT
0
POLYLINE
8
CUT
66
1
70
1
0
VERTEX
8
CUT
10
8.000
20
71.000
0
VERTEX
8
CUT
10
47.000
20
71.000
0
VERTEX
8
CUT
10
47.000
20
128.000
0
VERTEX
8
CUT
10
37.000
20
128.000
0
VERTEX
8
CUT
10
37.000
20
77.000
0
VERTEX
8
CUT
10
8.000
20
77.000
0
SEQEND
8
CUT
0
POLYLINE
8
CUT
66
1
70
1
0
VERTEX
8
CUT
10
51.000
20
83.000
0
VERTEX
8
CUT
10
163.000
20
83.000
0
VERTEX
8
CUT
10
163.000
20
128.000
0
VERTEX
8
CUT
10
51.000
20
128.000
0
SEQEND
8
CUT
0
POLYLINE
8
CUT
66
1
70
1
0
VERTEX
8
CUT
10
95.400
20
126.000
0
VERTEX
8
CUT
10
102.600
20
126.000
0
VERTEX
8
CUT
10
102.600
20
112.000
0
VERTEX
8
CUT
10
95.400
20
112.000
0
SEQEND
8
CUT
0
POLYLINE
8
CUT
66
1
70
1
0
VERTEX
8
CUT
10
111.400
20
126.000
0
VERTEX
8
CUT
10
118.600
20
126.000
0
VERTEX
8
CUT
10
118.600
20
112.000
0
VERTEX
8
CUT
10
111.400
20
112.000
0
SEQEND
8
CUT
0
POLYLINE
8
CUT
66
1
70
1
0
VERTEX
8
CUT
10
129.200
20
114.000
0
VERTEX
8
CUT
10
140.800
20
114.000
0
VERTEX
8
CUT
10
140.800
20
104.000
0
VERTEX
8
CUT
10
129.200
20
104.000
0
SEQEND
8
CUT
0
POLYLINE
8
CUT
66
1
70
1
0
VERTEX
8
CUT
10
121.300
20
112.200
0
VERTEX
8
CUT
10
124.700
20
112.200
0
VERTEX
8
CUT
10
124.700
20
101.800
0
VERTEX
8
CUT
10
121.300
20
101.800
0
SEQEND
8
CUT
0
POLYLINE
8
CUT
66
1
70
1
0
VERTEX
8
CUT
10
147.300
20
112.200
0
VERTEX
8
CUT
10
150.700
20
112.200
0
VERTEX
8
CUT
10
150.700
20
101.800
0
VERTEX
8
CUT
10
147.300
20
101.800
0
SEQEND
8
CUT
0
POLYLINE
8
CUT
66
1
70
1
0
VERTEX
8
CUT
10
43.320
20
49.260
0
VERTEX
8
CUT
10
43.480
20
50.750
0
VERTEX
8
CUT
10
43.480
20
52.270
0
VERTEX
8
CUT
10
43.320
20
53.810
0
VERTEX
8
CUT
10
42.990
20
55.340
0
VERTEX
8
CUT
10
42.480
20
56.860
0
VERTEX
8
CUT
10
41.810
20
58.340
0
VERTEX
8
CUT
10
40.970
20
59.750
0
VERTEX
8
CUT
10
39.970
20
61.090
0
VERTEX
8
CUT
10
38.820
20
62.330
0
VERTEX
8
CUT
10
37.520
20
63.460
0
VERTEX
8
CUT
10
36.090
20
64.460
0
VERTEX
8
CUT
10
34.540
20
65.310
0
VERTEX
8
CUT
10
32.880
20
66.010
0
VERTEX
8
CUT
10
31.130
20
66.520
0
VERTEX
8
CUT
10
29.320
20
66.860
0
VERTEX
8
CUT
10
27.460
20
67.000
0
VERTEX
8
CUT
10
25.560
20
66.940
0
VERTEX
8
CUT
10
23.660
20
66.680
0
VERTEX
8
CUT
10
21.770
20
66.220
0
VERTEX
8
CUT
10
19.920
20
65.540
0
VERTEX
8
CUT
10
18.130
20
64.660
0
VERTEX
8
CUT
10
16.420
20
63.590
0
VERTEX
8
CUT
10
14.810
20
62.320
0
VERTEX
8
CUT
10
13.330
20
60.870
0
VERTEX
8
CUT
10
12.000
20
59.260
0
VERTEX
8
CUT
10
10.830
20
57.490
0
VERTEX
8
CUT
10
9.840
20
55.590
0
VERTEX
8
CUT
10
9.050
20
53.570
0
VERTEX
8
CUT
10
8.470
20
51.450
0
VERTEX
8
CUT
10
8.120
20
49.260
0
VERTEX
8
CUT
10
8.000
20
47.020
0
VERTEX
8
CUT
10
8.110
20
44.750
0
VERTEX
8
CUT
10
8.470
20
42.490
0
VERTEX
8
CUT
10
9.080
20
40.250
0
VERTEX
8
CUT
10
9.920
20
38.060
0
VERTEX
8
CUT
10
11.000
20
35.950
0
VERTEX
8
CUT
10
12.320
20
33.950
0
VERTEX
8
CUT
10
13.850
20
32.080
0
VERTEX
8
CUT
10
15.590
20
30.360
0
VERTEX
8
CUT
10
17.520
20
28.820
0
VERTEX
8
CUT
10
19.620
20
27.480
0
VERTEX
8
CUT
10
21.880
20
26.360
0
VERTEX
8
CUT
10
24.260
20
25.470
0
VERTEX
8
CUT
10
26.750
20
24.830
0
VERTEX
8
CUT
10
29.320
20
24.460
0
VERTEX
8
CUT
10
31.940
20
24.360
0
VERTEX
8
CUT
10
34.580
20
24.530
0
VERTEX
8
CUT
10
37.210
20
24.990
0
VERTEX
8
CUT
10
39.800
20
25.730
0
VERTEX
8
CUT
10
42.320
20
26.740
0
VERTEX
8
CUT
10
43.900
20
29.200
0
VERTEX
8
CUT
10
45.110
20
31.720
0
VERTEX
8
CUT
10
45.970
20
34.270
0
VERTEX
8
CUT
10
46.470
20
36.800
0
VERTEX
8
CUT
10
46.640
20
39.260
0
VERTEX
8
CUT
10
46.490
20
41.610
0
VERTEX
8
CUT
10
46.060
20
43.820
0
VERTEX
8
CUT
10
45.360
20
45.850
0
VERTEX
8
CUT
10
44.440
20
47.670
0
SEQEND
8
CUT
0
POLYLINE
8
CUT
66
1
70
1
0
VERTEX
8
CUT
10
32.170
20
48.330
0
VERTEX
8
CUT
10
31.750
20
47.500
0
VERTEX
8
CUT
10
31.080
20
46.830
0
VERTEX
8
CUT
10
30.250
20
46.410
0
VERTEX
8
CUT
10
29.320
20
46.260
0
VERTEX
8
CUT
10
28.390
20
46.410
0
VERTEX
8
CUT
10
27.560
20
46.830
0
VERTEX
8
CUT
10
26.890
20
47.500
0
VERTEX
8
CUT
10
26.470
20
48.330
0
VERTEX
8
CUT
10
26.320
20
49.260
0
VERTEX
8
CUT
10
26.470
20
50.190
0
VERTEX
8
CUT
10
26.890
20
51.020
0
VERTEX
8
CUT
10
27.560
20
51.690
0
VERTEX
8
CUT
10
28.390
20
52.110
0
VERTEX
8
CUT
10
29.320
20
52.260
0
VERTEX
8
CUT
10
30.250
20
52.110
0
VERTEX
8
CUT
10
31.080
20
51.690
0
VERTEX
8
CUT
10
31.750
20
51.020
0
VERTEX
8
CUT
10
32.170
20
50.190
0
VERTEX
8
CUT
10
32.320
20
49.260
0
SEQEND
8
CUT
0
POLYLINE
8
CUT
66
1
70
1
0
VERTEX
8
CUT
10
90.640
20
47.000
0
VERTEX
8
CUT
10
90.470
20
49.610
0
VERTEX
8
CUT
10
89.960
20
52.180
0
VERTEX
8
CUT
10
89.120
20
54.650
0
VERTEX
8
CUT
10
87.960
20
57.000
0
VERTEX
8
CUT
10
86.510
20
59.180
0
VERTEX
8
CUT
10
84.780
20
61.140
0
VERTEX
8
CUT
10
82.820
20
62.870
0
VERTEX
8
CUT
10
80.640
20
64.320
0
VERTEX
8
CUT
10
78.290
20
65.480
0
VERTEX
8
CUT
10
75.820
20
66.320
0
VERTEX
8
CUT
10
73.250
20
66.830
0
VERTEX
8
CUT
10
70.640
20
67.000
0
VERTEX
8
CUT
10
68.030
20
66.830
0
VERTEX
8
CUT
10
65.460
20
66.320
0
VERTEX
8
CUT
10
62.990
20
65.480
0
VERTEX
8
CUT
10
60.640
20
64.320
0
VERTEX
8
CUT
10
58.460
20
62.870
0
VERTEX
8
CUT
10
56.500
20
61.140
0
VERTEX
8
CUT
10
54.770
20
59.180
0
VERTEX
8
CUT
10
53.320
20
57.000
0
VERTEX
8
CUT
10
52.160
20
54.650
0
VERTEX
8
CUT
10
51.320
20
52.180
0
VERTEX
8
CUT
10
50.810
20
49.610
0
VERTEX
8
CUT
10
50.640
20
47.000
0
VERTEX
8
CUT
10
50.810
20
44.390
0
VERTEX
8
CUT
10
51.320
20
41.820
0
VERTEX
8
CUT
10
52.160
20
39.350
0
VERTEX
8
CUT
10
53.320
20
37.000
0
VERTEX
8
CUT
10
54.770
20
34.820
0
VERTEX
8
CUT
10
56.500
20
32.860
0
VERTEX
8
CUT
10
58.460
20
31.130
0
VERTEX
8
CUT
10
60.640
20
29.680
0
VERTEX
8
CUT
10
62.990
20
28.520
0
VERTEX
8
CUT
10
65.460
20
27.680
0
VERTEX
8
CUT
10
68.030
20
27.170
0
VERTEX
8
CUT
10
70.640
20
27.000
0
VERTEX
8
CUT
10
73.250
20
27.170
0
VERTEX
8
CUT
10
75.820
20
27.680
0
VERTEX
8
CUT
10
78.290
20
28.520
0
VERTEX
8
CUT
10
80.640
20
29.680
0
VERTEX
8
CUT
10
82.820
20
31.130
0
VERTEX
8
CUT
10
84.780
20
32.860
0
VERTEX
8
CUT
10
86.510
20
34.820
0
VERTEX
8
CUT
10
87.960
20
37.000
0
VERTEX
8
CUT
10
89.120
20
39.350
0
VERTEX
8
CUT
10
89.960
20
41.820
0
VERTEX
8
CUT
10
90.470
20
44.390
0
SEQEND
8
CUT
0
POLYLINE
8
CUT
66
1
70
1
0
VERTEX
8
CUT
10
73.490
20
38.070
0
VERTEX
8
CUT
10
73.070
20
37.240
0
VERTEX
8
CUT
10
72.400
20
36.570
0
VERTEX
8
CUT
10
71.570
20
36.150
0
VERTEX
8
CUT
10
70.640
20
36.000
0
VERTEX
8
CUT
10
69.710
20
36.150
0
VERTEX
8
CUT
10
68.880
20
36.570
0
VERTEX
8
CUT
10
68.210
20
37.240
0
VERTEX
8
CUT
10
67.790
20
38.070
0
VERTEX
8
CUT
10
67.640
20
39.000
0
VERTEX
8
CUT
10
67.790
20
39.930
0
VERTEX
8
CUT
10
68.210
20
40.760
0
VERTEX
8
CUT
10
68.880
20
41.430
0
VERTEX
8
CUT
10
69.710
20
41.850
0
VERTEX
8
CUT
10
70.640
20
42.000
0
VERTEX
8
CUT
10
71.570
20
41.850
0
VERTEX
8
CUT
10
72.400
20
41.430
0
VERTEX
8
CUT
10
73.070
20
40.760
0
VERTEX
8
CUT
10
73.490
20
39.930
0
VERTEX
8
CUT
10
73.640
20
39.000
0
SEQEND
8
CUT
0
POLYLINE
8
CUT
66
1
70
1
0
VERTEX
8
CUT
10
94.640
20
27.000
0
VERTEX
8
CUT
10
132.640
20
27.000
0
VERTEX
8
CUT
10
132.640
20
41.000
0
VERTEX
8
CUT
10
116.640
20
41.000
0
VERTEX
8
CUT
10
116.640
20
67.000
0
VERTEX
8
CUT
10
94.640
20
67.000
0
SEQEND
8
CUT
0
POLYLINE
8
CUT
66
1
70
1
0
VERTEX
8
CUT
10
115.540
20
37.100
0
VERTEX
8
CUT
10
120.740
20
37.100
0
VERTEX
8
CUT
10
120.740
20
30.900
0
VERTEX
8
CUT
10
115.540
20
30.900
0
SEQEND
8
CUT
0
POLYLINE
8
CUT
66
1
70
1
0
VERTEX
8
CUT
10
124.540
20
37.100
0
VERTEX
8
CUT
10
129.740
20
37.100
0
VERTEX
8
CUT
10
129.740
20
30.900
0
VERTEX
8
CUT
10
124.540
20
30.900
0
SEQEND
8
CUT
0
POLYLINE
8
CUT
66
1
70
1
0
VERTEX
8
CUT
10
136.640
20
34.000
0
VERTEX
8
CUT
10
180.640
20
34.000
0
VERTEX
8
CUT
10
180.640
20
67.000
0
VERTEX
8
CUT
10
136.640
20
67.000
0
SEQEND
8
CUT
0
POLYLINE
8
CUT
66
1
70
1
0
VERTEX
8
CUT
10
146.840
20
63.000
0
VERTEX
8
CUT
10
158.440
20
63.000
0
VERTEX
8
CUT
10
158.440
20
53.000
0
VERTEX
8
CUT
10
146.840
20
53.000
0
SEQEND
8
CUT
0
POLYLINE
8
CUT
66
1
70
1
0
VERTEX
8
CUT
10
138.740
20
61.400
0
VERTEX
8
CUT
10
142.540
20
61.400
0
VERTEX
8
CUT
10
142.540
20
50.600
0
VERTEX
8
CUT
10
138.740
20
50.600
0
SEQEND
8
CUT
0
POLYLINE
8
CUT
66
1
70
1
0
VERTEX
8
CUT
10
164.740
20
61.400
0
VERTEX
8
CUT
10
168.540
20
61.400
0
VERTEX
8
CUT
10
168.540
20
50.600
0
VERTEX
8
CUT
10
164.740
20
50.600
0
SEQEND
8
CUT
0
ENDSEC
0
EOF
