<svg xmlns="http://www.w3.org/2000/svg" width="210mm" height="297mm"
     viewBox="0 0 210 297">
  <style>
    polygon{fill:none;stroke:#000;stroke-width:.1}
    .lb{fill:#06c;font:2.6px "Noto Sans TC",sans-serif;text-anchor:middle;dominant-baseline:middle}
    .hd{fill:#06c;font:3.4px sans-serif}
  </style>
  <g stroke="#000" stroke-width=".15" fill="none">
    <path d="M8,285 h50 M8,283 v4 M33,284 v3 M58,283 v4"/>
  </g>
  <text class="hd" style="font-size:2.4px" x="61" y="286">↑ 這段必須剛好 50mm,不對就是印表機縮放了</text>
  <text class="hd" x="8" y="294">骷髏頭凸輪玩具 · 3mm 板 · 1:1 · 第 4/5 張 · 黑線=切割 藍字=刻字</text>
<g><polygon points="8.00,98.00 116.00,98.00 116.00,8.00 8.00,8.00"/><polygon points="65.09,62.83 64.77,63.60 64.26,64.26 63.60,64.77 62.83,65.09 62.00,65.20 61.17,65.09 60.40,64.77 59.74,64.26 59.23,63.60 58.91,62.83 58.80,62.00 58.91,61.17 59.23,60.40 59.74,59.74 60.40,59.23 61.17,58.91 62.00,58.80 62.83,58.91 63.60,59.23 64.26,59.74 64.77,60.40 65.09,61.17 65.20,62.00"/><text class="lb" style="font-size:2.6px" x="62.0" y="53.0">右側板</text></g>
<g><polygon points="120.00,90.00 164.00,90.00 164.00,8.00 120.00,8.00 120.00,47.60 158.00,47.60 158.00,88.00 120.00,88.00"/><polygon points="133.60,32.10 149.60,16.10 144.40,10.90 128.40,26.90"/><text class="lb" style="font-size:2.6px" x="142.0" y="49.0">轉頭叉口板</text></g>
<g><polygon points="168.00,84.00 178.00,84.00 178.00,8.00 168.00,8.00"/><text class="lb" style="font-size:1.8px" x="173.0" y="86.4">升降導片</text></g>
<g><polygon points="182.00,84.00 192.00,84.00 192.00,8.00 182.00,8.00"/><text class="lb" style="font-size:1.8px" x="187.0" y="86.4">升降導片</text></g>
<g><polygon points="8.00,164.00 24.00,164.00 24.00,102.00 8.00,102.00"/><polygon points="18.82,157.03 18.30,157.93 17.50,158.60 16.52,158.95 15.48,158.95 14.50,158.60 13.70,157.93 13.18,157.03 13.00,156.00 13.18,154.97 13.70,154.07 14.50,153.40 15.48,153.05 16.52,153.05 17.50,153.40 18.30,154.07 18.82,154.97 19.00,156.00"/><polygon points="19.76,111.37 19.06,112.57 18.00,113.46 16.69,113.94 15.31,113.94 14.00,113.46 12.94,112.57 12.24,111.37 12.00,110.00 12.24,108.63 12.94,107.43 14.00,106.54 15.31,106.06 16.69,106.06 18.00,106.54 19.06,107.43 19.76,108.63 20.00,110.00"/><text class="lb" style="font-size:1.8px" x="16.0" y="166.4">曲柄臂 ×2層</text></g>
<g><polygon points="28.00,164.00 44.00,164.00 44.00,102.00 28.00,102.00"/><polygon points="38.82,157.03 38.30,157.93 37.50,158.60 36.52,158.95 35.48,158.95 34.50,158.60 33.70,157.93 33.18,157.03 33.00,156.00 33.18,154.97 33.70,154.07 34.50,153.40 35.48,153.05 36.52,153.05 37.50,153.40 38.30,154.07 38.82,154.97 39.00,156.00"/><polygon points="39.76,111.37 39.06,112.57 38.00,113.46 36.69,113.94 35.31,113.94 34.00,113.46 32.94,112.57 32.24,111.37 32.00,110.00 32.24,108.63 32.94,107.43 34.00,106.54 35.31,106.06 36.69,106.06 38.00,106.54 39.06,107.43 39.76,108.63 40.00,110.00"/><text class="lb" style="font-size:1.8px" x="36.0" y="166.4">曲柄臂 ×2層</text></g>
<g><polygon points="83.75,131.16 83.75,102.00 93.75,102.00 93.75,131.91 94.30,131.98 96.80,132.44 98.75,133.00 100.09,133.70 100.94,134.53 101.37,135.47 101.50,136.50 101.41,137.59 101.19,138.72 100.94,139.86 100.75,141.00 100.58,142.17 100.31,143.43 99.95,144.74 99.50,146.06 98.95,147.38 98.31,148.66 97.58,149.88 96.75,151.00 95.80,152.05 94.72,153.08 93.53,154.06 92.25,155.00 90.91,155.87 89.53,156.67 88.14,157.38 86.75,158.00 85.35,158.52 83.89,158.95 82.40,159.29 81.75,159.40 81.75,163.00 76.75,163.00 76.75,159.95 76.26,159.98 74.75,160.00 73.24,159.98 72.75,159.95 72.75,163.00 67.75,163.00 67.75,159.41 67.10,159.29 65.61,158.95 64.15,158.52 62.75,158.00 61.36,157.38 59.97,156.67 58.59,155.87 57.25,155.00 55.97,154.06 54.78,153.08 53.70,152.05 52.75,151.00 51.92,149.88 51.19,148.66 50.55,147.38 50.00,146.06 49.55,144.74 49.19,143.43 48.92,142.17 48.75,141.00 48.56,139.86 48.31,138.72 48.09,137.59 48.00,136.50 48.12,135.47 48.56,134.53 49.41,133.70 50.75,133.00 50.75,133.00 52.70,132.44 55.20,131.98 55.75,131.91 55.75,102.00 65.75,102.00 65.75,131.16 68.23,131.08 71.60,131.02 74.75,131.00 77.90,131.02 81.27,131.08"/><polygon points="59.05,105.00 62.45,105.00 62.45,129.00 59.05,129.00"/><polygon points="87.05,105.00 90.45,105.00 90.45,129.00 87.05,129.00"/><text class="lb" style="font-size:2.6px" x="74.8" y="132.5">下顎 ×2層</text></g>
<g><polygon points="141.25,131.16 141.25,102.00 151.25,102.00 151.25,131.91 151.80,131.98 154.30,132.44 156.25,133.00 157.59,133.70 158.44,134.53 158.87,135.47 159.00,136.50 158.91,137.59 158.69,138.72 158.44,139.86 158.25,141.00 158.08,142.17 157.81,143.43 157.45,144.74 157.00,146.06 156.45,147.38 155.81,148.66 155.08,149.88 154.25,151.00 153.30,152.05 152.22,153.08 151.03,154.06 149.75,155.00 148.41,155.87 147.03,156.67 145.64,157.38 144.25,158.00 142.85,158.52 141.39,158.95 139.90,159.29 139.25,159.40 139.25,163.00 134.25,163.00 134.25,159.95 133.76,159.98 132.25,160.00 130.74,159.98 130.25,159.95 130.25,163.00 125.25,163.00 125.25,159.41 124.60,159.29 123.11,158.95 121.65,158.52 120.25,158.00 118.86,157.38 117.47,156.67 116.09,155.87 114.75,155.00 113.47,154.06 112.28,153.08 111.20,152.05 110.25,151.00 109.42,149.88 108.69,148.66 108.05,147.38 107.50,146.06 107.05,144.74 106.69,143.43 106.42,142.17 106.25,141.00 106.06,139.86 105.81,138.72 105.59,137.59 105.50,136.50 105.62,135.47 106.06,134.53 106.91,133.70 108.25,133.00 108.25,133.00 110.20,132.44 112.70,131.98 113.25,131.91 113.25,102.00 123.25,102.00 123.25,131.16 125.73,131.08 129.10,131.02 132.25,131.00 135.40,131.02 138.77,131.08"/><polygon points="116.55,105.00 119.95,105.00 119.95,129.00 116.55,129.00"/><polygon points="144.55,105.00 147.95,105.00 147.95,129.00 144.55,129.00"/><text class="lb" style="font-size:2.6px" x="132.3" y="132.5">下顎 ×2層</text></g>
<g><polygon points="163.00,159.00 202.00,159.00 202.00,102.00 192.00,102.00 192.00,153.00 163.00,153.00"/><text class="lb" style="font-size:2.6px" x="182.5" y="130.5">下顎推桿 ×2層</text></g>
<g><polygon points="8.00,225.00 47.00,225.00 47.00,168.00 37.00,168.00 37.00,219.00 8.00,219.00"/><text class="lb" style="font-size:2.6px" x="27.5" y="196.5">下顎推桿 ×2層</text></g>
<g><polygon points="51.00,213.00 163.00,213.00 163.00,168.00 51.00,168.00"/><polygon points="95.40,170.00 102.60,170.00 102.60,184.00 95.40,184.00"/><polygon points="111.40,170.00 118.60,170.00 118.60,184.00 111.40,184.00"/><polygon points="129.20,182.00 140.80,182.00 140.80,192.00 129.20,192.00"/><polygon points="121.30,183.80 124.70,183.80 124.70,194.20 121.30,194.20"/><polygon points="147.30,183.80 150.70,183.80 150.70,194.20 147.30,194.20"/><text class="lb" style="font-size:2.6px" x="107.0" y="190.5">中段導板</text></g>
<g><polygon points="43.32,246.74 43.48,245.25 43.48,243.73 43.32,242.19 42.99,240.66 42.48,239.14 41.81,237.66 40.97,236.25 39.97,234.91 38.82,233.67 37.52,232.54 36.09,231.54 34.54,230.69 32.88,229.99 31.13,229.48 29.32,229.14 27.46,229.00 25.56,229.06 23.66,229.32 21.77,229.78 19.92,230.46 18.13,231.34 16.42,232.41 14.81,233.68 13.33,235.13 12.00,236.74 10.83,238.51 9.84,240.41 9.05,242.43 8.47,244.55 8.12,246.74 8.00,248.98 8.11,251.25 8.47,253.51 9.08,255.75 9.92,257.94 11.00,260.05 12.32,262.05 13.85,263.92 15.59,265.64 17.52,267.18 19.62,268.52 21.88,269.64 24.26,270.53 26.75,271.17 29.32,271.54 31.94,271.64 34.58,271.47 37.21,271.01 39.80,270.27 42.32,269.26 43.90,266.80 45.11,264.28 45.97,261.73 46.47,259.20 46.64,256.74 46.49,254.39 46.06,252.18 45.36,250.15 44.44,248.33"/><polygon points="32.17,247.67 31.75,248.50 31.08,249.17 30.25,249.59 29.32,249.74 28.39,249.59 27.56,249.17 26.89,248.50 26.47,247.67 26.32,246.74 26.47,245.81 26.89,244.98 27.56,244.31 28.39,243.89 29.32,243.74 30.25,243.89 31.08,244.31 31.75,244.98 32.17,245.81 32.32,246.74"/><text class="lb" style="font-size:2.6px" x="27.3" y="250.3">下顎凸輪</text></g>
<g><polygon points="90.64,249.00 90.47,246.39 89.96,243.82 89.12,241.35 87.96,239.00 86.51,236.82 84.78,234.86 82.82,233.13 80.64,231.68 78.29,230.52 75.82,229.68 73.25,229.17 70.64,229.00 68.03,229.17 65.46,229.68 62.99,230.52 60.64,231.68 58.46,233.13 56.50,234.86 54.77,236.82 53.32,239.00 52.16,241.35 51.32,243.82 50.81,246.39 50.64,249.00 50.81,251.61 51.32,254.18 52.16,256.65 53.32,259.00 54.77,261.18 56.50,263.14 58.46,264.87 60.64,266.32 62.99,267.48 65.46,268.32 68.03,268.83 70.64,269.00 73.25,268.83 75.82,268.32 78.29,267.48 80.64,266.32 82.82,264.87 84.78,263.14 86.51,261.18 87.96,259.00 89.12,256.65 89.96,254.18 90.47,251.61"/><polygon points="73.49,257.93 73.07,258.76 72.40,259.43 71.57,259.85 70.64,260.00 69.71,259.85 68.88,259.43 68.21,258.76 67.79,257.93 67.64,257.00 67.79,256.07 68.21,255.24 68.88,254.57 69.71,254.15 70.64,254.00 71.57,254.15 72.40,254.57 73.07,255.24 73.49,256.07 73.64,257.00"/><text class="lb" style="font-size:2.6px" x="70.6" y="249.0">轉頭凸輪</text></g>
<g><polygon points="94.64,269.00 132.64,269.00 132.64,255.00 116.64,255.00 116.64,229.00 94.64,229.00"/><polygon points="115.54,258.90 120.74,258.90 120.74,265.10 115.54,265.10"/><polygon points="124.54,258.90 129.74,258.90 129.74,265.10 124.54,265.10"/><text class="lb" style="font-size:2.6px" x="113.6" y="249.0">下顎受推板</text></g>
<g><polygon points="136.64,262.00 180.64,262.00 180.64,229.00 136.64,229.00"/><polygon points="146.84,233.00 158.44,233.00 158.44,243.00 146.84,243.00"/><polygon points="138.74,234.60 142.54,234.60 142.54,245.40 138.74,245.40"/><polygon points="164.74,234.60 168.54,234.60 168.54,245.40 164.74,245.40"/><text class="lb" style="font-size:2.6px" x="158.6" y="245.5">點頭升降板</text></g>
</svg>