0
SECTION
2
ENTITIES
0
POLYLINE
8
CUT
66
1
70
1
0
VERTEX
8
CUT
10
8.000
20
199.000
0
VERTEX
8
CUT
10
116.000
20
199.000
0
VERTEX
8
CUT
10
116.000
20
289.000
0
VERTEX
8
CUT
10
8.000
20
289.000
0
SEQEND
8
CUT
0
POLYLINE
8
CUT
66
1
70
1
0
VERTEX
8
CUT
10
65.090
20
234.170
0
VERTEX
8
CUT
10
64.770
20
233.400
0
VERTEX
8
CUT
10
64.260
20
232.740
0
VERTEX
8
CUT
10
63.600
20
232.230
0
VERTEX
8
CUT
10
62.830
20
231.910
0
VERTEX
8
CUT
10
62.000
20
231.800
0
VERTEX
8
CUT
10
61.170
20
231.910
0
VERTEX
8
CUT
10
60.400
20
232.230
0
VERTEX
8
CUT
10
59.740
20
232.740
0
VERTEX
8
CUT
10
59.230
20
233.400
0
VERTEX
8
CUT
10
58.910
20
234.170
0
VERTEX
8
CUT
10
58.800
20
235.000
0
VERTEX
8
CUT
10
58.910
20
235.830
0
VERTEX
8
CUT
10
59.230
20
236.600
0
VERTEX
8
CUT
10
59.740
20
237.260
0
VERTEX
8
CUT
10
60.400
20
237.770
0
VERTEX
8
CUT
10
61.170
20
238.090
0
VERTEX
8
CUT
10
62.000
20
238.200
0
VERTEX
8
CUT
10
62.830
20
238.090
0
VERTEX
8
CUT
10
63.600
20
237.770
0
VERTEX
8
CUT
10
64.260
20
237.260
0
VERTEX
8
CUT
10
64.770
20
236.600
0
VERTEX
8
CUT
10
65.090
20
235.830
0
VERTEX
8
CUT
10
65.200
20
235.000
0
SEQEND
8
CUT
0
POLYLINE
8
CUT
66
1
70
1
0
VERTEX
8
CUT
10
120.000
20
207.000
0
VERTEX
8
CUT
10
164.000
20
207.000
0
VERTEX
8
CUT
10
164.000
20
289.000
0
VERTEX
8
CUT
10
120.000
20
289.000
0
VERTEX
8
CUT
10
120.000
20
249.400
0
VERTEX
8
CUT
10
158.000
20
249.400
0
VERTEX
8
CUT
10
158.000
20
209.000
0
VERTEX
8
CUT
10
120.000
20
209.000
0
SEQEND
8
CUT
0
POLYLINE
8
CUT
66
1
70
1
0
VERTEX
8
CUT
10
133.600
20
264.900
0
VERTEX
8
CUT
10
149.600
20
280.900
0
VERTEX
8
CUT
10
144.400
20
286.100
0
VERTEX
8
CUT
10
128.400
20
270.100
0
SEQEND
8
CUT
0
POLYLINE
8
CUT
66
1
70
1
0
VERTEX
8
CUT
10
168.000
20
227.000
0
VERTEX
8
CUT
10
184.000
20
227.000
0
VERTEX
8
CUT
10
184.000
20
289.000
0
VERTEX
8
CUT
10
168.000
20
289.000
0
SEQEND
8
CUT
0
POLYLINE
8
CUT
66
1
70
1
0
VERTEX
8
CUT
10
178.820
20
233.970
0
VERTEX
8
CUT
10
178.300
20
233.070
0
VERTEX
8
CUT
10
177.500
20
232.400
0
VERTEX
8
CUT
10
176.520
20
232.050
0
VERTEX
8
CUT
10
175.480
20
232.050
0
VERTEX
8
CUT
10
174.500
20
232.400
0
VERTEX
8
CUT
10
173.700
20
233.070
0
VERTEX
8
CUT
10
173.180
20
233.970
0
VERTEX
8
CUT
10
173.000
20
235.000
0
VERTEX
8
CUT
10
173.180
20
236.030
0
VERTEX
8
CUT
10
173.700
20
236.930
0
VERTEX
8
CUT
10
174.500
20
237.600
0
VERTEX
8
CUT
10
175.480
20
237.950
0
VERTEX
8
CUT
10
176.520
20
237.950
0
VERTEX
8
CUT
10
177.500
20
237.600
0
VERTEX
8
CUT
10
178.300
20
236.930
0
VERTEX
8
CUT
10
178.820
20
236.030
0
VERTEX
8
CUT
10
179.000
20
235.000
0
SEQEND
8
CUT
0
POLYLINE
8
CUT
66
1
70
1
0
VERTEX
8
CUT
10
179.760
20
279.630
0
VERTEX
8
CUT
10
179.060
20
278.430
0
VERTEX
8
CUT
10
178.000
20
277.540
0
VERTEX
8
CUT
10
176.690
20
277.060
0
VERTEX
8
CUT
10
175.310
20
277.060
0
VERTEX
8
CUT
10
174.000
20
277.540
0
VERTEX
8
CUT
10
172.940
20
278.430
0
VERTEX
8
CUT
10
172.240
20
279.630
0
VERTEX
8
CUT
10
172.000
20
281.000
0
VERTEX
8
CUT
10
172.240
20
282.370
0
VERTEX
8
CUT
10
172.940
20
283.570
0
VERTEX
8
CUT
10
174.000
20
284.460
0
VERTEX
8
CUT
10
175.310
20
284.940
0
VERTEX
8
CUT
10
176.690
20
284.940
0
VERTEX
8
CUT
10
178.000
20
284.460
0
VERTEX
8
CUT
10
179.060
20
283.570
0
VERTEX
8
CUT
10
179.760
20
282.370
0
VERTEX
8
CUT
10
180.000
20
281.000
0
SEQEND
8
CUT
0
POLYLINE
8
CUT
66
1
70
1
0
VERTEX
8
CUT
10
8.000
20
133.000
0
VERTEX
8
CUT
10
24.000
20
133.000
0
VERTEX
8
CUT
10
24.000
20
195.000
0
VERTEX
8
CUT
10
8.000
20
195.000
0
SEQEND
8
CUT
0
POLYLINE
8
CUT
66
1
70
1
0
VERTEX
8
CUT
10
18.820
20
139.970
0
VERTEX
8
CUT
10
18.300
20
139.070
0
VERTEX
8
CUT
10
17.500
20
138.400
0
VERTEX
8
CUT
10
16.520
20
138.050
0
VERTEX
8
CUT
10
15.480
20
138.050
0
VERTEX
8
CUT
10
14.500
20
138.400
0
VERTEX
8
CUT
10
13.700
20
139.070
0
VERTEX
8
CUT
10
13.180
20
139.970
0
VERTEX
8
CUT
10
13.000
20
141.000
0
VERTEX
8
CUT
10
13.180
20
142.030
0
VERTEX
8
CUT
10
13.700
20
142.930
0
VERTEX
8
CUT
10
14.500
20
143.600
0
VERTEX
8
CUT
10
15.480
20
143.950
0
VERTEX
8
CUT
10
16.520
20
143.950
0
VERTEX
8
CUT
10
17.500
20
143.600
0
VERTEX
8
CUT
10
18.300
20
142.930
0
VERTEX
8
CUT
10
18.820
20
142.030
0
VERTEX
8
CUT
10
19.000
20
141.000
0
SEQEND
8
CUT
0
POLYLINE
8
CUT
66
1
70
1
0
VERTEX
8
CUT
10
19.760
20
185.630
0
VERTEX
8
CUT
10
19.060
20
184.430
0
VERTEX
8
CUT
10
18.000
20
183.540
0
VERTEX
8
CUT
10
16.690
20
183.060
0
VERTEX
8
CUT
10
15.310
20
183.060
0
VERTEX
8
CUT
10
14.000
20
183.540
0
VERTEX
8
CUT
10
12.940
20
184.430
0
VERTEX
8
CUT
10
12.240
20
185.630
0
VERTEX
8
CUT
10
12.000
20
187.000
0
VERTEX
8
CUT
10
12.240
20
188.370
0
VERTEX
8
CUT
10
12.940
20
189.570
0
VERTEX
8
CUT
10
14.000
20
190.460
0
VERTEX
8
CUT
10
15.310
20
190.940
0
VERTEX
8
CUT
10
16.690
20
190.940
0
VERTEX
8
CUT
10
18.000
20
190.460
0
VERTEX
8
CUT
10
19.060
20
189.570
0
VERTEX
8
CUT
10
19.760
20
188.370
0
VERTEX
8
CUT
10
20.000
20
187.000
0
SEQEND
8
CUT
0
POLYLINE
8
CUT
66
1
70
1
0
VERTEX
8
CUT
10
28.000
20
138.000
0
VERTEX
8
CUT
10
67.000
20
138.000
0
VERTEX
8
CUT
10
67.000
20
195.000
0
VERTEX
8
CUT
10
57.000
20
195.000
0
VERTEX
8
CUT
10
57.000
20
144.000
0
VERTEX
8
CUT
10
28.000
20
144.000
0
SEQEND
8
CUT
0
POLYLINE
8
CUT
66
1
70
1
0
VERTEX
8
CUT
10
71.000
20
138.000
0
VERTEX
8
CUT
10
110.000
20
138.000
0
VERTEX
8
CUT
10
110.000
20
195.000
0
VERTEX
8
CUT
10
100.000
20
195.000
0
VERTEX
8
CUT
10
100.000
20
144.000
0
VERTEX
8
CUT
10
71.000
20
144.000
0
SEQEND
8
CUT
0
POLYLINE
8
CUT
66
1
70
1
0
VERTEX
8
CUT
10
8.000
20
84.000
0
VERTEX
8
CUT
10
120.000
20
84.000
0
VERTEX
8
CUT
10
120.000
20
129.000
0
VERTEX
8
CUT
10
8.000
20
129.000
0
SEQEND
8
CUT
0
POLYLINE
8
CUT
66
1
70
1
0
VERTEX
8
CUT
10
52.400
20
127.000
0
VERTEX
8
CUT
10
59.600
20
127.000
0
VERTEX
8
CUT
10
59.600
20
113.000
0
VERTEX
8
CUT
10
52.400
20
113.000
0
SEQEND
8
CUT
0
POLYLINE
8
CUT
66
1
70
1
0
VERTEX
8
CUT
10
68.400
20
127.000
0
VERTEX
8
CUT
10
75.600
20
127.000
0
VERTEX
8
CUT
10
75.600
20
113.000
0
VERTEX
8
CUT
10
68.400
20
113.000
0
SEQEND
8
CUT
0
POLYLINE
8
CUT
66
1
70
1
0
VERTEX
8
CUT
10
86.200
20
115.000
0
VERTEX
8
CUT
10
97.800
20
115.000
0
VERTEX
8
CUT
10
97.800
20
105.000
0
VERTEX
8
CUT
10
86.200
20
105.000
0
SEQEND
8
CUT
0
POLYLINE
8
CUT
66
1
70
1
0
VERTEX
8
CUT
10
85.940
20
90.200
0
VERTEX
8
CUT
10
85.480
20
89.520
0
VERTEX
8
CUT
10
84.800
20
89.060
0
VERTEX
8
CUT
10
84.000
20
88.900
0
VERTEX
8
CUT
10
83.200
20
89.060
0
VERTEX
8
CUT
10
82.520
20
89.520
0
VERTEX
8
CUT
10
82.060
20
90.200
0
VERTEX
8
CUT
10
81.900
20
91.000
0
VERTEX
8
CUT
10
82.060
20
91.800
0
VERTEX
8
CUT
10
82.520
20
92.480
0
VERTEX
8
CUT
10
83.200
20
92.940
0
VERTEX
8
CUT
10
84.000
20
93.100
0
VERTEX
8
CUT
10
84.800
20
92.940
0
VERTEX
8
CUT
10
85.480
20
92.480
0
VERTEX
8
CUT
10
85.940
20
91.800
0
VERTEX
8
CUT
10
86.100
20
91.000
0
SEQEND
8
CUT
0
POLYLINE
8
CUT
66
1
70
1
0
VERTEX
8
CUT
10
117.940
20
110.200
0
VERTEX
8
CUT
10
117.480
20
109.520
0
VERTEX
8
CUT
10
116.800
20
109.060
0
VERTEX
8
CUT
10
116.000
20
108.900
0
VERTEX
8
CUT
10
115.200
20
109.060
0
VERTEX
8
CUT
10
114.520
20
109.520
0
VERTEX
8
CUT
10
114.060
20
110.200
0
VERTEX
8
CUT
10
113.900
20
111.000
0
VERTEX
8
CUT
10
114.060
20
111.800
0
VERTEX
8
CUT
10
114.520
20
112.480
0
VERTEX
8
CUT
10
115.200
20
112.940
0
VERTEX
8
CUT
10
116.000
20
113.100
0
VERTEX
8
CUT
10
116.800
20
112.940
0
VERTEX
8
CUT
10
117.480
20
112.480
0
VERTEX
8
CUT
10
117.940
20
111.800
0
VERTEX
8
CUT
10
118.100
20
111.000
0
SEQEND
8
CUT
0
POLYLINE
8
CUT
66
1
70
1
0
VERTEX
8
CUT
10
159.320
20
111.260
0
VERTEX
8
CUT
10
159.480
20
112.750
0
VERTEX
8
CUT
10
159.480
20
114.270
0
VERTEX
8
CUT
10
159.320
20
115.810
0
VERTEX
8
CUT
10
158.990
20
117.340
0
VERTEX
8
CUT
10
158.480
20
118.860
0
VERTEX
8
CUT
10
157.810
20
120.340
0
VERTEX
8
CUT
10
156.970
20
121.750
0
VERTEX
8
CUT
10
155.970
20
123.090
0
VERTEX
8
CUT
10
154.820
20
124.330
0
VERTEX
8
CUT
10
153.520
20
125.460
0
VERTEX
8
CUT
10
152.090
20
126.460
0
VERTEX
8
CUT
10
150.540
20
127.310
0
VERTEX
8
CUT
10
148.880
20
128.010
0
VERTEX
8
CUT
10
147.130
20
128.520
0
VERTEX
8
CUT
10
145.320
20
128.860
0
VERTEX
8
CUT
10
143.460
20
129.000
0
VERTEX
8
CUT
10
141.560
20
128.940
0
VERTEX
8
CUT
10
139.660
20
128.680
0
VERTEX
8
CUT
10
137.770
20
128.220
0
VERTEX
8
CUT
10
135.920
20
127.540
0
VERTEX
8
CUT
10
134.130
20
126.660
0
VERTEX
8
CUT
10
132.420
20
125.590
0
VERTEX
8
CUT
10
130.810
20
124.320
0
VERTEX
8
CUT
10
129.330
20
122.870
0
VERTEX
8
CUT
10
128.000
20
121.260
0
VERTEX
8
CUT
10
126.830
20
119.490
0
VERTEX
8
CUT
10
125.840
20
117.590
0
VERTEX
8
CUT
10
125.050
20
115.570
0
VERTEX
8
CUT
10
124.470
20
113.450
0
VERTEX
8
CUT
10
124.120
20
111.260
0
VERTEX
8
CUT
10
124.000
20
109.020
0
VERTEX
8
CUT
10
124.110
20
106.750
0
VERTEX
8
CUT
10
124.470
20
104.490
0
VERTEX
8
CUT
10
125.080
20
102.250
0
VERTEX
8
CUT
10
125.920
20
100.060
0
VERTEX
8
CUT
10
127.000
20
97.950
0
VERTEX
8
CUT
10
128.320
20
95.950
0
VERTEX
8
CUT
10
129.850
20
94.080
0
VERTEX
8
CUT
10
131.590
20
92.360
0
VERTEX
8
CUT
10
133.520
20
90.820
0
VERTEX
8
CUT
10
135.620
20
89.480
0
VERTEX
8
CUT
10
137.880
20
88.360
0
VERTEX
8
CUT
10
140.260
20
87.470
0
VERTEX
8
CUT
10
142.750
20
86.830
0
VERTEX
8
CUT
10
145.320
20
86.460
0
VERTEX
8
CUT
10
147.940
20
86.360
0
VERTEX
8
CUT
10
150.580
20
86.530
0
VERTEX
8
CUT
10
153.210
20
86.990
0
VERTEX
8
CUT
10
155.800
20
87.730
0
VERTEX
8
CUT
10
158.320
20
88.740
0
VERTEX
8
CUT
10
159.900
20
91.200
0
VERTEX
8
CUT
10
161.110
20
93.720
0
VERTEX
8
CUT
10
161.970
20
96.270
0
VERTEX
8
CUT
10
162.470
20
98.800
0
VERTEX
8
CUT
10
162.640
20
101.260
0
VERTEX
8
CUT
10
162.490
20
103.610
0
VERTEX
8
CUT
10
162.060
20
105.820
0
VERTEX
8
CUT
10
161.360
20
107.850
0
VERTEX
8
CUT
10
160.440
20
109.670
0
SEQEND
8
CUT
0
POLYLINE
8
CUT
66
1
70
1
0
VERTEX
8
CUT
10
148.170
20
110.330
0
VERTEX
8
CUT
10
147.750
20
109.500
0
VERTEX
8
CUT
10
147.080
20
108.830
0
VERTEX
8
CUT
10
146.250
20
108.410
0
VERTEX
8
CUT
10
145.320
20
108.260
0
VERTEX
8
CUT
10
144.390
20
108.410
0
VERTEX
8
CUT
10
143.560
20
108.830
0
VERTEX
8
CUT
10
142.890
20
109.500
0
VERTEX
8
CUT
10
142.470
20
110.330
0
VERTEX
8
CUT
10
142.320
20
111.260
0
VERTEX
8
CUT
10
142.470
20
112.190
0
VERTEX
8
CUT
10
142.890
20
113.020
0
VERTEX
8
CUT
10
143.560
20
113.690
0
VERTEX
8
CUT
10
144.390
20
114.110
0
VERTEX
8
CUT
10
145.320
20
114.260
0
VERTEX
8
CUT
10
146.250
20
114.110
0
VERTEX
8
CUT
10
147.080
20
113.690
0
VERTEX
8
CUT
10
147.750
20
113.020
0
VERTEX
8
CUT
10
148.170
20
112.190
0
VERTEX
8
CUT
10
148.320
20
111.260
0
SEQEND
8
CUT
0
POLYLINE
8
CUT
66
1
70
1
0
VERTEX
8
CUT
10
48.000
20
60.000
0
VERTEX
8
CUT
10
47.830
20
62.610
0
VERTEX
8
CUT
10
47.320
20
65.180
0
VERTEX
8
CUT
10
46.480
20
67.650
0
VERTEX
8
CUT
10
45.320
20
70.000
0
VERTEX
8
CUT
10
43.870
20
72.180
0
VERTEX
8
CUT
10
42.140
20
74.140
0
VERTEX
8
CUT
10
40.180
20
75.870
0
VERTEX
8
CUT
10
38.000
20
77.320
0
VERTEX
8
CUT
10
35.650
20
78.480
0
VERTEX
8
CUT
10
33.180
20
79.320
0
VERTEX
8
CUT
10
30.610
20
79.830
0
VERTEX
8
CUT
10
28.000
20
80.000
0
VERTEX
8
CUT
10
25.390
20
79.830
0
VERTEX
8
CUT
10
22.820
20
79.320
0
VERTEX
8
CUT
10
20.350
20
78.480
0
VERTEX
8
CUT
10
18.000
20
77.320
0
VERTEX
8
CUT
10
15.820
20
75.870
0
VERTEX
8
CUT
10
13.860
20
74.140
0
VERTEX
8
CUT
10
12.130
20
72.180
0
VERTEX
8
CUT
10
10.680
20
70.000
0
VERTEX
8
CUT
10
9.520
20
67.650
0
VERTEX
8
CUT
10
8.680
20
65.180
0
VERTEX
8
CUT
10
8.170
20
62.610
0
VERTEX
8
CUT
10
8.000
20
60.000
0
VERTEX
8
CUT
10
8.170
20
57.390
0
VERTEX
8
CUT
10
8.680
20
54.820
0
VERTEX
8
CUT
10
9.520
20
52.350
0
VERTEX
8
CUT
10
10.680
20
50.000
0
VERTEX
8
CUT
10
12.130
20
47.820
0
VERTEX
8
CUT
10
13.860
20
45.860
0
VERTEX
8
CUT
10
15.820
20
44.130
0
VERTEX
8
CUT
10
18.000
20
42.680
0
VERTEX
8
CUT
10
20.350
20
41.520
0
VERTEX
8
CUT
10
22.820
20
40.680
0
VERTEX
8
CUT
10
25.390
20
40.170
0
VERTEX
8
CUT
10
28.000
20
40.000
0
VERTEX
8
CUT
10
30.610
20
40.170
0
VERTEX
8
CUT
10
33.180
20
40.680
0
VERTEX
8
CUT
10
35.650
20
41.520
0
VERTEX
8
CUT
10
38.000
20
42.680
0
VERTEX
8
CUT
10
40.180
20
44.130
0
VERTEX
8
CUT
10
42.140
20
45.860
0
VERTEX
8
CUT
10
43.870
20
47.820
0
VERTEX
8
CUT
10
45.320
20
50.000
0
VERTEX
8
CUT
10
46.480
20
52.350
0
VERTEX
8
CUT
10
47.320
20
54.820
0
VERTEX
8
CUT
10
47.830
20
57.390
0
SEQEND
8
CUT
0
POLYLINE
8
CUT
66
1
70
1
0
VERTEX
8
CUT
10
30.850
20
51.070
0
VERTEX
8
CUT
10
30.430
20
50.240
0
VERTEX
8
CUT
10
29.760
20
49.570
0
VERTEX
8
CUT
10
28.930
20
49.150
0
VERTEX
8
CUT
10
28.000
20
49.000
0
VERTEX
8
CUT
10
27.070
20
49.150
0
VERTEX
8
CUT
10
26.240
20
49.570
0
VERTEX
8
CUT
10
25.570
20
50.240
0
VERTEX
8
CUT
10
25.150
20
51.070
0
VERTEX
8
CUT
10
25.000
20
52.000
0
VERTEX
8
CUT
10
25.150
20
52.930
0
VERTEX
8
CUT
10
25.570
20
53.760
0
VERTEX
8
CUT
10
26.240
20
54.430
0
VERTEX
8
CUT
10
27.070
20
54.850
0
VERTEX
8
CUT
10
28.000
20
55.000
0
VERTEX
8
CUT
10
28.930
20
54.850
0
VERTEX
8
CUT
10
29.760
20
54.430
0
VERTEX
8
CUT
10
30.430
20
53.760
0
VERTEX
8
CUT
10
30.850
20
52.930
0
VERTEX
8
CUT
10
31.000
20
52.000
0
SEQEND
8
CUT
0
POLYLINE
8
CUT
66
1
70
1
0
VERTEX
8
CUT
10
52.000
20
42.000
0
VERTEX
8
CUT
10
90.000
20
42.000
0
VERTEX
8
CUT
10
90.000
20
54.000
0
VERTEX
8
CUT
10
74.000
20
54.000
0
VERTEX
8
CUT
10
74.000
20
80.000
0
VERTEX
8
CUT
10
52.000
20
80.000
0
SEQEND
8
CUT
0
POLYLINE
8
CUT
66
1
70
1
0
VERTEX
8
CUT
10
73.900
20
50.100
0
VERTEX
8
CUT
10
79.100
20
50.100
0
VERTEX
8
CUT
10
79.100
20
43.900
0
VERTEX
8
CUT
10
73.900
20
43.900
0
SEQEND
8
CUT
0
POLYLINE
8
CUT
66
1
70
1
0
VERTEX
8
CUT
10
80.900
20
50.100
0
VERTEX
8
CUT
10
86.100
20
50.100
0
VERTEX
8
CUT
10
86.100
20
43.900
0
VERTEX
8
CUT
10
80.900
20
43.900
0
SEQEND
8
CUT
0
POLYLINE
8
CUT
66
1
70
1
0
VERTEX
8
CUT
10
94.000
20
48.000
0
VERTEX
8
CUT
10
102.000
20
48.000
0
VERTEX
8
CUT
10
102.000
20
55.000
0
VERTEX
8
CUT
10
170.000
20
55.000
0
VERTEX
8
CUT
10
170.000
20
80.000
0
VERTEX
8
CUT
10
94.000
20
80.000
0
SEQEND
8
CUT
0
POLYLINE
8
CUT
66
1
70
1
0
VERTEX
8
CUT
10
117.800
20
76.000
0
VERTEX
8
CUT
10
122.200
20
76.000
0
VERTEX
8
CUT
10
122.200
20
58.000
0
VERTEX
8
CUT
10
117.800
20
58.000
0
SEQEND
8
CUT
0
POLYLINE
8
CUT
66
1
70
1
0
VERTEX
8
CUT
10
161.800
20
76.000
0
VERTEX
8
CUT
10
166.200
20
76.000
0
VERTEX
8
CUT
10
166.200
20
58.000
0
VERTEX
8
CUT
10
161.800
20
58.000
0
SEQEND
8
CUT
0
POLYLINE
8
CUT
66
1
70
1
0
VERTEX
8
CUT
10
94.900
20
58.100
0
VERTEX
8
CUT
10
101.100
20
58.100
0
VERTEX
8
CUT
10
101.100
20
54.900
0
VERTEX
8
CUT
10
94.900
20
54.900
0
SEQEND
8
CUT
0
POLYLINE
8
CUT
66
1
70
1
0
VERTEX
8
CUT
10
174.000
20
48.000
0
VERTEX
8
CUT
10
182.000
20
48.000
0
VERTEX
8
CUT
10
182.000
20
80.000
0
VERTEX
8
CUT
10
174.000
20
80.000
0
SEQEND
8
CUT
0
POLYLINE
8
CUT
66
1
70
1
0
VERTEX
8
CUT
10
175.800
20
77.000
0
VERTEX
8
CUT
10
180.200
20
77.000
0
VERTEX
8
CUT
10
180.200
20
54.000
0
VERTEX
8
CUT
10
175.800
20
54.000
0
SEQEND
8
CUT
0
POLYLINE
8
CUT
66
1
70
1
0
VERTEX
8
CUT
10
186.000
20
48.000
0
VERTEX
8
CUT
10
194.000
20
48.000
0
VERTEX
8
CUT
10
194.000
20
80.000
0
VERTEX
8
CUT
10
186.000
20
80.000
0
SEQEND
8
CUT
0
POLYLINE
8
CUT
66
1
70
1
0
VERTEX
8
CUT
10
187.800
20
77.000
0
VERTEX
8
CUT
10
192.200
20
77.000
0
VERTEX
8
CUT
10
192.200
20
54.000
0
VERTEX
8
CUT
10
187.800
20
54.000
0
SEQEND
8
CUT
0
ENDSEC
0
EOF
