0
SECTION
2
ENTITIES
0
POLYLINE
8
CUT
66
1
70
1
0
VERTEX
8
CUT
10
8.000
20
199.000
0
VERTEX
8
CUT
10
116.000
20
199.000
0
VERTEX
8
CUT
10
116.000
20
289.000
0
VERTEX
8
CUT
10
8.000
20
289.000
0
SEQEND
8
CUT
0
POLYLINE
8
CUT
66
1
70
1
0
VERTEX
8
CUT
10
65.090
20
234.170
0
VERTEX
8
CUT
10
64.770
20
233.400
0
VERTEX
8
CUT
10
64.260
20
232.740
0
VERTEX
8
CUT
10
63.600
20
232.230
0
VERTEX
8
CUT
10
62.830
20
231.910
0
VERTEX
8
CUT
10
62.000
20
231.800
0
VERTEX
8
CUT
10
61.170
20
231.910
0
VERTEX
8
CUT
10
60.400
20
232.230
0
VERTEX
8
CUT
10
59.740
20
232.740
0
VERTEX
8
CUT
10
59.230
20
233.400
0
VERTEX
8
CUT
10
58.910
20
234.170
0
VERTEX
8
CUT
10
58.800
20
235.000
0
VERTEX
8
CUT
10
58.910
20
235.830
0
VERTEX
8
CUT
10
59.230
20
236.600
0
VERTEX
8
CUT
10
59.740
20
237.260
0
VERTEX
8
CUT
10
60.400
20
237.770
0
VERTEX
8
CUT
10
61.170
20
238.090
0
VERTEX
8
CUT
10
62.000
20
238.200
0
VERTEX
8
CUT
10
62.830
20
238.090
0
VERTEX
8
CUT
10
63.600
20
237.770
0
VERTEX
8
CUT
10
64.260
20
237.260
0
VERTEX
8
CUT
10
64.770
20
236.600
0
VERTEX
8
CUT
10
65.090
20
235.830
0
VERTEX
8
CUT
10
65.200
20
235.000
0
SEQEND
8
CUT
0
POLYLINE
8
CUT
66
1
70
1
0
VERTEX
8
CUT
10
120.000
20
207.000
0
VERTEX
8
CUT
10
164.000
20
207.000
0
VERTEX
8
CUT
10
164.000
20
289.000
0
VERTEX
8
CUT
10
120.000
20
289.000
0
VERTEX
8
CUT
10
120.000
20
249.400
0
VERTEX
8
CUT
10
158.000
20
249.400
0
VERTEX
8
CUT
10
158.000
20
209.000
0
VERTEX
8
CUT
10
120.000
20
209.000
0
SEQEND
8
CUT
0
POLYLINE
8
CUT
66
1
70
1
0
VERTEX
8
CUT
10
133.600
20
264.900
0
VERTEX
8
CUT
10
149.600
20
280.900
0
VERTEX
8
CUT
10
144.400
20
286.100
0
VERTEX
8
CUT
10
128.400
20
270.100
0
SEQEND
8
CUT
0
POLYLINE
8
CUT
66
1
70
1
0
VERTEX
8
CUT
10
168.000
20
213.000
0
VERTEX
8
CUT
10
178.000
20
213.000
0
VERTEX
8
CUT
10
178.000
20
289.000
0
VERTEX
8
CUT
10
168.000
20
289.000
0
SEQEND
8
CUT
0
POLYLINE
8
CUT
66
1
70
1
0
VERTEX
8
CUT
10
182.000
20
213.000
0
VERTEX
8
CUT
10
192.000
20
213.000
0
VERTEX
8
CUT
10
192.000
20
289.000
0
VERTEX
8
CUT
10
182.000
20
289.000
0
SEQEND
8
CUT
0
POLYLINE
8
CUT
66
1
70
1
0
VERTEX
8
CUT
10
8.000
20
133.000
0
VERTEX
8
CUT
10
24.000
20
133.000
0
VERTEX
8
CUT
10
24.000
20
195.000
0
VERTEX
8
CUT
10
8.000
20
195.000
0
SEQEND
8
CUT
0
POLYLINE
8
CUT
66
1
70
1
0
VERTEX
8
CUT
10
18.820
20
139.970
0
VERTEX
8
CUT
10
18.300
20
139.070
0
VERTEX
8
CUT
10
17.500
20
138.400
0
VERTEX
8
CUT
10
16.520
20
138.050
0
VERTEX
8
CUT
10
15.480
20
138.050
0
VERTEX
8
CUT
10
14.500
20
138.400
0
VERTEX
8
CUT
10
13.700
20
139.070
0
VERTEX
8
CUT
10
13.180
20
139.970
0
VERTEX
8
CUT
10
13.000
20
141.000
0
VERTEX
8
CUT
10
13.180
20
142.030
0
VERTEX
8
CUT
10
13.700
20
142.930
0
VERTEX
8
CUT
10
14.500
20
143.600
0
VERTEX
8
CUT
10
15.480
20
143.950
0
VERTEX
8
CUT
10
16.520
20
143.950
0
VERTEX
8
CUT
10
17.500
20
143.600
0
VERTEX
8
CUT
10
18.300
20
142.930
0
VERTEX
8
CUT
10
18.820
20
142.030
0
VERTEX
8
CUT
10
19.000
20
141.000
0
SEQEND
8
CUT
0
POLYLINE
8
CUT
66
1
70
1
0
VERTEX
8
CUT
10
19.760
20
185.630
0
VERTEX
8
CUT
10
19.060
20
184.430
0
VERTEX
8
CUT
10
18.000
20
183.540
0
VERTEX
8
CUT
10
16.690
20
183.060
0
VERTEX
8
CUT
10
15.310
20
183.060
0
VERTEX
8
CUT
10
14.000
20
183.540
0
VERTEX
8
CUT
10
12.940
20
184.430
0
VERTEX
8
CUT
10
12.240
20
185.630
0
VERTEX
8
CUT
10
12.000
20
187.000
0
VERTEX
8
CUT
10
12.240
20
188.370
0
VERTEX
8
CUT
10
12.940
20
189.570
0
VERTEX
8
CUT
10
14.000
20
190.460
0
VERTEX
8
CUT
10
15.310
20
190.940
0
VERTEX
8
CUT
10
16.690
20
190.940
0
VERTEX
8
CUT
10
18.000
20
190.460
0
VERTEX
8
CUT
10
19.060
20
189.570
0
VERTEX
8
CUT
10
19.760
20
188.370
0
VERTEX
8
CUT
10
20.000
20
187.000
0
SEQEND
8
CUT
0
POLYLINE
8
CUT
66
1
70
1
0
VERTEX
8
CUT
10
28.000
20
133.000
0
VERTEX
8
CUT
10
44.000
20
133.000
0
VERTEX
8
CUT
10
44.000
20
195.000
0
VERTEX
8
CUT
10
28.000
20
195.000
0
SEQEND
8
CUT
0
POLYLINE
8
CUT
66
1
70
1
0
VERTEX
8
CUT
10
38.820
20
139.970
0
VERTEX
8
CUT
10
38.300
20
139.070
0
VERTEX
8
CUT
10
37.500
20
138.400
0
VERTEX
8
CUT
10
36.520
20
138.050
0
VERTEX
8
CUT
10
35.480
20
138.050
0
VERTEX
8
CUT
10
34.500
20
138.400
0
VERTEX
8
CUT
10
33.700
20
139.070
0
VERTEX
8
CUT
10
33.180
20
139.970
0
VERTEX
8
CUT
10
33.000
20
141.000
0
VERTEX
8
CUT
10
33.180
20
142.030
0
VERTEX
8
CUT
10
33.700
20
142.930
0
VERTEX
8
CUT
10
34.500
20
143.600
0
VERTEX
8
CUT
10
35.480
20
143.950
0
VERTEX
8
CUT
10
36.520
20
143.950
0
VERTEX
8
CUT
10
37.500
20
143.600
0
VERTEX
8
CUT
10
38.300
20
142.930
0
VERTEX
8
CUT
10
38.820
20
142.030
0
VERTEX
8
CUT
10
39.000
20
141.000
0
SEQEND
8
CUT
0
POLYLINE
8
CUT
66
1
70
1
0
VERTEX
8
CUT
10
39.760
20
185.630
0
VERTEX
8
CUT
10
39.060
20
184.430
0
VERTEX
8
CUT
10
38.000
20
183.540
0
VERTEX
8
CUT
10
36.690
20
183.060
0
VERTEX
8
CUT
10
35.310
20
183.060
0
VERTEX
8
CUT
10
34.000
20
183.540
0
VERTEX
8
CUT
10
32.940
20
184.430
0
VERTEX
8
CUT
10
32.240
20
185.630
0
VERTEX
8
CUT
10
32.000
20
187.000
0
VERTEX
8
CUT
10
32.240
20
188.370
0
VERTEX
8
CUT
10
32.940
20
189.570
0
VERTEX
8
CUT
10
34.000
20
190.460
0
VERTEX
8
CUT
10
35.310
20
190.940
0
VERTEX
8
CUT
10
36.690
20
190.940
0
VERTEX
8
CUT
10
38.000
20
190.460
0
VERTEX
8
CUT
10
39.060
20
189.570
0
VERTEX
8
CUT
10
39.760
20
188.370
0
VERTEX
8
CUT
10
40.000
20
187.000
0
SEQEND
8
CUT
0
POLYLINE
8
CUT
66
1
70
1
0
VERTEX
8
CUT
10
83.750
20
165.840
0
VERTEX
8
CUT
10
83.750
20
195.000
0
VERTEX
8
CUT
10
93.750
20
195.000
0
VERTEX
8
CUT
10
93.750
20
165.090
0
VERTEX
8
CUT
10
94.300
20
165.020
0
VERTEX
8
CUT
10
96.800
20
164.560
0
VERTEX
8
CUT
10
98.750
20
164.000
0
VERTEX
8
CUT
10
100.090
20
163.300
0
VERTEX
8
CUT
10
100.940
20
162.470
0
VERTEX
8
CUT
10
101.370
20
161.530
0
VERTEX
8
CUT
10
101.500
20
160.500
0
VERTEX
8
CUT
10
101.410
20
159.410
0
VERTEX
8
CUT
10
101.190
20
158.280
0
VERTEX
8
CUT
10
100.940
20
157.140
0
VERTEX
8
CUT
10
100.750
20
156.000
0
VERTEX
8
CUT
10
100.580
20
154.830
0
VERTEX
8
CUT
10
100.310
20
153.570
0
VERTEX
8
CUT
10
99.950
20
152.260
0
VERTEX
8
CUT
10
99.500
20
150.940
0
VERTEX
8
CUT
10
98.950
20
149.620
0
VERTEX
8
CUT
10
98.310
20
148.340
0
VERTEX
8
CUT
10
97.580
20
147.120
0
VERTEX
8
CUT
10
96.750
20
146.000
0
VERTEX
8
CUT
10
95.800
20
144.950
0
VERTEX
8
CUT
10
94.720
20
143.920
0
VERTEX
8
CUT
10
93.530
20
142.940
0
VERTEX
8
CUT
10
92.250
20
142.000
0
VERTEX
8
CUT
10
90.910
20
141.130
0
VERTEX
8
CUT
10
89.530
20
140.330
0
VERTEX
8
CUT
10
88.140
20
139.620
0
VERTEX
8
CUT
10
86.750
20
139.000
0
VERTEX
8
CUT
10
85.350
20
138.480
0
VERTEX
8
CUT
10
83.890
20
138.050
0
VERTEX
8
CUT
10
82.400
20
137.710
0
VERTEX
8
CUT
10
81.750
20
137.600
0
VERTEX
8
CUT
10
81.750
20
134.000
0
VERTEX
8
CUT
10
76.750
20
134.000
0
VERTEX
8
CUT
10
76.750
20
137.050
0
VERTEX
8
CUT
10
76.260
20
137.020
0
VERTEX
8
CUT
10
74.750
20
137.000
0
VERTEX
8
CUT
10
73.240
20
137.020
0
VERTEX
8
CUT
10
72.750
20
137.050
0
VERTEX
8
CUT
10
72.750
20
134.000
0
VERTEX
8
CUT
10
67.750
20
134.000
0
VERTEX
8
CUT
10
67.750
20
137.590
0
VERTEX
8
CUT
10
67.100
20
137.710
0
VERTEX
8
CUT
10
65.610
20
138.050
0
VERTEX
8
CUT
10
64.150
20
138.480
0
VERTEX
8
CUT
10
62.750
20
139.000
0
VERTEX
8
CUT
10
61.360
20
139.620
0
VERTEX
8
CUT
10
59.970
20
140.330
0
VERTEX
8
CUT
10
58.590
20
141.130
0
VERTEX
8
CUT
10
57.250
20
142.000
0
VERTEX
8
CUT
10
55.970
20
142.940
0
VERTEX
8
CUT
10
54.780
20
143.920
0
VERTEX
8
CUT
10
53.700
20
144.950
0
VERTEX
8
CUT
10
52.750
20
146.000
0
VERTEX
8
CUT
10
51.920
20
147.120
0
VERTEX
8
CUT
10
51.190
20
148.340
0
VERTEX
8
CUT
10
50.550
20
149.620
0
VERTEX
8
CUT
10
50.000
20
150.940
0
VERTEX
8
CUT
10
49.550
20
152.260
0
VERTEX
8
CUT
10
49.190
20
153.570
0
VERTEX
8
CUT
10
48.920
20
154.830
0
VERTEX
8
CUT
10
48.750
20
156.000
0
VERTEX
8
CUT
10
48.560
20
157.140
0
VERTEX
8
CUT
10
48.310
20
158.280
0
VERTEX
8
CUT
10
48.090
20
159.410
0
VERTEX
8
CUT
10
48.000
20
160.500
0
VERTEX
8
CUT
10
48.120
20
161.530
0
VERTEX
8
CUT
10
48.560
20
162.470
0
VERTEX
8
CUT
10
49.410
20
163.300
0
VERTEX
8
CUT
10
50.750
20
164.000
0
VERTEX
8
CUT
10
50.750
20
164.000
0
VERTEX
8
CUT
10
52.700
20
164.560
0
VERTEX
8
CUT
10
55.200
20
165.020
0
VERTEX
8
CUT
10
55.750
20
165.090
0
VERTEX
8
CUT
10
55.750
20
195.000
0
VERTEX
8
CUT
10
65.750
20
195.000
0
VERTEX
8
CUT
10
65.750
20
165.840
0
VERTEX
8
CUT
10
68.230
20
165.920
0
VERTEX
8
CUT
10
71.600
20
165.980
0
VERTEX
8
CUT
10
74.750
20
166.000
0
VERTEX
8
CUT
10
77.900
20
165.980
0
VERTEX
8
CUT
10
81.270
20
165.920
0
SEQEND
8
CUT
0
POLYLINE
8
CUT
66
1
70
1
0
VERTEX
8
CUT
10
59.050
20
192.000
0
VERTEX
8
CUT
10
62.450
20
192.000
0
VERTEX
8
CUT
10
62.450
20
168.000
0
VERTEX
8
CUT
10
59.050
20
168.000
0
SEQEND
8
CUT
0
POLYLINE
8
CUT
66
1
70
1
0
VERTEX
8
CUT
10
87.050
20
192.000
0
VERTEX
8
CUT
10
90.450
20
192.000
0
VERTEX
8
CUT
10
90.450
20
168.000
0
VERTEX
8
CUT
10
87.050
20
168.000
0
SEQEND
8
CUT
0
POLYLINE
8
CUT
66
1
70
1
0
VERTEX
8
CUT
10
141.250
20
165.840
0
VERTEX
8
CUT
10
141.250
20
195.000
0
VERTEX
8
CUT
10
151.250
20
195.000
0
VERTEX
8
CUT
10
151.250
20
165.090
0
VERTEX
8
CUT
10
151.800
20
165.020
0
VERTEX
8
CUT
10
154.300
20
164.560
0
VERTEX
8
CUT
10
156.250
20
164.000
0
VERTEX
8
CUT
10
157.590
20
163.300
0
VERTEX
8
CUT
10
158.440
20
162.470
0
VERTEX
8
CUT
10
158.870
20
161.530
0
VERTEX
8
CUT
10
159.000
20
160.500
0
VERTEX
8
CUT
10
158.910
20
159.410
0
VERTEX
8
CUT
10
158.690
20
158.280
0
VERTEX
8
CUT
10
158.440
20
157.140
0
VERTEX
8
CUT
10
158.250
20
156.000
0
VERTEX
8
CUT
10
158.080
20
154.830
0
VERTEX
8
CUT
10
157.810
20
153.570
0
VERTEX
8
CUT
10
157.450
20
152.260
0
VERTEX
8
CUT
10
157.000
20
150.940
0
VERTEX
8
CUT
10
156.450
20
149.620
0
VERTEX
8
CUT
10
155.810
20
148.340
0
VERTEX
8
CUT
10
155.080
20
147.120
0
VERTEX
8
CUT
10
154.250
20
146.000
0
VERTEX
8
CUT
10
153.300
20
144.950
0
VERTEX
8
CUT
10
152.220
20
143.920
0
VERTEX
8
CUT
10
151.030
20
142.940
0
VERTEX
8
CUT
10
149.750
20
142.000
0
VERTEX
8
CUT
10
148.410
20
141.130
0
VERTEX
8
CUT
10
147.030
20
140.330
0
VERTEX
8
CUT
10
145.640
20
139.620
0
VERTEX
8
CUT
10
144.250
20
139.000
0
VERTEX
8
CUT
10
142.850
20
138.480
0
VERTEX
8
CUT
10
141.390
20
138.050
0
VERTEX
8
CUT
10
139.900
20
137.710
0
VERTEX
8
CUT
10
139.250
20
137.600
0
VERTEX
8
CUT
10
139.250
20
134.000
0
VERTEX
8
CUT
10
134.250
20
134.000
0
VERTEX
8
CUT
10
134.250
20
137.050
0
VERTEX
8
CUT
10
133.760
20
137.020
0
VERTEX
8
CUT
10
132.250
20
137.000
0
VERTEX
8
CUT
10
130.740
20
137.020
0
VERTEX
8
CUT
10
130.250
20
137.050
0
VERTEX
8
CUT
10
130.250
20
134.000
0
VERTEX
8
CUT
10
125.250
20
134.000
0
VERTEX
8
CUT
10
125.250
20
137.590
0
VERTEX
8
CUT
10
124.600
20
137.710
0
VERTEX
8
CUT
10
123.110
20
138.050
0
VERTEX
8
CUT
10
121.650
20
138.480
0
VERTEX
8
CUT
10
120.250
20
139.000
0
VERTEX
8
CUT
10
118.860
20
139.620
0
VERTEX
8
CUT
10
117.470
20
140.330
0
VERTEX
8
CUT
10
116.090
20
141.130
0
VERTEX
8
CUT
10
114.750
20
142.000
0
VERTEX
8
CUT
10
113.470
20
142.940
0
VERTEX
8
CUT
10
112.280
20
143.920
0
VERTEX
8
CUT
10
111.200
20
144.950
0
VERTEX
8
CUT
10
110.250
20
146.000
0
VERTEX
8
CUT
10
109.420
20
147.120
0
VERTEX
8
CUT
10
108.690
20
148.340
0
VERTEX
8
CUT
10
108.050
20
149.620
0
VERTEX
8
CUT
10
107.500
20
150.940
0
VERTEX
8
CUT
10
107.050
20
152.260
0
VERTEX
8
CUT
10
106.690
20
153.570
0
VERTEX
8
CUT
10
106.420
20
154.830
0
VERTEX
8
CUT
10
106.250
20
156.000
0
VERTEX
8
CUT
10
106.060
20
157.140
0
VERTEX
8
CUT
10
105.810
20
158.280
0
VERTEX
8
CUT
10
105.590
20
159.410
0
VERTEX
8
CUT
10
105.500
20
160.500
0
VERTEX
8
CUT
10
105.620
20
161.530
0
VERTEX
8
CUT
10
106.060
20
162.470
0
VERTEX
8
CUT
10
106.910
20
163.300
0
VERTEX
8
CUT
10
108.250
20
164.000
0
VERTEX
8
CUT
10
108.250
20
164.000
0
VERTEX
8
CUT
10
110.200
20
164.560
0
VERTEX
8
CUT
10
112.700
20
165.020
0
VERTEX
8
CUT
10
113.250
20
165.090
0
VERTEX
8
CUT
10
113.250
20
195.000
0
VERTEX
8
CUT
10
123.250
20
195.000
0
VERTEX
8
CUT
10
123.250
20
165.840
0
VERTEX
8
CUT
10
125.730
20
165.920
0
VERTEX
8
CUT
10
129.100
20
165.980
0
VERTEX
8
CUT
10
132.250
20
166.000
0
VERTEX
8
CUT
10
135.400
20
165.980
0
VERTEX
8
CUT
10
138.770
20
165.920
0
SEQEND
8
CUT
0
POLYLINE
8
CUT
66
1
70
1
0
VERTEX
8
CUT
10
116.550
20
192.000
0
VERTEX
8
CUT
10
119.950
20
192.000
0
VERTEX
8
CUT
10
119.950
20
168.000
0
VERTEX
8
CUT
10
116.550
20
168.000
0
SEQEND
8
CUT
0
POLYLINE
8
CUT
66
1
70
1
0
VERTEX
8
CUT
10
144.550
20
192.000
0
VERTEX
8
CUT
10
147.950
20
192.000
0
VERTEX
8
CUT
10
147.950
20
168.000
0
VERTEX
8
CUT
10
144.550
20
168.000
0
SEQEND
8
CUT
0
POLYLINE
8
CUT
66
1
70
1
0
VERTEX
8
CUT
10
163.000
20
138.000
0
VERTEX
8
CUT
10
202.000
20
138.000
0
VERTEX
8
CUT
10
202.000
20
195.000
0
VERTEX
8
CUT
10
192.000
20
195.000
0
VERTEX
8
CUT
10
192.000
20
144.000
0
VERTEX
8
CUT
10
163.000
20
144.000
0
SEQEND
8
CUT
0
POLYLINE
8
CUT
66
1
70
1
0
VERTEX
8
CUT
10
8.000
20
72.000
0
VERTEX
8
CUT
10
47.000
20
72.000
0
VERTEX
8
CUT
10
47.000
20
129.000
0
VERTEX
8
CUT
10
37.000
20
129.000
0
VERTEX
8
CUT
10
37.000
20
78.000
0
VERTEX
8
CUT
10
8.000
20
78.000
0
SEQEND
8
CUT
0
POLYLINE
8
CUT
66
1
70
1
0
VERTEX
8
CUT
10
51.000
20
84.000
0
VERTEX
8
CUT
10
163.000
20
84.000
0
VERTEX
8
CUT
10
163.000
20
129.000
0
VERTEX
8
CUT
10
51.000
20
129.000
0
SEQEND
8
CUT
0
POLYLINE
8
CUT
66
1
70
1
0
VERTEX
8
CUT
10
95.400
20
127.000
0
VERTEX
8
CUT
10
102.600
20
127.000
0
VERTEX
8
CUT
10
102.600
20
113.000
0
VERTEX
8
CUT
10
95.400
20
113.000
0
SEQEND
8
CUT
0
POLYLINE
8
CUT
66
1
70
1
0
VERTEX
8
CUT
10
111.400
20
127.000
0
VERTEX
8
CUT
10
118.600
20
127.000
0
VERTEX
8
CUT
10
118.600
20
113.000
0
VERTEX
8
CUT
10
111.400
20
113.000
0
SEQEND
8
CUT
0
POLYLINE
8
CUT
66
1
70
1
0
VERTEX
8
CUT
10
129.200
20
115.000
0
VERTEX
8
CUT
10
140.800
20
115.000
0
VERTEX
8
CUT
10
140.800
20
105.000
0
VERTEX
8
CUT
10
129.200
20
105.000
0
SEQEND
8
CUT
0
POLYLINE
8
CUT
66
1
70
1
0
VERTEX
8
CUT
10
121.300
20
113.200
0
VERTEX
8
CUT
10
124.700
20
113.200
0
VERTEX
8
CUT
10
124.700
20
102.800
0
VERTEX
8
CUT
10
121.300
20
102.800
0
SEQEND
8
CUT
0
POLYLINE
8
CUT
66
1
70
1
0
VERTEX
8
CUT
10
147.300
20
113.200
0
VERTEX
8
CUT
10
150.700
20
113.200
0
VERTEX
8
CUT
10
150.700
20
102.800
0
VERTEX
8
CUT
10
147.300
20
102.800
0
SEQEND
8
CUT
0
POLYLINE
8
CUT
66
1
70
1
0
VERTEX
8
CUT
10
43.320
20
50.260
0
VERTEX
8
CUT
10
43.480
20
51.750
0
VERTEX
8
CUT
10
43.480
20
53.270
0
VERTEX
8
CUT
10
43.320
20
54.810
0
VERTEX
8
CUT
10
42.990
20
56.340
0
VERTEX
8
CUT
10
42.480
20
57.860
0
VERTEX
8
CUT
10
41.810
20
59.340
0
VERTEX
8
CUT
10
40.970
20
60.750
0
VERTEX
8
CUT
10
39.970
20
62.090
0
VERTEX
8
CUT
10
38.820
20
63.330
0
VERTEX
8
CUT
10
37.520
20
64.460
0
VERTEX
8
CUT
10
36.090
20
65.460
0
VERTEX
8
CUT
10
34.540
20
66.310
0
VERTEX
8
CUT
10
32.880
20
67.010
0
VERTEX
8
CUT
10
31.130
20
67.520
0
VERTEX
8
CUT
10
29.320
20
67.860
0
VERTEX
8
CUT
10
27.460
20
68.000
0
VERTEX
8
CUT
10
25.560
20
67.940
0
VERTEX
8
CUT
10
23.660
20
67.680
0
VERTEX
8
CUT
10
21.770
20
67.220
0
VERTEX
8
CUT
10
19.920
20
66.540
0
VERTEX
8
CUT
10
18.130
20
65.660
0
VERTEX
8
CUT
10
16.420
20
64.590
0
VERTEX
8
CUT
10
14.810
20
63.320
0
VERTEX
8
CUT
10
13.330
20
61.870
0
VERTEX
8
CUT
10
12.000
20
60.260
0
VERTEX
8
CUT
10
10.830
20
58.490
0
VERTEX
8
CUT
10
9.840
20
56.590
0
VERTEX
8
CUT
10
9.050
20
54.570
0
VERTEX
8
CUT
10
8.470
20
52.450
0
VERTEX
8
CUT
10
8.120
20
50.260
0
VERTEX
8
CUT
10
8.000
20
48.020
0
VERTEX
8
CUT
10
8.110
20
45.750
0
VERTEX
8
CUT
10
8.470
20
43.490
0
VERTEX
8
CUT
10
9.080
20
41.250
0
VERTEX
8
CUT
10
9.920
20
39.060
0
VERTEX
8
CUT
10
11.000
20
36.950
0
VERTEX
8
CUT
10
12.320
20
34.950
0
VERTEX
8
CUT
10
13.850
20
33.080
0
VERTEX
8
CUT
10
15.590
20
31.360
0
VERTEX
8
CUT
10
17.520
20
29.820
0
VERTEX
8
CUT
10
19.620
20
28.480
0
VERTEX
8
CUT
10
21.880
20
27.360
0
VERTEX
8
CUT
10
24.260
20
26.470
0
VERTEX
8
CUT
10
26.750
20
25.830
0
VERTEX
8
CUT
10
29.320
20
25.460
0
VERTEX
8
CUT
10
31.940
20
25.360
0
VERTEX
8
CUT
10
34.580
20
25.530
0
VERTEX
8
CUT
10
37.210
20
25.990
0
VERTEX
8
CUT
10
39.800
20
26.730
0
VERTEX
8
CUT
10
42.320
20
27.740
0
VERTEX
8
CUT
10
43.900
20
30.200
0
VERTEX
8
CUT
10
45.110
20
32.720
0
VERTEX
8
CUT
10
45.970
20
35.270
0
VERTEX
8
CUT
10
46.470
20
37.800
0
VERTEX
8
CUT
10
46.640
20
40.260
0
VERTEX
8
CUT
10
46.490
20
42.610
0
VERTEX
8
CUT
10
46.060
20
44.820
0
VERTEX
8
CUT
10
45.360
20
46.850
0
VERTEX
8
CUT
10
44.440
20
48.670
0
SEQEND
8
CUT
0
POLYLINE
8
CUT
66
1
70
1
0
VERTEX
8
CUT
10
32.170
20
49.330
0
VERTEX
8
CUT
10
31.750
20
48.500
0
VERTEX
8
CUT
10
31.080
20
47.830
0
VERTEX
8
CUT
10
30.250
20
47.410
0
VERTEX
8
CUT
10
29.320
20
47.260
0
VERTEX
8
CUT
10
28.390
20
47.410
0
VERTEX
8
CUT
10
27.560
20
47.830
0
VERTEX
8
CUT
10
26.890
20
48.500
0
VERTEX
8
CUT
10
26.470
20
49.330
0
VERTEX
8
CUT
10
26.320
20
50.260
0
VERTEX
8
CUT
10
26.470
20
51.190
0
VERTEX
8
CUT
10
26.890
20
52.020
0
VERTEX
8
CUT
10
27.560
20
52.690
0
VERTEX
8
CUT
10
28.390
20
53.110
0
VERTEX
8
CUT
10
29.320
20
53.260
0
VERTEX
8
CUT
10
30.250
20
53.110
0
VERTEX
8
CUT
10
31.080
20
52.690
0
VERTEX
8
CUT
10
31.750
20
52.020
0
VERTEX
8
CUT
10
32.170
20
51.190
0
VERTEX
8
CUT
10
32.320
20
50.260
0
SEQEND
8
CUT
0
POLYLINE
8
CUT
66
1
70
1
0
VERTEX
8
CUT
10
90.640
20
48.000
0
VERTEX
8
CUT
10
90.470
20
50.610
0
VERTEX
8
CUT
10
89.960
20
53.180
0
VERTEX
8
CUT
10
89.120
20
55.650
0
VERTEX
8
CUT
10
87.960
20
58.000
0
VERTEX
8
CUT
10
86.510
20
60.180
0
VERTEX
8
CUT
10
84.780
20
62.140
0
VERTEX
8
CUT
10
82.820
20
63.870
0
VERTEX
8
CUT
10
80.640
20
65.320
0
VERTEX
8
CUT
10
78.290
20
66.480
0
VERTEX
8
CUT
10
75.820
20
67.320
0
VERTEX
8
CUT
10
73.250
20
67.830
0
VERTEX
8
CUT
10
70.640
20
68.000
0
VERTEX
8
CUT
10
68.030
20
67.830
0
VERTEX
8
CUT
10
65.460
20
67.320
0
VERTEX
8
CUT
10
62.990
20
66.480
0
VERTEX
8
CUT
10
60.640
20
65.320
0
VERTEX
8
CUT
10
58.460
20
63.870
0
VERTEX
8
CUT
10
56.500
20
62.140
0
VERTEX
8
CUT
10
54.770
20
60.180
0
VERTEX
8
CUT
10
53.320
20
58.000
0
VERTEX
8
CUT
10
52.160
20
55.650
0
VERTEX
8
CUT
10
51.320
20
53.180
0
VERTEX
8
CUT
10
50.810
20
50.610
0
VERTEX
8
CUT
10
50.640
20
48.000
0
VERTEX
8
CUT
10
50.810
20
45.390
0
VERTEX
8
CUT
10
51.320
20
42.820
0
VERTEX
8
CUT
10
52.160
20
40.350
0
VERTEX
8
CUT
10
53.320
20
38.000
0
VERTEX
8
CUT
10
54.770
20
35.820
0
VERTEX
8
CUT
10
56.500
20
33.860
0
VERTEX
8
CUT
10
58.460
20
32.130
0
VERTEX
8
CUT
10
60.640
20
30.680
0
VERTEX
8
CUT
10
62.990
20
29.520
0
VERTEX
8
CUT
10
65.460
20
28.680
0
VERTEX
8
CUT
10
68.030
20
28.170
0
VERTEX
8
CUT
10
70.640
20
28.000
0
VERTEX
8
CUT
10
73.250
20
28.170
0
VERTEX
8
CUT
10
75.820
20
28.680
0
VERTEX
8
CUT
10
78.290
20
29.520
0
VERTEX
8
CUT
10
80.640
20
30.680
0
VERTEX
8
CUT
10
82.820
20
32.130
0
VERTEX
8
CUT
10
84.780
20
33.860
0
VERTEX
8
CUT
10
86.510
20
35.820
0
VERTEX
8
CUT
10
87.960
20
38.000
0
VERTEX
8
CUT
10
89.120
20
40.350
0
VERTEX
8
CUT
10
89.960
20
42.820
0
VERTEX
8
CUT
10
90.470
20
45.390
0
SEQEND
8
CUT
0
POLYLINE
8
CUT
66
1
70
1
0
VERTEX
8
CUT
10
73.490
20
39.070
0
VERTEX
8
CUT
10
73.070
20
38.240
0
VERTEX
8
CUT
10
72.400
20
37.570
0
VERTEX
8
CUT
10
71.570
20
37.150
0
VERTEX
8
CUT
10
70.640
20
37.000
0
VERTEX
8
CUT
10
69.710
20
37.150
0
VERTEX
8
CUT
10
68.880
20
37.570
0
VERTEX
8
CUT
10
68.210
20
38.240
0
VERTEX
8
CUT
10
67.790
20
39.070
0
VERTEX
8
CUT
10
67.640
20
40.000
0
VERTEX
8
CUT
10
67.790
20
40.930
0
VERTEX
8
CUT
10
68.210
20
41.760
0
VERTEX
8
CUT
10
68.880
20
42.430
0
VERTEX
8
CUT
10
69.710
20
42.850
0
VERTEX
8
CUT
10
70.640
20
43.000
0
VERTEX
8
CUT
10
71.570
20
42.850
0
VERTEX
8
CUT
10
72.400
20
42.430
0
VERTEX
8
CUT
10
73.070
20
41.760
0
VERTEX
8
CUT
10
73.490
20
40.930
0
VERTEX
8
CUT
10
73.640
20
40.000
0
SEQEND
8
CUT
0
POLYLINE
8
CUT
66
1
70
1
0
VERTEX
8
CUT
10
94.640
20
28.000
0
VERTEX
8
CUT
10
132.640
20
28.000
0
VERTEX
8
CUT
10
132.640
20
42.000
0
VERTEX
8
CUT
10
116.640
20
42.000
0
VERTEX
8
CUT
10
116.640
20
68.000
0
VERTEX
8
CUT
10
94.640
20
68.000
0
SEQEND
8
CUT
0
POLYLINE
8
CUT
66
1
70
1
0
VERTEX
8
CUT
10
115.540
20
38.100
0
VERTEX
8
CUT
10
120.740
20
38.100
0
VERTEX
8
CUT
10
120.740
20
31.900
0
VERTEX
8
CUT
10
115.540
20
31.900
0
SEQEND
8
CUT
0
POLYLINE
8
CUT
66
1
70
1
0
VERTEX
8
CUT
10
124.540
20
38.100
0
VERTEX
8
CUT
10
129.740
20
38.100
0
VERTEX
8
CUT
10
129.740
20
31.900
0
VERTEX
8
CUT
10
124.540
20
31.900
0
SEQEND
8
CUT
0
POLYLINE
8
CUT
66
1
70
1
0
VERTEX
8
CUT
10
136.640
20
35.000
0
VERTEX
8
CUT
10
180.640
20
35.000
0
VERTEX
8
CUT
10
180.640
20
68.000
0
VERTEX
8
CUT
10
136.640
20
68.000
0
SEQEND
8
CUT
0
POLYLINE
8
CUT
66
1
70
1
0
VERTEX
8
CUT
10
146.840
20
64.000
0
VERTEX
8
CUT
10
158.440
20
64.000
0
VERTEX
8
CUT
10
158.440
20
54.000
0
VERTEX
8
CUT
10
146.840
20
54.000
0
SEQEND
8
CUT
0
POLYLINE
8
CUT
66
1
70
1
0
VERTEX
8
CUT
10
138.740
20
62.400
0
VERTEX
8
CUT
10
142.540
20
62.400
0
VERTEX
8
CUT
10
142.540
20
51.600
0
VERTEX
8
CUT
10
138.740
20
51.600
0
SEQEND
8
CUT
0
POLYLINE
8
CUT
66
1
70
1
0
VERTEX
8
CUT
10
164.740
20
62.400
0
VERTEX
8
CUT
10
168.540
20
62.400
0
VERTEX
8
CUT
10
168.540
20
51.600
0
VERTEX
8
CUT
10
164.740
20
51.600
0
SEQEND
8
CUT
0
ENDSEC
0
EOF
