0
SECTION
2
ENTITIES
0
POLYLINE
8
CUT
66
1
70
1
0
VERTEX
8
CUT
10
8.000
20
172.000
0
VERTEX
8
CUT
10
47.000
20
172.000
0
VERTEX
8
CUT
10
47.000
20
289.000
0
VERTEX
8
CUT
10
37.000
20
289.000
0
VERTEX
8
CUT
10
37.000
20
178.000
0
VERTEX
8
CUT
10
8.000
20
178.000
0
SEQEND
8
CUT
0
POLYLINE
8
CUT
66
1
70
1
0
VERTEX
8
CUT
10
51.000
20
172.000
0
VERTEX
8
CUT
10
90.000
20
172.000
0
VERTEX
8
CUT
10
90.000
20
289.000
0
VERTEX
8
CUT
10
80.000
20
289.000
0
VERTEX
8
CUT
10
80.000
20
178.000
0
VERTEX
8
CUT
10
51.000
20
178.000
0
SEQEND
8
CUT
0
POLYLINE
8
CUT
66
1
70
1
0
VERTEX
8
CUT
10
8.000
20
54.000
0
VERTEX
8
CUT
10
188.000
20
54.000
0
VERTEX
8
CUT
10
188.000
20
168.000
0
VERTEX
8
CUT
10
8.000
20
168.000
0
SEQEND
8
CUT
0
POLYLINE
8
CUT
66
1
70
1
0
VERTEX
8
CUT
10
91.940
20
103.200
0
VERTEX
8
CUT
10
91.480
20
102.520
0
VERTEX
8
CUT
10
90.800
20
102.060
0
VERTEX
8
CUT
10
90.000
20
101.900
0
VERTEX
8
CUT
10
89.200
20
102.060
0
VERTEX
8
CUT
10
88.520
20
102.520
0
VERTEX
8
CUT
10
88.060
20
103.200
0
VERTEX
8
CUT
10
87.900
20
104.000
0
VERTEX
8
CUT
10
88.060
20
104.800
0
VERTEX
8
CUT
10
88.520
20
105.480
0
VERTEX
8
CUT
10
89.200
20
105.940
0
VERTEX
8
CUT
10
90.000
20
106.100
0
VERTEX
8
CUT
10
90.800
20
105.940
0
VERTEX
8
CUT
10
91.480
20
105.480
0
VERTEX
8
CUT
10
91.940
20
104.800
0
VERTEX
8
CUT
10
92.100
20
104.000
0
SEQEND
8
CUT
0
POLYLINE
8
CUT
66
1
70
1
0
VERTEX
8
CUT
10
123.940
20
123.200
0
VERTEX
8
CUT
10
123.480
20
122.520
0
VERTEX
8
CUT
10
122.800
20
122.060
0
VERTEX
8
CUT
10
122.000
20
121.900
0
VERTEX
8
CUT
10
121.200
20
122.060
0
VERTEX
8
CUT
10
120.520
20
122.520
0
VERTEX
8
CUT
10
120.060
20
123.200
0
VERTEX
8
CUT
10
119.900
20
124.000
0
VERTEX
8
CUT
10
120.060
20
124.800
0
VERTEX
8
CUT
10
120.520
20
125.480
0
VERTEX
8
CUT
10
121.200
20
125.940
0
VERTEX
8
CUT
10
122.000
20
126.100
0
VERTEX
8
CUT
10
122.800
20
125.940
0
VERTEX
8
CUT
10
123.480
20
125.480
0
VERTEX
8
CUT
10
123.940
20
124.800
0
VERTEX
8
CUT
10
124.100
20
124.000
0
SEQEND
8
CUT
0
ENDSEC
0
EOF
