0
SECTION
2
ENTITIES
0
POLYLINE
8
CUT
66
1
70
1
0
VERTEX
8
CUT
10
8.000
20
175.000
0
VERTEX
8
CUT
10
188.000
20
175.000
0
VERTEX
8
CUT
10
188.000
20
289.000
0
VERTEX
8
CUT
10
8.000
20
289.000
0
SEQEND
8
CUT
0
POLYLINE
8
CUT
66
1
70
1
0
VERTEX
8
CUT
10
58.400
20
261.000
0
VERTEX
8
CUT
10
65.600
20
261.000
0
VERTEX
8
CUT
10
65.600
20
247.000
0
VERTEX
8
CUT
10
58.400
20
247.000
0
SEQEND
8
CUT
0
POLYLINE
8
CUT
66
1
70
1
0
VERTEX
8
CUT
10
74.400
20
261.000
0
VERTEX
8
CUT
10
81.600
20
261.000
0
VERTEX
8
CUT
10
81.600
20
247.000
0
VERTEX
8
CUT
10
74.400
20
247.000
0
SEQEND
8
CUT
0
POLYLINE
8
CUT
66
1
70
1
0
VERTEX
8
CUT
10
128.400
20
270.000
0
VERTEX
8
CUT
10
135.600
20
270.000
0
VERTEX
8
CUT
10
135.600
20
224.000
0
VERTEX
8
CUT
10
128.400
20
224.000
0
SEQEND
8
CUT
0
POLYLINE
8
CUT
66
1
70
1
0
VERTEX
8
CUT
10
108.070
20
241.860
0
VERTEX
8
CUT
10
107.410
20
239.810
0
VERTEX
8
CUT
10
106.330
20
237.950
0
VERTEX
8
CUT
10
104.890
20
236.350
0
VERTEX
8
CUT
10
103.150
20
235.080
0
VERTEX
8
CUT
10
101.180
20
234.200
0
VERTEX
8
CUT
10
99.080
20
233.760
0
VERTEX
8
CUT
10
96.920
20
233.760
0
VERTEX
8
CUT
10
94.820
20
234.200
0
VERTEX
8
CUT
10
92.850
20
235.080
0
VERTEX
8
CUT
10
91.110
20
236.350
0
VERTEX
8
CUT
10
89.670
20
237.950
0
VERTEX
8
CUT
10
88.590
20
239.810
0
VERTEX
8
CUT
10
87.930
20
241.860
0
VERTEX
8
CUT
10
87.700
20
244.000
0
VERTEX
8
CUT
10
87.930
20
246.140
0
VERTEX
8
CUT
10
88.590
20
248.190
0
VERTEX
8
CUT
10
89.670
20
250.050
0
VERTEX
8
CUT
10
91.110
20
251.650
0
VERTEX
8
CUT
10
92.850
20
252.920
0
VERTEX
8
CUT
10
94.820
20
253.800
0
VERTEX
8
CUT
10
96.920
20
254.240
0
VERTEX
8
CUT
10
99.080
20
254.240
0
VERTEX
8
CUT
10
101.180
20
253.800
0
VERTEX
8
CUT
10
103.150
20
252.920
0
VERTEX
8
CUT
10
104.890
20
251.650
0
VERTEX
8
CUT
10
106.330
20
250.050
0
VERTEX
8
CUT
10
107.410
20
248.190
0
VERTEX
8
CUT
10
108.070
20
246.140
0
VERTEX
8
CUT
10
108.300
20
244.000
0
SEQEND
8
CUT
0
POLYLINE
8
CUT
66
1
70
1
0
VERTEX
8
CUT
10
42.150
20
171.000
0
VERTEX
8
CUT
10
44.180
20
170.940
0
VERTEX
8
CUT
10
46.240
20
170.750
0
VERTEX
8
CUT
10
48.330
20
170.440
0
VERTEX
8
CUT
10
50.400
20
170.000
0
VERTEX
8
CUT
10
52.440
20
169.440
0
VERTEX
8
CUT
10
54.430
20
168.750
0
VERTEX
8
CUT
10
56.340
20
167.940
0
VERTEX
8
CUT
10
58.150
20
167.000
0
VERTEX
8
CUT
10
59.880
20
165.920
0
VERTEX
8
CUT
10
61.570
20
164.700
0
VERTEX
8
CUT
10
63.210
20
163.350
0
VERTEX
8
CUT
10
64.780
20
161.870
0
VERTEX
8
CUT
10
66.270
20
160.290
0
VERTEX
8
CUT
10
67.670
20
158.610
0
VERTEX
8
CUT
10
68.960
20
156.840
0
VERTEX
8
CUT
10
70.150
20
155.000
0
VERTEX
8
CUT
10
71.240
20
153.020
0
VERTEX
8
CUT
10
72.260
20
150.870
0
VERTEX
8
CUT
10
73.190
20
148.600
0
VERTEX
8
CUT
10
74.020
20
146.250
0
VERTEX
8
CUT
10
74.750
20
143.870
0
VERTEX
8
CUT
10
75.350
20
141.500
0
VERTEX
8
CUT
10
75.820
20
139.200
0
VERTEX
8
CUT
10
76.150
20
137.000
0
VERTEX
8
CUT
10
76.300
20
134.880
0
VERTEX
8
CUT
10
76.260
20
132.770
0
VERTEX
8
CUT
10
76.070
20
130.680
0
VERTEX
8
CUT
10
75.770
20
128.620
0
VERTEX
8
CUT
10
75.400
20
126.620
0
VERTEX
8
CUT
10
74.980
20
124.670
0
VERTEX
8
CUT
10
74.550
20
122.790
0
VERTEX
8
CUT
10
74.150
20
121.000
0
VERTEX
8
CUT
10
73.770
20
119.290
0
VERTEX
8
CUT
10
73.380
20
117.670
0
VERTEX
8
CUT
10
72.970
20
116.120
0
VERTEX
8
CUT
10
72.520
20
114.620
0
VERTEX
8
CUT
10
72.030
20
113.180
0
VERTEX
8
CUT
10
71.480
20
111.770
0
VERTEX
8
CUT
10
70.860
20
110.380
0
VERTEX
8
CUT
10
70.150
20
109.000
0
VERTEX
8
CUT
10
69.330
20
107.650
0
VERTEX
8
CUT
10
68.380
20
106.360
0
VERTEX
8
CUT
10
67.360
20
105.100
0
VERTEX
8
CUT
10
66.270
20
103.870
0
VERTEX
8
CUT
10
65.180
20
102.660
0
VERTEX
8
CUT
10
64.100
20
101.450
0
VERTEX
8
CUT
10
63.080
20
100.240
0
VERTEX
8
CUT
10
62.150
20
99.000
0
VERTEX
8
CUT
10
61.300
20
97.730
0
VERTEX
8
CUT
10
60.510
20
96.430
0
VERTEX
8
CUT
10
59.750
20
95.120
0
VERTEX
8
CUT
10
59.020
20
93.810
0
VERTEX
8
CUT
10
58.310
20
92.530
0
VERTEX
8
CUT
10
57.600
20
91.290
0
VERTEX
8
CUT
10
56.890
20
90.110
0
VERTEX
8
CUT
10
56.150
20
89.000
0
VERTEX
8
CUT
10
55.410
20
87.950
0
VERTEX
8
CUT
10
54.700
20
86.920
0
VERTEX
8
CUT
10
53.990
20
85.940
0
VERTEX
8
CUT
10
53.280
20
85.000
0
VERTEX
8
CUT
10
52.550
20
84.130
0
VERTEX
8
CUT
10
51.790
20
83.330
0
VERTEX
8
CUT
10
51.000
20
82.620
0
VERTEX
8
CUT
10
50.150
20
82.000
0
VERTEX
8
CUT
10
49.250
20
81.480
0
VERTEX
8
CUT
10
48.290
20
81.050
0
VERTEX
8
CUT
10
47.300
20
80.710
0
VERTEX
8
CUT
10
46.280
20
80.440
0
VERTEX
8
CUT
10
45.240
20
80.240
0
VERTEX
8
CUT
10
44.200
20
80.100
0
VERTEX
8
CUT
10
43.160
20
80.020
0
VERTEX
8
CUT
10
42.150
20
80.000
0
VERTEX
8
CUT
10
41.140
20
80.020
0
VERTEX
8
CUT
10
40.100
20
80.100
0
VERTEX
8
CUT
10
39.060
20
80.240
0
VERTEX
8
CUT
10
38.030
20
80.440
0
VERTEX
8
CUT
10
37.000
20
80.710
0
VERTEX
8
CUT
10
36.010
20
81.050
0
VERTEX
8
CUT
10
35.050
20
81.480
0
VERTEX
8
CUT
10
34.150
20
82.000
0
VERTEX
8
CUT
10
33.300
20
82.620
0
VERTEX
8
CUT
10
32.510
20
83.330
0
VERTEX
8
CUT
10
31.750
20
84.130
0
VERTEX
8
CUT
10
31.020
20
85.000
0
VERTEX
8
CUT
10
30.310
20
85.940
0
VERTEX
8
CUT
10
29.600
20
86.920
0
VERTEX
8
CUT
10
28.890
20
87.950
0
VERTEX
8
CUT
10
28.150
20
89.000
0
VERTEX
8
CUT
10
27.410
20
90.110
0
VERTEX
8
CUT
10
26.700
20
91.290
0
VERTEX
8
CUT
10
25.990
20
92.530
0
VERTEX
8
CUT
10
25.280
20
93.810
0
VERTEX
8
CUT
10
24.550
20
95.120
0
VERTEX
8
CUT
10
23.790
20
96.430
0
VERTEX
8
CUT
10
23.000
20
97.730
0
VERTEX
8
CUT
10
22.150
20
99.000
0
VERTEX
8
CUT
10
21.220
20
100.240
0
VERTEX
8
CUT
10
20.200
20
101.450
0
VERTEX
8
CUT
10
19.120
20
102.660
0
VERTEX
8
CUT
10
18.020
20
103.870
0
VERTEX
8
CUT
10
16.940
20
105.100
0
VERTEX
8
CUT
10
15.920
20
106.360
0
VERTEX
8
CUT
10
14.970
20
107.650
0
VERTEX
8
CUT
10
14.150
20
109.000
0
VERTEX
8
CUT
10
13.440
20
110.380
0
VERTEX
8
CUT
10
12.820
20
111.770
0
VERTEX
8
CUT
10
12.270
20
113.180
0
VERTEX
8
CUT
10
11.780
20
114.620
0
VERTEX
8
CUT
10
11.330
20
116.120
0
VERTEX
8
CUT
10
10.920
20
117.670
0
VERTEX
8
CUT
10
10.530
20
119.290
0
VERTEX
8
CUT
10
10.150
20
121.000
0
VERTEX
8
CUT
10
9.750
20
122.790
0
VERTEX
8
CUT
10
9.320
20
124.670
0
VERTEX
8
CUT
10
8.900
20
126.620
0
VERTEX
8
CUT
10
8.530
20
128.620
0
VERTEX
8
CUT
10
8.230
20
130.680
0
VERTEX
8
CUT
10
8.040
20
132.770
0
VERTEX
8
CUT
10
8.000
20
134.880
0
VERTEX
8
CUT
10
8.150
20
137.000
0
VERTEX
8
CUT
10
8.480
20
139.200
0
VERTEX
8
CUT
10
8.950
20
141.500
0
VERTEX
8
CUT
10
9.550
20
143.870
0
VERTEX
8
CUT
10
10.280
20
146.250
0
VERTEX
8
CUT
10
11.110
20
148.600
0
VERTEX
8
CUT
10
12.040
20
150.870
0
VERTEX
8
CUT
10
13.060
20
153.020
0
VERTEX
8
CUT
10
14.150
20
155.000
0
VERTEX
8
CUT
10
15.340
20
156.840
0
VERTEX
8
CUT
10
16.630
20
158.610
0
VERTEX
8
CUT
10
18.030
20
160.290
0
VERTEX
8
CUT
10
19.530
20
161.870
0
VERTEX
8
CUT
10
21.090
20
163.350
0
VERTEX
8
CUT
10
22.730
20
164.700
0
VERTEX
8
CUT
10
24.420
20
165.920
0
VERTEX
8
CUT
10
26.150
20
167.000
0
VERTEX
8
CUT
10
27.960
20
167.940
0
VERTEX
8
CUT
10
29.870
20
168.750
0
VERTEX
8
CUT
10
31.860
20
169.440
0
VERTEX
8
CUT
10
33.900
20
170.000
0
VERTEX
8
CUT
10
35.970
20
170.440
0
VERTEX
8
CUT
10
38.060
20
170.750
0
VERTEX
8
CUT
10
40.120
20
170.940
0
VERTEX
8
CUT
10
42.150
20
171.000
0
SEQEND
8
CUT
0
POLYLINE
8
CUT
66
1
70
1
0
VERTEX
8
CUT
10
40.830
20
134.370
0
VERTEX
8
CUT
10
39.890
20
131.890
0
VERTEX
8
CUT
10
38.380
20
129.710
0
VERTEX
8
CUT
10
36.400
20
127.950
0
VERTEX
8
CUT
10
34.050
20
126.710
0
VERTEX
8
CUT
10
31.480
20
126.080
0
VERTEX
8
CUT
10
28.820
20
126.080
0
VERTEX
8
CUT
10
26.250
20
126.710
0
VERTEX
8
CUT
10
23.900
20
127.950
0
VERTEX
8
CUT
10
21.920
20
129.710
0
VERTEX
8
CUT
10
20.410
20
131.890
0
VERTEX
8
CUT
10
19.470
20
134.370
0
VERTEX
8
CUT
10
19.150
20
137.000
0
VERTEX
8
CUT
10
19.470
20
139.630
0
VERTEX
8
CUT
10
20.410
20
142.110
0
VERTEX
8
CUT
10
21.920
20
144.290
0
VERTEX
8
CUT
10
23.900
20
146.050
0
VERTEX
8
CUT
10
26.250
20
147.290
0
VERTEX
8
CUT
10
28.820
20
147.920
0
VERTEX
8
CUT
10
31.480
20
147.920
0
VERTEX
8
CUT
10
34.050
20
147.290
0
VERTEX
8
CUT
10
36.400
20
146.050
0
VERTEX
8
CUT
10
38.380
20
144.290
0
VERTEX
8
CUT
10
39.890
20
142.110
0
VERTEX
8
CUT
10
40.830
20
139.630
0
VERTEX
8
CUT
10
41.150
20
137.000
0
SEQEND
8
CUT
0
POLYLINE
8
CUT
66
1
70
1
0
VERTEX
8
CUT
10
64.830
20
134.370
0
VERTEX
8
CUT
10
63.890
20
131.890
0
VERTEX
8
CUT
10
62.380
20
129.710
0
VERTEX
8
CUT
10
60.400
20
127.950
0
VERTEX
8
CUT
10
58.050
20
126.710
0
VERTEX
8
CUT
10
55.480
20
126.080
0
VERTEX
8
CUT
10
52.820
20
126.080
0
VERTEX
8
CUT
10
50.250
20
126.710
0
VERTEX
8
CUT
10
47.900
20
127.950
0
VERTEX
8
CUT
10
45.920
20
129.710
0
VERTEX
8
CUT
10
44.410
20
131.890
0
VERTEX
8
CUT
10
43.470
20
134.370
0
VERTEX
8
CUT
10
43.150
20
137.000
0
VERTEX
8
CUT
10
43.470
20
139.630
0
VERTEX
8
CUT
10
44.410
20
142.110
0
VERTEX
8
CUT
10
45.920
20
144.290
0
VERTEX
8
CUT
10
47.900
20
146.050
0
VERTEX
8
CUT
10
50.250
20
147.290
0
VERTEX
8
CUT
10
52.820
20
147.920
0
VERTEX
8
CUT
10
55.480
20
147.920
0
VERTEX
8
CUT
10
58.050
20
147.290
0
VERTEX
8
CUT
10
60.400
20
146.050
0
VERTEX
8
CUT
10
62.380
20
144.290
0
VERTEX
8
CUT
10
63.890
20
142.110
0
VERTEX
8
CUT
10
64.830
20
139.630
0
VERTEX
8
CUT
10
65.150
20
137.000
0
SEQEND
8
CUT
0
POLYLINE
8
CUT
66
1
70
1
0
VERTEX
8
CUT
10
42.150
20
126.000
0
VERTEX
8
CUT
10
48.150
20
115.000
0
VERTEX
8
CUT
10
36.150
20
115.000
0
SEQEND
8
CUT
0
POLYLINE
8
CUT
66
1
70
1
0
VERTEX
8
CUT
10
30.090
20
110.200
0
VERTEX
8
CUT
10
29.630
20
109.520
0
VERTEX
8
CUT
10
28.950
20
109.060
0
VERTEX
8
CUT
10
28.150
20
108.900
0
VERTEX
8
CUT
10
27.350
20
109.060
0
VERTEX
8
CUT
10
26.670
20
109.520
0
VERTEX
8
CUT
10
26.210
20
110.200
0
VERTEX
8
CUT
10
26.050
20
111.000
0
VERTEX
8
CUT
10
26.210
20
111.800
0
VERTEX
8
CUT
10
26.670
20
112.480
0
VERTEX
8
CUT
10
27.350
20
112.940
0
VERTEX
8
CUT
10
28.150
20
113.100
0
VERTEX
8
CUT
10
28.950
20
112.940
0
VERTEX
8
CUT
10
29.630
20
112.480
0
VERTEX
8
CUT
10
30.090
20
111.800
0
VERTEX
8
CUT
10
30.250
20
111.000
0
SEQEND
8
CUT
0
POLYLINE
8
CUT
66
1
70
1
0
VERTEX
8
CUT
10
58.090
20
110.200
0
VERTEX
8
CUT
10
57.630
20
109.520
0
VERTEX
8
CUT
10
56.950
20
109.060
0
VERTEX
8
CUT
10
56.150
20
108.900
0
VERTEX
8
CUT
10
55.350
20
109.060
0
VERTEX
8
CUT
10
54.670
20
109.520
0
VERTEX
8
CUT
10
54.210
20
110.200
0
VERTEX
8
CUT
10
54.050
20
111.000
0
VERTEX
8
CUT
10
54.210
20
111.800
0
VERTEX
8
CUT
10
54.670
20
112.480
0
VERTEX
8
CUT
10
55.350
20
112.940
0
VERTEX
8
CUT
10
56.150
20
113.100
0
VERTEX
8
CUT
10
56.950
20
112.940
0
VERTEX
8
CUT
10
57.630
20
112.480
0
VERTEX
8
CUT
10
58.090
20
111.800
0
VERTEX
8
CUT
10
58.250
20
111.000
0
SEQEND
8
CUT
0
POLYLINE
8
CUT
66
1
70
1
0
VERTEX
8
CUT
10
22.090
20
130.200
0
VERTEX
8
CUT
10
21.630
20
129.520
0
VERTEX
8
CUT
10
20.950
20
129.060
0
VERTEX
8
CUT
10
20.150
20
128.900
0
VERTEX
8
CUT
10
19.350
20
129.060
0
VERTEX
8
CUT
10
18.670
20
129.520
0
VERTEX
8
CUT
10
18.210
20
130.200
0
VERTEX
8
CUT
10
18.050
20
131.000
0
VERTEX
8
CUT
10
18.210
20
131.800
0
VERTEX
8
CUT
10
18.670
20
132.480
0
VERTEX
8
CUT
10
19.350
20
132.940
0
VERTEX
8
CUT
10
20.150
20
133.100
0
VERTEX
8
CUT
10
20.950
20
132.940
0
VERTEX
8
CUT
10
21.630
20
132.480
0
VERTEX
8
CUT
10
22.090
20
131.800
0
VERTEX
8
CUT
10
22.250
20
131.000
0
SEQEND
8
CUT
0
POLYLINE
8
CUT
66
1
70
1
0
VERTEX
8
CUT
10
66.090
20
130.200
0
VERTEX
8
CUT
10
65.630
20
129.520
0
VERTEX
8
CUT
10
64.950
20
129.060
0
VERTEX
8
CUT
10
64.150
20
128.900
0
VERTEX
8
CUT
10
63.350
20
129.060
0
VERTEX
8
CUT
10
62.670
20
129.520
0
VERTEX
8
CUT
10
62.210
20
130.200
0
VERTEX
8
CUT
10
62.050
20
131.000
0
VERTEX
8
CUT
10
62.210
20
131.800
0
VERTEX
8
CUT
10
62.670
20
132.480
0
VERTEX
8
CUT
10
63.350
20
132.940
0
VERTEX
8
CUT
10
64.150
20
133.100
0
VERTEX
8
CUT
10
64.950
20
132.940
0
VERTEX
8
CUT
10
65.630
20
132.480
0
VERTEX
8
CUT
10
66.090
20
131.800
0
VERTEX
8
CUT
10
66.250
20
131.000
0
SEQEND
8
CUT
0
POLYLINE
8
CUT
66
1
70
1
0
VERTEX
8
CUT
10
114.450
20
171.000
0
VERTEX
8
CUT
10
116.480
20
170.940
0
VERTEX
8
CUT
10
118.540
20
170.750
0
VERTEX
8
CUT
10
120.630
20
170.440
0
VERTEX
8
CUT
10
122.700
20
170.000
0
VERTEX
8
CUT
10
124.740
20
169.440
0
VERTEX
8
CUT
10
126.730
20
168.750
0
VERTEX
8
CUT
10
128.640
20
167.940
0
VERTEX
8
CUT
10
130.450
20
167.000
0
VERTEX
8
CUT
10
132.180
20
165.920
0
VERTEX
8
CUT
10
133.870
20
164.700
0
VERTEX
8
CUT
10
135.510
20
163.350
0
VERTEX
8
CUT
10
137.080
20
161.870
0
VERTEX
8
CUT
10
138.570
20
160.290
0
VERTEX
8
CUT
10
139.970
20
158.610
0
VERTEX
8
CUT
10
141.260
20
156.840
0
VERTEX
8
CUT
10
142.450
20
155.000
0
VERTEX
8
CUT
10
143.540
20
153.020
0
VERTEX
8
CUT
10
144.560
20
150.870
0
VERTEX
8
CUT
10
145.490
20
148.600
0
VERTEX
8
CUT
10
146.320
20
146.250
0
VERTEX
8
CUT
10
147.050
20
143.870
0
VERTEX
8
CUT
10
147.650
20
141.500
0
VERTEX
8
CUT
10
148.120
20
139.200
0
VERTEX
8
CUT
10
148.450
20
137.000
0
VERTEX
8
CUT
10
148.600
20
134.880
0
VERTEX
8
CUT
10
148.560
20
132.770
0
VERTEX
8
CUT
10
148.370
20
130.680
0
VERTEX
8
CUT
10
148.070
20
128.620
0
VERTEX
8
CUT
10
147.700
20
126.620
0
VERTEX
8
CUT
10
147.280
20
124.670
0
VERTEX
8
CUT
10
146.850
20
122.790
0
VERTEX
8
CUT
10
146.450
20
121.000
0
VERTEX
8
CUT
10
146.070
20
119.290
0
VERTEX
8
CUT
10
145.680
20
117.670
0
VERTEX
8
CUT
10
145.270
20
116.120
0
VERTEX
8
CUT
10
144.820
20
114.620
0
VERTEX
8
CUT
10
144.330
20
113.180
0
VERTEX
8
CUT
10
143.780
20
111.770
0
VERTEX
8
CUT
10
143.160
20
110.380
0
VERTEX
8
CUT
10
142.450
20
109.000
0
VERTEX
8
CUT
10
141.630
20
107.650
0
VERTEX
8
CUT
10
140.680
20
106.360
0
VERTEX
8
CUT
10
139.660
20
105.100
0
VERTEX
8
CUT
10
138.570
20
103.870
0
VERTEX
8
CUT
10
137.480
20
102.660
0
VERTEX
8
CUT
10
136.400
20
101.450
0
VERTEX
8
CUT
10
135.380
20
100.240
0
VERTEX
8
CUT
10
134.450
20
99.000
0
VERTEX
8
CUT
10
133.600
20
97.730
0
VERTEX
8
CUT
10
132.810
20
96.430
0
VERTEX
8
CUT
10
132.050
20
95.120
0
VERTEX
8
CUT
10
131.320
20
93.810
0
VERTEX
8
CUT
10
130.610
20
92.530
0
VERTEX
8
CUT
10
129.900
20
91.290
0
VERTEX
8
CUT
10
129.190
20
90.110
0
VERTEX
8
CUT
10
128.450
20
89.000
0
VERTEX
8
CUT
10
127.710
20
87.950
0
VERTEX
8
CUT
10
127.000
20
86.920
0
VERTEX
8
CUT
10
126.290
20
85.940
0
VERTEX
8
CUT
10
125.580
20
85.000
0
VERTEX
8
CUT
10
124.850
20
84.130
0
VERTEX
8
CUT
10
124.090
20
83.330
0
VERTEX
8
CUT
10
123.300
20
82.620
0
VERTEX
8
CUT
10
122.450
20
82.000
0
VERTEX
8
CUT
10
121.550
20
81.480
0
VERTEX
8
CUT
10
120.590
20
81.050
0
VERTEX
8
CUT
10
119.600
20
80.710
0
VERTEX
8
CUT
10
118.580
20
80.440
0
VERTEX
8
CUT
10
117.540
20
80.240
0
VERTEX
8
CUT
10
116.500
20
80.100
0
VERTEX
8
CUT
10
115.460
20
80.020
0
VERTEX
8
CUT
10
114.450
20
80.000
0
VERTEX
8
CUT
10
113.440
20
80.020
0
VERTEX
8
CUT
10
112.400
20
80.100
0
VERTEX
8
CUT
10
111.360
20
80.240
0
VERTEX
8
CUT
10
110.330
20
80.440
0
VERTEX
8
CUT
10
109.300
20
80.710
0
VERTEX
8
CUT
10
108.310
20
81.050
0
VERTEX
8
CUT
10
107.350
20
81.480
0
VERTEX
8
CUT
10
106.450
20
82.000
0
VERTEX
8
CUT
10
105.600
20
82.620
0
VERTEX
8
CUT
10
104.810
20
83.330
0
VERTEX
8
CUT
10
104.050
20
84.130
0
VERTEX
8
CUT
10
103.320
20
85.000
0
VERTEX
8
CUT
10
102.610
20
85.940
0
VERTEX
8
CUT
10
101.900
20
86.920
0
VERTEX
8
CUT
10
101.190
20
87.950
0
VERTEX
8
CUT
10
100.450
20
89.000
0
VERTEX
8
CUT
10
99.710
20
90.110
0
VERTEX
8
CUT
10
99.000
20
91.290
0
VERTEX
8
CUT
10
98.290
20
92.530
0
VERTEX
8
CUT
10
97.580
20
93.810
0
VERTEX
8
CUT
10
96.850
20
95.120
0
VERTEX
8
CUT
10
96.090
20
96.430
0
VERTEX
8
CUT
10
95.300
20
97.730
0
VERTEX
8
CUT
10
94.450
20
99.000
0
VERTEX
8
CUT
10
93.520
20
100.240
0
VERTEX
8
CUT
10
92.500
20
101.450
0
VERTEX
8
CUT
10
91.420
20
102.660
0
VERTEX
8
CUT
10
90.320
20
103.870
0
VERTEX
8
CUT
10
89.240
20
105.100
0
VERTEX
8
CUT
10
88.220
20
106.360
0
VERTEX
8
CUT
10
87.270
20
107.650
0
VERTEX
8
CUT
10
86.450
20
109.000
0
VERTEX
8
CUT
10
85.740
20
110.380
0
VERTEX
8
CUT
10
85.120
20
111.770
0
VERTEX
8
CUT
10
84.570
20
113.180
0
VERTEX
8
CUT
10
84.080
20
114.620
0
VERTEX
8
CUT
10
83.630
20
116.120
0
VERTEX
8
CUT
10
83.220
20
117.670
0
VERTEX
8
CUT
10
82.830
20
119.290
0
VERTEX
8
CUT
10
82.450
20
121.000
0
VERTEX
8
CUT
10
82.050
20
122.790
0
VERTEX
8
CUT
10
81.620
20
124.670
0
VERTEX
8
CUT
10
81.200
20
126.620
0
VERTEX
8
CUT
10
80.830
20
128.620
0
VERTEX
8
CUT
10
80.530
20
130.680
0
VERTEX
8
CUT
10
80.340
20
132.770
0
VERTEX
8
CUT
10
80.300
20
134.880
0
VERTEX
8
CUT
10
80.450
20
137.000
0
VERTEX
8
CUT
10
80.780
20
139.200
0
VERTEX
8
CUT
10
81.250
20
141.500
0
VERTEX
8
CUT
10
81.850
20
143.870
0
VERTEX
8
CUT
10
82.580
20
146.250
0
VERTEX
8
CUT
10
83.410
20
148.600
0
VERTEX
8
CUT
10
84.340
20
150.870
0
VERTEX
8
CUT
10
85.360
20
153.020
0
VERTEX
8
CUT
10
86.450
20
155.000
0
VERTEX
8
CUT
10
87.640
20
156.840
0
VERTEX
8
CUT
10
88.930
20
158.610
0
VERTEX
8
CUT
10
90.330
20
160.290
0
VERTEX
8
CUT
10
91.830
20
161.870
0
VERTEX
8
CUT
10
93.390
20
163.350
0
VERTEX
8
CUT
10
95.030
20
164.700
0
VERTEX
8
CUT
10
96.720
20
165.920
0
VERTEX
8
CUT
10
98.450
20
167.000
0
VERTEX
8
CUT
10
100.260
20
167.940
0
VERTEX
8
CUT
10
102.170
20
168.750
0
VERTEX
8
CUT
10
104.160
20
169.440
0
VERTEX
8
CUT
10
106.200
20
170.000
0
VERTEX
8
CUT
10
108.270
20
170.440
0
VERTEX
8
CUT
10
110.360
20
170.750
0
VERTEX
8
CUT
10
112.420
20
170.940
0
VERTEX
8
CUT
10
114.450
20
171.000
0
SEQEND
8
CUT
0
POLYLINE
8
CUT
66
1
70
1
0
VERTEX
8
CUT
10
113.130
20
134.370
0
VERTEX
8
CUT
10
112.190
20
131.890
0
VERTEX
8
CUT
10
110.680
20
129.710
0
VERTEX
8
CUT
10
108.700
20
127.950
0
VERTEX
8
CUT
10
106.350
20
126.710
0
VERTEX
8
CUT
10
103.780
20
126.080
0
VERTEX
8
CUT
10
101.120
20
126.080
0
VERTEX
8
CUT
10
98.550
20
126.710
0
VERTEX
8
CUT
10
96.200
20
127.950
0
VERTEX
8
CUT
10
94.220
20
129.710
0
VERTEX
8
CUT
10
92.710
20
131.890
0
VERTEX
8
CUT
10
91.770
20
134.370
0
VERTEX
8
CUT
10
91.450
20
137.000
0
VERTEX
8
CUT
10
91.770
20
139.630
0
VERTEX
8
CUT
10
92.710
20
142.110
0
VERTEX
8
CUT
10
94.220
20
144.290
0
VERTEX
8
CUT
10
96.200
20
146.050
0
VERTEX
8
CUT
10
98.550
20
147.290
0
VERTEX
8
CUT
10
101.120
20
147.920
0
VERTEX
8
CUT
10
103.780
20
147.920
0
VERTEX
8
CUT
10
106.350
20
147.290
0
VERTEX
8
CUT
10
108.700
20
146.050
0
VERTEX
8
CUT
10
110.680
20
144.290
0
VERTEX
8
CUT
10
112.190
20
142.110
0
VERTEX
8
CUT
10
113.130
20
139.630
0
VERTEX
8
CUT
10
113.450
20
137.000
0
SEQEND
8
CUT
0
POLYLINE
8
CUT
66
1
70
1
0
VERTEX
8
CUT
10
137.130
20
134.370
0
VERTEX
8
CUT
10
136.190
20
131.890
0
VERTEX
8
CUT
10
134.680
20
129.710
0
VERTEX
8
CUT
10
132.700
20
127.950
0
VERTEX
8
CUT
10
130.350
20
126.710
0
VERTEX
8
CUT
10
127.780
20
126.080
0
VERTEX
8
CUT
10
125.120
20
126.080
0
VERTEX
8
CUT
10
122.550
20
126.710
0
VERTEX
8
CUT
10
120.200
20
127.950
0
VERTEX
8
CUT
10
118.220
20
129.710
0
VERTEX
8
CUT
10
116.710
20
131.890
0
VERTEX
8
CUT
10
115.770
20
134.370
0
VERTEX
8
CUT
10
115.450
20
137.000
0
VERTEX
8
CUT
10
115.770
20
139.630
0
VERTEX
8
CUT
10
116.710
20
142.110
0
VERTEX
8
CUT
10
118.220
20
144.290
0
VERTEX
8
CUT
10
120.200
20
146.050
0
VERTEX
8
CUT
10
122.550
20
147.290
0
VERTEX
8
CUT
10
125.120
20
147.920
0
VERTEX
8
CUT
10
127.780
20
147.920
0
VERTEX
8
CUT
10
130.350
20
147.290
0
VERTEX
8
CUT
10
132.700
20
146.050
0
VERTEX
8
CUT
10
134.680
20
144.290
0
VERTEX
8
CUT
10
136.190
20
142.110
0
VERTEX
8
CUT
10
137.130
20
139.630
0
VERTEX
8
CUT
10
137.450
20
137.000
0
SEQEND
8
CUT
0
POLYLINE
8
CUT
66
1
70
1
0
VERTEX
8
CUT
10
114.450
20
126.000
0
VERTEX
8
CUT
10
120.450
20
115.000
0
VERTEX
8
CUT
10
108.450
20
115.000
0
SEQEND
8
CUT
0
POLYLINE
8
CUT
66
1
70
1
0
VERTEX
8
CUT
10
102.390
20
110.200
0
VERTEX
8
CUT
10
101.930
20
109.520
0
VERTEX
8
CUT
10
101.250
20
109.060
0
VERTEX
8
CUT
10
100.450
20
108.900
0
VERTEX
8
CUT
10
99.650
20
109.060
0
VERTEX
8
CUT
10
98.970
20
109.520
0
VERTEX
8
CUT
10
98.510
20
110.200
0
VERTEX
8
CUT
10
98.350
20
111.000
0
VERTEX
8
CUT
10
98.510
20
111.800
0
VERTEX
8
CUT
10
98.970
20
112.480
0
VERTEX
8
CUT
10
99.650
20
112.940
0
VERTEX
8
CUT
10
100.450
20
113.100
0
VERTEX
8
CUT
10
101.250
20
112.940
0
VERTEX
8
CUT
10
101.930
20
112.480
0
VERTEX
8
CUT
10
102.390
20
111.800
0
VERTEX
8
CUT
10
102.550
20
111.000
0
SEQEND
8
CUT
0
POLYLINE
8
CUT
66
1
70
1
0
VERTEX
8
CUT
10
130.390
20
110.200
0
VERTEX
8
CUT
10
129.930
20
109.520
0
VERTEX
8
CUT
10
129.250
20
109.060
0
VERTEX
8
CUT
10
128.450
20
108.900
0
VERTEX
8
CUT
10
127.650
20
109.060
0
VERTEX
8
CUT
10
126.970
20
109.520
0
VERTEX
8
CUT
10
126.510
20
110.200
0
VERTEX
8
CUT
10
126.350
20
111.000
0
VERTEX
8
CUT
10
126.510
20
111.800
0
VERTEX
8
CUT
10
126.970
20
112.480
0
VERTEX
8
CUT
10
127.650
20
112.940
0
VERTEX
8
CUT
10
128.450
20
113.100
0
VERTEX
8
CUT
10
129.250
20
112.940
0
VERTEX
8
CUT
10
129.930
20
112.480
0
VERTEX
8
CUT
10
130.390
20
111.800
0
VERTEX
8
CUT
10
130.550
20
111.000
0
SEQEND
8
CUT
0
POLYLINE
8
CUT
66
1
70
1
0
VERTEX
8
CUT
10
94.390
20
130.200
0
VERTEX
8
CUT
10
93.930
20
129.520
0
VERTEX
8
CUT
10
93.250
20
129.060
0
VERTEX
8
CUT
10
92.450
20
128.900
0
VERTEX
8
CUT
10
91.650
20
129.060
0
VERTEX
8
CUT
10
90.970
20
129.520
0
VERTEX
8
CUT
10
90.510
20
130.200
0
VERTEX
8
CUT
10
90.350
20
131.000
0
VERTEX
8
CUT
10
90.510
20
131.800
0
VERTEX
8
CUT
10
90.970
20
132.480
0
VERTEX
8
CUT
10
91.650
20
132.940
0
VERTEX
8
CUT
10
92.450
20
133.100
0
VERTEX
8
CUT
10
93.250
20
132.940
0
VERTEX
8
CUT
10
93.930
20
132.480
0
VERTEX
8
CUT
10
94.390
20
131.800
0
VERTEX
8
CUT
10
94.550
20
131.000
0
SEQEND
8
CUT
0
POLYLINE
8
CUT
66
1
70
1
0
VERTEX
8
CUT
10
138.390
20
130.200
0
VERTEX
8
CUT
10
137.930
20
129.520
0
VERTEX
8
CUT
10
137.250
20
129.060
0
VERTEX
8
CUT
10
136.450
20
128.900
0
VERTEX
8
CUT
10
135.650
20
129.060
0
VERTEX
8
CUT
10
134.970
20
129.520
0
VERTEX
8
CUT
10
134.510
20
130.200
0
VERTEX
8
CUT
10
134.350
20
131.000
0
VERTEX
8
CUT
10
134.510
20
131.800
0
VERTEX
8
CUT
10
134.970
20
132.480
0
VERTEX
8
CUT
10
135.650
20
132.940
0
VERTEX
8
CUT
10
136.450
20
133.100
0
VERTEX
8
CUT
10
137.250
20
132.940
0
VERTEX
8
CUT
10
137.930
20
132.480
0
VERTEX
8
CUT
10
138.390
20
131.800
0
VERTEX
8
CUT
10
138.550
20
131.000
0
SEQEND
8
CUT
0
ENDSEC
0
EOF
