0
SECTION
2
ENTITIES
0
POLYLINE
8
CUT
66
1
70
1
0
VERTEX
8
CUT
10
6.000
20
219.000
0
VERTEX
8
CUT
10
76.000
20
219.000
0
VERTEX
8
CUT
10
76.000
20
291.000
0
VERTEX
8
CUT
10
6.000
20
291.000
0
SEQEND
8
CUT
0
POLYLINE
8
CUT
66
1
70
1
0
VERTEX
8
CUT
10
43.990
20
253.200
0
VERTEX
8
CUT
10
43.680
20
252.450
0
VERTEX
8
CUT
10
43.190
20
251.810
0
VERTEX
8
CUT
10
42.550
20
251.320
0
VERTEX
8
CUT
10
41.800
20
251.010
0
VERTEX
8
CUT
10
41.000
20
250.900
0
VERTEX
8
CUT
10
40.200
20
251.010
0
VERTEX
8
CUT
10
39.450
20
251.320
0
VERTEX
8
CUT
10
38.810
20
251.810
0
VERTEX
8
CUT
10
38.320
20
252.450
0
VERTEX
8
CUT
10
38.010
20
253.200
0
VERTEX
8
CUT
10
37.900
20
254.000
0
VERTEX
8
CUT
10
38.010
20
254.800
0
VERTEX
8
CUT
10
38.320
20
255.550
0
VERTEX
8
CUT
10
38.810
20
256.190
0
VERTEX
8
CUT
10
39.450
20
256.680
0
VERTEX
8
CUT
10
40.200
20
256.990
0
VERTEX
8
CUT
10
41.000
20
257.100
0
VERTEX
8
CUT
10
41.800
20
256.990
0
VERTEX
8
CUT
10
42.550
20
256.680
0
VERTEX
8
CUT
10
43.190
20
256.190
0
VERTEX
8
CUT
10
43.680
20
255.550
0
VERTEX
8
CUT
10
43.990
20
254.800
0
VERTEX
8
CUT
10
44.100
20
254.000
0
SEQEND
8
CUT
0
POLYLINE
8
CUT
66
1
70
1
0
VERTEX
8
CUT
10
79.000
20
219.000
0
VERTEX
8
CUT
10
149.000
20
219.000
0
VERTEX
8
CUT
10
149.000
20
291.000
0
VERTEX
8
CUT
10
79.000
20
291.000
0
SEQEND
8
CUT
0
POLYLINE
8
CUT
66
1
70
1
0
VERTEX
8
CUT
10
116.990
20
253.200
0
VERTEX
8
CUT
10
116.680
20
252.450
0
VERTEX
8
CUT
10
116.190
20
251.810
0
VERTEX
8
CUT
10
115.550
20
251.320
0
VERTEX
8
CUT
10
114.800
20
251.010
0
VERTEX
8
CUT
10
114.000
20
250.900
0
VERTEX
8
CUT
10
113.200
20
251.010
0
VERTEX
8
CUT
10
112.450
20
251.320
0
VERTEX
8
CUT
10
111.810
20
251.810
0
VERTEX
8
CUT
10
111.320
20
252.450
0
VERTEX
8
CUT
10
111.010
20
253.200
0
VERTEX
8
CUT
10
110.900
20
254.000
0
VERTEX
8
CUT
10
111.010
20
254.800
0
VERTEX
8
CUT
10
111.320
20
255.550
0
VERTEX
8
CUT
10
111.810
20
256.190
0
VERTEX
8
CUT
10
112.450
20
256.680
0
VERTEX
8
CUT
10
113.200
20
256.990
0
VERTEX
8
CUT
10
114.000
20
257.100
0
VERTEX
8
CUT
10
114.800
20
256.990
0
VERTEX
8
CUT
10
115.550
20
256.680
0
VERTEX
8
CUT
10
116.190
20
256.190
0
VERTEX
8
CUT
10
116.680
20
255.550
0
VERTEX
8
CUT
10
116.990
20
254.800
0
VERTEX
8
CUT
10
117.100
20
254.000
0
SEQEND
8
CUT
0
POLYLINE
8
CUT
66
1
70
1
0
VERTEX
8
CUT
10
6.000
20
146.000
0
VERTEX
8
CUT
10
106.000
20
146.000
0
VERTEX
8
CUT
10
106.000
20
216.000
0
VERTEX
8
CUT
10
6.000
20
216.000
0
SEQEND
8
CUT
0
POLYLINE
8
CUT
66
1
70
1
0
VERTEX
8
CUT
10
6.000
20
73.000
0
VERTEX
8
CUT
10
106.000
20
73.000
0
VERTEX
8
CUT
10
106.000
20
143.000
0
VERTEX
8
CUT
10
6.000
20
143.000
0
SEQEND
8
CUT
0
POLYLINE
8
CUT
66
1
70
1
0
VERTEX
8
CUT
10
62.700
20
116.300
0
VERTEX
8
CUT
10
69.300
20
116.300
0
VERTEX
8
CUT
10
69.300
20
99.700
0
VERTEX
8
CUT
10
62.700
20
99.700
0
SEQEND
8
CUT
0
POLYLINE
8
CUT
66
1
70
1
0
VERTEX
8
CUT
10
109.000
20
96.000
0
VERTEX
8
CUT
10
131.000
20
96.000
0
VERTEX
8
CUT
10
131.000
20
99.000
0
VERTEX
8
CUT
10
128.000
20
99.000
0
VERTEX
8
CUT
10
128.000
20
143.000
0
VERTEX
8
CUT
10
121.650
20
143.000
0
VERTEX
8
CUT
10
121.650
20
133.000
0
VERTEX
8
CUT
10
118.350
20
133.000
0
VERTEX
8
CUT
10
118.350
20
143.000
0
VERTEX
8
CUT
10
112.000
20
143.000
0
VERTEX
8
CUT
10
112.000
20
99.000
0
VERTEX
8
CUT
10
109.000
20
99.000
0
SEQEND
8
CUT
0
POLYLINE
8
CUT
66
1
70
1
0
VERTEX
8
CUT
10
134.000
20
96.000
0
VERTEX
8
CUT
10
156.000
20
96.000
0
VERTEX
8
CUT
10
156.000
20
99.000
0
VERTEX
8
CUT
10
153.000
20
99.000
0
VERTEX
8
CUT
10
153.000
20
143.000
0
VERTEX
8
CUT
10
146.650
20
143.000
0
VERTEX
8
CUT
10
146.650
20
133.000
0
VERTEX
8
CUT
10
143.350
20
133.000
0
VERTEX
8
CUT
10
143.350
20
143.000
0
VERTEX
8
CUT
10
137.000
20
143.000
0
VERTEX
8
CUT
10
137.000
20
99.000
0
VERTEX
8
CUT
10
134.000
20
99.000
0
SEQEND
8
CUT
0
POLYLINE
8
CUT
66
1
70
1
0
VERTEX
8
CUT
10
173.000
20
136.000
0
VERTEX
8
CUT
10
172.660
20
138.160
0
VERTEX
8
CUT
10
171.660
20
140.110
0
VERTEX
8
CUT
10
170.110
20
141.660
0
VERTEX
8
CUT
10
168.160
20
142.660
0
VERTEX
8
CUT
10
166.000
20
143.000
0
VERTEX
8
CUT
10
163.840
20
142.660
0
VERTEX
8
CUT
10
161.890
20
141.660
0
VERTEX
8
CUT
10
160.340
20
140.110
0
VERTEX
8
CUT
10
159.340
20
138.160
0
VERTEX
8
CUT
10
159.000
20
136.000
0
VERTEX
8
CUT
10
159.000
20
108.000
0
VERTEX
8
CUT
10
159.340
20
105.840
0
VERTEX
8
CUT
10
160.340
20
103.890
0
VERTEX
8
CUT
10
161.890
20
102.340
0
VERTEX
8
CUT
10
163.840
20
101.340
0
VERTEX
8
CUT
10
166.000
20
101.000
0
VERTEX
8
CUT
10
168.160
20
101.340
0
VERTEX
8
CUT
10
170.110
20
102.340
0
VERTEX
8
CUT
10
171.660
20
103.890
0
VERTEX
8
CUT
10
172.660
20
105.840
0
VERTEX
8
CUT
10
173.000
20
108.000
0
SEQEND
8
CUT
0
POLYLINE
8
CUT
66
1
70
1
0
VERTEX
8
CUT
10
168.990
20
135.200
0
VERTEX
8
CUT
10
168.680
20
134.450
0
VERTEX
8
CUT
10
168.190
20
133.810
0
VERTEX
8
CUT
10
167.550
20
133.320
0
VERTEX
8
CUT
10
166.800
20
133.010
0
VERTEX
8
CUT
10
166.000
20
132.900
0
VERTEX
8
CUT
10
165.200
20
133.010
0
VERTEX
8
CUT
10
164.450
20
133.320
0
VERTEX
8
CUT
10
163.810
20
133.810
0
VERTEX
8
CUT
10
163.320
20
134.450
0
VERTEX
8
CUT
10
163.010
20
135.200
0
VERTEX
8
CUT
10
162.900
20
136.000
0
VERTEX
8
CUT
10
163.010
20
136.800
0
VERTEX
8
CUT
10
163.320
20
137.550
0
VERTEX
8
CUT
10
163.810
20
138.190
0
VERTEX
8
CUT
10
164.450
20
138.680
0
VERTEX
8
CUT
10
165.200
20
138.990
0
VERTEX
8
CUT
10
166.000
20
139.100
0
VERTEX
8
CUT
10
166.800
20
138.990
0
VERTEX
8
CUT
10
167.550
20
138.680
0
VERTEX
8
CUT
10
168.190
20
138.190
0
VERTEX
8
CUT
10
168.680
20
137.550
0
VERTEX
8
CUT
10
168.990
20
136.800
0
VERTEX
8
CUT
10
169.100
20
136.000
0
SEQEND
8
CUT
0
POLYLINE
8
CUT
66
1
70
1
0
VERTEX
8
CUT
10
168.990
20
107.200
0
VERTEX
8
CUT
10
168.680
20
106.450
0
VERTEX
8
CUT
10
168.190
20
105.810
0
VERTEX
8
CUT
10
167.550
20
105.320
0
VERTEX
8
CUT
10
166.800
20
105.010
0
VERTEX
8
CUT
10
166.000
20
104.900
0
VERTEX
8
CUT
10
165.200
20
105.010
0
VERTEX
8
CUT
10
164.450
20
105.320
0
VERTEX
8
CUT
10
163.810
20
105.810
0
VERTEX
8
CUT
10
163.320
20
106.450
0
VERTEX
8
CUT
10
163.010
20
107.200
0
VERTEX
8
CUT
10
162.900
20
108.000
0
VERTEX
8
CUT
10
163.010
20
108.800
0
VERTEX
8
CUT
10
163.320
20
109.550
0
VERTEX
8
CUT
10
163.810
20
110.190
0
VERTEX
8
CUT
10
164.450
20
110.680
0
VERTEX
8
CUT
10
165.200
20
110.990
0
VERTEX
8
CUT
10
166.000
20
111.100
0
VERTEX
8
CUT
10
166.800
20
110.990
0
VERTEX
8
CUT
10
167.550
20
110.680
0
VERTEX
8
CUT
10
168.190
20
110.190
0
VERTEX
8
CUT
10
168.680
20
109.550
0
VERTEX
8
CUT
10
168.990
20
108.800
0
VERTEX
8
CUT
10
169.100
20
108.000
0
SEQEND
8
CUT
0
POLYLINE
8
CUT
66
1
70
1
0
VERTEX
8
CUT
10
190.000
20
136.000
0
VERTEX
8
CUT
10
189.660
20
138.160
0
VERTEX
8
CUT
10
188.660
20
140.110
0
VERTEX
8
CUT
10
187.110
20
141.660
0
VERTEX
8
CUT
10
185.160
20
142.660
0
VERTEX
8
CUT
10
183.000
20
143.000
0
VERTEX
8
CUT
10
180.840
20
142.660
0
VERTEX
8
CUT
10
178.890
20
141.660
0
VERTEX
8
CUT
10
177.340
20
140.110
0
VERTEX
8
CUT
10
176.340
20
138.160
0
VERTEX
8
CUT
10
176.000
20
136.000
0
VERTEX
8
CUT
10
176.000
20
108.000
0
VERTEX
8
CUT
10
176.340
20
105.840
0
VERTEX
8
CUT
10
177.340
20
103.890
0
VERTEX
8
CUT
10
178.890
20
102.340
0
VERTEX
8
CUT
10
180.840
20
101.340
0
VERTEX
8
CUT
10
183.000
20
101.000
0
VERTEX
8
CUT
10
185.160
20
101.340
0
VERTEX
8
CUT
10
187.110
20
102.340
0
VERTEX
8
CUT
10
188.660
20
103.890
0
VERTEX
8
CUT
10
189.660
20
105.840
0
VERTEX
8
CUT
10
190.000
20
108.000
0
SEQEND
8
CUT
0
POLYLINE
8
CUT
66
1
70
1
0
VERTEX
8
CUT
10
185.990
20
135.200
0
VERTEX
8
CUT
10
185.680
20
134.450
0
VERTEX
8
CUT
10
185.190
20
133.810
0
VERTEX
8
CUT
10
184.550
20
133.320
0
VERTEX
8
CUT
10
183.800
20
133.010
0
VERTEX
8
CUT
10
183.000
20
132.900
0
VERTEX
8
CUT
10
182.200
20
133.010
0
VERTEX
8
CUT
10
181.450
20
133.320
0
VERTEX
8
CUT
10
180.810
20
133.810
0
VERTEX
8
CUT
10
180.320
20
134.450
0
VERTEX
8
CUT
10
180.010
20
135.200
0
VERTEX
8
CUT
10
179.900
20
136.000
0
VERTEX
8
CUT
10
180.010
20
136.800
0
VERTEX
8
CUT
10
180.320
20
137.550
0
VERTEX
8
CUT
10
180.810
20
138.190
0
VERTEX
8
CUT
10
181.450
20
138.680
0
VERTEX
8
CUT
10
182.200
20
138.990
0
VERTEX
8
CUT
10
183.000
20
139.100
0
VERTEX
8
CUT
10
183.800
20
138.990
0
VERTEX
8
CUT
10
184.550
20
138.680
0
VERTEX
8
CUT
10
185.190
20
138.190
0
VERTEX
8
CUT
10
185.680
20
137.550
0
VERTEX
8
CUT
10
185.990
20
136.800
0
VERTEX
8
CUT
10
186.100
20
136.000
0
SEQEND
8
CUT
0
POLYLINE
8
CUT
66
1
70
1
0
VERTEX
8
CUT
10
185.990
20
107.200
0
VERTEX
8
CUT
10
185.680
20
106.450
0
VERTEX
8
CUT
10
185.190
20
105.810
0
VERTEX
8
CUT
10
184.550
20
105.320
0
VERTEX
8
CUT
10
183.800
20
105.010
0
VERTEX
8
CUT
10
183.000
20
104.900
0
VERTEX
8
CUT
10
182.200
20
105.010
0
VERTEX
8
CUT
10
181.450
20
105.320
0
VERTEX
8
CUT
10
180.810
20
105.810
0
VERTEX
8
CUT
10
180.320
20
106.450
0
VERTEX
8
CUT
10
180.010
20
107.200
0
VERTEX
8
CUT
10
179.900
20
108.000
0
VERTEX
8
CUT
10
180.010
20
108.800
0
VERTEX
8
CUT
10
180.320
20
109.550
0
VERTEX
8
CUT
10
180.810
20
110.190
0
VERTEX
8
CUT
10
181.450
20
110.680
0
VERTEX
8
CUT
10
182.200
20
110.990
0
VERTEX
8
CUT
10
183.000
20
111.100
0
VERTEX
8
CUT
10
183.800
20
110.990
0
VERTEX
8
CUT
10
184.550
20
110.680
0
VERTEX
8
CUT
10
185.190
20
110.190
0
VERTEX
8
CUT
10
185.680
20
109.550
0
VERTEX
8
CUT
10
185.990
20
108.800
0
VERTEX
8
CUT
10
186.100
20
108.000
0
SEQEND
8
CUT
0
POLYLINE
8
CUT
66
1
70
1
0
VERTEX
8
CUT
10
28.720
20
60.210
0
VERTEX
8
CUT
10
28.750
20
60.520
0
VERTEX
8
CUT
10
28.920
20
61.430
0
VERTEX
8
CUT
10
29.390
20
62.810
0
VERTEX
8
CUT
10
30.250
20
64.490
0
VERTEX
8
CUT
10
31.560
20
66.250
0
VERTEX
8
CUT
10
33.330
20
67.870
0
VERTEX
8
CUT
10
35.530
20
69.140
0
VERTEX
8
CUT
10
38.040
20
69.890
0
VERTEX
8
CUT
10
40.750
20
70.000
0
VERTEX
8
CUT
10
43.480
20
69.440
0
VERTEX
8
CUT
10
46.040
20
68.210
0
VERTEX
8
CUT
10
48.260
20
66.410
0
VERTEX
8
CUT
10
49.980
20
64.150
0
VERTEX
8
CUT
10
51.070
20
61.560
0
VERTEX
8
CUT
10
51.440
20
58.790
0
VERTEX
8
CUT
10
51.070
20
55.950
0
VERTEX
8
CUT
10
49.980
20
53.130
0
VERTEX
8
CUT
10
48.260
20
50.410
0
VERTEX
8
CUT
10
46.040
20
47.800
0
VERTEX
8
CUT
10
43.480
20
45.300
0
VERTEX
8
CUT
10
40.750
20
42.900
0
VERTEX
8
CUT
10
38.040
20
40.590
0
VERTEX
8
CUT
10
35.530
20
38.360
0
VERTEX
8
CUT
10
33.330
20
36.250
0
VERTEX
8
CUT
10
31.920
20
34.680
0
VERTEX
8
CUT
10
31.920
20
38.970
0
VERTEX
8
CUT
10
25.520
20
38.970
0
VERTEX
8
CUT
10
25.520
20
34.680
0
VERTEX
8
CUT
10
24.110
20
36.250
0
VERTEX
8
CUT
10
21.910
20
38.360
0
VERTEX
8
CUT
10
19.400
20
40.590
0
VERTEX
8
CUT
10
16.690
20
42.900
0
VERTEX
8
CUT
10
13.960
20
45.300
0
VERTEX
8
CUT
10
11.400
20
47.800
0
VERTEX
8
CUT
10
9.180
20
50.410
0
VERTEX
8
CUT
10
7.460
20
53.130
0
VERTEX
8
CUT
10
6.370
20
55.950
0
VERTEX
8
CUT
10
6.000
20
58.790
0
VERTEX
8
CUT
10
6.370
20
61.560
0
VERTEX
8
CUT
10
7.460
20
64.150
0
VERTEX
8
CUT
10
9.180
20
66.410
0
VERTEX
8
CUT
10
11.400
20
68.210
0
VERTEX
8
CUT
10
13.960
20
69.440
0
VERTEX
8
CUT
10
16.690
20
70.000
0
VERTEX
8
CUT
10
19.400
20
69.890
0
VERTEX
8
CUT
10
21.910
20
69.140
0
VERTEX
8
CUT
10
24.110
20
67.870
0
VERTEX
8
CUT
10
25.880
20
66.250
0
VERTEX
8
CUT
10
27.190
20
64.490
0
VERTEX
8
CUT
10
28.050
20
62.810
0
VERTEX
8
CUT
10
28.520
20
61.430
0
VERTEX
8
CUT
10
28.690
20
60.520
0
SEQEND
8
CUT
0
POLYLINE
8
CUT
66
1
70
1
0
VERTEX
8
CUT
10
86.440
20
54.000
0
VERTEX
8
CUT
10
86.280
20
56.280
0
VERTEX
8
CUT
10
85.790
20
58.510
0
VERTEX
8
CUT
10
84.990
20
60.650
0
VERTEX
8
CUT
10
83.900
20
62.650
0
VERTEX
8
CUT
10
82.530
20
64.480
0
VERTEX
8
CUT
10
80.920
20
66.090
0
VERTEX
8
CUT
10
79.090
20
67.460
0
VERTEX
8
CUT
10
77.090
20
68.550
0
VERTEX
8
CUT
10
74.950
20
69.350
0
VERTEX
8
CUT
10
72.720
20
69.840
0
VERTEX
8
CUT
10
70.440
20
70.000
0
VERTEX
8
CUT
10
68.160
20
69.840
0
VERTEX
8
CUT
10
65.930
20
69.350
0
VERTEX
8
CUT
10
63.790
20
68.550
0
VERTEX
8
CUT
10
61.790
20
67.460
0
VERTEX
8
CUT
10
59.960
20
66.090
0
VERTEX
8
CUT
10
58.350
20
64.480
0
VERTEX
8
CUT
10
56.980
20
62.650
0
VERTEX
8
CUT
10
55.890
20
60.650
0
VERTEX
8
CUT
10
55.090
20
58.510
0
VERTEX
8
CUT
10
54.600
20
56.280
0
VERTEX
8
CUT
10
54.440
20
54.000
0
VERTEX
8
CUT
10
54.600
20
51.720
0
VERTEX
8
CUT
10
55.090
20
49.490
0
VERTEX
8
CUT
10
55.890
20
47.350
0
VERTEX
8
CUT
10
56.980
20
45.350
0
VERTEX
8
CUT
10
58.350
20
43.520
0
VERTEX
8
CUT
10
59.960
20
41.910
0
VERTEX
8
CUT
10
61.790
20
40.540
0
VERTEX
8
CUT
10
63.790
20
39.450
0
VERTEX
8
CUT
10
65.930
20
38.650
0
VERTEX
8
CUT
10
68.160
20
38.160
0
VERTEX
8
CUT
10
70.440
20
38.000
0
VERTEX
8
CUT
10
72.720
20
38.160
0
VERTEX
8
CUT
10
74.950
20
38.650
0
VERTEX
8
CUT
10
77.090
20
39.450
0
VERTEX
8
CUT
10
79.090
20
40.540
0
VERTEX
8
CUT
10
80.920
20
41.910
0
VERTEX
8
CUT
10
82.530
20
43.520
0
VERTEX
8
CUT
10
83.900
20
45.350
0
VERTEX
8
CUT
10
84.990
20
47.350
0
VERTEX
8
CUT
10
85.790
20
49.490
0
VERTEX
8
CUT
10
86.280
20
51.720
0
SEQEND
8
CUT
0
POLYLINE
8
CUT
66
1
70
1
0
VERTEX
8
CUT
10
67.430
20
53.200
0
VERTEX
8
CUT
10
67.120
20
52.450
0
VERTEX
8
CUT
10
66.630
20
51.810
0
VERTEX
8
CUT
10
65.990
20
51.320
0
VERTEX
8
CUT
10
65.240
20
51.010
0
VERTEX
8
CUT
10
64.440
20
50.900
0
VERTEX
8
CUT
10
63.640
20
51.010
0
VERTEX
8
CUT
10
62.890
20
51.320
0
VERTEX
8
CUT
10
62.250
20
51.810
0
VERTEX
8
CUT
10
61.760
20
52.450
0
VERTEX
8
CUT
10
61.450
20
53.200
0
VERTEX
8
CUT
10
61.340
20
54.000
0
VERTEX
8
CUT
10
61.450
20
54.800
0
VERTEX
8
CUT
10
61.760
20
55.550
0
VERTEX
8
CUT
10
62.250
20
56.190
0
VERTEX
8
CUT
10
62.890
20
56.680
0
VERTEX
8
CUT
10
63.640
20
56.990
0
VERTEX
8
CUT
10
64.440
20
57.100
0
VERTEX
8
CUT
10
65.240
20
56.990
0
VERTEX
8
CUT
10
65.990
20
56.680
0
VERTEX
8
CUT
10
66.630
20
56.190
0
VERTEX
8
CUT
10
67.120
20
55.550
0
VERTEX
8
CUT
10
67.430
20
54.800
0
VERTEX
8
CUT
10
67.540
20
54.000
0
SEQEND
8
CUT
0
POLYLINE
8
CUT
66
1
70
1
0
VERTEX
8
CUT
10
121.440
20
54.000
0
VERTEX
8
CUT
10
121.280
20
56.280
0
VERTEX
8
CUT
10
120.790
20
58.510
0
VERTEX
8
CUT
10
119.990
20
60.650
0
VERTEX
8
CUT
10
118.900
20
62.650
0
VERTEX
8
CUT
10
117.530
20
64.480
0
VERTEX
8
CUT
10
115.920
20
66.090
0
VERTEX
8
CUT
10
114.090
20
67.460
0
VERTEX
8
CUT
10
112.090
20
68.550
0
VERTEX
8
CUT
10
109.950
20
69.350
0
VERTEX
8
CUT
10
107.720
20
69.840
0
VERTEX
8
CUT
10
105.440
20
70.000
0
VERTEX
8
CUT
10
103.160
20
69.840
0
VERTEX
8
CUT
10
100.930
20
69.350
0
VERTEX
8
CUT
10
98.790
20
68.550
0
VERTEX
8
CUT
10
96.790
20
67.460
0
VERTEX
8
CUT
10
94.960
20
66.090
0
VERTEX
8
CUT
10
93.350
20
64.480
0
VERTEX
8
CUT
10
91.980
20
62.650
0
VERTEX
8
CUT
10
90.890
20
60.650
0
VERTEX
8
CUT
10
90.090
20
58.510
0
VERTEX
8
CUT
10
89.600
20
56.280
0
VERTEX
8
CUT
10
89.440
20
54.000
0
VERTEX
8
CUT
10
89.600
20
51.720
0
VERTEX
8
CUT
10
90.090
20
49.490
0
VERTEX
8
CUT
10
90.890
20
47.350
0
VERTEX
8
CUT
10
91.980
20
45.350
0
VERTEX
8
CUT
10
93.350
20
43.520
0
VERTEX
8
CUT
10
94.960
20
41.910
0
VERTEX
8
CUT
10
96.790
20
40.540
0
VERTEX
8
CUT
10
98.790
20
39.450
0
VERTEX
8
CUT
10
100.930
20
38.650
0
VERTEX
8
CUT
10
103.160
20
38.160
0
VERTEX
8
CUT
10
105.440
20
38.000
0
VERTEX
8
CUT
10
107.720
20
38.160
0
VERTEX
8
CUT
10
109.950
20
38.650
0
VERTEX
8
CUT
10
112.090
20
39.450
0
VERTEX
8
CUT
10
114.090
20
40.540
0
VERTEX
8
CUT
10
115.920
20
41.910
0
VERTEX
8
CUT
10
117.530
20
43.520
0
VERTEX
8
CUT
10
118.900
20
45.350
0
VERTEX
8
CUT
10
119.990
20
47.350
0
VERTEX
8
CUT
10
120.790
20
49.490
0
VERTEX
8
CUT
10
121.280
20
51.720
0
SEQEND
8
CUT
0
POLYLINE
8
CUT
66
1
70
1
0
VERTEX
8
CUT
10
102.430
20
53.200
0
VERTEX
8
CUT
10
102.120
20
52.450
0
VERTEX
8
CUT
10
101.630
20
51.810
0
VERTEX
8
CUT
10
100.990
20
51.320
0
VERTEX
8
CUT
10
100.240
20
51.010
0
VERTEX
8
CUT
10
99.440
20
50.900
0
VERTEX
8
CUT
10
98.640
20
51.010
0
VERTEX
8
CUT
10
97.890
20
51.320
0
VERTEX
8
CUT
10
97.250
20
51.810
0
VERTEX
8
CUT
10
96.760
20
52.450
0
VERTEX
8
CUT
10
96.450
20
53.200
0
VERTEX
8
CUT
10
96.340
20
54.000
0
VERTEX
8
CUT
10
96.450
20
54.800
0
VERTEX
8
CUT
10
96.760
20
55.550
0
VERTEX
8
CUT
10
97.250
20
56.190
0
VERTEX
8
CUT
10
97.890
20
56.680
0
VERTEX
8
CUT
10
98.640
20
56.990
0
VERTEX
8
CUT
10
99.440
20
57.100
0
VERTEX
8
CUT
10
100.240
20
56.990
0
VERTEX
8
CUT
10
100.990
20
56.680
0
VERTEX
8
CUT
10
101.630
20
56.190
0
VERTEX
8
CUT
10
102.120
20
55.550
0
VERTEX
8
CUT
10
102.430
20
54.800
0
VERTEX
8
CUT
10
102.540
20
54.000
0
SEQEND
8
CUT
0
POLYLINE
8
CUT
66
1
70
1
0
VERTEX
8
CUT
10
156.440
20
54.000
0
VERTEX
8
CUT
10
156.280
20
56.280
0
VERTEX
8
CUT
10
155.790
20
58.510
0
VERTEX
8
CUT
10
154.990
20
60.650
0
VERTEX
8
CUT
10
153.900
20
62.650
0
VERTEX
8
CUT
10
152.530
20
64.480
0
VERTEX
8
CUT
10
150.920
20
66.090
0
VERTEX
8
CUT
10
149.090
20
67.460
0
VERTEX
8
CUT
10
147.090
20
68.550
0
VERTEX
8
CUT
10
144.950
20
69.350
0
VERTEX
8
CUT
10
142.720
20
69.840
0
VERTEX
8
CUT
10
140.440
20
70.000
0
VERTEX
8
CUT
10
138.160
20
69.840
0
VERTEX
8
CUT
10
135.930
20
69.350
0
VERTEX
8
CUT
10
133.790
20
68.550
0
VERTEX
8
CUT
10
131.790
20
67.460
0
VERTEX
8
CUT
10
129.960
20
66.090
0
VERTEX
8
CUT
10
128.350
20
64.480
0
VERTEX
8
CUT
10
126.980
20
62.650
0
VERTEX
8
CUT
10
125.890
20
60.650
0
VERTEX
8
CUT
10
125.090
20
58.510
0
VERTEX
8
CUT
10
124.600
20
56.280
0
VERTEX
8
CUT
10
124.440
20
54.000
0
VERTEX
8
CUT
10
124.600
20
51.720
0
VERTEX
8
CUT
10
125.090
20
49.490
0
VERTEX
8
CUT
10
125.890
20
47.350
0
VERTEX
8
CUT
10
126.980
20
45.350
0
VERTEX
8
CUT
10
128.350
20
43.520
0
VERTEX
8
CUT
10
129.960
20
41.910
0
VERTEX
8
CUT
10
131.790
20
40.540
0
VERTEX
8
CUT
10
133.790
20
39.450
0
VERTEX
8
CUT
10
135.930
20
38.650
0
VERTEX
8
CUT
10
138.160
20
38.160
0
VERTEX
8
CUT
10
140.440
20
38.000
0
VERTEX
8
CUT
10
142.720
20
38.160
0
VERTEX
8
CUT
10
144.950
20
38.650
0
VERTEX
8
CUT
10
147.090
20
39.450
0
VERTEX
8
CUT
10
149.090
20
40.540
0
VERTEX
8
CUT
10
150.920
20
41.910
0
VERTEX
8
CUT
10
152.530
20
43.520
0
VERTEX
8
CUT
10
153.900
20
45.350
0
VERTEX
8
CUT
10
154.990
20
47.350
0
VERTEX
8
CUT
10
155.790
20
49.490
0
VERTEX
8
CUT
10
156.280
20
51.720
0
SEQEND
8
CUT
0
POLYLINE
8
CUT
66
1
70
1
0
VERTEX
8
CUT
10
137.430
20
53.200
0
VERTEX
8
CUT
10
137.120
20
52.450
0
VERTEX
8
CUT
10
136.630
20
51.810
0
VERTEX
8
CUT
10
135.990
20
51.320
0
VERTEX
8
CUT
10
135.240
20
51.010
0
VERTEX
8
CUT
10
134.440
20
50.900
0
VERTEX
8
CUT
10
133.640
20
51.010
0
VERTEX
8
CUT
10
132.890
20
51.320
0
VERTEX
8
CUT
10
132.250
20
51.810
0
VERTEX
8
CUT
10
131.760
20
52.450
0
VERTEX
8
CUT
10
131.450
20
53.200
0
VERTEX
8
CUT
10
131.340
20
54.000
0
VERTEX
8
CUT
10
131.450
20
54.800
0
VERTEX
8
CUT
10
131.760
20
55.550
0
VERTEX
8
CUT
10
132.250
20
56.190
0
VERTEX
8
CUT
10
132.890
20
56.680
0
VERTEX
8
CUT
10
133.640
20
56.990
0
VERTEX
8
CUT
10
134.440
20
57.100
0
VERTEX
8
CUT
10
135.240
20
56.990
0
VERTEX
8
CUT
10
135.990
20
56.680
0
VERTEX
8
CUT
10
136.630
20
56.190
0
VERTEX
8
CUT
10
137.120
20
55.550
0
VERTEX
8
CUT
10
137.430
20
54.800
0
VERTEX
8
CUT
10
137.540
20
54.000
0
SEQEND
8
CUT
0
POLYLINE
8
CUT
66
1
70
1
0
VERTEX
8
CUT
10
173.440
20
63.040
0
VERTEX
8
CUT
10
173.290
20
64.490
0
VERTEX
8
CUT
10
172.830
20
65.890
0
VERTEX
8
CUT
10
172.100
20
67.150
0
VERTEX
8
CUT
10
171.120
20
68.240
0
VERTEX
8
CUT
10
169.940
20
69.100
0
VERTEX
8
CUT
10
168.600
20
69.700
0
VERTEX
8
CUT
10
167.170
20
70.000
0
VERTEX
8
CUT
10
165.710
20
70.000
0
VERTEX
8
CUT
10
164.280
20
69.700
0
VERTEX
8
CUT
10
162.940
20
69.100
0
VERTEX
8
CUT
10
161.760
20
68.240
0
VERTEX
8
CUT
10
160.780
20
67.150
0
VERTEX
8
CUT
10
160.050
20
65.890
0
VERTEX
8
CUT
10
159.590
20
64.490
0
VERTEX
8
CUT
10
159.440
20
63.040
0
VERTEX
8
CUT
10
159.590
20
61.580
0
VERTEX
8
CUT
10
160.050
20
60.190
0
VERTEX
8
CUT
10
160.780
20
58.920
0
VERTEX
8
CUT
10
161.760
20
57.840
0
VERTEX
8
CUT
10
162.940
20
56.980
0
VERTEX
8
CUT
10
164.280
20
56.380
0
VERTEX
8
CUT
10
165.710
20
56.080
0
VERTEX
8
CUT
10
167.170
20
56.080
0
VERTEX
8
CUT
10
168.600
20
56.380
0
VERTEX
8
CUT
10
169.940
20
56.980
0
VERTEX
8
CUT
10
171.120
20
57.840
0
VERTEX
8
CUT
10
172.100
20
58.920
0
VERTEX
8
CUT
10
172.830
20
60.190
0
VERTEX
8
CUT
10
173.290
20
61.580
0
SEQEND
8
CUT
0
POLYLINE
8
CUT
66
1
70
1
0
VERTEX
8
CUT
10
169.430
20
62.240
0
VERTEX
8
CUT
10
169.120
20
61.490
0
VERTEX
8
CUT
10
168.630
20
60.850
0
VERTEX
8
CUT
10
167.990
20
60.350
0
VERTEX
8
CUT
10
167.240
20
60.040
0
VERTEX
8
CUT
10
166.440
20
59.940
0
VERTEX
8
CUT
10
165.640
20
60.040
0
VERTEX
8
CUT
10
164.890
20
60.350
0
VERTEX
8
CUT
10
164.250
20
60.850
0
VERTEX
8
CUT
10
163.760
20
61.490
0
VERTEX
8
CUT
10
163.450
20
62.240
0
VERTEX
8
CUT
10
163.340
20
63.040
0
VERTEX
8
CUT
10
163.450
20
63.840
0
VERTEX
8
CUT
10
163.760
20
64.590
0
VERTEX
8
CUT
10
164.250
20
65.230
0
VERTEX
8
CUT
10
164.890
20
65.720
0
VERTEX
8
CUT
10
165.640
20
66.030
0
VERTEX
8
CUT
10
166.440
20
66.140
0
VERTEX
8
CUT
10
167.240
20
66.030
0
VERTEX
8
CUT
10
167.990
20
65.720
0
VERTEX
8
CUT
10
168.630
20
65.230
0
VERTEX
8
CUT
10
169.120
20
64.590
0
VERTEX
8
CUT
10
169.430
20
63.840
0
VERTEX
8
CUT
10
169.540
20
63.040
0
SEQEND
8
CUT
0
POLYLINE
8
CUT
66
1
70
1
0
VERTEX
8
CUT
10
190.440
20
63.040
0
VERTEX
8
CUT
10
190.290
20
64.490
0
VERTEX
8
CUT
10
189.830
20
65.890
0
VERTEX
8
CUT
10
189.100
20
67.150
0
VERTEX
8
CUT
10
188.120
20
68.240
0
VERTEX
8
CUT
10
186.940
20
69.100
0
VERTEX
8
CUT
10
185.600
20
69.700
0
VERTEX
8
CUT
10
184.170
20
70.000
0
VERTEX
8
CUT
10
182.710
20
70.000
0
VERTEX
8
CUT
10
181.280
20
69.700
0
VERTEX
8
CUT
10
179.940
20
69.100
0
VERTEX
8
CUT
10
178.760
20
68.240
0
VERTEX
8
CUT
10
177.780
20
67.150
0
VERTEX
8
CUT
10
177.050
20
65.890
0
VERTEX
8
CUT
10
176.590
20
64.490
0
VERTEX
8
CUT
10
176.440
20
63.040
0
VERTEX
8
CUT
10
176.590
20
61.580
0
VERTEX
8
CUT
10
177.050
20
60.190
0
VERTEX
8
CUT
10
177.780
20
58.920
0
VERTEX
8
CUT
10
178.760
20
57.840
0
VERTEX
8
CUT
10
179.940
20
56.980
0
VERTEX
8
CUT
10
181.280
20
56.380
0
VERTEX
8
CUT
10
182.710
20
56.080
0
VERTEX
8
CUT
10
184.170
20
56.080
0
VERTEX
8
CUT
10
185.600
20
56.380
0
VERTEX
8
CUT
10
186.940
20
56.980
0
VERTEX
8
CUT
10
188.120
20
57.840
0
VERTEX
8
CUT
10
189.100
20
58.920
0
VERTEX
8
CUT
10
189.830
20
60.190
0
VERTEX
8
CUT
10
190.290
20
61.580
0
SEQEND
8
CUT
0
POLYLINE
8
CUT
66
1
70
1
0
VERTEX
8
CUT
10
186.430
20
62.240
0
VERTEX
8
CUT
10
186.120
20
61.490
0
VERTEX
8
CUT
10
185.630
20
60.850
0
VERTEX
8
CUT
10
184.990
20
60.350
0
VERTEX
8
CUT
10
184.240
20
60.040
0
VERTEX
8
CUT
10
183.440
20
59.940
0
VERTEX
8
CUT
10
182.640
20
60.040
0
VERTEX
8
CUT
10
181.890
20
60.350
0
VERTEX
8
CUT
10
181.250
20
60.850
0
VERTEX
8
CUT
10
180.760
20
61.490
0
VERTEX
8
CUT
10
180.450
20
62.240
0
VERTEX
8
CUT
10
180.340
20
63.040
0
VERTEX
8
CUT
10
180.450
20
63.840
0
VERTEX
8
CUT
10
180.760
20
64.590
0
VERTEX
8
CUT
10
181.250
20
65.230
0
VERTEX
8
CUT
10
181.890
20
65.720
0
VERTEX
8
CUT
10
182.640
20
66.030
0
VERTEX
8
CUT
10
183.440
20
66.140
0
VERTEX
8
CUT
10
184.240
20
66.030
0
VERTEX
8
CUT
10
184.990
20
65.720
0
VERTEX
8
CUT
10
185.630
20
65.230
0
VERTEX
8
CUT
10
186.120
20
64.590
0
VERTEX
8
CUT
10
186.430
20
63.840
0
VERTEX
8
CUT
10
186.540
20
63.040
0
SEQEND
8
CUT
0
POLYLINE
8
CUT
66
1
70
1
0
VERTEX
8
CUT
10
6.000
20
20.179
0
VERTEX
8
CUT
10
22.600
20
20.179
0
VERTEX
8
CUT
10
22.600
20
31.679
0
VERTEX
8
CUT
10
6.000
20
31.679
0
SEQEND
8
CUT
0
POLYLINE
8
CUT
66
1
70
1
0
VERTEX
8
CUT
10
25.600
20
20.179
0
VERTEX
8
CUT
10
42.200
20
20.179
0
VERTEX
8
CUT
10
42.200
20
31.679
0
VERTEX
8
CUT
10
25.600
20
31.679
0
SEQEND
8
CUT
0
POLYLINE
8
CUT
66
1
70
1
0
VERTEX
8
CUT
10
45.200
20
20.179
0
VERTEX
8
CUT
10
57.800
20
20.179
0
VERTEX
8
CUT
10
57.800
20
31.679
0
VERTEX
8
CUT
10
45.200
20
31.679
0
SEQEND
8
CUT
0
POLYLINE
8
CUT
66
1
70
1
0
VERTEX
8
CUT
10
60.800
20
20.179
0
VERTEX
8
CUT
10
73.400
20
20.179
0
VERTEX
8
CUT
10
73.400
20
31.679
0
VERTEX
8
CUT
10
60.800
20
31.679
0
SEQEND
8
CUT
0
ENDSEC
0
EOF
