0
SECTION
2
ENTITIES
0
POLYLINE
8
CUT
66
1
70
1
0
VERTEX
8
CUT
10
6.000
20
219.000
0
VERTEX
8
CUT
10
76.000
20
219.000
0
VERTEX
8
CUT
10
76.000
20
291.000
0
VERTEX
8
CUT
10
6.000
20
291.000
0
SEQEND
8
CUT
0
POLYLINE
8
CUT
66
1
70
1
0
VERTEX
8
CUT
10
43.990
20
253.200
0
VERTEX
8
CUT
10
43.680
20
252.450
0
VERTEX
8
CUT
10
43.190
20
251.810
0
VERTEX
8
CUT
10
42.550
20
251.320
0
VERTEX
8
CUT
10
41.800
20
251.010
0
VERTEX
8
CUT
10
41.000
20
250.900
0
VERTEX
8
CUT
10
40.200
20
251.010
0
VERTEX
8
CUT
10
39.450
20
251.320
0
VERTEX
8
CUT
10
38.810
20
251.810
0
VERTEX
8
CUT
10
38.320
20
252.450
0
VERTEX
8
CUT
10
38.010
20
253.200
0
VERTEX
8
CUT
10
37.900
20
254.000
0
VERTEX
8
CUT
10
38.010
20
254.800
0
VERTEX
8
CUT
10
38.320
20
255.550
0
VERTEX
8
CUT
10
38.810
20
256.190
0
VERTEX
8
CUT
10
39.450
20
256.680
0
VERTEX
8
CUT
10
40.200
20
256.990
0
VERTEX
8
CUT
10
41.000
20
257.100
0
VERTEX
8
CUT
10
41.800
20
256.990
0
VERTEX
8
CUT
10
42.550
20
256.680
0
VERTEX
8
CUT
10
43.190
20
256.190
0
VERTEX
8
CUT
10
43.680
20
255.550
0
VERTEX
8
CUT
10
43.990
20
254.800
0
VERTEX
8
CUT
10
44.100
20
254.000
0
SEQEND
8
CUT
0
POLYLINE
8
CUT
66
1
70
1
0
VERTEX
8
CUT
10
79.000
20
219.000
0
VERTEX
8
CUT
10
149.000
20
219.000
0
VERTEX
8
CUT
10
149.000
20
291.000
0
VERTEX
8
CUT
10
79.000
20
291.000
0
SEQEND
8
CUT
0
POLYLINE
8
CUT
66
1
70
1
0
VERTEX
8
CUT
10
116.990
20
253.200
0
VERTEX
8
CUT
10
116.680
20
252.450
0
VERTEX
8
CUT
10
116.190
20
251.810
0
VERTEX
8
CUT
10
115.550
20
251.320
0
VERTEX
8
CUT
10
114.800
20
251.010
0
VERTEX
8
CUT
10
114.000
20
250.900
0
VERTEX
8
CUT
10
113.200
20
251.010
0
VERTEX
8
CUT
10
112.450
20
251.320
0
VERTEX
8
CUT
10
111.810
20
251.810
0
VERTEX
8
CUT
10
111.320
20
252.450
0
VERTEX
8
CUT
10
111.010
20
253.200
0
VERTEX
8
CUT
10
110.900
20
254.000
0
VERTEX
8
CUT
10
111.010
20
254.800
0
VERTEX
8
CUT
10
111.320
20
255.550
0
VERTEX
8
CUT
10
111.810
20
256.190
0
VERTEX
8
CUT
10
112.450
20
256.680
0
VERTEX
8
CUT
10
113.200
20
256.990
0
VERTEX
8
CUT
10
114.000
20
257.100
0
VERTEX
8
CUT
10
114.800
20
256.990
0
VERTEX
8
CUT
10
115.550
20
256.680
0
VERTEX
8
CUT
10
116.190
20
256.190
0
VERTEX
8
CUT
10
116.680
20
255.550
0
VERTEX
8
CUT
10
116.990
20
254.800
0
VERTEX
8
CUT
10
117.100
20
254.000
0
SEQEND
8
CUT
0
POLYLINE
8
CUT
66
1
70
1
0
VERTEX
8
CUT
10
6.000
20
146.000
0
VERTEX
8
CUT
10
92.000
20
146.000
0
VERTEX
8
CUT
10
92.000
20
216.000
0
VERTEX
8
CUT
10
6.000
20
216.000
0
SEQEND
8
CUT
0
POLYLINE
8
CUT
66
1
70
1
0
VERTEX
8
CUT
10
95.000
20
146.000
0
VERTEX
8
CUT
10
181.000
20
146.000
0
VERTEX
8
CUT
10
181.000
20
216.000
0
VERTEX
8
CUT
10
95.000
20
216.000
0
SEQEND
8
CUT
0
POLYLINE
8
CUT
66
1
70
1
0
VERTEX
8
CUT
10
137.700
20
189.300
0
VERTEX
8
CUT
10
144.300
20
189.300
0
VERTEX
8
CUT
10
144.300
20
172.700
0
VERTEX
8
CUT
10
137.700
20
172.700
0
SEQEND
8
CUT
0
POLYLINE
8
CUT
66
1
70
1
0
VERTEX
8
CUT
10
6.000
20
96.000
0
VERTEX
8
CUT
10
28.000
20
96.000
0
VERTEX
8
CUT
10
28.000
20
99.000
0
VERTEX
8
CUT
10
25.000
20
99.000
0
VERTEX
8
CUT
10
25.000
20
143.000
0
VERTEX
8
CUT
10
18.650
20
143.000
0
VERTEX
8
CUT
10
18.650
20
139.000
0
VERTEX
8
CUT
10
15.350
20
139.000
0
VERTEX
8
CUT
10
15.350
20
143.000
0
VERTEX
8
CUT
10
9.000
20
143.000
0
VERTEX
8
CUT
10
9.000
20
99.000
0
VERTEX
8
CUT
10
6.000
20
99.000
0
SEQEND
8
CUT
0
POLYLINE
8
CUT
66
1
70
1
0
VERTEX
8
CUT
10
31.000
20
96.000
0
VERTEX
8
CUT
10
53.000
20
96.000
0
VERTEX
8
CUT
10
53.000
20
99.000
0
VERTEX
8
CUT
10
50.000
20
99.000
0
VERTEX
8
CUT
10
50.000
20
143.000
0
VERTEX
8
CUT
10
43.650
20
143.000
0
VERTEX
8
CUT
10
43.650
20
139.000
0
VERTEX
8
CUT
10
40.350
20
139.000
0
VERTEX
8
CUT
10
40.350
20
143.000
0
VERTEX
8
CUT
10
34.000
20
143.000
0
VERTEX
8
CUT
10
34.000
20
99.000
0
VERTEX
8
CUT
10
31.000
20
99.000
0
SEQEND
8
CUT
0
POLYLINE
8
CUT
66
1
70
1
0
VERTEX
8
CUT
10
70.000
20
136.000
0
VERTEX
8
CUT
10
69.660
20
138.160
0
VERTEX
8
CUT
10
68.660
20
140.110
0
VERTEX
8
CUT
10
67.110
20
141.660
0
VERTEX
8
CUT
10
65.160
20
142.660
0
VERTEX
8
CUT
10
63.000
20
143.000
0
VERTEX
8
CUT
10
60.840
20
142.660
0
VERTEX
8
CUT
10
58.890
20
141.660
0
VERTEX
8
CUT
10
57.340
20
140.110
0
VERTEX
8
CUT
10
56.340
20
138.160
0
VERTEX
8
CUT
10
56.000
20
136.000
0
VERTEX
8
CUT
10
56.000
20
108.000
0
VERTEX
8
CUT
10
56.340
20
105.840
0
VERTEX
8
CUT
10
57.340
20
103.890
0
VERTEX
8
CUT
10
58.890
20
102.340
0
VERTEX
8
CUT
10
60.840
20
101.340
0
VERTEX
8
CUT
10
63.000
20
101.000
0
VERTEX
8
CUT
10
65.160
20
101.340
0
VERTEX
8
CUT
10
67.110
20
102.340
0
VERTEX
8
CUT
10
68.660
20
103.890
0
VERTEX
8
CUT
10
69.660
20
105.840
0
VERTEX
8
CUT
10
70.000
20
108.000
0
SEQEND
8
CUT
0
POLYLINE
8
CUT
66
1
70
1
0
VERTEX
8
CUT
10
65.990
20
135.200
0
VERTEX
8
CUT
10
65.680
20
134.450
0
VERTEX
8
CUT
10
65.190
20
133.810
0
VERTEX
8
CUT
10
64.550
20
133.320
0
VERTEX
8
CUT
10
63.800
20
133.010
0
VERTEX
8
CUT
10
63.000
20
132.900
0
VERTEX
8
CUT
10
62.200
20
133.010
0
VERTEX
8
CUT
10
61.450
20
133.320
0
VERTEX
8
CUT
10
60.810
20
133.810
0
VERTEX
8
CUT
10
60.320
20
134.450
0
VERTEX
8
CUT
10
60.010
20
135.200
0
VERTEX
8
CUT
10
59.900
20
136.000
0
VERTEX
8
CUT
10
60.010
20
136.800
0
VERTEX
8
CUT
10
60.320
20
137.550
0
VERTEX
8
CUT
10
60.810
20
138.190
0
VERTEX
8
CUT
10
61.450
20
138.680
0
VERTEX
8
CUT
10
62.200
20
138.990
0
VERTEX
8
CUT
10
63.000
20
139.100
0
VERTEX
8
CUT
10
63.800
20
138.990
0
VERTEX
8
CUT
10
64.550
20
138.680
0
VERTEX
8
CUT
10
65.190
20
138.190
0
VERTEX
8
CUT
10
65.680
20
137.550
0
VERTEX
8
CUT
10
65.990
20
136.800
0
VERTEX
8
CUT
10
66.100
20
136.000
0
SEQEND
8
CUT
0
POLYLINE
8
CUT
66
1
70
1
0
VERTEX
8
CUT
10
65.990
20
107.200
0
VERTEX
8
CUT
10
65.680
20
106.450
0
VERTEX
8
CUT
10
65.190
20
105.810
0
VERTEX
8
CUT
10
64.550
20
105.320
0
VERTEX
8
CUT
10
63.800
20
105.010
0
VERTEX
8
CUT
10
63.000
20
104.900
0
VERTEX
8
CUT
10
62.200
20
105.010
0
VERTEX
8
CUT
10
61.450
20
105.320
0
VERTEX
8
CUT
10
60.810
20
105.810
0
VERTEX
8
CUT
10
60.320
20
106.450
0
VERTEX
8
CUT
10
60.010
20
107.200
0
VERTEX
8
CUT
10
59.900
20
108.000
0
VERTEX
8
CUT
10
60.010
20
108.800
0
VERTEX
8
CUT
10
60.320
20
109.550
0
VERTEX
8
CUT
10
60.810
20
110.190
0
VERTEX
8
CUT
10
61.450
20
110.680
0
VERTEX
8
CUT
10
62.200
20
110.990
0
VERTEX
8
CUT
10
63.000
20
111.100
0
VERTEX
8
CUT
10
63.800
20
110.990
0
VERTEX
8
CUT
10
64.550
20
110.680
0
VERTEX
8
CUT
10
65.190
20
110.190
0
VERTEX
8
CUT
10
65.680
20
109.550
0
VERTEX
8
CUT
10
65.990
20
108.800
0
VERTEX
8
CUT
10
66.100
20
108.000
0
SEQEND
8
CUT
0
POLYLINE
8
CUT
66
1
70
1
0
VERTEX
8
CUT
10
87.000
20
136.000
0
VERTEX
8
CUT
10
86.660
20
138.160
0
VERTEX
8
CUT
10
85.660
20
140.110
0
VERTEX
8
CUT
10
84.110
20
141.660
0
VERTEX
8
CUT
10
82.160
20
142.660
0
VERTEX
8
CUT
10
80.000
20
143.000
0
VERTEX
8
CUT
10
77.840
20
142.660
0
VERTEX
8
CUT
10
75.890
20
141.660
0
VERTEX
8
CUT
10
74.340
20
140.110
0
VERTEX
8
CUT
10
73.340
20
138.160
0
VERTEX
8
CUT
10
73.000
20
136.000
0
VERTEX
8
CUT
10
73.000
20
108.000
0
VERTEX
8
CUT
10
73.340
20
105.840
0
VERTEX
8
CUT
10
74.340
20
103.890
0
VERTEX
8
CUT
10
75.890
20
102.340
0
VERTEX
8
CUT
10
77.840
20
101.340
0
VERTEX
8
CUT
10
80.000
20
101.000
0
VERTEX
8
CUT
10
82.160
20
101.340
0
VERTEX
8
CUT
10
84.110
20
102.340
0
VERTEX
8
CUT
10
85.660
20
103.890
0
VERTEX
8
CUT
10
86.660
20
105.840
0
VERTEX
8
CUT
10
87.000
20
108.000
0
SEQEND
8
CUT
0
POLYLINE
8
CUT
66
1
70
1
0
VERTEX
8
CUT
10
82.990
20
135.200
0
VERTEX
8
CUT
10
82.680
20
134.450
0
VERTEX
8
CUT
10
82.190
20
133.810
0
VERTEX
8
CUT
10
81.550
20
133.320
0
VERTEX
8
CUT
10
80.800
20
133.010
0
VERTEX
8
CUT
10
80.000
20
132.900
0
VERTEX
8
CUT
10
79.200
20
133.010
0
VERTEX
8
CUT
10
78.450
20
133.320
0
VERTEX
8
CUT
10
77.810
20
133.810
0
VERTEX
8
CUT
10
77.320
20
134.450
0
VERTEX
8
CUT
10
77.010
20
135.200
0
VERTEX
8
CUT
10
76.900
20
136.000
0
VERTEX
8
CUT
10
77.010
20
136.800
0
VERTEX
8
CUT
10
77.320
20
137.550
0
VERTEX
8
CUT
10
77.810
20
138.190
0
VERTEX
8
CUT
10
78.450
20
138.680
0
VERTEX
8
CUT
10
79.200
20
138.990
0
VERTEX
8
CUT
10
80.000
20
139.100
0
VERTEX
8
CUT
10
80.800
20
138.990
0
VERTEX
8
CUT
10
81.550
20
138.680
0
VERTEX
8
CUT
10
82.190
20
138.190
0
VERTEX
8
CUT
10
82.680
20
137.550
0
VERTEX
8
CUT
10
82.990
20
136.800
0
VERTEX
8
CUT
10
83.100
20
136.000
0
SEQEND
8
CUT
0
POLYLINE
8
CUT
66
1
70
1
0
VERTEX
8
CUT
10
82.990
20
107.200
0
VERTEX
8
CUT
10
82.680
20
106.450
0
VERTEX
8
CUT
10
82.190
20
105.810
0
VERTEX
8
CUT
10
81.550
20
105.320
0
VERTEX
8
CUT
10
80.800
20
105.010
0
VERTEX
8
CUT
10
80.000
20
104.900
0
VERTEX
8
CUT
10
79.200
20
105.010
0
VERTEX
8
CUT
10
78.450
20
105.320
0
VERTEX
8
CUT
10
77.810
20
105.810
0
VERTEX
8
CUT
10
77.320
20
106.450
0
VERTEX
8
CUT
10
77.010
20
107.200
0
VERTEX
8
CUT
10
76.900
20
108.000
0
VERTEX
8
CUT
10
77.010
20
108.800
0
VERTEX
8
CUT
10
77.320
20
109.550
0
VERTEX
8
CUT
10
77.810
20
110.190
0
VERTEX
8
CUT
10
78.450
20
110.680
0
VERTEX
8
CUT
10
79.200
20
110.990
0
VERTEX
8
CUT
10
80.000
20
111.100
0
VERTEX
8
CUT
10
80.800
20
110.990
0
VERTEX
8
CUT
10
81.550
20
110.680
0
VERTEX
8
CUT
10
82.190
20
110.190
0
VERTEX
8
CUT
10
82.680
20
109.550
0
VERTEX
8
CUT
10
82.990
20
108.800
0
VERTEX
8
CUT
10
83.100
20
108.000
0
SEQEND
8
CUT
0
POLYLINE
8
CUT
66
1
70
1
0
VERTEX
8
CUT
10
112.720
20
133.210
0
VERTEX
8
CUT
10
112.750
20
133.520
0
VERTEX
8
CUT
10
112.920
20
134.430
0
VERTEX
8
CUT
10
113.390
20
135.810
0
VERTEX
8
CUT
10
114.250
20
137.490
0
VERTEX
8
CUT
10
115.560
20
139.250
0
VERTEX
8
CUT
10
117.330
20
140.870
0
VERTEX
8
CUT
10
119.530
20
142.140
0
VERTEX
8
CUT
10
122.040
20
142.890
0
VERTEX
8
CUT
10
124.750
20
143.000
0
VERTEX
8
CUT
10
127.480
20
142.440
0
VERTEX
8
CUT
10
130.040
20
141.210
0
VERTEX
8
CUT
10
132.260
20
139.410
0
VERTEX
8
CUT
10
133.980
20
137.150
0
VERTEX
8
CUT
10
135.070
20
134.560
0
VERTEX
8
CUT
10
135.440
20
131.790
0
VERTEX
8
CUT
10
135.070
20
128.950
0
VERTEX
8
CUT
10
133.980
20
126.130
0
VERTEX
8
CUT
10
132.260
20
123.410
0
VERTEX
8
CUT
10
130.040
20
120.800
0
VERTEX
8
CUT
10
127.480
20
118.300
0
VERTEX
8
CUT
10
124.750
20
115.900
0
VERTEX
8
CUT
10
122.040
20
113.590
0
VERTEX
8
CUT
10
119.530
20
111.360
0
VERTEX
8
CUT
10
117.330
20
109.250
0
VERTEX
8
CUT
10
115.920
20
107.680
0
VERTEX
8
CUT
10
115.920
20
111.970
0
VERTEX
8
CUT
10
109.520
20
111.970
0
VERTEX
8
CUT
10
109.520
20
107.680
0
VERTEX
8
CUT
10
108.110
20
109.250
0
VERTEX
8
CUT
10
105.910
20
111.360
0
VERTEX
8
CUT
10
103.400
20
113.590
0
VERTEX
8
CUT
10
100.690
20
115.900
0
VERTEX
8
CUT
10
97.960
20
118.300
0
VERTEX
8
CUT
10
95.400
20
120.800
0
VERTEX
8
CUT
10
93.180
20
123.410
0
VERTEX
8
CUT
10
91.460
20
126.130
0
VERTEX
8
CUT
10
90.370
20
128.950
0
VERTEX
8
CUT
10
90.000
20
131.790
0
VERTEX
8
CUT
10
90.370
20
134.560
0
VERTEX
8
CUT
10
91.460
20
137.150
0
VERTEX
8
CUT
10
93.180
20
139.410
0
VERTEX
8
CUT
10
95.400
20
141.210
0
VERTEX
8
CUT
10
97.960
20
142.440
0
VERTEX
8
CUT
10
100.690
20
143.000
0
VERTEX
8
CUT
10
103.400
20
142.890
0
VERTEX
8
CUT
10
105.910
20
142.140
0
VERTEX
8
CUT
10
108.110
20
140.870
0
VERTEX
8
CUT
10
109.880
20
139.250
0
VERTEX
8
CUT
10
111.190
20
137.490
0
VERTEX
8
CUT
10
112.050
20
135.810
0
VERTEX
8
CUT
10
112.520
20
134.430
0
VERTEX
8
CUT
10
112.690
20
133.520
0
SEQEND
8
CUT
0
POLYLINE
8
CUT
66
1
70
1
0
VERTEX
8
CUT
10
170.440
20
127.000
0
VERTEX
8
CUT
10
170.280
20
129.280
0
VERTEX
8
CUT
10
169.790
20
131.510
0
VERTEX
8
CUT
10
168.990
20
133.650
0
VERTEX
8
CUT
10
167.900
20
135.650
0
VERTEX
8
CUT
10
166.530
20
137.480
0
VERTEX
8
CUT
10
164.920
20
139.090
0
VERTEX
8
CUT
10
163.090
20
140.460
0
VERTEX
8
CUT
10
161.090
20
141.550
0
VERTEX
8
CUT
10
158.950
20
142.350
0
VERTEX
8
CUT
10
156.720
20
142.840
0
VERTEX
8
CUT
10
154.440
20
143.000
0
VERTEX
8
CUT
10
152.160
20
142.840
0
VERTEX
8
CUT
10
149.930
20
142.350
0
VERTEX
8
CUT
10
147.790
20
141.550
0
VERTEX
8
CUT
10
145.790
20
140.460
0
VERTEX
8
CUT
10
143.960
20
139.090
0
VERTEX
8
CUT
10
142.350
20
137.480
0
VERTEX
8
CUT
10
140.980
20
135.650
0
VERTEX
8
CUT
10
139.890
20
133.650
0
VERTEX
8
CUT
10
139.090
20
131.510
0
VERTEX
8
CUT
10
138.600
20
129.280
0
VERTEX
8
CUT
10
138.440
20
127.000
0
VERTEX
8
CUT
10
138.600
20
124.720
0
VERTEX
8
CUT
10
139.090
20
122.490
0
VERTEX
8
CUT
10
139.890
20
120.350
0
VERTEX
8
CUT
10
140.980
20
118.350
0
VERTEX
8
CUT
10
142.350
20
116.520
0
VERTEX
8
CUT
10
143.960
20
114.910
0
VERTEX
8
CUT
10
145.790
20
113.540
0
VERTEX
8
CUT
10
147.790
20
112.450
0
VERTEX
8
CUT
10
149.930
20
111.650
0
VERTEX
8
CUT
10
152.160
20
111.160
0
VERTEX
8
CUT
10
154.440
20
111.000
0
VERTEX
8
CUT
10
156.720
20
111.160
0
VERTEX
8
CUT
10
158.950
20
111.650
0
VERTEX
8
CUT
10
161.090
20
112.450
0
VERTEX
8
CUT
10
163.090
20
113.540
0
VERTEX
8
CUT
10
164.920
20
114.910
0
VERTEX
8
CUT
10
166.530
20
116.520
0
VERTEX
8
CUT
10
167.900
20
118.350
0
VERTEX
8
CUT
10
168.990
20
120.350
0
VERTEX
8
CUT
10
169.790
20
122.490
0
VERTEX
8
CUT
10
170.280
20
124.720
0
SEQEND
8
CUT
0
POLYLINE
8
CUT
66
1
70
1
0
VERTEX
8
CUT
10
151.430
20
126.200
0
VERTEX
8
CUT
10
151.120
20
125.450
0
VERTEX
8
CUT
10
150.630
20
124.810
0
VERTEX
8
CUT
10
149.990
20
124.320
0
VERTEX
8
CUT
10
149.240
20
124.010
0
VERTEX
8
CUT
10
148.440
20
123.900
0
VERTEX
8
CUT
10
147.640
20
124.010
0
VERTEX
8
CUT
10
146.890
20
124.320
0
VERTEX
8
CUT
10
146.250
20
124.810
0
VERTEX
8
CUT
10
145.760
20
125.450
0
VERTEX
8
CUT
10
145.450
20
126.200
0
VERTEX
8
CUT
10
145.340
20
127.000
0
VERTEX
8
CUT
10
145.450
20
127.800
0
VERTEX
8
CUT
10
145.760
20
128.550
0
VERTEX
8
CUT
10
146.250
20
129.190
0
VERTEX
8
CUT
10
146.890
20
129.680
0
VERTEX
8
CUT
10
147.640
20
129.990
0
VERTEX
8
CUT
10
148.440
20
130.100
0
VERTEX
8
CUT
10
149.240
20
129.990
0
VERTEX
8
CUT
10
149.990
20
129.680
0
VERTEX
8
CUT
10
150.630
20
129.190
0
VERTEX
8
CUT
10
151.120
20
128.550
0
VERTEX
8
CUT
10
151.430
20
127.800
0
VERTEX
8
CUT
10
151.540
20
127.000
0
SEQEND
8
CUT
0
POLYLINE
8
CUT
66
1
70
1
0
VERTEX
8
CUT
10
38.000
20
77.000
0
VERTEX
8
CUT
10
37.840
20
79.280
0
VERTEX
8
CUT
10
37.350
20
81.510
0
VERTEX
8
CUT
10
36.550
20
83.650
0
VERTEX
8
CUT
10
35.460
20
85.650
0
VERTEX
8
CUT
10
34.090
20
87.480
0
VERTEX
8
CUT
10
32.480
20
89.090
0
VERTEX
8
CUT
10
30.650
20
90.460
0
VERTEX
8
CUT
10
28.650
20
91.550
0
VERTEX
8
CUT
10
26.510
20
92.350
0
VERTEX
8
CUT
10
24.280
20
92.840
0
VERTEX
8
CUT
10
22.000
20
93.000
0
VERTEX
8
CUT
10
19.720
20
92.840
0
VERTEX
8
CUT
10
17.490
20
92.350
0
VERTEX
8
CUT
10
15.350
20
91.550
0
VERTEX
8
CUT
10
13.350
20
90.460
0
VERTEX
8
CUT
10
11.520
20
89.090
0
VERTEX
8
CUT
10
9.910
20
87.480
0
VERTEX
8
CUT
10
8.540
20
85.650
0
VERTEX
8
CUT
10
7.450
20
83.650
0
VERTEX
8
CUT
10
6.650
20
81.510
0
VERTEX
8
CUT
10
6.160
20
79.280
0
VERTEX
8
CUT
10
6.000
20
77.000
0
VERTEX
8
CUT
10
6.160
20
74.720
0
VERTEX
8
CUT
10
6.650
20
72.490
0
VERTEX
8
CUT
10
7.450
20
70.350
0
VERTEX
8
CUT
10
8.540
20
68.350
0
VERTEX
8
CUT
10
9.910
20
66.520
0
VERTEX
8
CUT
10
11.520
20
64.910
0
VERTEX
8
CUT
10
13.350
20
63.540
0
VERTEX
8
CUT
10
15.350
20
62.450
0
VERTEX
8
CUT
10
17.490
20
61.650
0
VERTEX
8
CUT
10
19.720
20
61.160
0
VERTEX
8
CUT
10
22.000
20
61.000
0
VERTEX
8
CUT
10
24.280
20
61.160
0
VERTEX
8
CUT
10
26.510
20
61.650
0
VERTEX
8
CUT
10
28.650
20
62.450
0
VERTEX
8
CUT
10
30.650
20
63.540
0
VERTEX
8
CUT
10
32.480
20
64.910
0
VERTEX
8
CUT
10
34.090
20
66.520
0
VERTEX
8
CUT
10
35.460
20
68.350
0
VERTEX
8
CUT
10
36.550
20
70.350
0
VERTEX
8
CUT
10
37.350
20
72.490
0
VERTEX
8
CUT
10
37.840
20
74.720
0
SEQEND
8
CUT
0
POLYLINE
8
CUT
66
1
70
1
0
VERTEX
8
CUT
10
18.990
20
76.200
0
VERTEX
8
CUT
10
18.680
20
75.450
0
VERTEX
8
CUT
10
18.190
20
74.810
0
VERTEX
8
CUT
10
17.550
20
74.320
0
VERTEX
8
CUT
10
16.800
20
74.010
0
VERTEX
8
CUT
10
16.000
20
73.900
0
VERTEX
8
CUT
10
15.200
20
74.010
0
VERTEX
8
CUT
10
14.450
20
74.320
0
VERTEX
8
CUT
10
13.810
20
74.810
0
VERTEX
8
CUT
10
13.320
20
75.450
0
VERTEX
8
CUT
10
13.010
20
76.200
0
VERTEX
8
CUT
10
12.900
20
77.000
0
VERTEX
8
CUT
10
13.010
20
77.800
0
VERTEX
8
CUT
10
13.320
20
78.550
0
VERTEX
8
CUT
10
13.810
20
79.190
0
VERTEX
8
CUT
10
14.450
20
79.680
0
VERTEX
8
CUT
10
15.200
20
79.990
0
VERTEX
8
CUT
10
16.000
20
80.100
0
VERTEX
8
CUT
10
16.800
20
79.990
0
VERTEX
8
CUT
10
17.550
20
79.680
0
VERTEX
8
CUT
10
18.190
20
79.190
0
VERTEX
8
CUT
10
18.680
20
78.550
0
VERTEX
8
CUT
10
18.990
20
77.800
0
VERTEX
8
CUT
10
19.100
20
77.000
0
SEQEND
8
CUT
0
POLYLINE
8
CUT
66
1
70
1
0
VERTEX
8
CUT
10
73.000
20
77.000
0
VERTEX
8
CUT
10
72.840
20
79.280
0
VERTEX
8
CUT
10
72.350
20
81.510
0
VERTEX
8
CUT
10
71.550
20
83.650
0
VERTEX
8
CUT
10
70.460
20
85.650
0
VERTEX
8
CUT
10
69.090
20
87.480
0
VERTEX
8
CUT
10
67.480
20
89.090
0
VERTEX
8
CUT
10
65.650
20
90.460
0
VERTEX
8
CUT
10
63.650
20
91.550
0
VERTEX
8
CUT
10
61.510
20
92.350
0
VERTEX
8
CUT
10
59.280
20
92.840
0
VERTEX
8
CUT
10
57.000
20
93.000
0
VERTEX
8
CUT
10
54.720
20
92.840
0
VERTEX
8
CUT
10
52.490
20
92.350
0
VERTEX
8
CUT
10
50.350
20
91.550
0
VERTEX
8
CUT
10
48.350
20
90.460
0
VERTEX
8
CUT
10
46.520
20
89.090
0
VERTEX
8
CUT
10
44.910
20
87.480
0
VERTEX
8
CUT
10
43.540
20
85.650
0
VERTEX
8
CUT
10
42.450
20
83.650
0
VERTEX
8
CUT
10
41.650
20
81.510
0
VERTEX
8
CUT
10
41.160
20
79.280
0
VERTEX
8
CUT
10
41.000
20
77.000
0
VERTEX
8
CUT
10
41.160
20
74.720
0
VERTEX
8
CUT
10
41.650
20
72.490
0
VERTEX
8
CUT
10
42.450
20
70.350
0
VERTEX
8
CUT
10
43.540
20
68.350
0
VERTEX
8
CUT
10
44.910
20
66.520
0
VERTEX
8
CUT
10
46.520
20
64.910
0
VERTEX
8
CUT
10
48.350
20
63.540
0
VERTEX
8
CUT
10
50.350
20
62.450
0
VERTEX
8
CUT
10
52.490
20
61.650
0
VERTEX
8
CUT
10
54.720
20
61.160
0
VERTEX
8
CUT
10
57.000
20
61.000
0
VERTEX
8
CUT
10
59.280
20
61.160
0
VERTEX
8
CUT
10
61.510
20
61.650
0
VERTEX
8
CUT
10
63.650
20
62.450
0
VERTEX
8
CUT
10
65.650
20
63.540
0
VERTEX
8
CUT
10
67.480
20
64.910
0
VERTEX
8
CUT
10
69.090
20
66.520
0
VERTEX
8
CUT
10
70.460
20
68.350
0
VERTEX
8
CUT
10
71.550
20
70.350
0
VERTEX
8
CUT
10
72.350
20
72.490
0
VERTEX
8
CUT
10
72.840
20
74.720
0
SEQEND
8
CUT
0
POLYLINE
8
CUT
66
1
70
1
0
VERTEX
8
CUT
10
53.990
20
76.200
0
VERTEX
8
CUT
10
53.680
20
75.450
0
VERTEX
8
CUT
10
53.190
20
74.810
0
VERTEX
8
CUT
10
52.550
20
74.320
0
VERTEX
8
CUT
10
51.800
20
74.010
0
VERTEX
8
CUT
10
51.000
20
73.900
0
VERTEX
8
CUT
10
50.200
20
74.010
0
VERTEX
8
CUT
10
49.450
20
74.320
0
VERTEX
8
CUT
10
48.810
20
74.810
0
VERTEX
8
CUT
10
48.320
20
75.450
0
VERTEX
8
CUT
10
48.010
20
76.200
0
VERTEX
8
CUT
10
47.900
20
77.000
0
VERTEX
8
CUT
10
48.010
20
77.800
0
VERTEX
8
CUT
10
48.320
20
78.550
0
VERTEX
8
CUT
10
48.810
20
79.190
0
VERTEX
8
CUT
10
49.450
20
79.680
0
VERTEX
8
CUT
10
50.200
20
79.990
0
VERTEX
8
CUT
10
51.000
20
80.100
0
VERTEX
8
CUT
10
51.800
20
79.990
0
VERTEX
8
CUT
10
52.550
20
79.680
0
VERTEX
8
CUT
10
53.190
20
79.190
0
VERTEX
8
CUT
10
53.680
20
78.550
0
VERTEX
8
CUT
10
53.990
20
77.800
0
VERTEX
8
CUT
10
54.100
20
77.000
0
SEQEND
8
CUT
0
POLYLINE
8
CUT
66
1
70
1
0
VERTEX
8
CUT
10
76.000
20
67.000
0
VERTEX
8
CUT
10
150.000
20
67.000
0
VERTEX
8
CUT
10
150.000
20
93.000
0
VERTEX
8
CUT
10
76.000
20
93.000
0
SEQEND
8
CUT
0
POLYLINE
8
CUT
66
1
70
1
0
VERTEX
8
CUT
10
6.000
20
32.000
0
VERTEX
8
CUT
10
80.000
20
32.000
0
VERTEX
8
CUT
10
80.000
20
58.000
0
VERTEX
8
CUT
10
6.000
20
58.000
0
SEQEND
8
CUT
0
POLYLINE
8
CUT
66
1
70
1
0
VERTEX
8
CUT
10
97.000
20
51.040
0
VERTEX
8
CUT
10
96.850
20
52.490
0
VERTEX
8
CUT
10
96.390
20
53.890
0
VERTEX
8
CUT
10
95.660
20
55.150
0
VERTEX
8
CUT
10
94.680
20
56.240
0
VERTEX
8
CUT
10
93.500
20
57.100
0
VERTEX
8
CUT
10
92.160
20
57.700
0
VERTEX
8
CUT
10
90.730
20
58.000
0
VERTEX
8
CUT
10
89.270
20
58.000
0
VERTEX
8
CUT
10
87.840
20
57.700
0
VERTEX
8
CUT
10
86.500
20
57.100
0
VERTEX
8
CUT
10
85.320
20
56.240
0
VERTEX
8
CUT
10
84.340
20
55.150
0
VERTEX
8
CUT
10
83.610
20
53.890
0
VERTEX
8
CUT
10
83.150
20
52.490
0
VERTEX
8
CUT
10
83.000
20
51.040
0
VERTEX
8
CUT
10
83.150
20
49.580
0
VERTEX
8
CUT
10
83.610
20
48.190
0
VERTEX
8
CUT
10
84.340
20
46.920
0
VERTEX
8
CUT
10
85.320
20
45.840
0
VERTEX
8
CUT
10
86.500
20
44.980
0
VERTEX
8
CUT
10
87.840
20
44.380
0
VERTEX
8
CUT
10
89.270
20
44.080
0
VERTEX
8
CUT
10
90.730
20
44.080
0
VERTEX
8
CUT
10
92.160
20
44.380
0
VERTEX
8
CUT
10
93.500
20
44.980
0
VERTEX
8
CUT
10
94.680
20
45.840
0
VERTEX
8
CUT
10
95.660
20
46.920
0
VERTEX
8
CUT
10
96.390
20
48.190
0
VERTEX
8
CUT
10
96.850
20
49.580
0
SEQEND
8
CUT
0
POLYLINE
8
CUT
66
1
70
1
0
VERTEX
8
CUT
10
92.990
20
50.240
0
VERTEX
8
CUT
10
92.680
20
49.490
0
VERTEX
8
CUT
10
92.190
20
48.850
0
VERTEX
8
CUT
10
91.550
20
48.350
0
VERTEX
8
CUT
10
90.800
20
48.040
0
VERTEX
8
CUT
10
90.000
20
47.940
0
VERTEX
8
CUT
10
89.200
20
48.040
0
VERTEX
8
CUT
10
88.450
20
48.350
0
VERTEX
8
CUT
10
87.810
20
48.850
0
VERTEX
8
CUT
10
87.320
20
49.490
0
VERTEX
8
CUT
10
87.010
20
50.240
0
VERTEX
8
CUT
10
86.900
20
51.040
0
VERTEX
8
CUT
10
87.010
20
51.840
0
VERTEX
8
CUT
10
87.320
20
52.590
0
VERTEX
8
CUT
10
87.810
20
53.230
0
VERTEX
8
CUT
10
88.450
20
53.720
0
VERTEX
8
CUT
10
89.200
20
54.030
0
VERTEX
8
CUT
10
90.000
20
54.140
0
VERTEX
8
CUT
10
90.800
20
54.030
0
VERTEX
8
CUT
10
91.550
20
53.720
0
VERTEX
8
CUT
10
92.190
20
53.230
0
VERTEX
8
CUT
10
92.680
20
52.590
0
VERTEX
8
CUT
10
92.990
20
51.840
0
VERTEX
8
CUT
10
93.100
20
51.040
0
SEQEND
8
CUT
0
POLYLINE
8
CUT
66
1
70
1
0
VERTEX
8
CUT
10
114.000
20
51.040
0
VERTEX
8
CUT
10
113.850
20
52.490
0
VERTEX
8
CUT
10
113.390
20
53.890
0
VERTEX
8
CUT
10
112.660
20
55.150
0
VERTEX
8
CUT
10
111.680
20
56.240
0
VERTEX
8
CUT
10
110.500
20
57.100
0
VERTEX
8
CUT
10
109.160
20
57.700
0
VERTEX
8
CUT
10
107.730
20
58.000
0
VERTEX
8
CUT
10
106.270
20
58.000
0
VERTEX
8
CUT
10
104.840
20
57.700
0
VERTEX
8
CUT
10
103.500
20
57.100
0
VERTEX
8
CUT
10
102.320
20
56.240
0
VERTEX
8
CUT
10
101.340
20
55.150
0
VERTEX
8
CUT
10
100.610
20
53.890
0
VERTEX
8
CUT
10
100.150
20
52.490
0
VERTEX
8
CUT
10
100.000
20
51.040
0
VERTEX
8
CUT
10
100.150
20
49.580
0
VERTEX
8
CUT
10
100.610
20
48.190
0
VERTEX
8
CUT
10
101.340
20
46.920
0
VERTEX
8
CUT
10
102.320
20
45.840
0
VERTEX
8
CUT
10
103.500
20
44.980
0
VERTEX
8
CUT
10
104.840
20
44.380
0
VERTEX
8
CUT
10
106.270
20
44.080
0
VERTEX
8
CUT
10
107.730
20
44.080
0
VERTEX
8
CUT
10
109.160
20
44.380
0
VERTEX
8
CUT
10
110.500
20
44.980
0
VERTEX
8
CUT
10
111.680
20
45.840
0
VERTEX
8
CUT
10
112.660
20
46.920
0
VERTEX
8
CUT
10
113.390
20
48.190
0
VERTEX
8
CUT
10
113.850
20
49.580
0
SEQEND
8
CUT
0
POLYLINE
8
CUT
66
1
70
1
0
VERTEX
8
CUT
10
109.990
20
50.240
0
VERTEX
8
CUT
10
109.680
20
49.490
0
VERTEX
8
CUT
10
109.190
20
48.850
0
VERTEX
8
CUT
10
108.550
20
48.350
0
VERTEX
8
CUT
10
107.800
20
48.040
0
VERTEX
8
CUT
10
107.000
20
47.940
0
VERTEX
8
CUT
10
106.200
20
48.040
0
VERTEX
8
CUT
10
105.450
20
48.350
0
VERTEX
8
CUT
10
104.810
20
48.850
0
VERTEX
8
CUT
10
104.320
20
49.490
0
VERTEX
8
CUT
10
104.010
20
50.240
0
VERTEX
8
CUT
10
103.900
20
51.040
0
VERTEX
8
CUT
10
104.010
20
51.840
0
VERTEX
8
CUT
10
104.320
20
52.590
0
VERTEX
8
CUT
10
104.810
20
53.230
0
VERTEX
8
CUT
10
105.450
20
53.720
0
VERTEX
8
CUT
10
106.200
20
54.030
0
VERTEX
8
CUT
10
107.000
20
54.140
0
VERTEX
8
CUT
10
107.800
20
54.030
0
VERTEX
8
CUT
10
108.550
20
53.720
0
VERTEX
8
CUT
10
109.190
20
53.230
0
VERTEX
8
CUT
10
109.680
20
52.590
0
VERTEX
8
CUT
10
109.990
20
51.840
0
VERTEX
8
CUT
10
110.100
20
51.040
0
SEQEND
8
CUT
0
POLYLINE
8
CUT
66
1
70
1
0
VERTEX
8
CUT
10
117.000
20
46.500
0
VERTEX
8
CUT
10
133.600
20
46.500
0
VERTEX
8
CUT
10
133.600
20
58.000
0
VERTEX
8
CUT
10
117.000
20
58.000
0
SEQEND
8
CUT
0
POLYLINE
8
CUT
66
1
70
1
0
VERTEX
8
CUT
10
136.600
20
46.500
0
VERTEX
8
CUT
10
153.200
20
46.500
0
VERTEX
8
CUT
10
153.200
20
58.000
0
VERTEX
8
CUT
10
136.600
20
58.000
0
SEQEND
8
CUT
0
POLYLINE
8
CUT
66
1
70
1
0
VERTEX
8
CUT
10
156.200
20
46.500
0
VERTEX
8
CUT
10
168.800
20
46.500
0
VERTEX
8
CUT
10
168.800
20
58.000
0
VERTEX
8
CUT
10
156.200
20
58.000
0
SEQEND
8
CUT
0
POLYLINE
8
CUT
66
1
70
1
0
VERTEX
8
CUT
10
171.800
20
46.500
0
VERTEX
8
CUT
10
184.400
20
46.500
0
VERTEX
8
CUT
10
184.400
20
58.000
0
VERTEX
8
CUT
10
171.800
20
58.000
0
SEQEND
8
CUT
0
ENDSEC
0
EOF
