0
SECTION
2
ENTITIES
0
POLYLINE
8
CUT
66
1
70
1
0
VERTEX
8
CUT
10
6.000
20
265.000
0
VERTEX
8
CUT
10
80.000
20
265.000
0
VERTEX
8
CUT
10
80.000
20
291.000
0
VERTEX
8
CUT
10
6.000
20
291.000
0
SEQEND
8
CUT
0
POLYLINE
8
CUT
66
1
70
1
0
VERTEX
8
CUT
10
83.000
20
265.000
0
VERTEX
8
CUT
10
157.000
20
265.000
0
VERTEX
8
CUT
10
157.000
20
291.000
0
VERTEX
8
CUT
10
83.000
20
291.000
0
SEQEND
8
CUT
0
POLYLINE
8
CUT
66
1
70
1
0
VERTEX
8
CUT
10
174.000
20
284.040
0
VERTEX
8
CUT
10
173.850
20
285.490
0
VERTEX
8
CUT
10
173.390
20
286.890
0
VERTEX
8
CUT
10
172.660
20
288.150
0
VERTEX
8
CUT
10
171.680
20
289.240
0
VERTEX
8
CUT
10
170.500
20
290.100
0
VERTEX
8
CUT
10
169.160
20
290.700
0
VERTEX
8
CUT
10
167.730
20
291.000
0
VERTEX
8
CUT
10
166.270
20
291.000
0
VERTEX
8
CUT
10
164.840
20
290.700
0
VERTEX
8
CUT
10
163.500
20
290.100
0
VERTEX
8
CUT
10
162.320
20
289.240
0
VERTEX
8
CUT
10
161.340
20
288.150
0
VERTEX
8
CUT
10
160.610
20
286.890
0
VERTEX
8
CUT
10
160.150
20
285.490
0
VERTEX
8
CUT
10
160.000
20
284.040
0
VERTEX
8
CUT
10
160.150
20
282.580
0
VERTEX
8
CUT
10
160.610
20
281.190
0
VERTEX
8
CUT
10
161.340
20
279.920
0
VERTEX
8
CUT
10
162.320
20
278.840
0
VERTEX
8
CUT
10
163.500
20
277.980
0
VERTEX
8
CUT
10
164.840
20
277.380
0
VERTEX
8
CUT
10
166.270
20
277.080
0
VERTEX
8
CUT
10
167.730
20
277.080
0
VERTEX
8
CUT
10
169.160
20
277.380
0
VERTEX
8
CUT
10
170.500
20
277.980
0
VERTEX
8
CUT
10
171.680
20
278.840
0
VERTEX
8
CUT
10
172.660
20
279.920
0
VERTEX
8
CUT
10
173.390
20
281.190
0
VERTEX
8
CUT
10
173.850
20
282.580
0
SEQEND
8
CUT
0
POLYLINE
8
CUT
66
1
70
1
0
VERTEX
8
CUT
10
169.990
20
283.240
0
VERTEX
8
CUT
10
169.680
20
282.490
0
VERTEX
8
CUT
10
169.190
20
281.850
0
VERTEX
8
CUT
10
168.550
20
281.350
0
VERTEX
8
CUT
10
167.800
20
281.040
0
VERTEX
8
CUT
10
167.000
20
280.940
0
VERTEX
8
CUT
10
166.200
20
281.040
0
VERTEX
8
CUT
10
165.450
20
281.350
0
VERTEX
8
CUT
10
164.810
20
281.850
0
VERTEX
8
CUT
10
164.320
20
282.490
0
VERTEX
8
CUT
10
164.010
20
283.240
0
VERTEX
8
CUT
10
163.900
20
284.040
0
VERTEX
8
CUT
10
164.010
20
284.840
0
VERTEX
8
CUT
10
164.320
20
285.590
0
VERTEX
8
CUT
10
164.810
20
286.230
0
VERTEX
8
CUT
10
165.450
20
286.720
0
VERTEX
8
CUT
10
166.200
20
287.030
0
VERTEX
8
CUT
10
167.000
20
287.140
0
VERTEX
8
CUT
10
167.800
20
287.030
0
VERTEX
8
CUT
10
168.550
20
286.720
0
VERTEX
8
CUT
10
169.190
20
286.230
0
VERTEX
8
CUT
10
169.680
20
285.590
0
VERTEX
8
CUT
10
169.990
20
284.840
0
VERTEX
8
CUT
10
170.100
20
284.040
0
SEQEND
8
CUT
0
POLYLINE
8
CUT
66
1
70
1
0
VERTEX
8
CUT
10
191.000
20
284.040
0
VERTEX
8
CUT
10
190.850
20
285.490
0
VERTEX
8
CUT
10
190.390
20
286.890
0
VERTEX
8
CUT
10
189.660
20
288.150
0
VERTEX
8
CUT
10
188.680
20
289.240
0
VERTEX
8
CUT
10
187.500
20
290.100
0
VERTEX
8
CUT
10
186.160
20
290.700
0
VERTEX
8
CUT
10
184.730
20
291.000
0
VERTEX
8
CUT
10
183.270
20
291.000
0
VERTEX
8
CUT
10
181.840
20
290.700
0
VERTEX
8
CUT
10
180.500
20
290.100
0
VERTEX
8
CUT
10
179.320
20
289.240
0
VERTEX
8
CUT
10
178.340
20
288.150
0
VERTEX
8
CUT
10
177.610
20
286.890
0
VERTEX
8
CUT
10
177.150
20
285.490
0
VERTEX
8
CUT
10
177.000
20
284.040
0
VERTEX
8
CUT
10
177.150
20
282.580
0
VERTEX
8
CUT
10
177.610
20
281.190
0
VERTEX
8
CUT
10
178.340
20
279.920
0
VERTEX
8
CUT
10
179.320
20
278.840
0
VERTEX
8
CUT
10
180.500
20
277.980
0
VERTEX
8
CUT
10
181.840
20
277.380
0
VERTEX
8
CUT
10
183.270
20
277.080
0
VERTEX
8
CUT
10
184.730
20
277.080
0
VERTEX
8
CUT
10
186.160
20
277.380
0
VERTEX
8
CUT
10
187.500
20
277.980
0
VERTEX
8
CUT
10
188.680
20
278.840
0
VERTEX
8
CUT
10
189.660
20
279.920
0
VERTEX
8
CUT
10
190.390
20
281.190
0
VERTEX
8
CUT
10
190.850
20
282.580
0
SEQEND
8
CUT
0
POLYLINE
8
CUT
66
1
70
1
0
VERTEX
8
CUT
10
186.990
20
283.240
0
VERTEX
8
CUT
10
186.680
20
282.490
0
VERTEX
8
CUT
10
186.190
20
281.850
0
VERTEX
8
CUT
10
185.550
20
281.350
0
VERTEX
8
CUT
10
184.800
20
281.040
0
VERTEX
8
CUT
10
184.000
20
280.940
0
VERTEX
8
CUT
10
183.200
20
281.040
0
VERTEX
8
CUT
10
182.450
20
281.350
0
VERTEX
8
CUT
10
181.810
20
281.850
0
VERTEX
8
CUT
10
181.320
20
282.490
0
VERTEX
8
CUT
10
181.010
20
283.240
0
VERTEX
8
CUT
10
180.900
20
284.040
0
VERTEX
8
CUT
10
181.010
20
284.840
0
VERTEX
8
CUT
10
181.320
20
285.590
0
VERTEX
8
CUT
10
181.810
20
286.230
0
VERTEX
8
CUT
10
182.450
20
286.720
0
VERTEX
8
CUT
10
183.200
20
287.030
0
VERTEX
8
CUT
10
184.000
20
287.140
0
VERTEX
8
CUT
10
184.800
20
287.030
0
VERTEX
8
CUT
10
185.550
20
286.720
0
VERTEX
8
CUT
10
186.190
20
286.230
0
VERTEX
8
CUT
10
186.680
20
285.590
0
VERTEX
8
CUT
10
186.990
20
284.840
0
VERTEX
8
CUT
10
187.100
20
284.040
0
SEQEND
8
CUT
0
POLYLINE
8
CUT
66
1
70
1
0
VERTEX
8
CUT
10
6.000
20
250.500
0
VERTEX
8
CUT
10
22.600
20
250.500
0
VERTEX
8
CUT
10
22.600
20
262.000
0
VERTEX
8
CUT
10
6.000
20
262.000
0
SEQEND
8
CUT
0
POLYLINE
8
CUT
66
1
70
1
0
VERTEX
8
CUT
10
25.600
20
250.500
0
VERTEX
8
CUT
10
42.200
20
250.500
0
VERTEX
8
CUT
10
42.200
20
262.000
0
VERTEX
8
CUT
10
25.600
20
262.000
0
SEQEND
8
CUT
0
POLYLINE
8
CUT
66
1
70
1
0
VERTEX
8
CUT
10
45.200
20
250.500
0
VERTEX
8
CUT
10
57.800
20
250.500
0
VERTEX
8
CUT
10
57.800
20
262.000
0
VERTEX
8
CUT
10
45.200
20
262.000
0
SEQEND
8
CUT
0
POLYLINE
8
CUT
66
1
70
1
0
VERTEX
8
CUT
10
60.800
20
250.500
0
VERTEX
8
CUT
10
73.400
20
250.500
0
VERTEX
8
CUT
10
73.400
20
262.000
0
VERTEX
8
CUT
10
60.800
20
262.000
0
SEQEND
8
CUT
0
ENDSEC
0
EOF
